<?xml version="1.0" standalone="no"?>
<!DOCTYPE svg PUBLIC "-//W3C//DTD SVG 1.1//EN" "http://www.w3.org/Graphics/SVG/1.1/DTD/svg11.dtd" >
<svg xmlns="http://www.w3.org/2000/svg" xmlns:xlink="http://www.w3.org/1999/xlink" version="1.1">
<metadata>
Created by FontForge 20170731 at Fri Jul 14 20:38:05 2023
 By Aleksey,,,
(c) 2012-2019, Copyright by Lineto GmbH. All rights reserved.
</metadata>
<defs>
<font id="Unica_77LL-Regular" horiz-adv-x="1290" >
  <font-face 
    font-family="Unica 77 LL"
    font-weight="400"
    font-stretch="normal"
    units-per-em="2048"
    panose-1="2 11 5 4 1 1 1 1 1 4"
    ascent="1638"
    descent="-410"
    x-height="1057"
    cap-height="1487"
    bbox="-887 -522 2857 2079"
    underline-thickness="102"
    underline-position="-409"
    unicode-range="U+000D-FEFF"
  />
<missing-glyph horiz-adv-x="1333" 
d="M1155 0h-977v1487h977v-1487zM295 109h743v1269h-743v-1269z" />
    <glyph glyph-name="f_f" unicode="ff" horiz-adv-x="1224" 
d="M223 0v901h-194v156h194v53q0 159 29 231q62 158 266 158q73 0 125 -12v-156q-41 8 -90 8q-38 0 -63.5 -10t-41 -26.5t-23.5 -48t-10.5 -66t-2.5 -88.5v-43h368v53q0 159 29 231q62 158 266 158q73 0 125 -12v-156q-41 8 -90 8q-38 0 -63.5 -10t-41 -26.5t-23.5 -48
t-10.5 -66t-2.5 -88.5v-43h231v-156h-231v-901h-189v901h-368v-901h-189z" />
    <glyph glyph-name="f_f_i" unicode="ffi" horiz-adv-x="1677" 
d="M1335 0v1057h189v-1057h-189zM1335 1282v205h189v-205h-189zM223 0v901h-194v156h194v53q0 159 29 231q62 158 266 158q73 0 125 -12v-156q-41 8 -90 8q-38 0 -63.5 -10t-41 -26.5t-23.5 -48t-10.5 -66t-2.5 -88.5v-43h368v53q0 159 29 231q62 158 266 158q73 0 125 -12
v-156q-41 8 -90 8q-38 0 -63.5 -10t-41 -26.5t-23.5 -48t-10.5 -66t-2.5 -88.5v-43h231v-156h-231v-901h-189v901h-368v-901h-189z" />
    <glyph glyph-name="f_f_l" unicode="ffl" horiz-adv-x="1677" 
d="M1335 0v1487h189v-1487h-189zM223 0v901h-194v156h194v53q0 159 29 231q62 158 266 158q73 0 125 -12v-156q-41 8 -90 8q-38 0 -63.5 -10t-41 -26.5t-23.5 -48t-10.5 -66t-2.5 -88.5v-43h368v53q0 159 29 231q62 158 266 158q73 0 125 -12v-156q-41 8 -90 8
q-38 0 -63.5 -10t-41 -26.5t-23.5 -48t-10.5 -66t-2.5 -88.5v-43h231v-156h-231v-901h-189v901h-368v-901h-189z" />
    <glyph glyph-name="f_i" unicode="fi" horiz-adv-x="1112" 
d="M223 0v901h-194v156h194v53q0 159 29 231q62 158 266 158q73 0 125 -12v-156q-41 8 -90 8q-38 0 -63.5 -10t-41 -26.5t-23.5 -48t-10.5 -66t-2.5 -88.5v-43h231v-156h-231v-901h-189zM770 0v1057h188v-1057h-188zM770 1282v205h188v-205h-188z" />
    <glyph glyph-name="f_l" unicode="fl" horiz-adv-x="1112" 
d="M223 0v901h-194v156h194v53q0 159 29 231q62 158 266 158q73 0 125 -12v-156q-41 8 -90 8q-38 0 -63.5 -10t-41 -26.5t-23.5 -48t-10.5 -66t-2.5 -88.5v-43h231v-156h-231v-901h-189zM770 0v1487h188v-1487h-188z" />
    <glyph glyph-name=".notdef" horiz-adv-x="1333" 
d="M1155 0h-977v1487h977v-1487zM295 109h743v1269h-743v-1269z" />
    <glyph glyph-name=".null" horiz-adv-x="0" 
 />
    <glyph glyph-name=".null" horiz-adv-x="0" 
 />
    <glyph glyph-name="uni000D" unicode="&#xd;" horiz-adv-x="409" 
 />
    <glyph glyph-name="space" unicode=" " horiz-adv-x="409" 
 />
    <glyph glyph-name="exclam" unicode="!" horiz-adv-x="536" 
d="M160 233h217v-233h-217v233zM156 1487h223l-37 -1084h-149z" />
    <glyph glyph-name="quotedbl" unicode="&#x22;" horiz-adv-x="786" 
d="M96 1399h246l-57 -584h-129zM444 1399h246l-57 -584h-129z" />
    <glyph glyph-name="numbersign" unicode="#" horiz-adv-x="1245" 
d="M651 418h-223l-119 -418h-147l119 418h-228l31 114h229l101 355h-234l31 114h235l115 398h150l-115 -398h223l117 398h145l-114 -398h225l-31 -114h-227l-103 -355h234l-31 -114h-235l-121 -418h-148zM461 532h223l102 355h-223z" />
    <glyph glyph-name="dollar" unicode="$" horiz-adv-x="1179" 
d="M522 -207v193q-205 20 -321 141.5t-127 327.5h194q8 -131 75 -212t179 -96v480l-43 14q-65 21 -115 42.5t-102 54.5t-85.5 72.5t-55 95.5t-21.5 124q0 159 120 265t312 118v168h127v-168q186 -15 300 -126.5t124 -297.5h-192q-10 112 -74.5 178t-157.5 82v-463l50 -16
q51 -17 84 -29.5t79 -33.5t75.5 -41t62.5 -50.5t52 -64t31.5 -78.5t12.5 -98q0 -167 -124 -273t-333 -120v-189h-127zM295 1042q0 -90 61 -142.5t176 -86.5v440q-101 -5 -169 -62t-68 -149zM905 362q0 167 -256 240v-457q119 5 187.5 61.5t68.5 155.5z" />
    <glyph glyph-name="percent" unicode="%" horiz-adv-x="1843" 
d="M391 1421q148 0 231 -113t83 -317q0 -201 -88.5 -309.5t-231.5 -108.5q-146 0 -229.5 109t-83.5 309q0 201 87.5 315.5t231.5 114.5zM391 1319q-82 0 -125 -86t-43 -242q0 -152 43.5 -234.5t124.5 -82.5q78 0 121 83t43 234q0 154 -43 241t-121 87zM1227 1427h133
l-756 -1456h-131zM1458 825q148 0 231 -113t83 -317q0 -201 -88.5 -309.5t-231.5 -108.5q-146 0 -229.5 109t-83.5 309q0 201 87.5 315.5t231.5 114.5zM1458 723q-82 0 -125 -86t-43 -242q0 -152 43.5 -234.5t124.5 -82.5q78 0 121 83t43 234q0 154 -43 241t-121 87z" />
    <glyph glyph-name="ampersand" unicode="&#x26;" horiz-adv-x="1443" 
d="M1327 772q-32 -259 -160 -469l281 -303h-258l-141 154q-188 -185 -453 -185q-145 0 -262.5 54t-184.5 150.5t-67 217.5q0 138 80.5 242t247.5 192q-94 94 -136.5 176t-42.5 183q0 145 113 239.5t287 94.5q168 0 280.5 -91t112.5 -225q0 -117 -72 -215t-233 -192l323 -355
q61 133 86 332h199zM612 131q193 0 326 143l-399 441q-242 -109 -242 -312q0 -124 86.5 -198t228.5 -74zM598 891q223 127 223 285q0 82 -53.5 134t-140.5 52q-83 0 -139 -51.5t-56 -128.5q0 -65 44 -143t122 -148z" />
    <glyph glyph-name="quotesingle" unicode="'" horiz-adv-x="438" 
d="M96 1399h246l-57 -584h-129z" />
    <glyph glyph-name="parenleft" unicode="(" horiz-adv-x="552" 
d="M342 -217q-252 455 -252 876q0 360 254 857h145q-59 -137 -93 -225.5t-67.5 -198t-48 -214t-14.5 -219.5q0 -413 223 -876h-147z" />
    <glyph glyph-name="parenright" unicode=")" horiz-adv-x="552" 
d="M63 -217q224 465 224 876q0 115 -14.5 219.5t-48.5 214.5t-67.5 197.5t-93.5 225.5h146q254 -497 254 -857q0 -421 -252 -876h-148z" />
    <glyph glyph-name="asterisk" unicode="*" horiz-adv-x="825" 
d="M123 1339l244 -125l-37 273h172l-41 -273l241 125l58 -170l-271 -43l189 -196l-143 -101l-125 246l-123 -246l-144 101l187 196l-262 43z" />
    <glyph glyph-name="plus" unicode="+" 
d="M156 473v158h401v426h172v-426h404v-158h-404v-426h-172v426h-401z" />
    <glyph glyph-name="comma" unicode="," horiz-adv-x="462" 
d="M233 -283h-122l96 301h-96v226h239v-244z" />
    <glyph glyph-name="hyphen" unicode="-" horiz-adv-x="792" 
d="M125 666h543v-166h-543v166z" />
    <glyph glyph-name="period" unicode="." horiz-adv-x="460" 
d="M113 244h235v-244h-235v244z" />
    <glyph glyph-name="slash" unicode="/" horiz-adv-x="780" 
d="M211 0h-164l528 1487h162z" />
    <glyph glyph-name="zero" unicode="0" horiz-adv-x="1232" 
d="M614 1430q239 0 375.5 -190.5t136.5 -539.5q0 -356 -135.5 -543.5t-376.5 -187.5q-239 0 -374.5 190.5t-135.5 540.5t135.5 540t374.5 190zM614 1274q-309 0 -309 -574q0 -279 76.5 -427t232.5 -148q155 0 232.5 148.5t77.5 426.5q0 574 -310 574z" />
    <glyph glyph-name="one" unicode="1" horiz-adv-x="724" 
d="M358 1016h-311v133q175 9 251 64.5t89 185.5h160v-1399h-189v1016z" />
    <glyph glyph-name="two" unicode="2" horiz-adv-x="1132" 
d="M98 0v59q0 100 29 195.5t80 159.5q90 114 313 252q175 108 243 187t68 183q0 112 -71 175t-189 63q-133 0 -205.5 -81t-78.5 -239h-191q3 223 138 349.5t354 126.5q200 0 320 -113.5t120 -290.5q0 -137 -84 -246t-287 -237q-125 -79 -174.5 -117t-89.5 -82
q-36 -39 -56 -80t-26 -98h725v-166h-938z" />
    <glyph glyph-name="three" unicode="3" horiz-adv-x="1196" 
d="M291 442q0 -149 80 -233t223 -84q129 0 212 74t83 188q0 117 -81 182.5t-226 65.5h-66v158h45q149 0 230 62.5t81 178.5q0 110 -75 175t-201 65q-136 0 -213.5 -77.5t-81.5 -219.5h-195q9 216 141 334.5t359 118.5q207 0 336 -105.5t129 -273.5q0 -114 -72 -206
t-182 -120v-10q133 -32 203 -120t70 -220q0 -178 -143.5 -292t-362.5 -114q-228 0 -361 128.5t-133 344.5h201z" />
    <glyph glyph-name="four" unicode="4" horiz-adv-x="1185" 
d="M1133 354h-252v-354h-191v354h-641v156l613 889h219v-883h252v-162zM250 516h450v277q0 251 11 391l-15 2q-51 -92 -135 -215z" />
    <glyph glyph-name="five" unicode="5" horiz-adv-x="1163" 
d="M190 1399h805v-164h-647l-49 -444q75 78 149.5 112.5t176.5 34.5q199 0 327.5 -134t128.5 -341q0 -216 -140 -355t-359 -139q-202 0 -332.5 108.5t-155.5 295.5h197q13 -115 91.5 -181.5t197.5 -66.5q137 0 220 89t83 239q0 145 -82.5 237t-212.5 92q-103 0 -174.5 -50
t-100.5 -144l-200 18z" />
    <glyph glyph-name="six" unicode="6" horiz-adv-x="1198" 
d="M883 1044q-12 113 -75 171.5t-171 58.5q-157 0 -247.5 -139t-90.5 -375v-51q119 206 356 206q88 0 167.5 -31.5t141 -89t98 -145.5t36.5 -194q0 -222 -139.5 -354t-354.5 -132q-239 0 -369.5 186.5t-130.5 524.5q0 352 140.5 551t392.5 199q192 0 309 -101.5t137 -284.5
h-200zM629 760q-128 0 -212.5 -88t-84.5 -221q0 -142 84.5 -235t212.5 -93q122 0 199 90.5t77 232.5q0 141 -75 227.5t-201 86.5z" />
    <glyph glyph-name="seven" unicode="7" horiz-adv-x="1042" 
d="M279 0q113 550 505 1233h-737v166h944v-142q-188 -330 -313.5 -631.5t-188.5 -625.5h-210z" />
    <glyph glyph-name="eight" unicode="8" horiz-adv-x="1208" 
d="M606 -31q-224 0 -365 113.5t-141 290.5q0 279 293 348v10q-122 27 -188 111.5t-66 206.5q0 171 128.5 276t338.5 105q207 0 335 -105.5t128 -275.5q0 -122 -65.5 -206.5t-188.5 -111.5v-10q293 -69 293 -348q0 -177 -140.5 -290.5t-361.5 -113.5zM606 121
q134 0 217.5 74.5t83.5 189.5q0 118 -82.5 189t-218.5 71q-137 0 -220 -71t-83 -189q0 -115 84 -189.5t219 -74.5zM606 803q124 0 198.5 64.5t74.5 172.5q0 107 -74 172.5t-199 65.5q-126 0 -201 -65.5t-75 -172.5q0 -108 75.5 -172.5t200.5 -64.5z" />
    <glyph glyph-name="nine" unicode="9" horiz-adv-x="1189" 
d="M301 350q15 -108 86 -166.5t182 -58.5q155 0 237.5 134t82.5 378v80q-114 -193 -342 -193q-203 0 -328 123t-125 328q0 197 140.5 326t345.5 129q247 0 375 -184t128 -525q0 -361 -131 -556.5t-377 -195.5q-199 0 -324 101t-142 280h192zM565 1276q-124 0 -203 -84.5
t-79 -216.5q0 -128 77.5 -212.5t198.5 -84.5q127 0 212 84t85 209q0 132 -83.5 218.5t-207.5 86.5z" />
    <glyph glyph-name="colon" unicode=":" horiz-adv-x="485" 
d="M125 244h235v-244h-235v244zM125 1057h235v-244h-235v244z" />
    <glyph glyph-name="semicolon" unicode=";" horiz-adv-x="491" 
d="M248 -283h-123l96 301h-96v226h240v-244zM129 1057h236v-244h-236v244z" />
    <glyph glyph-name="less" unicode="&#x3c;" 
d="M154 629l962 436v-174l-788 -340l788 -350v-172l-962 440v160z" />
    <glyph glyph-name="equal" unicode="=" 
d="M158 293v160h977v-160h-977zM158 676v160h977v-160h-977z" />
    <glyph glyph-name="greater" unicode="&#x3e;" 
d="M1137 469l-963 -440v172l789 350l-789 340v174l963 -436v-160z" />
    <glyph glyph-name="question" unicode="?" horiz-adv-x="1048" 
d="M377 0v221h221v-221h-221zM393 389v37q0 157 46 241.5t206 223.5q133 114 133 239q0 113 -71.5 173.5t-178.5 60.5q-53 0 -101.5 -17.5t-88.5 -53t-64 -96.5t-24 -140h-197q1 89 28.5 165.5t75 130t110 91.5t132 56t142.5 18q68 0 132 -15t121 -46.5t100 -76t68 -108.5
t25 -139q0 -107 -50.5 -186t-143.5 -161q-54 -48 -83 -76.5t-65.5 -75.5t-53 -98.5t-16.5 -111.5v-35h-182z" />
    <glyph glyph-name="at" unicode="@" horiz-adv-x="1810" 
d="M924 961q-72 0 -131.5 -61t-91 -151t-31.5 -182q0 -112 43 -173.5t112 -61.5q64 0 116 45.5t82 115t46 143t16 138.5q0 78 -41.5 132.5t-119.5 54.5zM1520 -61q-140 -82 -305.5 -129.5t-315.5 -47.5q-167 0 -314 57t-259 162.5t-177 266.5t-65 356q0 179 64 338
t178 275.5t281.5 184.5t365.5 68q124 0 238.5 -27.5t214 -84.5t173 -139t116 -198t42.5 -253q0 -266 -134.5 -417.5t-340.5 -151.5q-30 0 -59.5 6t-64.5 21t-58.5 49t-28.5 83q-67 -94 -132 -126.5t-142 -32.5q-139 0 -217 90t-78 278q0 138 51.5 256.5t146 191t211.5 72.5
q179 0 228 -129l20 99h170q-117 -437 -117 -598q0 -64 28.5 -94.5t74.5 -30.5q53 0 103 27t91.5 78.5t67 137t25.5 193.5q0 109 -35 202t-96.5 159t-144 113t-177.5 70t-197 23q-200 0 -361.5 -89t-256 -254t-94.5 -376q0 -129 36.5 -244t100.5 -200.5t149 -147.5t185.5 -94
t206.5 -32q130 0 268.5 41.5t257.5 113.5z" />
    <glyph glyph-name="A" unicode="A" horiz-adv-x="1425" 
d="M6 0l604 1487h203l610 -1487h-219l-172 432h-651l-162 -432h-213zM446 596h527l-142 383q-7 19 -51 135.5t-65 177.5h-8q-77 -221 -111 -309z" />
    <glyph glyph-name="B" unicode="B" horiz-adv-x="1323" 
d="M178 0v1487h438q52 0 89.5 -1t88 -5.5t88 -12t81 -22t74.5 -34t62 -49.5t49.5 -67.5t30 -88t11.5 -111.5q0 -114 -67.5 -207t-188.5 -125v-4q147 -34 221 -116.5t74 -233.5q0 -75 -20 -136t-53.5 -103t-83.5 -73.5t-102.5 -49.5t-119 -29.5t-124.5 -15t-126 -3.5h-422z
M379 162h223q78 0 132 4t112.5 19t94 41.5t58.5 73.5t23 114q0 63 -17 108t-49.5 74t-88.5 46t-124.5 23.5t-167.5 6.5h-196v-510zM379 834h186h59.5t61 2.5t64.5 6.5t60 12t58 20t47.5 30.5t40 42.5t24 56.5t9.5 72.5q0 48 -11 85t-29 63t-48 44t-61 28.5t-75.5 16.5
t-83.5 7.5t-93 1.5h-209v-489z" />
    <glyph glyph-name="C" unicode="C" horiz-adv-x="1433" 
d="M768 -31q-161 0 -290 60t-211.5 166t-126.5 245.5t-44 302.5q0 218 76.5 391.5t230 278.5t361.5 105q253 0 413.5 -143.5t184.5 -373.5h-207q-26 169 -128 263t-263 94q-207 0 -333 -169t-126 -446q0 -276 128 -445t335 -169q157 0 260 98t131 267h209
q-36 -232 -196.5 -378.5t-403.5 -146.5z" />
    <glyph glyph-name="D" unicode="D" horiz-adv-x="1454" 
d="M178 0v1487h430q302 0 461 -109q140 -97 214.5 -263t74.5 -372q0 -202 -79.5 -365.5t-221.5 -262.5q-88 -60 -195.5 -87.5t-253.5 -27.5h-430zM379 164h203q266 0 393 112q81 70 126.5 194t45.5 273q0 150 -42 275.5t-122 195.5q-124 109 -401 109h-203v-1159z" />
    <glyph glyph-name="E" unicode="E" horiz-adv-x="1224" 
d="M178 0v1487h926v-166h-725v-477h692v-168h-692v-510h760v-166h-961z" />
    <glyph glyph-name="F" unicode="F" horiz-adv-x="1177" 
d="M178 0v1487h940v-166h-739v-502h690v-166h-690v-653h-201z" />
    <glyph glyph-name="G" unicode="G" horiz-adv-x="1478" 
d="M733 -25q-161 0 -284.5 59t-199.5 164.5t-114.5 243t-38.5 301.5q0 162 46 302.5t131 246t213.5 166t285.5 60.5q247 0 400 -127.5t182 -335.5h-207q-26 143 -125 223t-250 80q-208 0 -337.5 -169.5t-129.5 -445.5q0 -277 122 -442.5t329 -165.5q182 0 293.5 129.5
t113.5 337.5h-364v168h559v-770h-176v61q0 90 6 129l-10 5q-73 -106 -187 -163t-258 -57z" />
    <glyph glyph-name="H" unicode="H" horiz-adv-x="1525" 
d="M178 0v1487h201v-637h766v637h203v-1487h-203v684h-766v-684h-201z" />
    <glyph glyph-name="I" unicode="I" horiz-adv-x="557" 
d="M178 0v1487h201v-1487h-201z" />
    <glyph glyph-name="J" unicode="J" horiz-adv-x="741" 
d="M199 -16q-84 0 -168 16v172q59 -12 135 -12q117 0 163 68t46 251v1008h200v-1030q0 -242 -86 -357.5t-290 -115.5z" />
    <glyph glyph-name="K" unicode="K" horiz-adv-x="1269" 
d="M178 0v1487h201v-664l614 664h238l-651 -684l704 -803h-258l-647 756v-756h-201z" />
    <glyph glyph-name="L" unicode="L" horiz-adv-x="1132" 
d="M178 0v1487h201v-1319h727v-168h-928z" />
    <glyph glyph-name="M" unicode="M" horiz-adv-x="1900" 
d="M178 0v1487h309l365 -959q62 -162 104 -309h11q31 133 94 309l350 959h311v-1487h-188v850q0 76 3.5 226t4.5 220h-10l-475 -1296h-217l-478 1296h-10q0 -16 5 -194.5t5 -251.5v-850h-184z" />
    <glyph glyph-name="N" unicode="N" horiz-adv-x="1533" 
d="M178 0v1487h275q609 -1056 718 -1278h11q-13 351 -13 536v742h187v-1487h-271q-623 1092 -727 1296h-10q14 -387 14 -555v-741h-184z" />
    <glyph glyph-name="O" unicode="O" horiz-adv-x="1562" 
d="M780 -31q-205 0 -361 97.5t-239.5 273t-83.5 403.5q0 227 83.5 403t239.5 274t361 98t361.5 -98t240.5 -274t84 -403q0 -350 -187.5 -562t-498.5 -212zM780 129q143 0 252 80t167 219t58 315t-58 315t-167 219.5t-252 80.5q-142 0 -250.5 -80.5t-166.5 -219.5t-58 -315
t58 -315t166.5 -219t250.5 -80z" />
    <glyph glyph-name="P" unicode="P" horiz-adv-x="1280" 
d="M178 0v1487h451q86 0 135 -2t126 -17.5t136 -46.5q96 -50 147.5 -152t51.5 -231q0 -130 -53.5 -227.5t-147.5 -153.5q-117 -71 -408 -71h-237v-586h-201zM379 750h258q181 0 240 30q68 35 104.5 104t36.5 154t-36.5 153t-104.5 103q-55 29 -240 29h-258v-573z" />
    <glyph glyph-name="Q" unicode="Q" horiz-adv-x="1562" 
d="M1362 -106l-195 190q-165 -115 -387 -115q-205 0 -361 97.5t-239.5 273t-83.5 403.5q0 227 83.5 403t239.5 274t361 98t361.5 -98t240.5 -274t84 -403q0 -332 -174 -544l187 -181zM780 129q140 0 254 84l-184 182l121 119l180 -176q106 165 106 405q0 176 -58 315
t-167 219.5t-252 80.5q-142 0 -250.5 -80.5t-166.5 -219.5t-58 -315t58 -315t166.5 -219t250.5 -80z" />
    <glyph glyph-name="R" unicode="R" horiz-adv-x="1327" 
d="M178 0v1487h440q188 0 289 -31q128 -39 203.5 -136.5t75.5 -250.5q0 -133 -89.5 -237t-234.5 -136v-6q56 -3 99.5 -22t72 -51t46.5 -65t32 -75l156 -477h-215l-133 422q-11 36 -25 64t-33 48t-36 34t-45 23t-48 14.5t-57.5 7.5t-61 2.5t-69.5 0.5h-166v-616h-201z
M379 780h170q58 0 103 3t98.5 12t91.5 28t71.5 48t50.5 74.5t17 105.5q0 119 -58.5 179t-162.5 81q-63 12 -211 12h-170v-543z" />
    <glyph glyph-name="S" unicode="S" horiz-adv-x="1275" 
d="M645 -31q-264 0 -412.5 135.5t-148.5 382.5h203q0 -174 92 -266t266 -92q156 0 245 69t89 187q0 30 -7 57t-18 48.5t-31 41t-38.5 34t-49 29t-53 24t-60.5 21t-62 18.5t-66 18q-62 17 -101 28.5t-95 33t-92 43t-76 54.5t-63 71t-38.5 90t-15.5 114q0 181 147.5 294.5
t378.5 113.5q244 0 383 -126t139 -348h-196q0 78 -28 140t-75 99t-105 56t-122 19q-80 0 -149 -24.5t-115.5 -80t-46.5 -131.5q0 -33 7 -61t23.5 -51.5t32.5 -41t47 -34.5t52.5 -28t64 -24.5t66.5 -20.5t73 -21q65 -18 103.5 -30t98.5 -34.5t96.5 -43.5t79.5 -55.5t67 -72.5
t40.5 -91.5t16.5 -115.5q0 -192 -151 -310t-396 -118z" />
    <glyph glyph-name="T" unicode="T" horiz-adv-x="1226" 
d="M512 0v1321h-489v166h1181v-166h-489v-1321h-203z" />
    <glyph glyph-name="U" unicode="U" horiz-adv-x="1441" 
d="M719 -31q-182 0 -310 70.5t-188 202.5q-31 70 -44 156.5t-13 228.5v860h201v-856q0 -153 19 -238.5t65 -144.5q97 -121 270 -121q84 0 159 33.5t115 87.5q44 59 64 149t20 234v856h201v-860q0 -162 -19.5 -259.5t-66.5 -172.5q-67 -106 -190 -166t-283 -60z" />
    <glyph glyph-name="V" unicode="V" horiz-adv-x="1314" 
d="M543 0l-525 1487h224l323 -959q18 -52 47.5 -155t46.5 -152h13q86 274 96 307l334 959h203l-541 -1487h-221z" />
    <glyph glyph-name="W" unicode="W" horiz-adv-x="1941" 
d="M399 0l-368 1487h207l221 -959q38 -170 61 -299h10q33 185 66 299l260 959h250l252 -959q5 -21 11.5 -50t21.5 -99.5t32 -149.5h13q42 208 63 299l225 959h185l-367 -1487h-239l-256 987q-29 118 -68 299h-10q-43 -196 -68 -299l-264 -987h-238z" />
    <glyph glyph-name="X" unicode="X" horiz-adv-x="1273" 
d="M4 0l514 774l-487 713h237l375 -576l379 576h219l-487 -713l520 -774h-236l-407 625l-404 -625h-223z" />
    <glyph glyph-name="Y" unicode="Y" horiz-adv-x="1263" 
d="M530 0v629l-514 858h234l387 -703l405 703h213l-524 -858v-629h-201z" />
    <glyph glyph-name="Z" unicode="Z" horiz-adv-x="1165" 
d="M68 0v170l792 1155q-168 -4 -254 -4h-518v166h987v-166l-796 -1161q176 8 305 8h530v-168h-1046z" />
    <glyph glyph-name="bracketleft" unicode="[" horiz-adv-x="626" 
d="M174 -215v1702h404v-121h-226v-1460h226v-121h-404z" />
    <glyph glyph-name="backslash" unicode="\" horiz-adv-x="780" 
d="M43 1487h162l528 -1487h-164z" />
    <glyph glyph-name="bracketright" unicode="]" horiz-adv-x="626" 
d="M49 -215v121h225v1460h-225v121h404v-1702h-404z" />
    <glyph glyph-name="asciicircum" unicode="^" 
d="M719 1487l391 -825h-174l-297 624l-291 -624h-168l389 825h150z" />
    <glyph glyph-name="underscore" unicode="_" horiz-adv-x="976" 
d="M0 -252v100h977v-100h-977z" />
    <glyph glyph-name="grave" unicode="`" horiz-adv-x="1181" 
d="M520 1229l-237 258h215l180 -258h-158z" />
    <glyph glyph-name="a" unicode="a" horiz-adv-x="1105" 
d="M446 -23q-171 0 -268.5 88.5t-97.5 231.5q0 56 15 102.5t44.5 80t64 59t84.5 43t94 29.5t104 20t103 12.5t102.5 9.5t92.5 9v36q0 248 -233 248q-113 0 -179.5 -55.5t-66.5 -159.5h-186q0 161 120 258.5t312 97.5q83 0 148.5 -16t109 -41t74.5 -65.5t47.5 -78t25.5 -91.5
t11 -93t2 -94v-289q0 -194 26 -319h-176q-12 60 -14 143q-66 -87 -154 -126.5t-205 -39.5zM489 115q62 0 111 14.5t92.5 50.5t67.5 106t24 171v59q-25 -3 -78 -7t-94.5 -8.5t-96 -13t-94.5 -23t-76.5 -36.5t-55.5 -56.5t-19 -78.5q0 -78 59.5 -128t159.5 -50z" />
    <glyph glyph-name="b" unicode="b" horiz-adv-x="1198" 
d="M664 -23q-220 0 -330 158v-135h-180v1487h188v-555q64 81 144.5 114t185.5 33q203 0 322.5 -153t119.5 -398q0 -251 -126 -401t-324 -150zM635 127q132 0 209.5 107t77.5 294q0 188 -77.5 295t-209.5 107q-133 0 -215 -111.5t-82 -290.5q0 -170 83 -285.5t214 -115.5z
" />
    <glyph glyph-name="c" unicode="c" horiz-adv-x="1087" 
d="M575 -31q-235 0 -364 151.5t-129 407.5q0 161 57.5 286.5t171.5 199t269 73.5q189 0 304 -98t140 -278h-197q-35 225 -249 225q-143 0 -221 -110.5t-78 -297.5t79 -298t220 -111q105 0 172.5 58.5t91.5 176.5h184q-67 -385 -451 -385z" />
    <glyph glyph-name="d" unicode="d" horiz-adv-x="1198" 
d="M537 -23q-211 0 -332 144.5t-121 406.5q0 157 55.5 282t159.5 197t238 72q111 0 189.5 -34t129.5 -111v553h188v-1487h-180v139q-110 -162 -327 -162zM563 127q134 0 215.5 109t81.5 292q0 187 -81 294.5t-216 107.5q-131 0 -207.5 -107t-76.5 -295q0 -184 76.5 -292.5
t207.5 -108.5z" />
    <glyph glyph-name="e" unicode="e" horiz-adv-x="1150" 
d="M584 -31q-241 0 -371.5 148t-130.5 411q0 244 138.5 401.5t367.5 157.5q243 0 361 -159t118 -459h-788q7 -156 94 -253t217 -97q104 0 176 48.5t100 147.5h199q-33 -166 -163.5 -256t-317.5 -90zM283 623h583q-15 155 -91.5 234t-194.5 79q-123 0 -200 -78.5t-97 -234.5z
" />
    <glyph glyph-name="f" unicode="f" horiz-adv-x="667" 
d="M223 0v901h-194v156h194v53q0 159 29 231q62 158 266 158q73 0 125 -12v-156q-41 8 -90 8q-38 0 -63.5 -10t-41 -26.5t-23.5 -48t-10.5 -66t-2.5 -88.5v-43h231v-156h-231v-901h-189z" />
    <glyph glyph-name="g" unicode="g" horiz-adv-x="1179" 
d="M565 -420q-196 0 -309.5 84t-126.5 248h195q12 -191 245 -191q144 0 212.5 83.5t68.5 285.5v105q-66 -89 -142.5 -124.5t-191.5 -35.5q-195 0 -313.5 143.5t-118.5 370.5q0 104 30 199t85 169t140 118t187 44q236 0 328 -170v148h174v-905q0 -112 -13.5 -198t-46 -158
t-85 -118.5t-132 -72t-186.5 -25.5zM563 180q132 0 210.5 104.5t78.5 282.5q0 162 -80 264.5t-209 102.5q-134 0 -210.5 -100t-76.5 -265q0 -182 77 -285.5t210 -103.5z" />
    <glyph glyph-name="h" unicode="h" horiz-adv-x="1177" 
d="M154 0v1487h188v-563q97 155 322 155q256 0 337 -188q35 -79 35 -258v-633h-188v594q0 46 -2.5 82t-10.5 77.5t-23.5 70.5t-39.5 54.5t-62 38.5t-87 13q-135 0 -208 -95t-73 -282v-553h-188z" />
    <glyph glyph-name="i" unicode="i" horiz-adv-x="495" 
d="M154 0v1057h188v-1057h-188zM154 1282v205h188v-205h-188z" />
    <glyph glyph-name="j" unicode="j" horiz-adv-x="495" 
d="M84 -420q-51 0 -139 10v160q31 -10 92 -10q72 0 94.5 55.5t22.5 175.5v1086h188v-1061q0 -237 -54.5 -326.5t-203.5 -89.5zM154 1282v205h188v-205h-188z" />
    <glyph glyph-name="k" unicode="k" horiz-adv-x="1024" 
d="M154 0v1487h188v-864l428 434h223l-467 -463l514 -594h-237l-461 553v-553h-188z" />
    <glyph glyph-name="l" unicode="l" horiz-adv-x="495" 
d="M154 0v1487h188v-1487h-188z" />
    <glyph glyph-name="m" unicode="m" horiz-adv-x="1792" 
d="M154 0v1057h176v-135q46 74 129 115.5t188 41.5q97 0 175.5 -48t113.5 -146q125 194 375 194q340 0 340 -391v-688h-189v586q0 46 -2 79.5t-8.5 77.5t-20.5 74t-36 57.5t-58 41.5t-84 14q-55 0 -98 -18.5t-69.5 -52.5t-45 -73t-27.5 -88.5t-12.5 -90t-3.5 -85.5v-522
h-188v586q0 56 -3 96t-15 90.5t-33.5 82t-62 53.5t-97.5 22q-55 0 -98 -18.5t-69.5 -52.5t-45 -73t-27.5 -88.5t-12.5 -90t-3.5 -85.5v-522h-188z" />
    <glyph glyph-name="n" unicode="n" horiz-adv-x="1177" 
d="M154 0v1057h174v-135q119 157 336 157q261 0 335 -188q37 -92 37 -258v-633h-188v596q0 46 -2.5 82t-10.5 77t-23.5 70t-39.5 54t-62 38t-87 13q-135 0 -208 -95t-73 -282v-553h-188z" />
    <glyph glyph-name="o" unicode="o" horiz-adv-x="1187" 
d="M590 -31q-232 0 -370 154.5t-138 404.5q0 249 139 404t371 155q234 0 374 -155t140 -404q0 -250 -139.5 -404.5t-376.5 -154.5zM590 119q148 0 234.5 111t86.5 296q0 184 -87 297t-232 113q-144 0 -230 -111t-86 -295q0 -186 85 -298.5t229 -112.5z" />
    <glyph glyph-name="p" unicode="p" horiz-adv-x="1198" 
d="M154 -412v1469h180v-144q113 166 338 166q208 0 325 -152t117 -399q0 -255 -125.5 -403t-324.5 -148q-228 0 -322 142v-531h-188zM635 127q132 0 209.5 107t77.5 294q0 188 -77.5 295t-209.5 107q-133 0 -215 -111.5t-82 -290.5q0 -180 82 -290.5t215 -110.5z" />
    <glyph glyph-name="q" unicode="q" horiz-adv-x="1198" 
d="M856 -412v535q-105 -146 -319 -146q-211 0 -332 144.5t-121 406.5q0 157 55.5 282t159.5 197t238 72q224 0 327 -153v131h180v-1469h-188zM563 127q134 0 215.5 109t81.5 292q0 187 -81 294.5t-216 107.5q-131 0 -207.5 -107t-76.5 -295q0 -184 76.5 -292.5t207.5 -108.5
z" />
    <glyph glyph-name="r" unicode="r" horiz-adv-x="774" 
d="M154 0v1057h178v-156q59 91 131.5 129.5t165.5 38.5q61 0 119 -12v-166q-82 14 -125 14q-67 0 -116.5 -19.5t-80.5 -54t-50 -88.5t-26.5 -115.5t-7.5 -142.5v-485h-188z" />
    <glyph glyph-name="s" unicode="s" horiz-adv-x="1034" 
d="M532 -31q-219 0 -338.5 97t-121.5 274h190q0 -111 71.5 -168t203.5 -57q108 0 166.5 40.5t58.5 116.5q0 31 -9.5 56t-30.5 43t-42 30.5t-58 23t-62.5 16t-70.5 14.5q-154 29 -214 54q-145 58 -172 197q-7 34 -7 74q0 136 114 221.5t300 85.5q200 0 310.5 -91.5
t111.5 -262.5h-187q-2 105 -60 156t-179 51q-97 0 -155 -40t-58 -107q0 -35 15 -61.5t35 -42.5t59.5 -30t68.5 -21t82 -17q159 -31 223 -58q157 -64 182 -213q5 -31 5 -65q0 -141 -121.5 -228.5t-309.5 -87.5z" />
    <glyph glyph-name="t" unicode="t" horiz-adv-x="681" 
d="M487 -18q-132 0 -199 69.5t-67 235.5v614h-194v156h194v256h189v-256h229v-156h-229v-526q0 -53 1.5 -83t8.5 -63t20 -49.5t37 -27.5t60 -11q59 0 106 11v-152q-83 -18 -156 -18z" />
    <glyph glyph-name="u" unicode="u" horiz-adv-x="1171" 
d="M510 -23q-131 0 -210.5 49t-123.5 140q-16 34 -24.5 85t-9.5 87.5t-1 103.5v615h187v-596q0 -56 3.5 -97.5t16.5 -89t36.5 -77.5t65.5 -50t101 -20q135 0 207.5 94t72.5 281v555h187v-1057h-174v135q-117 -158 -334 -158z" />
    <glyph glyph-name="v" unicode="v" horiz-adv-x="1046" 
d="M414 0l-391 1057h206l187 -529q54 -157 108 -364h13q42 173 108 364l186 529h193l-391 -1057h-219z" />
    <glyph glyph-name="w" unicode="w" horiz-adv-x="1622" 
d="M324 0l-295 1057h194l144 -529q24 -89 79 -364h13q23 117 90 364l143 529h252l150 -529q44 -152 86 -364h12q33 189 80 364l143 529h176l-293 -1057h-243l-146 528q-30 113 -90 385h-12q-67 -286 -94 -385l-146 -528h-243z" />
    <glyph glyph-name="x" unicode="x" horiz-adv-x="1007" 
d="M6 0l387 547l-358 510h233l242 -387l258 387h205l-363 -510l394 -547h-232l-276 414l-277 -414h-213z" />
    <glyph glyph-name="y" unicode="y" horiz-adv-x="1046" 
d="M219 -420q-67 0 -123 10v158q50 -12 90 -12q98 0 151.5 62t86.5 179l-401 1080h208l185 -529q25 -71 62 -202t46 -160h11q61 217 112 362l187 529h190l-393 -1057q-31 -83 -59 -142.5t-64.5 -115t-77 -89t-94 -53.5t-117.5 -20z" />
    <glyph glyph-name="z" unicode="z" horiz-adv-x="925" 
d="M55 0v154l588 757q-69 -10 -231 -10h-328v156h768v-156l-582 -756q92 9 246 9h361v-154h-822z" />
    <glyph glyph-name="braceleft" unicode="{" horiz-adv-x="667" 
d="M403 141q0 -70 15.5 -125t53.5 -91t95 -36q19 0 51 7v-113q-40 -4 -69 -4q-311 0 -311 340v184q0 269 -203 293v109q106 17 154.5 87.5t48.5 206.5v144q0 141 35.5 223.5t105 116t184.5 33.5q7 0 27 -1.5t28 -1.5v-108q-12 2 -38 2q-46 0 -79 -15t-51.5 -38t-29.5 -62
t-14 -77.5t-3 -92.5v-96q0 -185 -52.5 -273t-200.5 -102q66 -10 112 -32.5t73.5 -53t42.5 -78.5t20 -96.5t5 -118.5v-131z" />
    <glyph glyph-name="bar" unicode="|" horiz-adv-x="516" 
d="M342 0h-168v1487h168v-1487z" />
    <glyph glyph-name="braceright" unicode="}" horiz-adv-x="669" 
d="M264 272q0 70 5 118.5t20.5 96.5t43 78.5t73.5 53t112 32.5q-147 14 -200.5 102.5t-53.5 272.5v96q0 55 -3 92.5t-13.5 77t-29 62.5t-51.5 38t-79 15q-27 0 -39 -2v108q8 0 28 1.5t27 1.5q173 0 249.5 -82.5t76.5 -290.5v-144q0 -136 49 -206.5t154 -87.5v-109
q-203 -24 -203 -293v-184q0 -340 -311 -340q-30 0 -70 4v113q31 -7 53 -7q82 0 122 71.5t40 180.5v131z" />
    <glyph glyph-name="asciitilde" unicode="~" 
d="M645 469q-5 2 -24.5 11l-26 12t-23.5 10.5t-26 10t-24.5 7.5t-26.5 7t-25.5 3.5t-28.5 1.5q-57 0 -96.5 -31t-89.5 -95l-100 100q48 65 85 102.5t85.5 60.5t107.5 23q35 0 76.5 -11.5t62.5 -20.5t74 -33q6 -3 28 -13t30 -13.5t27 -11.5t30 -11t28 -7.5t32.5 -6t31.5 -1.5
q30 0 55.5 9t49.5 30t38.5 38t40.5 50l103 -102q-73 -97 -134 -141t-147 -44q-12 0 -24 1t-25.5 4t-22.5 4.5t-25 7.5t-22 8t-24.5 10t-22 9.5t-24.5 11t-23 10.5z" />
    <glyph glyph-name="uni00A0" unicode="&#xa0;" horiz-adv-x="409" 
 />
    <glyph glyph-name="exclamdown" unicode="&#xa1;" horiz-adv-x="509" 
d="M362 864h-217v234h217v-234zM367 -389h-224l37 1083h150z" />
    <glyph glyph-name="cent" unicode="&#xa2;" horiz-adv-x="1087" 
d="M522 -31v224q-202 17 -317 167t-115 390q0 152 50.5 273t149.5 196.5t232 87.5v211h131v-211q154 -14 255 -112.5t124 -262.5h-192q-17 92 -66 147.5t-121 69.5v-801q153 33 201 227h180q-30 -177 -128 -272.5t-253 -109.5v-224h-131zM283 750q0 -165 65 -272.5
t174 -127.5v799q-111 -20 -175 -127t-64 -272z" />
    <glyph glyph-name="sterling" unicode="&#xa3;" horiz-adv-x="1236" 
d="M109 156q111 13 149.5 82t38.5 235v182h-227v162h227v57q0 275 106.5 416.5t339.5 141.5q194 0 300 -95t106 -278h-197q0 107 -52 163t-155 56q-64 0 -110 -19t-74 -52t-44.5 -87t-22 -113t-5.5 -141v-49h295v-162h-295v-161q0 -145 -28.5 -217t-102.5 -113v-12
q218 12 308 12h483v-164h-1040v156z" />
    <glyph glyph-name="currency" unicode="&#xa4;" horiz-adv-x="1128" 
d="M563 1014q70 0 132.5 -22t103.5 -58l147 147l92 -90l-161 -139q71 -88 71 -229q0 -151 -71 -240l153 -143l-90 -88l-143 149q-42 -39 -107.5 -60.5t-130.5 -21.5t-129 21t-106 57l-140 -145l-86 88l148 135q-76 98 -76 237q0 146 80 240l-156 139l90 90l142 -147
q100 80 237 80zM561 891q-112 0 -180 -79.5t-68 -197.5q0 -68 23 -122t59.5 -85.5t78.5 -48t85 -16.5q45 0 86.5 15.5t77.5 47t58 87.5t22 129q0 110 -64.5 190t-177.5 80z" />
    <glyph glyph-name="yen" unicode="&#xa5;" horiz-adv-x="1239" 
d="M174 776h256l-381 623h223l349 -608l358 608h213l-389 -623h256v-145h-344v-156h344v-145h-344v-330h-197v330h-344v145h344v156h-344v145z" />
    <glyph glyph-name="brokenbar" unicode="&#xa6;" horiz-adv-x="516" 
d="M176 870v555h162v-555h-162zM338 0h-162v551h162v-551z" />
    <glyph glyph-name="section" unicode="&#xa7;" horiz-adv-x="1112" 
d="M850 262q65 -67 83.5 -109t18.5 -100q0 -134 -113.5 -216.5t-293.5 -82.5q-193 0 -306 91.5t-122 254.5h196q12 -211 226 -211q92 0 150.5 46.5t58.5 119.5q0 26 -9 49.5t-21.5 41t-37.5 36t-43.5 30.5t-54 28t-55 24t-58.5 23l-60 24t-58.5 25.5t-59.5 30t-53.5 33.5
t-51 39t-41 44.5t-34 53t-19.5 60.5t-8 71q0 190 192 272q-52 50 -74 96.5t-22 102.5q0 126 111.5 208.5t281.5 82.5q183 0 293 -93.5t113 -253.5h-182q-12 211 -213 211q-95 0 -150 -42t-55 -113q0 -73 53 -118.5t213 -113.5q108 -46 172.5 -81t115.5 -80.5t72 -99.5
t21 -128q0 -179 -176 -256zM752 334q51 41 71.5 78t20.5 88q0 49 -12.5 83.5t-46 63t-68 47.5t-103.5 51l-245 113q-97 -72 -97 -170q0 -145 201 -233z" />
    <glyph glyph-name="dieresis" unicode="&#xa8;" horiz-adv-x="1187" 
d="M702 1272v215h185v-215h-185zM301 1272v215h184v-215h-184z" />
    <glyph glyph-name="copyright" unicode="&#xa9;" horiz-adv-x="1718" 
d="M1243 610q-17 -153 -118.5 -241t-258.5 -88q-187 0 -296 127t-109 342q0 206 112 332t297 126q152 0 255.5 -89t117.5 -232h-151q-15 99 -73 153t-149 54q-118 0 -191 -94.5t-73 -249.5q0 -160 72 -256.5t188 -96.5q90 0 149.5 56.5t76.5 156.5h151zM90 743
q0 161 61 305.5t164 247t244.5 162.5t298.5 60t299.5 -60t245.5 -162.5t164 -247t61 -305.5t-61 -305t-164 -246.5t-245.5 -162.5t-299.5 -60t-298.5 60t-244.5 162.5t-164 246.5t-61 305zM1518 743q0 131 -48.5 253.5t-133.5 215.5t-210 149t-268 56t-268 -56t-209.5 -149
t-133 -215.5t-48.5 -253.5q0 -132 48.5 -254t133 -215.5t209.5 -149.5t268 -56t268 56t210 149.5t133.5 216t48.5 253.5z" />
    <glyph glyph-name="ordfeminine" unicode="&#xaa;" horiz-adv-x="884" 
d="M358 664q-135 0 -204.5 60.5t-69.5 176.5q0 71 33 122.5t95 82t137.5 46.5t174.5 22l94 6v37q0 92 -46.5 140t-133.5 48q-184 0 -184 -156h-139q0 114 89.5 188t233.5 74q50 0 91.5 -7.5t72.5 -19t55 -31t40 -38.5t27.5 -47t17.5 -51t9.5 -55t4 -54.5t0.5 -54.5v-225
q0 -132 22 -242h-143q-10 33 -14 92q-99 -114 -263 -114zM391 770q95 0 161 66t66 204v33l-69 -4q-71 -4 -124 -13t-102.5 -26.5t-75.5 -49.5t-26 -77q0 -65 46 -99t124 -34z" />
    <glyph glyph-name="guillemotleft" unicode="&#xab;" horiz-adv-x="923" 
d="M465 967l-191 -416l191 -408h-184l-211 408l211 416h184zM834 967l-193 -416l193 -408h-187l-209 408l209 416h187z" />
    <glyph glyph-name="logicalnot" unicode="&#xac;" 
d="M1120 784v-573h-159v414h-814v159h973z" />
    <glyph glyph-name="uni00AD" unicode="&#xad;" horiz-adv-x="792" 
d="M125 666h543v-166h-543v166z" />
    <glyph glyph-name="registered" unicode="&#xae;" horiz-adv-x="1718" 
d="M569 1188h322q140 0 219.5 -64t79.5 -180q0 -80 -44 -136t-122 -83q112 -22 143 -182l25 -129q13 -71 33 -111h-154q-23 86 -37 184q-17 110 -51.5 144.5t-130.5 34.5h-141v-363h-142v885zM858 774q90 0 138 41t48 115q0 143 -184 143h-149v-299h147zM90 743
q0 161 61 305.5t164 247t244.5 162.5t298.5 60t299.5 -60t245.5 -162.5t164 -247t61 -305.5t-61 -305t-164 -246.5t-245.5 -162.5t-299.5 -60t-298.5 60t-244.5 162.5t-164 246.5t-61 305zM1518 743q0 131 -48.5 253.5t-133.5 215.5t-210 149t-268 56t-268 -56t-209.5 -149
t-133 -215.5t-48.5 -253.5q0 -132 48.5 -254t133 -215.5t209.5 -149.5t268 -56t268 56t210 149.5t133.5 216t48.5 253.5z" />
    <glyph glyph-name="macron" unicode="&#xaf;" horiz-adv-x="1138" 
d="M299 1296v144h541v-144h-541z" />
    <glyph glyph-name="degree" unicode="&#xb0;" horiz-adv-x="747" 
d="M672 1126q0 -126 -87 -212.5t-210 -86.5q-127 0 -213 86.5t-86 208.5q0 125 87.5 212t211.5 87q126 0 211.5 -87.5t85.5 -207.5zM375 934q77 0 131.5 56.5t54.5 135.5q0 77 -54.5 133t-131.5 56q-78 0 -133.5 -56.5t-55.5 -134.5t55.5 -134t133.5 -56z" />
    <glyph glyph-name="plusminus" unicode="&#xb1;" 
d="M190 586v153h369v344h168v-344h371v-153h-371v-316h-168v316h-369zM190 0v154h908v-154h-908z" />
    <glyph glyph-name="twosuperior" unicode="&#xb2;" horiz-adv-x="700" 
d="M70 979v43q0 83 26.5 144t77.5 107t141 97q94 54 131 98.5t37 102.5q0 61 -36 97t-95 36q-68 0 -105 -47.5t-40 -136.5h-137q3 133 79.5 208.5t206.5 75.5q120 0 194.5 -65.5t74.5 -171.5q0 -86 -51 -145.5t-173 -133.5q-36 -22 -51 -31.5t-44 -31t-43 -38.5t-27.5 -43
t-18.5 -54h412v-111h-559z" />
    <glyph glyph-name="threesuperior" unicode="&#xb3;" horiz-adv-x="718" 
d="M205 1239q0 -84 40.5 -133t112.5 -49q70 0 109 40.5t39 102.5t-41.5 99.5t-112.5 37.5h-51v103h41q74 0 114 35.5t40 99.5q0 59 -36 93t-100 34q-67 0 -105 -45t-40 -125h-139q6 128 83.5 200t207.5 72q120 0 194 -62t74 -161q0 -59 -34 -113t-97 -73v-6
q68 -21 104.5 -73t36.5 -124q0 -104 -79.5 -170t-213.5 -66q-131 0 -210 76.5t-79 206.5h142z" />
    <glyph glyph-name="acute" unicode="&#xb4;" horiz-adv-x="1179" 
d="M504 1229l182 258h213l-237 -258h-158z" />
    <glyph glyph-name="mu" unicode="&#xb5;" horiz-adv-x="1286" 
d="M166 1057h186v-563q0 -367 258 -367q73 0 123 27.5t76 80.5t36.5 116.5t10.5 150.5v555h186v-819q0 -59 22 -83t77 -24q32 0 78 12v-141q-55 -18 -121 -18q-184 0 -219 131l-5 16q-42 -75 -103.5 -113t-160.5 -38q-89 0 -156.5 38t-99.5 101v-531h-188v1469z" />
    <glyph glyph-name="paragraph" unicode="&#xb6;" horiz-adv-x="1212" 
d="M993 -264h-147v1618h-225v-1618h-146v821q-196 7 -309 137t-113 326q0 215 140 341t354 126h590v-133h-144v-1618z" />
    <glyph glyph-name="periodcentered" unicode="&#xb7;" horiz-adv-x="489" 
d="M127 831h235v-243h-235v243z" />
    <glyph glyph-name="cedilla" unicode="&#xb8;" horiz-adv-x="1107" 
d="M410 -420q-62 0 -91 10v109q24 -6 48 -6q120 0 120 82q0 36 -22 60t-68 24q-25 0 -37 -2v204h136v-124q64 -3 99.5 -53.5t35.5 -114.5q0 -78 -58.5 -133.5t-162.5 -55.5z" />
    <glyph glyph-name="onesuperior" unicode="&#xb9;" horiz-adv-x="483" 
d="M233 1548h-190v86q99 6 149.5 41.5t59.5 106.5h119v-803h-138v569z" />
    <glyph glyph-name="ordmasculine" unicode="&#xba;" horiz-adv-x="933" 
d="M467 664q-180 0 -283.5 110t-103.5 313t103.5 313.5t283.5 110.5t283.5 -110.5t103.5 -313.5t-103.5 -313t-283.5 -110zM467 770q119 0 177 87.5t58 229.5q0 68 -13.5 125t-41.5 100.5t-73.5 68t-106.5 24.5q-119 0 -177.5 -88t-58.5 -230t58.5 -229.5t177.5 -87.5z" />
    <glyph glyph-name="guillemotright" unicode="&#xbb;" horiz-adv-x="921" 
d="M641 967l211 -416l-211 -408h-184l190 408l-190 416h184zM276 967l209 -416l-209 -408h-186l193 408l-193 416h186z" />
    <glyph glyph-name="onequarter" unicode="&#xbc;" horiz-adv-x="1462" 
d="M231 1165h-190v86q99 6 149.5 41.5t59.5 106.5h119v-803h-138v569zM934 1427h133l-756 -1456h-131zM1417 209h-141v-209h-135v209h-367v110l295 484h207v-486h141v-108zM1141 317q0 91 4 365h-15q-26 -48 -96 -160l-127 -205h234z" />
    <glyph glyph-name="onehalf" unicode="&#xbd;" horiz-adv-x="1474" 
d="M231 1165h-190v86q99 6 149.5 41.5t59.5 106.5h119v-803h-138v569zM934 1427h133l-756 -1456h-131zM844 0v43q0 122 55.5 196.5t190.5 151.5q94 54 130.5 98t36.5 103q0 61 -36 97t-95 36q-68 0 -105 -47.5t-40 -136.5h-137q3 133 79.5 208.5t206.5 75.5
q120 0 194.5 -65.5t74.5 -171.5q0 -86 -50.5 -145.5t-172.5 -133.5q-37 -22 -51.5 -31.5t-44 -31.5t-43 -38.5t-27.5 -42.5t-19 -54h412v-111h-559z" />
    <glyph glyph-name="threequarters" unicode="&#xbe;" horiz-adv-x="1697" 
d="M205 856q0 -84 40.5 -133t112.5 -49q70 0 109 40.5t39 102.5t-41.5 99.5t-112.5 37.5h-51v103h41q74 0 114 35.5t40 99.5q0 59 -36 93t-100 34q-67 0 -105 -45t-40 -125h-139q6 128 83.5 200t207.5 72q120 0 194 -62t74 -161q0 -59 -34 -113t-97 -73v-6q68 -21 104.5 -73
t36.5 -124q0 -104 -79.5 -170t-213.5 -66q-131 0 -210 76.5t-79 206.5h142zM1169 1427h134l-756 -1456h-131zM1653 209h-142v-209h-135v209h-366v110l295 484h206v-486h142v-108zM1376 317q0 91 4 365h-14q-26 -48 -96 -160l-127 -205h233z" />
    <glyph glyph-name="questiondown" unicode="&#xbf;" horiz-adv-x="1036" 
d="M666 1098v-221h-222v221h222zM649 709v-37q0 -157 -46 -241.5t-206 -223.5q-133 -114 -133 -240q0 -113 71.5 -173t178.5 -60q53 0 101.5 17.5t89 53t64.5 96.5t24 140h196q-1 -111 -43 -201t-111.5 -145.5t-155 -85t-177.5 -29.5q-68 0 -132 15t-121.5 46.5t-100.5 76
t-68 108.5t-25 139q0 59 16 110t52 98.5t62.5 75t78.5 75.5q49 45 76.5 74t61.5 74.5t49.5 95t15.5 106.5v35h182z" />
    <glyph glyph-name="Agrave" unicode="&#xc0;" horiz-adv-x="1425" 
d="M6 0l604 1487h203l610 -1487h-219l-172 432h-651l-162 -432h-213zM446 596h527l-142 383q-7 19 -51 135.5t-65 177.5h-8q-77 -221 -111 -309zM649 1620l-256 233h228l196 -233h-168z" />
    <glyph glyph-name="Aacute" unicode="&#xc1;" horiz-adv-x="1425" 
d="M6 0l604 1487h203l610 -1487h-219l-172 432h-651l-162 -432h-213zM446 596h527l-142 383q-7 19 -51 135.5t-65 177.5h-8q-77 -221 -111 -309zM612 1620l197 233h227l-258 -233h-166z" />
    <glyph glyph-name="Acircumflex" unicode="&#xc2;" horiz-adv-x="1425" 
d="M6 0l604 1487h203l610 -1487h-219l-172 432h-651l-162 -432h-213zM446 596h527l-142 383q-7 19 -51 135.5t-65 177.5h-8q-77 -221 -111 -309zM401 1620l197 233h233l195 -233h-180l-133 154l-135 -154h-177z" />
    <glyph glyph-name="Atilde" unicode="&#xc3;" horiz-adv-x="1425" 
d="M6 0l604 1487h203l610 -1487h-219l-172 432h-651l-162 -432h-213zM446 596h527l-142 383q-7 19 -51 135.5t-65 177.5h-8q-77 -221 -111 -309zM395 1630q12 102 60 160.5t129 58.5q42 0 139 -41t135 -41q32 0 53 18t31 60h111q-12 -102 -60 -160.5t-129 -58.5
q-40 0 -137.5 41t-136.5 41q-68 0 -84 -78h-111z" />
    <glyph glyph-name="Adieresis" unicode="&#xc4;" horiz-adv-x="1425" 
d="M6 0l604 1487h203l610 -1487h-219l-172 432h-651l-162 -432h-213zM446 596h527l-142 383q-7 19 -51 135.5t-65 177.5h-8q-77 -221 -111 -309zM825 1628v215h185v-215h-185zM420 1628v215h184v-215h-184z" />
    <glyph glyph-name="Aring" unicode="&#xc5;" horiz-adv-x="1425" 
d="M6 0l596 1468q-55 27 -86 79.5t-31 111.5q0 87 62 151t166 64q105 0 166 -64t61 -151q0 -61 -31.5 -112.5t-89.5 -78.5l604 -1468h-219l-172 432h-651l-162 -432h-213zM446 596h527l-142 383q-7 19 -51 135.5t-65 177.5h-8q-77 -221 -111 -309zM713 1538q61 0 91 35.5
t30 85.5t-31 85.5t-90 35.5q-58 0 -88.5 -35.5t-30.5 -85.5q0 -49 30.5 -85t88.5 -36z" />
    <glyph glyph-name="AE" unicode="&#xc6;" horiz-adv-x="1959" 
d="M6 0l758 1487h1042v-166h-708l65 -465h627v-166h-604l76 -524h636v-166h-813l-67 465h-563l-230 -465h-219zM539 631h456l-96 696h-20z" />
    <glyph glyph-name="Ccedilla" unicode="&#xc7;" horiz-adv-x="1433" 
d="M705 -420q-62 0 -91 10v109q24 -6 48 -6q120 0 120 82q0 36 -22 60t-68 24q-25 0 -37 -2v120q-179 26 -307 134.5t-190 270.5t-62 361q0 218 76.5 391.5t230 278.5t361.5 105q253 0 413.5 -143.5t184.5 -373.5h-207q-26 169 -128 263t-263 94q-207 0 -333 -169t-126 -446
q0 -276 128 -445t335 -169q157 0 260 98t131 267h209q-18 -111 -65.5 -205t-120.5 -164t-173.5 -111t-217.5 -45v-32q64 -3 99.5 -53.5t35.5 -114.5q0 -78 -58.5 -133.5t-162.5 -55.5z" />
    <glyph glyph-name="Egrave" unicode="&#xc8;" horiz-adv-x="1224" 
d="M178 0v1487h926v-166h-725v-477h692v-168h-692v-510h760v-166h-961zM600 1620l-256 233h227l197 -233h-168z" />
    <glyph glyph-name="Eacute" unicode="&#xc9;" horiz-adv-x="1224" 
d="M178 0v1487h926v-166h-725v-477h692v-168h-692v-510h760v-166h-961zM563 1620l197 233h227l-258 -233h-166z" />
    <glyph glyph-name="Ecircumflex" unicode="&#xca;" horiz-adv-x="1224" 
d="M178 0v1487h926v-166h-725v-477h692v-168h-692v-510h760v-166h-961zM352 1620l197 233h233l195 -233h-180l-133 154l-136 -154h-176z" />
    <glyph glyph-name="Edieresis" unicode="&#xcb;" horiz-adv-x="1224" 
d="M178 0v1487h926v-166h-725v-477h692v-168h-692v-510h760v-166h-961zM776 1628v215h185v-215h-185zM371 1628v215h184v-215h-184z" />
    <glyph glyph-name="Igrave" unicode="&#xcc;" horiz-adv-x="557" 
d="M178 0v1487h201v-1487h-201zM213 1620l-256 233h227l197 -233h-168z" />
    <glyph glyph-name="Iacute" unicode="&#xcd;" horiz-adv-x="557" 
d="M178 0v1487h201v-1487h-201zM176 1620l197 233h227l-258 -233h-166z" />
    <glyph glyph-name="Icircumflex" unicode="&#xce;" horiz-adv-x="557" 
d="M178 0v1487h201v-1487h-201zM-35 1620l197 233h233l195 -233h-180l-134 154l-135 -154h-176z" />
    <glyph glyph-name="Idieresis" unicode="&#xcf;" horiz-adv-x="557" 
d="M178 0v1487h201v-1487h-201zM360 1628v215h185v-215h-185zM12 1628v215h185v-215h-185z" />
    <glyph glyph-name="Eth" unicode="&#xd0;" horiz-adv-x="1515" 
d="M240 0v686h-199v158h199v643h430q301 0 460 -109q140 -97 214.5 -263t74.5 -372q0 -202 -79.5 -365.5t-221.5 -262.5q-88 -60 -195 -87.5t-253 -27.5h-430zM440 164h203q266 0 393 112q81 70 126.5 194t45.5 273q0 150 -42 275.5t-122 195.5q-124 109 -401 109h-203v-479
h260v-158h-260v-522z" />
    <glyph glyph-name="Ntilde" unicode="&#xd1;" horiz-adv-x="1533" 
d="M178 0v1487h275q609 -1056 718 -1278h11q-13 351 -13 536v742h187v-1487h-271q-623 1092 -727 1296h-10q14 -387 14 -555v-741h-184zM449 1630q12 102 59.5 160.5t128.5 58.5q41 0 138 -41t136 -41q32 0 53 18t31 60h111q-12 -102 -59.5 -160.5t-128.5 -58.5
q-40 0 -138 41t-137 41q-68 0 -84 -78h-110z" />
    <glyph glyph-name="Ograve" unicode="&#xd2;" horiz-adv-x="1562" 
d="M780 -31q-205 0 -361 97.5t-239.5 273t-83.5 403.5q0 227 83.5 403t239.5 274t361 98t361.5 -98t240.5 -274t84 -403q0 -350 -187.5 -562t-498.5 -212zM780 129q143 0 252 80t167 219t58 315t-58 315t-167 219.5t-252 80.5q-142 0 -250.5 -80.5t-166.5 -219.5t-58 -315
t58 -315t166.5 -219t250.5 -80zM717 1620l-256 233h227l197 -233h-168z" />
    <glyph glyph-name="Oacute" unicode="&#xd3;" horiz-adv-x="1562" 
d="M780 -31q-205 0 -361 97.5t-239.5 273t-83.5 403.5q0 227 83.5 403t239.5 274t361 98t361.5 -98t240.5 -274t84 -403q0 -350 -187.5 -562t-498.5 -212zM780 129q143 0 252 80t167 219t58 315t-58 315t-167 219.5t-252 80.5q-142 0 -250.5 -80.5t-166.5 -219.5t-58 -315
t58 -315t166.5 -219t250.5 -80zM680 1620l197 233h227l-258 -233h-166z" />
    <glyph glyph-name="Ocircumflex" unicode="&#xd4;" horiz-adv-x="1562" 
d="M780 -31q-205 0 -361 97.5t-239.5 273t-83.5 403.5q0 227 83.5 403t239.5 274t361 98t361.5 -98t240.5 -274t84 -403q0 -350 -187.5 -562t-498.5 -212zM780 129q143 0 252 80t167 219t58 315t-58 315t-167 219.5t-252 80.5q-142 0 -250.5 -80.5t-166.5 -219.5t-58 -315
t58 -315t166.5 -219t250.5 -80zM469 1620l197 233h233l195 -233h-181l-133 154l-135 -154h-176z" />
    <glyph glyph-name="Otilde" unicode="&#xd5;" horiz-adv-x="1562" 
d="M780 -31q-205 0 -361 97.5t-239.5 273t-83.5 403.5q0 227 83.5 403t239.5 274t361 98t361.5 -98t240.5 -274t84 -403q0 -350 -187.5 -562t-498.5 -212zM780 129q143 0 252 80t167 219t58 315t-58 315t-167 219.5t-252 80.5q-142 0 -250.5 -80.5t-166.5 -219.5t-58 -315
t58 -315t166.5 -219t250.5 -80zM463 1630q12 102 59.5 160.5t128.5 58.5q42 0 139.5 -41t135.5 -41q32 0 53 18t31 60h110q-12 -102 -59.5 -160.5t-128.5 -58.5q-40 0 -138 41t-137 41q-68 0 -84 -78h-110z" />
    <glyph glyph-name="Odieresis" unicode="&#xd6;" horiz-adv-x="1562" 
d="M780 -31q-205 0 -361 97.5t-239.5 273t-83.5 403.5q0 227 83.5 403t239.5 274t361 98t361.5 -98t240.5 -274t84 -403q0 -350 -187.5 -562t-498.5 -212zM780 129q143 0 252 80t167 219t58 315t-58 315t-167 219.5t-252 80.5q-142 0 -250.5 -80.5t-166.5 -219.5t-58 -315
t58 -315t166.5 -219t250.5 -80zM893 1628v215h184v-215h-184zM487 1628v215h185v-215h-185z" />
    <glyph glyph-name="multiply" unicode="&#xd7;" 
d="M344 145l-111 111l293 293l-307 307l121 121l307 -305l293 293l113 -113l-293 -293l309 -309l-123 -121l-309 309z" />
    <glyph glyph-name="Oslash" unicode="&#xd8;" horiz-adv-x="1562" 
d="M274 -76l-122 92l124 170q-180 214 -180 555q0 227 83.5 403t239.5 274t361 98q223 0 389 -119l103 139l121 -92l-111 -150q184 -215 184 -553q0 -350 -187.5 -562t-498.5 -212q-226 0 -389 117zM780 127q143 0 252 80t167 219t58 315q0 225 -96 389l-661 -901
q117 -102 280 -102zM399 352l662 899q-121 105 -281 105q-142 0 -250.5 -80.5t-166.5 -219.5t-58 -315q0 -229 94 -389z" />
    <glyph glyph-name="Ugrave" unicode="&#xd9;" horiz-adv-x="1441" 
d="M719 -31q-182 0 -310 70.5t-188 202.5q-31 70 -44 156.5t-13 228.5v860h201v-856q0 -153 19 -238.5t65 -144.5q97 -121 270 -121q84 0 159 33.5t115 87.5q44 59 64 149t20 234v856h201v-860q0 -162 -19.5 -259.5t-66.5 -172.5q-67 -106 -190 -166t-283 -60zM657 1620
l-256 233h228l196 -233h-168z" />
    <glyph glyph-name="Uacute" unicode="&#xda;" horiz-adv-x="1441" 
d="M719 -31q-182 0 -310 70.5t-188 202.5q-31 70 -44 156.5t-13 228.5v860h201v-856q0 -153 19 -238.5t65 -144.5q97 -121 270 -121q84 0 159 33.5t115 87.5q44 59 64 149t20 234v856h201v-860q0 -162 -19.5 -259.5t-66.5 -172.5q-67 -106 -190 -166t-283 -60zM621 1620
l196 233h227l-258 -233h-165z" />
    <glyph glyph-name="Ucircumflex" unicode="&#xdb;" horiz-adv-x="1441" 
d="M719 -31q-182 0 -310 70.5t-188 202.5q-31 70 -44 156.5t-13 228.5v860h201v-856q0 -153 19 -238.5t65 -144.5q97 -121 270 -121q84 0 159 33.5t115 87.5q44 59 64 149t20 234v856h201v-860q0 -162 -19.5 -259.5t-66.5 -172.5q-67 -106 -190 -166t-283 -60zM410 1620
l196 233h234l194 -233h-180l-133 154l-135 -154h-176z" />
    <glyph glyph-name="Udieresis" unicode="&#xdc;" horiz-adv-x="1441" 
d="M719 -31q-182 0 -310 70.5t-188 202.5q-31 70 -44 156.5t-13 228.5v860h201v-856q0 -153 19 -238.5t65 -144.5q97 -121 270 -121q84 0 159 33.5t115 87.5q44 59 64 149t20 234v856h201v-860q0 -162 -19.5 -259.5t-66.5 -172.5q-67 -106 -190 -166t-283 -60zM834 1628v215
h184v-215h-184zM428 1628v215h184v-215h-184z" />
    <glyph glyph-name="Yacute" unicode="&#xdd;" horiz-adv-x="1263" 
d="M530 0v629l-514 858h234l387 -703l405 703h213l-524 -858v-629h-201zM535 1620l196 233h227l-258 -233h-165z" />
    <glyph glyph-name="Thorn" unicode="&#xde;" horiz-adv-x="1302" 
d="M178 0v1487h201v-264h244q86 0 135 -2t125.5 -17.5t136.5 -46.5q96 -50 147.5 -152t51.5 -231q0 -130 -53 -227t-148 -154q-122 -71 -408 -71h-231v-322h-201zM379 485h252q176 0 239 31q69 34 105.5 103t36.5 155q0 85 -36.5 153.5t-105.5 102.5q-55 29 -239 29h-252
v-574z" />
    <glyph glyph-name="germandbls" unicode="&#xdf;" horiz-adv-x="1128" 
d="M604 -12q-54 0 -112 12v147q35 -12 104 -12q117 0 190.5 82.5t73.5 220.5q0 152 -69 228.5t-222 76.5q-54 0 -77 -2v152q18 -2 63 -2q111 0 182.5 65.5t71.5 184.5q0 92 -57.5 159.5t-161.5 67.5q-61 0 -106.5 -20t-72 -52.5t-43.5 -79.5t-22.5 -93.5t-5.5 -102.5v-1020
h-186v948q0 294 105 427.5t331 133.5q184 0 291.5 -102t107.5 -256q0 -103 -62.5 -189t-185.5 -128v-9q148 -24 229 -130t81 -246q0 -92 -30 -175t-85.5 -147t-141.5 -101.5t-190 -37.5z" />
    <glyph glyph-name="agrave" unicode="&#xe0;" horiz-adv-x="1105" 
d="M446 -23q-171 0 -268.5 88.5t-97.5 231.5q0 56 15 102.5t44.5 80t64 59t84.5 43t94 29.5t104 20t103 12.5t102.5 9.5t92.5 9v36q0 248 -233 248q-113 0 -179.5 -55.5t-66.5 -159.5h-186q0 161 120 258.5t312 97.5q83 0 148.5 -16t109 -41t74.5 -65.5t47.5 -78t25.5 -91.5
t11 -93t2 -94v-289q0 -194 26 -319h-176q-12 60 -14 143q-66 -87 -154 -126.5t-205 -39.5zM489 115q62 0 111 14.5t92.5 50.5t67.5 106t24 171v59q-25 -3 -78 -7t-94.5 -8.5t-96 -13t-94.5 -23t-76.5 -36.5t-55.5 -56.5t-19 -78.5q0 -78 59.5 -128t159.5 -50zM492 1229
l-238 258h215l180 -258h-157z" />
    <glyph glyph-name="aacute" unicode="&#xe1;" horiz-adv-x="1105" 
d="M446 -23q-171 0 -268.5 88.5t-97.5 231.5q0 56 15 102.5t44.5 80t64 59t84.5 43t94 29.5t104 20t103 12.5t102.5 9.5t92.5 9v36q0 248 -233 248q-113 0 -179.5 -55.5t-66.5 -159.5h-186q0 161 120 258.5t312 97.5q83 0 148.5 -16t109 -41t74.5 -65.5t47.5 -78t25.5 -91.5
t11 -93t2 -94v-289q0 -194 26 -319h-176q-12 60 -14 143q-66 -87 -154 -126.5t-205 -39.5zM489 115q62 0 111 14.5t92.5 50.5t67.5 106t24 171v59q-25 -3 -78 -7t-94.5 -8.5t-96 -13t-94.5 -23t-76.5 -36.5t-55.5 -56.5t-19 -78.5q0 -78 59.5 -128t159.5 -50zM461 1229
l182 258h213l-238 -258h-157z" />
    <glyph glyph-name="acircumflex" unicode="&#xe2;" horiz-adv-x="1105" 
d="M446 -23q-171 0 -268.5 88.5t-97.5 231.5q0 56 15 102.5t44.5 80t64 59t84.5 43t94 29.5t104 20t103 12.5t102.5 9.5t92.5 9v36q0 248 -233 248q-113 0 -179.5 -55.5t-66.5 -159.5h-186q0 161 120 258.5t312 97.5q83 0 148.5 -16t109 -41t74.5 -65.5t47.5 -78t25.5 -91.5
t11 -93t2 -94v-289q0 -194 26 -319h-176q-12 60 -14 143q-66 -87 -154 -126.5t-205 -39.5zM489 115q62 0 111 14.5t92.5 50.5t67.5 106t24 171v59q-25 -3 -78 -7t-94.5 -8.5t-96 -13t-94.5 -23t-76.5 -36.5t-55.5 -56.5t-19 -78.5q0 -78 59.5 -128t159.5 -50zM244 1229
l190 258h250l190 -258h-182l-135 180l-137 -180h-176z" />
    <glyph glyph-name="atilde" unicode="&#xe3;" horiz-adv-x="1105" 
d="M446 -23q-171 0 -268.5 88.5t-97.5 231.5q0 56 15 102.5t44.5 80t64 59t84.5 43t94 29.5t104 20t103 12.5t102.5 9.5t92.5 9v36q0 248 -233 248q-113 0 -179.5 -55.5t-66.5 -159.5h-186q0 161 120 258.5t312 97.5q83 0 148.5 -16t109 -41t74.5 -65.5t47.5 -78t25.5 -91.5
t11 -93t2 -94v-289q0 -194 26 -319h-176q-12 60 -14 143q-66 -87 -154 -126.5t-205 -39.5zM489 115q62 0 111 14.5t92.5 50.5t67.5 106t24 171v59q-25 -3 -78 -7t-94.5 -8.5t-96 -13t-94.5 -23t-76.5 -36.5t-55.5 -56.5t-19 -78.5q0 -78 59.5 -128t159.5 -50zM219 1253
q12 102 60 161t129 59q42 0 139 -41t135 -41q66 0 84 77h111q-12 -102 -60 -160.5t-129 -58.5q-40 0 -137.5 41t-136.5 41q-68 0 -84 -78h-111z" />
    <glyph glyph-name="adieresis" unicode="&#xe4;" horiz-adv-x="1105" 
d="M446 -23q-171 0 -268.5 88.5t-97.5 231.5q0 56 15 102.5t44.5 80t64 59t84.5 43t94 29.5t104 20t103 12.5t102.5 9.5t92.5 9v36q0 248 -233 248q-113 0 -179.5 -55.5t-66.5 -159.5h-186q0 161 120 258.5t312 97.5q83 0 148.5 -16t109 -41t74.5 -65.5t47.5 -78t25.5 -91.5
t11 -93t2 -94v-289q0 -194 26 -319h-176q-12 60 -14 143q-66 -87 -154 -126.5t-205 -39.5zM489 115q62 0 111 14.5t92.5 50.5t67.5 106t24 171v59q-25 -3 -78 -7t-94.5 -8.5t-96 -13t-94.5 -23t-76.5 -36.5t-55.5 -56.5t-19 -78.5q0 -78 59.5 -128t159.5 -50zM666 1272v215
h184v-215h-184zM264 1272v215h185v-215h-185z" />
    <glyph glyph-name="aring" unicode="&#xe5;" horiz-adv-x="1105" 
d="M446 -23q-171 0 -268.5 88.5t-97.5 231.5q0 56 15 102.5t44.5 80t64 59t84.5 43t94 29.5t104 20t103 12.5t102.5 9.5t92.5 9v36q0 248 -233 248q-113 0 -179.5 -55.5t-66.5 -159.5h-186q0 161 120 258.5t312 97.5q83 0 148.5 -16t109 -41t74.5 -65.5t47.5 -78t25.5 -91.5
t11 -93t2 -94v-289q0 -194 26 -319h-176q-12 60 -14 143q-66 -87 -154 -126.5t-205 -39.5zM489 115q62 0 111 14.5t92.5 50.5t67.5 106t24 171v59q-25 -3 -78 -7t-94.5 -8.5t-96 -13t-94.5 -23t-76.5 -36.5t-55.5 -56.5t-19 -78.5q0 -78 59.5 -128t159.5 -50zM553 1153
q-100 0 -161.5 63.5t-61.5 145.5q0 83 61 147t162 64q102 0 162.5 -63.5t60.5 -147.5q0 -82 -60.5 -145.5t-162.5 -63.5zM553 1243q60 0 89.5 35.5t29.5 83.5q0 49 -30.5 84t-88.5 35q-56 0 -86.5 -35.5t-30.5 -83.5q0 -47 30.5 -83t86.5 -36z" />
    <glyph glyph-name="ae" unicode="&#xe6;" horiz-adv-x="1798" 
d="M459 -31q-170 0 -273.5 82.5t-103.5 237.5q0 350 577 350h123v4q-9 151 -67.5 227t-173.5 76q-216 0 -242 -211h-182q5 111 63 192t151 120.5t210 39.5q258 0 352 -192q74 98 162.5 145t208.5 47q220 0 335 -152t115 -427v-33h-743q0 -69 15.5 -129.5t48 -114t92 -85
t139.5 -31.5q102 0 161.5 47.5t92.5 146.5h184q-17 -91 -60 -159t-103 -106t-127.5 -56.5t-143.5 -18.5q-133 0 -238.5 55t-157.5 156q-62 -103 -170 -157t-245 -54zM479 109q71 0 124 18.5t94.5 60.5t63.5 116.5t23 180.5v9h-120q-110 0 -188.5 -16.5t-120.5 -45.5
t-60.5 -63t-18.5 -76q0 -81 52.5 -132.5t150.5 -51.5zM975 627h555q-11 142 -82.5 227.5t-190.5 85.5q-118 0 -196 -88t-86 -225z" />
    <glyph glyph-name="ccedilla" unicode="&#xe7;" horiz-adv-x="1087" 
d="M520 -420q-61 0 -90 10v109q24 -6 47 -6q121 0 121 82q0 36 -22 60t-68 24q-25 0 -37 -2v120q-188 33 -288.5 179.5t-100.5 371.5q0 161 57.5 286.5t171.5 199t269 73.5q189 0 304 -98t140 -278h-197q-35 225 -249 225q-143 0 -221 -110.5t-78 -297.5t79 -298t220 -111
q105 0 172.5 58.5t91.5 176.5h184q-64 -368 -420 -383v-34q64 -3 99.5 -53.5t35.5 -114.5q0 -78 -58.5 -133.5t-162.5 -55.5z" />
    <glyph glyph-name="egrave" unicode="&#xe8;" horiz-adv-x="1150" 
d="M584 -31q-241 0 -371.5 148t-130.5 411q0 244 138.5 401.5t367.5 157.5q243 0 361 -159t118 -459h-788q7 -156 94 -253t217 -97q104 0 176 48.5t100 147.5h199q-33 -166 -163.5 -256t-317.5 -90zM283 623h583q-15 155 -91.5 234t-194.5 79q-123 0 -200 -78.5t-97 -234.5z
M522 1229l-237 258h215l180 -258h-158z" />
    <glyph glyph-name="eacute" unicode="&#xe9;" horiz-adv-x="1150" 
d="M584 -31q-241 0 -371.5 148t-130.5 411q0 244 138.5 401.5t367.5 157.5q243 0 361 -159t118 -459h-788q7 -156 94 -253t217 -97q104 0 176 48.5t100 147.5h199q-33 -166 -163.5 -256t-317.5 -90zM283 623h583q-15 155 -91.5 234t-194.5 79q-123 0 -200 -78.5t-97 -234.5z
M492 1229l182 258h213l-238 -258h-157z" />
    <glyph glyph-name="ecircumflex" unicode="&#xea;" horiz-adv-x="1150" 
d="M584 -31q-241 0 -371.5 148t-130.5 411q0 244 138.5 401.5t367.5 157.5q243 0 361 -159t118 -459h-788q7 -156 94 -253t217 -97q104 0 176 48.5t100 147.5h199q-33 -166 -163.5 -256t-317.5 -90zM283 623h583q-15 155 -91.5 234t-194.5 79q-123 0 -200 -78.5t-97 -234.5z
M274 1229l191 258h250l190 -258h-182l-135 180l-137 -180h-177z" />
    <glyph glyph-name="edieresis" unicode="&#xeb;" horiz-adv-x="1150" 
d="M584 -31q-241 0 -371.5 148t-130.5 411q0 244 138.5 401.5t367.5 157.5q243 0 361 -159t118 -459h-788q7 -156 94 -253t217 -97q104 0 176 48.5t100 147.5h199q-33 -166 -163.5 -256t-317.5 -90zM283 623h583q-15 155 -91.5 234t-194.5 79q-123 0 -200 -78.5t-97 -234.5z
M696 1272v215h185v-215h-185zM295 1272v215h184v-215h-184z" />
    <glyph glyph-name="igrave" unicode="&#xec;" horiz-adv-x="495" 
d="M154 0v1057h188v-1057h-188zM201 1229l-199 258h201l151 -258h-153z" />
    <glyph glyph-name="iacute" unicode="&#xed;" horiz-adv-x="495" 
d="M154 0v1057h188v-1057h-188zM141 1229l152 258h201l-199 -258h-154z" />
    <glyph glyph-name="icircumflex" unicode="&#xee;" horiz-adv-x="495" 
d="M154 0v1057h188v-1057h-188zM-33 1229l170 258h223l168 -258h-159l-121 174l-123 -174h-158z" />
    <glyph glyph-name="idieresis" unicode="&#xef;" horiz-adv-x="495" 
d="M154 0v1057h188v-1057h-188zM319 1272v215h183v-215h-183zM-6 1272v215h182v-215h-182z" />
    <glyph glyph-name="eth" unicode="&#xf0;" horiz-adv-x="1159" 
d="M573 -31q-153 0 -266 73.5t-169 194t-56 271.5q0 115 38.5 215t102 167.5t146.5 105.5t172 38q72 0 124.5 -18t112.5 -58l8 7q-113 150 -237 268l-209 -125l-70 102l183 109q-114 99 -205 168h233q59 -44 107 -86l182 108l72 -102l-158 -94q191 -187 291 -375t100 -397
q0 -158 -56.5 -286t-172 -207t-273.5 -79zM571 119q77 0 138 33.5t98 89.5t56.5 125t19.5 145q0 103 -32.5 187t-102.5 138t-168 54q-76 0 -135.5 -33t-95.5 -88.5t-54.5 -125t-18.5 -146.5q0 -75 17.5 -141.5t52 -120.5t92.5 -85.5t133 -31.5z" />
    <glyph glyph-name="ntilde" unicode="&#xf1;" horiz-adv-x="1177" 
d="M154 0v1057h174v-135q119 157 336 157q261 0 335 -188q37 -92 37 -258v-633h-188v596q0 46 -2.5 82t-10.5 77t-23.5 70t-39.5 54t-62 38t-87 13q-135 0 -208 -95t-73 -282v-553h-188zM270 1253q12 102 60 161t129 59q41 0 138 -41t136 -41q66 0 84 77h111
q-12 -102 -60 -160.5t-129 -58.5q-40 0 -137.5 41t-136.5 41q-68 0 -84 -78h-111z" />
    <glyph glyph-name="ograve" unicode="&#xf2;" horiz-adv-x="1187" 
d="M590 -31q-232 0 -370 154.5t-138 404.5q0 249 139 404t371 155q234 0 374 -155t140 -404q0 -250 -139.5 -404.5t-376.5 -154.5zM590 119q148 0 234.5 111t86.5 296q0 184 -87 297t-232 113q-144 0 -230 -111t-86 -295q0 -186 85 -298.5t229 -112.5zM528 1229l-237 258
h215l180 -258h-158z" />
    <glyph glyph-name="oacute" unicode="&#xf3;" horiz-adv-x="1187" 
d="M590 -31q-232 0 -370 154.5t-138 404.5q0 249 139 404t371 155q234 0 374 -155t140 -404q0 -250 -139.5 -404.5t-376.5 -154.5zM590 119q148 0 234.5 111t86.5 296q0 184 -87 297t-232 113q-144 0 -230 -111t-86 -295q0 -186 85 -298.5t229 -112.5zM498 1229l182 258h213
l-238 -258h-157z" />
    <glyph glyph-name="ocircumflex" unicode="&#xf4;" horiz-adv-x="1187" 
d="M590 -31q-232 0 -370 154.5t-138 404.5q0 249 139 404t371 155q234 0 374 -155t140 -404q0 -250 -139.5 -404.5t-376.5 -154.5zM590 119q148 0 234.5 111t86.5 296q0 184 -87 297t-232 113q-144 0 -230 -111t-86 -295q0 -186 85 -298.5t229 -112.5zM281 1229l190 258h250
l190 -258h-182l-135 180l-137 -180h-176z" />
    <glyph glyph-name="otilde" unicode="&#xf5;" horiz-adv-x="1187" 
d="M590 -31q-232 0 -370 154.5t-138 404.5q0 249 139 404t371 155q234 0 374 -155t140 -404q0 -250 -139.5 -404.5t-376.5 -154.5zM590 119q148 0 234.5 111t86.5 296q0 184 -87 297t-232 113q-144 0 -230 -111t-86 -295q0 -186 85 -298.5t229 -112.5zM256 1253
q12 102 59.5 161t128.5 59q41 0 138.5 -41t136.5 -41q66 0 84 77h110q-12 -102 -59.5 -160.5t-128.5 -58.5q-40 0 -137.5 41t-136.5 41q-68 0 -84 -78h-111z" />
    <glyph glyph-name="odieresis" unicode="&#xf6;" horiz-adv-x="1187" 
d="M590 -31q-232 0 -370 154.5t-138 404.5q0 249 139 404t371 155q234 0 374 -155t140 -404q0 -250 -139.5 -404.5t-376.5 -154.5zM590 119q148 0 234.5 111t86.5 296q0 184 -87 297t-232 113q-144 0 -230 -111t-86 -295q0 -186 85 -298.5t229 -112.5zM702 1272v215h185
v-215h-185zM301 1272v215h184v-215h-184z" />
    <glyph glyph-name="divide" unicode="&#xf7;" 
d="M543 109v210h202v-210h-202zM745 1001v-210h-202v210h202zM143 475v158h1002v-158h-1002z" />
    <glyph glyph-name="oslash" unicode="&#xf8;" horiz-adv-x="1204" 
d="M219 -109l-110 86l112 152q-131 153 -131 399q0 249 139 404t371 155q158 0 281 -77l106 141l111 -84l-113 -149q129 -154 129 -390q0 -250 -139.5 -404.5t-376.5 -154.5q-148 0 -268 70zM598 119q148 0 235 111.5t87 295.5q0 132 -52 236l-440 -590q71 -53 170 -53z
M336 283l444 591q-78 62 -180 62q-144 0 -229.5 -111t-85.5 -295q0 -142 51 -247z" />
    <glyph glyph-name="ugrave" unicode="&#xf9;" horiz-adv-x="1171" 
d="M510 -23q-131 0 -210.5 49t-123.5 140q-16 34 -24.5 85t-9.5 87.5t-1 103.5v615h187v-596q0 -56 3.5 -97.5t16.5 -89t36.5 -77.5t65.5 -50t101 -20q135 0 207.5 94t72.5 281v555h187v-1057h-174v135q-117 -158 -334 -158zM518 1229l-237 258h215l180 -258h-158z" />
    <glyph glyph-name="uacute" unicode="&#xfa;" horiz-adv-x="1171" 
d="M510 -23q-131 0 -210.5 49t-123.5 140q-16 34 -24.5 85t-9.5 87.5t-1 103.5v615h187v-596q0 -56 3.5 -97.5t16.5 -89t36.5 -77.5t65.5 -50t101 -20q135 0 207.5 94t72.5 281v555h187v-1057h-174v135q-117 -158 -334 -158zM487 1229l183 258h213l-238 -258h-158z" />
    <glyph glyph-name="ucircumflex" unicode="&#xfb;" horiz-adv-x="1171" 
d="M510 -23q-131 0 -210.5 49t-123.5 140q-16 34 -24.5 85t-9.5 87.5t-1 103.5v615h187v-596q0 -56 3.5 -97.5t16.5 -89t36.5 -77.5t65.5 -50t101 -20q135 0 207.5 94t72.5 281v555h187v-1057h-174v135q-117 -158 -334 -158zM270 1229l191 258h250l190 -258h-182l-135 180
l-138 -180h-176z" />
    <glyph glyph-name="udieresis" unicode="&#xfc;" horiz-adv-x="1171" 
d="M510 -23q-131 0 -210.5 49t-123.5 140q-16 34 -24.5 85t-9.5 87.5t-1 103.5v615h187v-596q0 -56 3.5 -97.5t16.5 -89t36.5 -77.5t65.5 -50t101 -20q135 0 207.5 94t72.5 281v555h187v-1057h-174v135q-117 -158 -334 -158zM692 1272v215h185v-215h-185zM291 1272v215h184
v-215h-184z" />
    <glyph glyph-name="yacute" unicode="&#xfd;" horiz-adv-x="1046" 
d="M219 -420q-67 0 -123 10v158q50 -12 90 -12q98 0 151.5 62t86.5 179l-401 1080h208l185 -529q25 -71 62 -202t46 -160h11q61 217 112 362l187 529h190l-393 -1057q-31 -83 -59 -142.5t-64.5 -115t-77 -89t-94 -53.5t-117.5 -20zM428 1229l182 258h213l-237 -258h-158z
" />
    <glyph glyph-name="thorn" unicode="&#xfe;" horiz-adv-x="1198" 
d="M154 -412v1899h188v-565q54 80 134 118.5t196 38.5q208 0 325 -152t117 -399q0 -255 -125.5 -403t-324.5 -148q-228 0 -322 142v-531h-188zM635 127q132 0 209.5 107t77.5 294q0 188 -77.5 295t-209.5 107q-133 0 -215 -111.5t-82 -290.5q0 -180 82 -290.5t215 -110.5z
" />
    <glyph glyph-name="ydieresis" unicode="&#xff;" horiz-adv-x="1046" 
d="M219 -420q-67 0 -123 10v158q50 -12 90 -12q98 0 151.5 62t86.5 179l-401 1080h208l185 -529q25 -71 62 -202t46 -160h11q61 217 112 362l187 529h190l-393 -1057q-31 -83 -59 -142.5t-64.5 -115t-77 -89t-94 -53.5t-117.5 -20zM633 1272v215h184v-215h-184zM231 1272
v215h185v-215h-185z" />
    <glyph glyph-name="Amacron" unicode="&#x100;" horiz-adv-x="1425" 
d="M6 0l604 1487h203l610 -1487h-219l-172 432h-651l-162 -432h-213zM446 596h527l-142 383q-7 19 -51 135.5t-65 177.5h-8q-77 -221 -111 -309zM442 1657v143h545v-143h-545z" />
    <glyph glyph-name="amacron" unicode="&#x101;" horiz-adv-x="1105" 
d="M446 -23q-171 0 -268.5 88.5t-97.5 231.5q0 56 15 102.5t44.5 80t64 59t84.5 43t94 29.5t104 20t103 12.5t102.5 9.5t92.5 9v36q0 248 -233 248q-113 0 -179.5 -55.5t-66.5 -159.5h-186q0 161 120 258.5t312 97.5q83 0 148.5 -16t109 -41t74.5 -65.5t47.5 -78t25.5 -91.5
t11 -93t2 -94v-289q0 -194 26 -319h-176q-12 60 -14 143q-66 -87 -154 -126.5t-205 -39.5zM489 115q62 0 111 14.5t92.5 50.5t67.5 106t24 171v59q-25 -3 -78 -7t-94.5 -8.5t-96 -13t-94.5 -23t-76.5 -36.5t-55.5 -56.5t-19 -78.5q0 -78 59.5 -128t159.5 -50zM287 1296v144
h540v-144h-540z" />
    <glyph glyph-name="Abreve" unicode="&#x102;" horiz-adv-x="1425" 
d="M6 0l604 1487h203l610 -1487h-219l-172 432h-651l-162 -432h-213zM446 596h527l-142 383q-7 19 -51 135.5t-65 177.5h-8q-77 -221 -111 -309zM717 1606q-134 0 -213.5 69.5t-85.5 175.5h168q14 -122 131 -122t131 122h168q-6 -106 -85.5 -175.5t-213.5 -69.5z" />
    <glyph glyph-name="abreve" unicode="&#x103;" horiz-adv-x="1105" 
d="M446 -23q-171 0 -268.5 88.5t-97.5 231.5q0 56 15 102.5t44.5 80t64 59t84.5 43t94 29.5t104 20t103 12.5t102.5 9.5t92.5 9v36q0 248 -233 248q-113 0 -179.5 -55.5t-66.5 -159.5h-186q0 161 120 258.5t312 97.5q83 0 148.5 -16t109 -41t74.5 -65.5t47.5 -78t25.5 -91.5
t11 -93t2 -94v-289q0 -194 26 -319h-176q-12 60 -14 143q-66 -87 -154 -126.5t-205 -39.5zM489 115q62 0 111 14.5t92.5 50.5t67.5 106t24 171v59q-25 -3 -78 -7t-94.5 -8.5t-96 -13t-94.5 -23t-76.5 -36.5t-55.5 -56.5t-19 -78.5q0 -78 59.5 -128t159.5 -50zM559 1223
q-131 0 -212 67t-81 197h156q0 -76 37 -113t100 -37q62 0 98.5 37t36.5 113h156q0 -131 -80.5 -197.5t-210.5 -66.5z" />
    <glyph glyph-name="Aogonek" unicode="&#x104;" horiz-adv-x="1425" 
d="M1323 -420q-95 0 -159 56t-64 141q0 115 129 223h-25l-172 432h-651l-162 -432h-213l604 1487h203l610 -1487q-83 -44 -127.5 -95t-44.5 -102q0 -40 26.5 -64t76.5 -24q34 0 69 13v-134q-36 -14 -100 -14zM446 596h527l-142 383q-7 19 -51 135.5t-65 177.5h-8
q-77 -221 -111 -309z" />
    <glyph glyph-name="aogonek" unicode="&#x105;" horiz-adv-x="1105" 
d="M895 -420q-95 0 -159 56t-64 141q0 121 143 235q-8 55 -10 131q-66 -87 -154 -126.5t-205 -39.5q-171 0 -268.5 88.5t-97.5 231.5q0 56 15 102.5t44.5 80t64 59t84.5 43t94 29.5t104 20t103 12.5t102.5 9.5t92.5 9v36q0 248 -233 248q-113 0 -179.5 -55.5t-66.5 -159.5
h-186q0 161 120 258.5t312 97.5q83 0 148.5 -16t109 -41t74.5 -65.5t47.5 -78t25.5 -91.5t11 -93t2 -94v-289q0 -194 26 -319q-83 -44 -127.5 -95t-44.5 -102q0 -40 26.5 -64t76.5 -24q34 0 69 13v-134q-36 -14 -100 -14zM489 115q62 0 111 14.5t92.5 50.5t67.5 106t24 171
v59q-25 -3 -78 -7t-94.5 -8.5t-96 -13t-94.5 -23t-76.5 -36.5t-55.5 -56.5t-19 -78.5q0 -78 59.5 -128t159.5 -50z" />
    <glyph glyph-name="Cacute" unicode="&#x106;" horiz-adv-x="1433" 
d="M768 -31q-161 0 -290 60t-211.5 166t-126.5 245.5t-44 302.5q0 218 76.5 391.5t230 278.5t361.5 105q253 0 413.5 -143.5t184.5 -373.5h-207q-26 169 -128 263t-263 94q-207 0 -333 -169t-126 -446q0 -276 128 -445t335 -169q157 0 260 98t131 267h209
q-36 -232 -196.5 -378.5t-403.5 -146.5zM666 1620l196 233h228l-259 -233h-165z" />
    <glyph glyph-name="cacute" unicode="&#x107;" horiz-adv-x="1087" 
d="M575 -31q-235 0 -364 151.5t-129 407.5q0 161 57.5 286.5t171.5 199t269 73.5q189 0 304 -98t140 -278h-197q-35 225 -249 225q-143 0 -221 -110.5t-78 -297.5t79 -298t220 -111q105 0 172.5 58.5t91.5 176.5h184q-67 -385 -451 -385zM475 1229l182 258h213l-237 -258
h-158z" />
    <glyph glyph-name="Ccircumflex" unicode="&#x108;" horiz-adv-x="1433" 
d="M768 -31q-161 0 -290 60t-211.5 166t-126.5 245.5t-44 302.5q0 218 76.5 391.5t230 278.5t361.5 105q253 0 413.5 -143.5t184.5 -373.5h-207q-26 169 -128 263t-263 94q-207 0 -333 -169t-126 -446q0 -276 128 -445t335 -169q157 0 260 98t131 267h209
q-36 -232 -196.5 -378.5t-403.5 -146.5zM455 1620l196 233h234l194 -233h-180l-133 154l-135 -154h-176z" />
    <glyph glyph-name="ccircumflex" unicode="&#x109;" horiz-adv-x="1087" 
d="M575 -31q-235 0 -364 151.5t-129 407.5q0 161 57.5 286.5t171.5 199t269 73.5q189 0 304 -98t140 -278h-197q-35 225 -249 225q-143 0 -221 -110.5t-78 -297.5t79 -298t220 -111q105 0 172.5 58.5t91.5 176.5h184q-67 -385 -451 -385zM258 1229l191 258h249l191 -258
h-182l-136 180l-137 -180h-176z" />
    <glyph glyph-name="Cdotaccent" unicode="&#x10a;" horiz-adv-x="1433" 
d="M768 -31q-161 0 -290 60t-211.5 166t-126.5 245.5t-44 302.5q0 218 76.5 391.5t230 278.5t361.5 105q253 0 413.5 -143.5t184.5 -373.5h-207q-26 169 -128 263t-263 94q-207 0 -333 -169t-126 -446q0 -276 128 -445t335 -169q157 0 260 98t131 267h209
q-36 -232 -196.5 -378.5t-403.5 -146.5zM672 1634v205h192v-205h-192z" />
    <glyph glyph-name="cdotaccent" unicode="&#x10b;" horiz-adv-x="1087" 
d="M575 -31q-235 0 -364 151.5t-129 407.5q0 161 57.5 286.5t171.5 199t269 73.5q189 0 304 -98t140 -278h-197q-35 225 -249 225q-143 0 -221 -110.5t-78 -297.5t79 -298t220 -111q105 0 172.5 58.5t91.5 176.5h184q-67 -385 -451 -385zM477 1282v205h189v-205h-189z" />
    <glyph glyph-name="Ccaron" unicode="&#x10c;" horiz-adv-x="1433" 
d="M768 -31q-161 0 -290 60t-211.5 166t-126.5 245.5t-44 302.5q0 218 76.5 391.5t230 278.5t361.5 105q253 0 413.5 -143.5t184.5 -373.5h-207q-26 169 -128 263t-263 94q-207 0 -333 -169t-126 -446q0 -276 128 -445t335 -169q157 0 260 98t131 267h209
q-36 -232 -196.5 -378.5t-403.5 -146.5zM649 1620l-194 233h180l133 -153l135 153h176l-196 -233h-234z" />
    <glyph glyph-name="ccaron" unicode="&#x10d;" horiz-adv-x="1087" 
d="M575 -31q-235 0 -364 151.5t-129 407.5q0 161 57.5 286.5t171.5 199t269 73.5q189 0 304 -98t140 -278h-197q-35 225 -249 225q-143 0 -221 -110.5t-78 -297.5t79 -298t220 -111q105 0 172.5 58.5t91.5 176.5h184q-67 -385 -451 -385zM453 1229l-191 258h172l135 -182
l138 182h172l-191 -258h-235z" />
    <glyph glyph-name="Dcaron" unicode="&#x10e;" horiz-adv-x="1454" 
d="M178 0v1487h430q302 0 461 -109q140 -97 214.5 -263t74.5 -372q0 -202 -79.5 -365.5t-221.5 -262.5q-88 -60 -195.5 -87.5t-253.5 -27.5h-430zM379 164h203q266 0 393 112q81 70 126.5 194t45.5 273q0 150 -42 275.5t-122 195.5q-124 109 -401 109h-203v-1159zM567 1620
l-194 233h180l133 -153l135 153h176l-196 -233h-234z" />
    <glyph glyph-name="dcaron" unicode="&#x10f;" horiz-adv-x="1230" 
d="M537 -23q-211 0 -332 144.5t-121 406.5q0 157 55.5 282t159.5 197t238 72q111 0 189.5 -34t129.5 -111v553h188v-1487h-180v139q-110 -162 -327 -162zM563 127q134 0 215.5 109t81.5 292q0 187 -81 294.5t-216 107.5q-131 0 -207.5 -107t-76.5 -295q0 -184 76.5 -292.5
t207.5 -108.5zM1178 1176l16 311h172v-45l-61 -266h-127z" />
    <glyph glyph-name="Dcroat" unicode="&#x110;" horiz-adv-x="1515" 
d="M240 0v686h-199v158h199v643h430q301 0 460 -109q140 -97 214.5 -263t74.5 -372q0 -202 -79.5 -365.5t-221.5 -262.5q-88 -60 -195 -87.5t-253 -27.5h-430zM440 164h203q266 0 393 112q81 70 126.5 194t45.5 273q0 150 -42 275.5t-122 195.5q-124 109 -401 109h-203v-479
h260v-158h-260v-522z" />
    <glyph glyph-name="dcroat" unicode="&#x111;" horiz-adv-x="1198" 
d="M537 -23q-211 0 -332 142.5t-121 398.5q0 154 55.5 277t159.5 193.5t238 70.5q222 0 319 -144v287h-250v139h250v146h188v-146h158v-139h-158v-1202h-180v137q-111 -160 -327 -160zM563 127q134 0 215.5 106t81.5 285q0 182 -81 286.5t-216 104.5q-131 0 -207.5 -104
t-76.5 -287q0 -180 76.5 -285.5t207.5 -105.5z" />
    <glyph glyph-name="Emacron" unicode="&#x112;" horiz-adv-x="1224" 
d="M178 0v1487h926v-166h-725v-477h692v-168h-692v-510h760v-166h-961zM393 1657v143h545v-143h-545z" />
    <glyph glyph-name="emacron" unicode="&#x113;" horiz-adv-x="1150" 
d="M584 -31q-241 0 -371.5 148t-130.5 411q0 244 138.5 401.5t367.5 157.5q243 0 361 -159t118 -459h-788q7 -156 94 -253t217 -97q104 0 176 48.5t100 147.5h199q-33 -166 -163.5 -256t-317.5 -90zM283 623h583q-15 155 -91.5 234t-194.5 79q-123 0 -200 -78.5t-97 -234.5z
M317 1296v144h541v-144h-541z" />
    <glyph glyph-name="Ebreve" unicode="&#x114;" horiz-adv-x="1224" 
d="M178 0v1487h926v-166h-725v-477h692v-168h-692v-510h760v-166h-961zM668 1606q-134 0 -213.5 69.5t-85.5 175.5h168q14 -122 131 -122t131 122h168q-6 -106 -85.5 -175.5t-213.5 -69.5z" />
    <glyph glyph-name="ebreve" unicode="&#x115;" horiz-adv-x="1150" 
d="M584 -31q-241 0 -371.5 148t-130.5 411q0 244 138.5 401.5t367.5 157.5q243 0 361 -159t118 -459h-788q7 -156 94 -253t217 -97q104 0 176 48.5t100 147.5h199q-33 -166 -163.5 -256t-317.5 -90zM283 623h583q-15 155 -91.5 234t-194.5 79q-123 0 -200 -78.5t-97 -234.5z
M590 1223q-131 0 -212 67t-81 197h156q0 -76 37 -113t100 -37q62 0 98.5 37t36.5 113h156q0 -131 -80.5 -197.5t-210.5 -66.5z" />
    <glyph glyph-name="Edotaccent" unicode="&#x116;" horiz-adv-x="1224" 
d="M178 0v1487h926v-166h-725v-477h692v-168h-692v-510h760v-166h-961zM569 1634v205h193v-205h-193z" />
    <glyph glyph-name="edotaccent" unicode="&#x117;" horiz-adv-x="1150" 
d="M584 -31q-241 0 -371.5 148t-130.5 411q0 244 138.5 401.5t367.5 157.5q243 0 361 -159t118 -459h-788q7 -156 94 -253t217 -97q104 0 176 48.5t100 147.5h199q-33 -166 -163.5 -256t-317.5 -90zM283 623h583q-15 155 -91.5 234t-194.5 79q-123 0 -200 -78.5t-97 -234.5z
M494 1282v205h188v-205h-188z" />
    <glyph glyph-name="Eogonek" unicode="&#x118;" horiz-adv-x="1224" 
d="M178 0v1487h926v-166h-725v-477h692v-168h-692v-510h760v-166q-83 -44 -127.5 -95t-44.5 -102q0 -40 26.5 -64t75.5 -24q35 0 70 13v-134q-36 -14 -101 -14q-95 0 -159 56t-64 141q0 115 129 223h-766z" />
    <glyph glyph-name="eogonek" unicode="&#x119;" horiz-adv-x="1150" 
d="M739 -420q-102 0 -164.5 55t-62.5 142q0 95 111 194q-12 -2 -39 -2q-241 0 -371.5 148t-130.5 411q0 244 138.5 401.5t367.5 157.5q233 0 351.5 -147.5t127.5 -427.5v-43h-788q7 -156 94 -253t217 -97q104 0 176 48.5t100 147.5h199q-35 -168 -180 -266
q-113 -77 -165 -135.5t-52 -110.5q0 -39 25.5 -63.5t70.5 -24.5q52 0 86 17v-133q-42 -19 -111 -19zM283 623h583q-15 155 -91.5 234t-194.5 79q-123 0 -200 -78.5t-97 -234.5z" />
    <glyph glyph-name="Ecaron" unicode="&#x11a;" horiz-adv-x="1224" 
d="M178 0v1487h926v-166h-725v-477h692v-168h-692v-510h760v-166h-961zM547 1620l-195 233h180l134 -153l135 153h176l-197 -233h-233z" />
    <glyph glyph-name="ecaron" unicode="&#x11b;" horiz-adv-x="1150" 
d="M584 -31q-241 0 -371.5 148t-130.5 411q0 244 138.5 401.5t367.5 157.5q243 0 361 -159t118 -459h-788q7 -156 94 -253t217 -97q104 0 176 48.5t100 147.5h199q-33 -166 -163.5 -256t-317.5 -90zM283 623h583q-15 155 -91.5 234t-194.5 79q-123 0 -200 -78.5t-97 -234.5z
M469 1229l-190 258h172l135 -182l137 182h172l-190 -258h-236z" />
    <glyph glyph-name="Gcircumflex" unicode="&#x11c;" horiz-adv-x="1478" 
d="M733 -25q-161 0 -284.5 59t-199.5 164.5t-114.5 243t-38.5 301.5q0 162 46 302.5t131 246t213.5 166t285.5 60.5q247 0 400 -127.5t182 -335.5h-207q-26 143 -125 223t-250 80q-208 0 -337.5 -169.5t-129.5 -445.5q0 -277 122 -442.5t329 -165.5q182 0 293.5 129.5
t113.5 337.5h-364v168h559v-770h-176v61q0 90 6 129l-10 5q-73 -106 -187 -163t-258 -57zM463 1620l196 233h234l194 -233h-180l-133 154l-135 -154h-176z" />
    <glyph glyph-name="gcircumflex" unicode="&#x11d;" horiz-adv-x="1179" 
d="M565 -420q-196 0 -309.5 84t-126.5 248h195q12 -191 245 -191q144 0 212.5 83.5t68.5 285.5v105q-66 -89 -142.5 -124.5t-191.5 -35.5q-195 0 -313.5 143.5t-118.5 370.5q0 104 30 199t85 169t140 118t187 44q236 0 328 -170v148h174v-905q0 -112 -13.5 -198t-46 -158
t-85 -118.5t-132 -72t-186.5 -25.5zM563 180q132 0 210.5 104.5t78.5 282.5q0 162 -80 264.5t-209 102.5q-134 0 -210.5 -100t-76.5 -265q0 -182 77 -285.5t210 -103.5zM252 1229l190 258h250l191 -258h-183l-135 180l-137 -180h-176z" />
    <glyph glyph-name="Gbreve" unicode="&#x11e;" horiz-adv-x="1478" 
d="M733 -25q-161 0 -284.5 59t-199.5 164.5t-114.5 243t-38.5 301.5q0 162 46 302.5t131 246t213.5 166t285.5 60.5q247 0 400 -127.5t182 -335.5h-207q-26 143 -125 223t-250 80q-208 0 -337.5 -169.5t-129.5 -445.5q0 -277 122 -442.5t329 -165.5q182 0 293.5 129.5
t113.5 337.5h-364v168h559v-770h-176v61q0 90 6 129l-10 5q-73 -106 -187 -163t-258 -57zM778 1606q-134 0 -213.5 69.5t-85.5 175.5h168q14 -122 131 -122t131 122h168q-6 -106 -85.5 -175.5t-213.5 -69.5z" />
    <glyph glyph-name="gbreve" unicode="&#x11f;" horiz-adv-x="1179" 
d="M565 -420q-196 0 -309.5 84t-126.5 248h195q12 -191 245 -191q144 0 212.5 83.5t68.5 285.5v105q-66 -89 -142.5 -124.5t-191.5 -35.5q-195 0 -313.5 143.5t-118.5 370.5q0 104 30 199t85 169t140 118t187 44q236 0 328 -170v148h174v-905q0 -112 -13.5 -198t-46 -158
t-85 -118.5t-132 -72t-186.5 -25.5zM563 180q132 0 210.5 104.5t78.5 282.5q0 162 -80 264.5t-209 102.5q-134 0 -210.5 -100t-76.5 -265q0 -182 77 -285.5t210 -103.5zM567 1223q-131 0 -212 67t-81 197h156q0 -76 37 -113t100 -37q62 0 98.5 37t36.5 113h156
q0 -131 -80.5 -197.5t-210.5 -66.5z" />
    <glyph glyph-name="Gdotaccent" unicode="&#x120;" horiz-adv-x="1478" 
d="M733 -25q-161 0 -284.5 59t-199.5 164.5t-114.5 243t-38.5 301.5q0 162 46 302.5t131 246t213.5 166t285.5 60.5q247 0 400 -127.5t182 -335.5h-207q-26 143 -125 223t-250 80q-208 0 -337.5 -169.5t-129.5 -445.5q0 -277 122 -442.5t329 -165.5q182 0 293.5 129.5
t113.5 337.5h-364v168h559v-770h-176v61q0 90 6 129l-10 5q-73 -106 -187 -163t-258 -57zM680 1634v205h192v-205h-192z" />
    <glyph glyph-name="gdotaccent" unicode="&#x121;" horiz-adv-x="1179" 
d="M565 -420q-196 0 -309.5 84t-126.5 248h195q12 -191 245 -191q144 0 212.5 83.5t68.5 285.5v105q-66 -89 -142.5 -124.5t-191.5 -35.5q-195 0 -313.5 143.5t-118.5 370.5q0 104 30 199t85 169t140 118t187 44q236 0 328 -170v148h174v-905q0 -112 -13.5 -198t-46 -158
t-85 -118.5t-132 -72t-186.5 -25.5zM563 180q132 0 210.5 104.5t78.5 282.5q0 162 -80 264.5t-209 102.5q-134 0 -210.5 -100t-76.5 -265q0 -182 77 -285.5t210 -103.5zM471 1282v205h188v-205h-188z" />
    <glyph glyph-name="uni0122" unicode="&#x122;" horiz-adv-x="1478" 
d="M733 -25q-161 0 -284.5 59t-199.5 164.5t-114.5 243t-38.5 301.5q0 162 46 302.5t131 246t213.5 166t285.5 60.5q247 0 400 -127.5t182 -335.5h-207q-26 143 -125 223t-250 80q-208 0 -337.5 -169.5t-129.5 -445.5q0 -277 122 -442.5t329 -165.5q182 0 293.5 129.5
t113.5 337.5h-364v168h559v-770h-176v61q0 90 6 129l-10 5q-73 -106 -187 -163t-258 -57zM664 -520l77 201h-82v190h207v-186l-98 -205h-104z" />
    <glyph glyph-name="uni0123" unicode="&#x123;" horiz-adv-x="1179" 
d="M565 -420q-196 0 -309.5 84t-126.5 248h195q12 -191 245 -191q144 0 212.5 83.5t68.5 285.5v105q-66 -89 -142.5 -124.5t-191.5 -35.5q-195 0 -313.5 143.5t-118.5 370.5q0 104 30 199t85 169t140 118t187 44q236 0 328 -170v148h174v-905q0 -112 -13.5 -198t-46 -158
t-85 -118.5t-132 -72t-186.5 -25.5zM563 180q132 0 210.5 104.5t78.5 282.5q0 162 -80 264.5t-209 102.5q-134 0 -210.5 -100t-76.5 -265q0 -182 77 -285.5t210 -103.5zM664 1585l-72 -201h74v-186h-195v186l94 201h99z" />
    <glyph glyph-name="Hcircumflex" unicode="&#x124;" horiz-adv-x="1525" 
d="M178 0v1487h201v-637h766v637h203v-1487h-203v684h-766v-684h-201zM451 1620l196 233h234l194 -233h-180l-133 154l-135 -154h-176z" />
    <glyph glyph-name="hcircumflex" unicode="&#x125;" horiz-adv-x="1177" 
d="M154 0v1487h188v-563q97 155 322 155q256 0 337 -188q35 -79 35 -258v-633h-188v594q0 46 -2.5 82t-10.5 77.5t-23.5 70.5t-39.5 54.5t-62 38.5t-87 13q-135 0 -208 -95t-73 -282v-553h-188zM360 1853l179 -233h-170l-121 154l-123 -154h-168l180 233h223z" />
    <glyph glyph-name="Hbar" unicode="&#x126;" horiz-adv-x="1609" 
d="M221 0v1114h-168v154h168v219h201v-219h766v219h201v-219h167v-154h-167v-1114h-201v653h-766v-653h-201zM422 819h766v295h-766v-295z" />
    <glyph glyph-name="hbar" unicode="&#x127;" horiz-adv-x="1177" 
d="M154 0v1202h-158v139h158v146h188v-146h250v-139h-250v-299q98 156 322 156q264 0 337 -189q35 -87 35 -258v-612h-188v573q0 46 -2.5 82t-10.5 77.5t-23.5 70.5t-39.5 54.5t-62 38.5t-87 13q-135 0 -208 -95t-73 -282v-532h-188z" />
    <glyph glyph-name="Itilde" unicode="&#x128;" horiz-adv-x="557" 
d="M-10 1632q11 102 54 160.5t116 58.5q38 0 117 -41t114 -41q60 0 76 78h100q-11 -102 -54 -160.5t-116 -58.5q-36 0 -116 41t-115 41q-63 0 -76 -78h-100zM178 0v1487h201v-1487h-201z" />
    <glyph glyph-name="itilde" unicode="&#x129;" horiz-adv-x="495" 
d="M154 0v1057h188v-1057h-188zM-41 1253q11 102 54 161t116 59q37 0 117 -41t114 -41q30 0 48.5 17.5t27.5 59.5h101q-11 -102 -54 -160.5t-116 -58.5q-36 0 -116.5 41t-115.5 41q-63 0 -76 -78h-100z" />
    <glyph glyph-name="Imacron" unicode="&#x12a;" horiz-adv-x="557" 
d="M178 0v1487h201v-1487h-201zM6 1657v143h545v-143h-545z" />
    <glyph glyph-name="imacron" unicode="&#x12b;" horiz-adv-x="495" 
d="M154 0v1057h188v-1057h-188zM-2 1296v144h500v-144h-500z" />
    <glyph glyph-name="Ibreve" unicode="&#x12c;" horiz-adv-x="557" 
d="M178 0v1487h201v-1487h-201zM281 1606q-134 0 -213.5 69.5t-85.5 175.5h168q14 -122 131 -122t131 122h168q-6 -106 -85.5 -175.5t-213.5 -69.5z" />
    <glyph glyph-name="ibreve" unicode="&#x12d;" horiz-adv-x="495" 
d="M154 0v1057h188v-1057h-188zM248 1223q-119 0 -192.5 67.5t-73.5 196.5h149q0 -76 31.5 -113t85.5 -37q52 0 83 37t31 113h152q0 -130 -74 -197t-192 -67z" />
    <glyph glyph-name="Iogonek" unicode="&#x12e;" horiz-adv-x="557" 
d="M285 -420q-99 0 -161.5 55t-62.5 142q0 109 117 223v1487h201v-1487q-164 -93 -164 -197q0 -39 24.5 -63.5t69.5 -24.5q50 0 84 17v-133q-42 -19 -108 -19z" />
    <glyph glyph-name="iogonek" unicode="&#x12f;" horiz-adv-x="495" 
d="M248 -420q-99 0 -161 55t-62 142q0 115 129 223v1057h188v-1057q-164 -93 -164 -197q0 -39 24.5 -63.5t69.5 -24.5q50 0 84 17v-133q-42 -19 -108 -19zM154 1282v205h188v-205h-188z" />
    <glyph glyph-name="Idotaccent" unicode="&#x130;" horiz-adv-x="557" 
d="M178 0v1487h201v-1487h-201zM182 1634v205h193v-205h-193z" />
    <glyph glyph-name="dotlessi" unicode="&#x131;" horiz-adv-x="495" 
d="M154 0v1057h188v-1057h-188z" />
    <glyph glyph-name="IJ" unicode="&#x132;" horiz-adv-x="1302" 
d="M178 0v1487h201v-1487h-201zM760 -16q-84 0 -168 16v172q59 -12 135 -12q117 0 163 68t46 251v1008h201v-1030q0 -242 -86 -357.5t-291 -115.5z" />
    <glyph glyph-name="ij" unicode="&#x133;" horiz-adv-x="995" 
d="M154 0v1057h188v-1057h-188zM154 1282v205h188v-205h-188zM584 -420q-52 0 -140 10v160q31 -10 93 -10q31 0 52 11t33.5 29t19.5 49.5t9 63t2 78.5v1086h189v-1061q0 -237 -54.5 -326.5t-203.5 -89.5zM653 1282v205h189v-205h-189z" />
    <glyph glyph-name="Jcircumflex" unicode="&#x134;" horiz-adv-x="741" 
d="M199 -16q-84 0 -168 16v172q59 -12 135 -12q117 0 163 68t46 251v1008h200v-1030q0 -242 -86 -357.5t-290 -115.5zM158 1620l196 233h234l194 -233h-180l-133 154l-135 -154h-176z" />
    <glyph glyph-name="jcircumflex" unicode="&#x135;" horiz-adv-x="495" 
d="M-31 1229l170 258h223l168 -258h-159l-121 174l-123 -174h-158zM84 -420q-51 0 -139 10v160q31 -10 92 -10q72 0 94.5 55.5t22.5 175.5v1086h188v-1061q0 -237 -54.5 -326.5t-203.5 -89.5z" />
    <glyph glyph-name="uni0136" unicode="&#x136;" horiz-adv-x="1269" 
d="M178 0v1487h201v-664l614 664h238l-651 -684l704 -803h-258l-647 756v-756h-201zM539 -520l77 201h-81v190h206v-186l-98 -205h-104z" />
    <glyph glyph-name="uni0137" unicode="&#x137;" horiz-adv-x="1024" 
d="M154 0v1487h188v-864l428 434h223l-467 -463l514 -594h-237l-461 553v-553h-188zM436 -518l72 201h-74v186h195v-186l-94 -201h-99z" />
    <glyph glyph-name="kgreenlandic" unicode="&#x138;" horiz-adv-x="1021" 
d="M154 0v1057h188v-482l428 482h223l-467 -510l514 -547h-237l-461 506v-506h-188z" />
    <glyph glyph-name="Lacute" unicode="&#x139;" horiz-adv-x="1132" 
d="M178 0v1487h201v-1319h727v-168h-928zM172 1620l197 233h227l-258 -233h-166z" />
    <glyph glyph-name="lacute" unicode="&#x13a;" horiz-adv-x="495" 
d="M154 0v1487h188v-1487h-188zM152 1620l196 233h227l-258 -233h-165z" />
    <glyph glyph-name="uni013B" unicode="&#x13b;" horiz-adv-x="1132" 
d="M178 0v1487h201v-1319h727v-168h-928zM545 -520l78 201h-82v190h207v-186l-99 -205h-104z" />
    <glyph glyph-name="uni013C" unicode="&#x13c;" horiz-adv-x="495" 
d="M154 0v1487h188v-1487h-188zM154 -518l71 201h-73v186h194v-186l-94 -201h-98z" />
    <glyph glyph-name="Lcaron" unicode="&#x13d;" horiz-adv-x="1132" 
d="M178 0v1487h201v-1319h727v-168h-928zM651 1176l17 311h172v-45l-62 -266h-127z" />
    <glyph glyph-name="lcaron" unicode="&#x13e;" horiz-adv-x="528" 
d="M154 0v1487h188v-1487h-188zM475 1176l17 311h172v-45l-62 -266h-127z" />
    <glyph glyph-name="Ldot" unicode="&#x13f;" horiz-adv-x="1134" 
d="M178 0v1487h201v-1319h727v-168h-928zM741 692v205h191v-205h-191z" />
    <glyph glyph-name="ldot" unicode="&#x140;" horiz-adv-x="651" 
d="M154 0v1487h188v-1487h-188zM479 692v205h189v-205h-189z" />
    <glyph glyph-name="Lslash" unicode="&#x141;" horiz-adv-x="1218" 
d="M78 395v178l186 117v797h201v-688l401 262v-187l-401 -256v-450h727v-168h-928v514z" />
    <glyph glyph-name="lslash" unicode="&#x142;" horiz-adv-x="651" 
d="M70 504v170l170 129v684h188v-563l170 135v-174l-170 -129v-756h-188v635z" />
    <glyph glyph-name="Nacute" unicode="&#x143;" horiz-adv-x="1533" 
d="M178 0v1487h275q609 -1056 718 -1278h11q-13 351 -13 536v742h187v-1487h-271q-623 1092 -727 1296h-10q14 -387 14 -555v-741h-184zM666 1620l196 233h228l-259 -233h-165z" />
    <glyph glyph-name="nacute" unicode="&#x144;" horiz-adv-x="1177" 
d="M154 0v1057h174v-135q119 157 336 157q261 0 335 -188q37 -92 37 -258v-633h-188v596q0 46 -2.5 82t-10.5 77t-23.5 70t-39.5 54t-62 38t-87 13q-135 0 -208 -95t-73 -282v-553h-188zM500 1229l182 258h213l-238 -258h-157z" />
    <glyph glyph-name="uni0145" unicode="&#x145;" horiz-adv-x="1533" 
d="M178 0v1487h275q609 -1056 718 -1278h11q-13 351 -13 536v742h187v-1487h-271q-623 1092 -727 1296h-10q14 -387 14 -555v-741h-184zM666 -520l77 201h-81v190h206v-186l-98 -205h-104z" />
    <glyph glyph-name="uni0146" unicode="&#x146;" horiz-adv-x="1177" 
d="M154 0v1057h174v-135q119 157 336 157q261 0 335 -188q37 -92 37 -258v-633h-188v596q0 46 -2.5 82t-10.5 77t-23.5 70t-39.5 54t-62 38t-87 13q-135 0 -208 -95t-73 -282v-553h-188zM496 -518l71 201h-73v186h194v-186l-94 -201h-98z" />
    <glyph glyph-name="Ncaron" unicode="&#x147;" horiz-adv-x="1533" 
d="M178 0v1487h275q609 -1056 718 -1278h11q-13 351 -13 536v742h187v-1487h-271q-623 1092 -727 1296h-10q14 -387 14 -555v-741h-184zM649 1620l-194 233h180l133 -153l135 153h176l-196 -233h-234z" />
    <glyph glyph-name="ncaron" unicode="&#x148;" horiz-adv-x="1177" 
d="M154 0v1057h174v-135q119 157 336 157q261 0 335 -188q37 -92 37 -258v-633h-188v596q0 46 -2.5 82t-10.5 77t-23.5 70t-39.5 54t-62 38t-87 13q-135 0 -208 -95t-73 -282v-553h-188zM477 1229l-190 258h172l135 -182l137 182h172l-190 -258h-236z" />
    <glyph glyph-name="napostrophe" unicode="&#x149;" horiz-adv-x="1376" 
d="M352 0v1057h174v-135q119 157 336 157q262 0 336 -188q37 -92 37 -258v-633h-188v596q0 56 -4 98.5t-17.5 89.5t-37 76.5t-66 49.5t-101.5 20q-134 0 -207 -95t-73 -282v-553h-189zM248 1290l-98 -200h-99l78 198h-80v193h199v-191z" />
    <glyph glyph-name="Eng" unicode="&#x14a;" horiz-adv-x="1533" 
d="M1004 -420q-71 0 -154 14v152q56 -12 125 -12q190 0 190 266l-807 1296h-10l2 -59q12 -336 12 -496v-741h-184v1487h275l718 -1161h11q-13 407 -13 546v615h187v-1436q0 -240 -81.5 -355.5t-270.5 -115.5z" />
    <glyph glyph-name="eng" unicode="&#x14b;" horiz-adv-x="1173" 
d="M774 -420q-51 0 -139 10v160q31 -10 92 -10q72 0 95.5 56t23.5 175v615q0 176 -51 259t-172 83q-281 0 -281 -383v-545h-188v1057h174v-137q120 159 331 159q106 0 180 -30.5t115.5 -90.5t59.5 -139t18 -186v-637q0 -238 -54 -327t-204 -89z" />
    <glyph glyph-name="Omacron" unicode="&#x14c;" horiz-adv-x="1562" 
d="M780 -31q-205 0 -361 97.5t-239.5 273t-83.5 403.5q0 227 83.5 403t239.5 274t361 98t361.5 -98t240.5 -274t84 -403q0 -350 -187.5 -562t-498.5 -212zM780 129q143 0 252 80t167 219t58 315t-58 315t-167 219.5t-252 80.5q-142 0 -250.5 -80.5t-166.5 -219.5t-58 -315
t58 -315t166.5 -219t250.5 -80zM510 1657v143h545v-143h-545z" />
    <glyph glyph-name="omacron" unicode="&#x14d;" horiz-adv-x="1187" 
d="M590 -31q-232 0 -370 154.5t-138 404.5q0 249 139 404t371 155q234 0 374 -155t140 -404q0 -250 -139.5 -404.5t-376.5 -154.5zM590 119q148 0 234.5 111t86.5 296q0 184 -87 297t-232 113q-144 0 -230 -111t-86 -295q0 -186 85 -298.5t229 -112.5zM324 1296v144h540
v-144h-540z" />
    <glyph glyph-name="Obreve" unicode="&#x14e;" horiz-adv-x="1562" 
d="M780 -31q-205 0 -361 97.5t-239.5 273t-83.5 403.5q0 227 83.5 403t239.5 274t361 98t361.5 -98t240.5 -274t84 -403q0 -350 -187.5 -562t-498.5 -212zM780 129q143 0 252 80t167 219t58 315t-58 315t-167 219.5t-252 80.5q-142 0 -250.5 -80.5t-166.5 -219.5t-58 -315
t58 -315t166.5 -219t250.5 -80zM784 1606q-134 0 -213.5 69.5t-85.5 175.5h168q14 -122 131 -122t131 122h168q-6 -106 -85.5 -175.5t-213.5 -69.5z" />
    <glyph glyph-name="obreve" unicode="&#x14f;" horiz-adv-x="1187" 
d="M590 -31q-232 0 -370 154.5t-138 404.5q0 249 139 404t371 155q234 0 374 -155t140 -404q0 -250 -139.5 -404.5t-376.5 -154.5zM590 119q148 0 234.5 111t86.5 296q0 184 -87 297t-232 113q-144 0 -230 -111t-86 -295q0 -186 85 -298.5t229 -112.5zM596 1223
q-131 0 -212 67t-81 197h156q0 -76 37 -113t100 -37q62 0 98.5 37t36.5 113h156q0 -131 -80.5 -197.5t-210.5 -66.5z" />
    <glyph glyph-name="Ohungarumlaut" unicode="&#x150;" horiz-adv-x="1562" 
d="M780 -31q-205 0 -361 97.5t-239.5 273t-83.5 403.5q0 227 83.5 403t239.5 274t361 98t361.5 -98t240.5 -274t84 -403q0 -350 -187.5 -562t-498.5 -212zM780 129q143 0 252 80t167 219t58 315t-58 315t-167 219.5t-252 80.5q-142 0 -250.5 -80.5t-166.5 -219.5t-58 -315
t58 -315t166.5 -219t250.5 -80zM893 1620l203 233h215l-258 -233h-160zM512 1620l174 233h213l-235 -233h-152z" />
    <glyph glyph-name="ohungarumlaut" unicode="&#x151;" horiz-adv-x="1187" 
d="M590 -31q-232 0 -370 154.5t-138 404.5q0 249 139 404t371 155q234 0 374 -155t140 -404q0 -250 -139.5 -404.5t-376.5 -154.5zM590 119q148 0 234.5 111t86.5 296q0 184 -87 297t-232 113q-144 0 -230 -111t-86 -295q0 -186 85 -298.5t229 -112.5zM690 1229l187 258h202
l-239 -258h-150zM311 1229l170 258h201l-227 -258h-144z" />
    <glyph glyph-name="OE" unicode="&#x152;" horiz-adv-x="2011" 
d="M840 0q-327 0 -512 147q-232 185 -232 596q0 197 74 353t211 254q191 137 467 137h1053v-166h-664v-471h616v-166h-616v-518h684v-166h-1081zM864 166h170v1155h-160q-569 0 -569 -578q0 -171 39 -287.5t125 -185.5q131 -104 395 -104z" />
    <glyph glyph-name="oe" unicode="&#x153;" horiz-adv-x="1902" 
d="M578 -31q-220 0 -359 155.5t-139 403.5q0 243 138 401t353 158q131 0 239 -61.5t167 -175.5q140 237 393 237q221 0 334.5 -152.5t118.5 -434.5v-21h-746q0 -68 15.5 -129.5t48.5 -114.5t92.5 -84.5t138.5 -31.5q103 0 163 46t93 144h182q-20 -93 -63 -160.5t-103 -106
t-127.5 -56t-146.5 -17.5q-126 0 -237 63.5t-154 182.5q-53 -113 -161 -179.5t-240 -66.5zM588 119q139 0 221 110.5t82 298.5q0 189 -83 298.5t-224 109.5t-221 -110t-80 -298q0 -190 80 -299.5t225 -109.5zM1081 627h555q-9 141 -80 225t-190 84t-197.5 -86t-87.5 -223z
" />
    <glyph glyph-name="Racute" unicode="&#x154;" horiz-adv-x="1327" 
d="M178 0v1487h440q188 0 289 -31q128 -39 203.5 -136.5t75.5 -250.5q0 -133 -89.5 -237t-234.5 -136v-6q56 -3 99.5 -22t72 -51t46.5 -65t32 -75l156 -477h-215l-133 422q-11 36 -25 64t-33 48t-36 34t-45 23t-48 14.5t-57.5 7.5t-61 2.5t-69.5 0.5h-166v-616h-201z
M379 780h170q58 0 103 3t98.5 12t91.5 28t71.5 48t50.5 74.5t17 105.5q0 119 -58.5 179t-162.5 81q-63 12 -211 12h-170v-543zM526 1620l197 233h227l-258 -233h-166z" />
    <glyph glyph-name="racute" unicode="&#x155;" horiz-adv-x="774" 
d="M154 0v1057h178v-156q59 91 131.5 129.5t165.5 38.5q61 0 119 -12v-166q-82 14 -125 14q-67 0 -116.5 -19.5t-80.5 -54t-50 -88.5t-26.5 -115.5t-7.5 -142.5v-485h-188zM352 1229l183 258h213l-238 -258h-158z" />
    <glyph glyph-name="uni0156" unicode="&#x156;" horiz-adv-x="1327" 
d="M178 0v1487h440q188 0 289 -31q128 -39 203.5 -136.5t75.5 -250.5q0 -133 -89.5 -237t-234.5 -136v-6q56 -3 99.5 -22t72 -51t46.5 -65t32 -75l156 -477h-215l-133 422q-11 36 -25 64t-33 48t-36 34t-45 23t-48 14.5t-57.5 7.5t-61 2.5t-69.5 0.5h-166v-616h-201z
M379 780h170q58 0 103 3t98.5 12t91.5 28t71.5 48t50.5 74.5t17 105.5q0 119 -58.5 179t-162.5 81q-63 12 -211 12h-170v-543zM580 -520l77 201h-82v190h207v-186l-98 -205h-104z" />
    <glyph glyph-name="uni0157" unicode="&#x157;" horiz-adv-x="774" 
d="M154 0v1057h178v-156q59 91 131.5 129.5t165.5 38.5q61 0 119 -12v-166q-82 14 -125 14q-67 0 -116.5 -19.5t-80.5 -54t-50 -88.5t-26.5 -115.5t-7.5 -142.5v-485h-188zM156 -518l71 201h-73v186h194v-186l-94 -201h-98z" />
    <glyph glyph-name="Rcaron" unicode="&#x158;" horiz-adv-x="1327" 
d="M178 0v1487h440q188 0 289 -31q128 -39 203.5 -136.5t75.5 -250.5q0 -133 -89.5 -237t-234.5 -136v-6q56 -3 99.5 -22t72 -51t46.5 -65t32 -75l156 -477h-215l-133 422q-11 36 -25 64t-33 48t-36 34t-45 23t-48 14.5t-57.5 7.5t-61 2.5t-69.5 0.5h-166v-616h-201z
M379 780h170q58 0 103 3t98.5 12t91.5 28t71.5 48t50.5 74.5t17 105.5q0 119 -58.5 179t-162.5 81q-63 12 -211 12h-170v-543zM510 1620l-195 233h181l133 -153l135 153h176l-197 -233h-233z" />
    <glyph glyph-name="rcaron" unicode="&#x159;" horiz-adv-x="774" 
d="M154 0v1057h178v-156q59 91 131.5 129.5t165.5 38.5q61 0 119 -12v-166q-82 14 -125 14q-67 0 -116.5 -19.5t-80.5 -54t-50 -88.5t-26.5 -115.5t-7.5 -142.5v-485h-188zM330 1229l-191 258h172l135 -182l138 182h172l-191 -258h-235z" />
    <glyph glyph-name="Sacute" unicode="&#x15a;" horiz-adv-x="1275" 
d="M645 -31q-264 0 -412.5 135.5t-148.5 382.5h203q0 -174 92 -266t266 -92q156 0 245 69t89 187q0 30 -7 57t-18 48.5t-31 41t-38.5 34t-49 29t-53 24t-60.5 21t-62 18.5t-66 18q-62 17 -101 28.5t-95 33t-92 43t-76 54.5t-63 71t-38.5 90t-15.5 114q0 181 147.5 294.5
t378.5 113.5q244 0 383 -126t139 -348h-196q0 78 -28 140t-75 99t-105 56t-122 19q-80 0 -149 -24.5t-115.5 -80t-46.5 -131.5q0 -33 7 -61t23.5 -51.5t32.5 -41t47 -34.5t52.5 -28t64 -24.5t66.5 -20.5t73 -21q65 -18 103.5 -30t98.5 -34.5t96.5 -43.5t79.5 -55.5t67 -72.5
t40.5 -91.5t16.5 -115.5q0 -192 -151 -310t-396 -118zM537 1620l196 233h228l-259 -233h-165z" />
    <glyph glyph-name="sacute" unicode="&#x15b;" horiz-adv-x="1034" 
d="M532 -31q-219 0 -338.5 97t-121.5 274h190q0 -111 71.5 -168t203.5 -57q108 0 166.5 40.5t58.5 116.5q0 31 -9.5 56t-30.5 43t-42 30.5t-58 23t-62.5 16t-70.5 14.5q-154 29 -214 54q-145 58 -172 197q-7 34 -7 74q0 136 114 221.5t300 85.5q200 0 310.5 -91.5
t111.5 -262.5h-187q-2 105 -60 156t-179 51q-97 0 -155 -40t-58 -107q0 -35 15 -61.5t35 -42.5t59.5 -30t68.5 -21t82 -17q159 -31 223 -58q157 -64 182 -213q5 -31 5 -65q0 -141 -121.5 -228.5t-309.5 -87.5zM416 1229l182 258h213l-238 -258h-157z" />
    <glyph glyph-name="Scircumflex" unicode="&#x15c;" horiz-adv-x="1275" 
d="M645 -31q-264 0 -412.5 135.5t-148.5 382.5h203q0 -174 92 -266t266 -92q156 0 245 69t89 187q0 30 -7 57t-18 48.5t-31 41t-38.5 34t-49 29t-53 24t-60.5 21t-62 18.5t-66 18q-62 17 -101 28.5t-95 33t-92 43t-76 54.5t-63 71t-38.5 90t-15.5 114q0 181 147.5 294.5
t378.5 113.5q244 0 383 -126t139 -348h-196q0 78 -28 140t-75 99t-105 56t-122 19q-80 0 -149 -24.5t-115.5 -80t-46.5 -131.5q0 -33 7 -61t23.5 -51.5t32.5 -41t47 -34.5t52.5 -28t64 -24.5t66.5 -20.5t73 -21q65 -18 103.5 -30t98.5 -34.5t96.5 -43.5t79.5 -55.5t67 -72.5
t40.5 -91.5t16.5 -115.5q0 -192 -151 -310t-396 -118zM326 1620l196 233h234l194 -233h-180l-133 154l-135 -154h-176z" />
    <glyph glyph-name="scircumflex" unicode="&#x15d;" horiz-adv-x="1034" 
d="M532 -31q-219 0 -338.5 97t-121.5 274h190q0 -111 71.5 -168t203.5 -57q108 0 166.5 40.5t58.5 116.5q0 31 -9.5 56t-30.5 43t-42 30.5t-58 23t-62.5 16t-70.5 14.5q-154 29 -214 54q-145 58 -172 197q-7 34 -7 74q0 136 114 221.5t300 85.5q200 0 310.5 -91.5
t111.5 -262.5h-187q-2 105 -60 156t-179 51q-97 0 -155 -40t-58 -107q0 -35 15 -61.5t35 -42.5t59.5 -30t68.5 -21t82 -17q159 -31 223 -58q157 -64 182 -213q5 -31 5 -65q0 -141 -121.5 -228.5t-309.5 -87.5zM199 1229l190 258h250l190 -258h-182l-135 180l-137 -180h-176z
" />
    <glyph glyph-name="Scedilla" unicode="&#x15e;" horiz-adv-x="1275" 
d="M608 -420q-61 0 -90 10v109q24 -6 47 -6q121 0 121 82q0 36 -22 60t-68 24q-25 0 -37 -2v116q-226 22 -350.5 154.5t-124.5 359.5h203q0 -174 92 -266t266 -92q156 0 245 69t89 187q0 30 -7 57t-18 48.5t-31 41t-38.5 34t-49 29t-53 24t-60.5 21t-62 18.5t-66 18
q-62 17 -101 28.5t-95 33t-92 43t-76 54.5t-63 71t-38.5 90t-15.5 114q0 181 147.5 294.5t378.5 113.5q244 0 383 -126t139 -348h-196q0 78 -28 140t-75 99t-105 56t-122 19q-80 0 -149 -24.5t-115.5 -80t-46.5 -131.5q0 -33 7 -61t23.5 -51.5t32.5 -41t47 -34.5t52.5 -28
t64 -24.5t66.5 -20.5t73 -21q65 -18 103.5 -30t98.5 -34.5t96.5 -43.5t79.5 -55.5t67 -72.5t40.5 -91.5t16.5 -115.5q0 -182 -136.5 -298t-361.5 -128v-34q64 -3 99.5 -53.5t35.5 -114.5q0 -78 -58.5 -133.5t-162.5 -55.5z" />
    <glyph glyph-name="scedilla" unicode="&#x15f;" horiz-adv-x="1034" 
d="M485 -420q-61 0 -90 10v109q24 -6 47 -6q121 0 121 82q0 36 -22 60t-68 24q-25 0 -37 -2v118q-175 20 -269 114t-95 251h190q0 -111 71.5 -168t203.5 -57q108 0 166.5 40.5t58.5 116.5q0 31 -9.5 56t-30.5 43t-42 30.5t-58 23t-62.5 16t-70.5 14.5q-154 29 -214 54
q-145 58 -172 197q-7 34 -7 74q0 136 114 221.5t300 85.5q200 0 310.5 -91.5t111.5 -262.5h-187q-2 105 -60 156t-179 51q-97 0 -155 -40t-58 -107q0 -35 15 -61.5t35 -42.5t59.5 -30t68.5 -21t82 -17q159 -31 223 -58q157 -64 182 -213q5 -31 5 -65q0 -133 -109.5 -219
t-282.5 -95v-34q64 -3 100 -54t36 -114q0 -78 -59 -133.5t-163 -55.5z" />
    <glyph glyph-name="Scaron" unicode="&#x160;" horiz-adv-x="1275" 
d="M645 -31q-264 0 -412.5 135.5t-148.5 382.5h203q0 -174 92 -266t266 -92q156 0 245 69t89 187q0 30 -7 57t-18 48.5t-31 41t-38.5 34t-49 29t-53 24t-60.5 21t-62 18.5t-66 18q-62 17 -101 28.5t-95 33t-92 43t-76 54.5t-63 71t-38.5 90t-15.5 114q0 181 147.5 294.5
t378.5 113.5q244 0 383 -126t139 -348h-196q0 78 -28 140t-75 99t-105 56t-122 19q-80 0 -149 -24.5t-115.5 -80t-46.5 -131.5q0 -33 7 -61t23.5 -51.5t32.5 -41t47 -34.5t52.5 -28t64 -24.5t66.5 -20.5t73 -21q65 -18 103.5 -30t98.5 -34.5t96.5 -43.5t79.5 -55.5t67 -72.5
t40.5 -91.5t16.5 -115.5q0 -192 -151 -310t-396 -118zM520 1620l-194 233h180l133 -153l135 153h176l-196 -233h-234z" />
    <glyph glyph-name="scaron" unicode="&#x161;" horiz-adv-x="1034" 
d="M532 -31q-219 0 -338.5 97t-121.5 274h190q0 -111 71.5 -168t203.5 -57q108 0 166.5 40.5t58.5 116.5q0 31 -9.5 56t-30.5 43t-42 30.5t-58 23t-62.5 16t-70.5 14.5q-154 29 -214 54q-145 58 -172 197q-7 34 -7 74q0 136 114 221.5t300 85.5q200 0 310.5 -91.5
t111.5 -262.5h-187q-2 105 -60 156t-179 51q-97 0 -155 -40t-58 -107q0 -35 15 -61.5t35 -42.5t59.5 -30t68.5 -21t82 -17q159 -31 223 -58q157 -64 182 -213q5 -31 5 -65q0 -141 -121.5 -228.5t-309.5 -87.5zM393 1229l-190 258h172l135 -182l137 182h172l-190 -258h-236z
" />
    <glyph glyph-name="uni0162" unicode="&#x162;" horiz-adv-x="1226" 
d="M512 0v1321h-489v166h1181v-166h-489v-1321h-33v-63q64 -3 99.5 -53.5t35.5 -114.5q0 -78 -58.5 -133.5t-162.5 -55.5q-61 0 -90 10v109q24 -6 47 -6q121 0 121 82q0 36 -22 60t-68 24q-25 0 -37 -2v143h-35z" />
    <glyph glyph-name="uni0163" unicode="&#x163;" horiz-adv-x="681" 
d="M391 -420q-61 0 -90 10v109q24 -6 47 -6q121 0 121 82q0 36 -22 60t-68 24q-25 0 -37 -2v153q-121 60 -121 277v614h-194v156h194v256h189v-256h229v-156h-229v-526q0 -53 1.5 -83t8.5 -63t20 -49.5t37 -27.5t60 -11q59 0 106 11v-152q-83 -18 -156 -18h-10v-45
q64 -3 99.5 -53.5t35.5 -114.5q0 -78 -58.5 -133.5t-162.5 -55.5z" />
    <glyph glyph-name="Tcaron" unicode="&#x164;" horiz-adv-x="1226" 
d="M512 0v1321h-489v166h1181v-166h-489v-1321h-203zM498 1620l-195 233h180l133 -153l136 153h176l-197 -233h-233z" />
    <glyph glyph-name="tcaron" unicode="&#x165;" horiz-adv-x="681" 
d="M487 -18q-132 0 -199 69.5t-67 235.5v614h-194v156h194v256h189v-256h229v-156h-229v-526q0 -53 1.5 -83t8.5 -63t20 -49.5t37 -27.5t60 -11q59 0 106 11v-152q-83 -18 -156 -18zM543 1176l16 311h172v-45l-61 -266h-127z" />
    <glyph glyph-name="Tbar" unicode="&#x166;" horiz-adv-x="1263" 
d="M530 0v674h-340v157h340v490h-489v166h1182v-166h-490v-490h338v-157h-338v-674h-203z" />
    <glyph glyph-name="tbar" unicode="&#x167;" horiz-adv-x="708" 
d="M506 -18q-181 0 -236 127q-30 68 -30 178v221h-195v147h195v254h-195v148h195v256h188v-256h229v-148h-229v-254h219v-147h-219v-133q0 -53 1.5 -83t8.5 -63t20 -49.5t37 -27.5t60 -11q60 0 107 11v-152q-82 -18 -156 -18z" />
    <glyph glyph-name="Utilde" unicode="&#x168;" horiz-adv-x="1441" 
d="M719 -31q-182 0 -310 70.5t-188 202.5q-31 70 -44 156.5t-13 228.5v860h201v-856q0 -153 19 -238.5t65 -144.5q97 -121 270 -121q84 0 159 33.5t115 87.5q44 59 64 149t20 234v856h201v-860q0 -162 -19.5 -259.5t-66.5 -172.5q-67 -106 -190 -166t-283 -60zM403 1630
q12 102 60 160.5t129 58.5q42 0 139 -41t135 -41q32 0 53 18t31 60h111q-12 -102 -60 -160.5t-129 -58.5q-40 0 -137.5 41t-136.5 41q-68 0 -84 -78h-111z" />
    <glyph glyph-name="utilde" unicode="&#x169;" horiz-adv-x="1171" 
d="M510 -23q-131 0 -210.5 49t-123.5 140q-16 34 -24.5 85t-9.5 87.5t-1 103.5v615h187v-596q0 -56 3.5 -97.5t16.5 -89t36.5 -77.5t65.5 -50t101 -20q135 0 207.5 94t72.5 281v555h187v-1057h-174v135q-117 -158 -334 -158zM246 1253q12 102 59.5 161t128.5 59
q41 0 138.5 -41t136.5 -41q66 0 84 77h110q-12 -102 -59.5 -160.5t-128.5 -58.5q-40 0 -138 41t-137 41q-68 0 -84 -78h-110z" />
    <glyph glyph-name="Umacron" unicode="&#x16a;" horiz-adv-x="1441" 
d="M719 -31q-182 0 -310 70.5t-188 202.5q-31 70 -44 156.5t-13 228.5v860h201v-856q0 -153 19 -238.5t65 -144.5q97 -121 270 -121q84 0 159 33.5t115 87.5q44 59 64 149t20 234v856h201v-860q0 -162 -19.5 -259.5t-66.5 -172.5q-67 -106 -190 -166t-283 -60zM451 1657v143
h544v-143h-544z" />
    <glyph glyph-name="umacron" unicode="&#x16b;" horiz-adv-x="1171" 
d="M510 -23q-131 0 -210.5 49t-123.5 140q-16 34 -24.5 85t-9.5 87.5t-1 103.5v615h187v-596q0 -56 3.5 -97.5t16.5 -89t36.5 -77.5t65.5 -50t101 -20q135 0 207.5 94t72.5 281v555h187v-1057h-174v135q-117 -158 -334 -158zM313 1296v144h541v-144h-541z" />
    <glyph glyph-name="Ubreve" unicode="&#x16c;" horiz-adv-x="1441" 
d="M719 -31q-182 0 -310 70.5t-188 202.5q-31 70 -44 156.5t-13 228.5v860h201v-856q0 -153 19 -238.5t65 -144.5q97 -121 270 -121q84 0 159 33.5t115 87.5q44 59 64 149t20 234v856h201v-860q0 -162 -19.5 -259.5t-66.5 -172.5q-67 -106 -190 -166t-283 -60zM725 1606
q-134 0 -213.5 69.5t-85.5 175.5h168q14 -122 131 -122t131 122h168q-6 -106 -85.5 -175.5t-213.5 -69.5z" />
    <glyph glyph-name="ubreve" unicode="&#x16d;" horiz-adv-x="1171" 
d="M510 -23q-131 0 -210.5 49t-123.5 140q-16 34 -24.5 85t-9.5 87.5t-1 103.5v615h187v-596q0 -56 3.5 -97.5t16.5 -89t36.5 -77.5t65.5 -50t101 -20q135 0 207.5 94t72.5 281v555h187v-1057h-174v135q-117 -158 -334 -158zM586 1223q-131 0 -212 67t-81 197h156
q0 -76 37 -113t100 -37q62 0 98.5 37t36.5 113h156q0 -131 -80.5 -197.5t-210.5 -66.5z" />
    <glyph glyph-name="Uring" unicode="&#x16e;" horiz-adv-x="1441" 
d="M719 -31q-182 0 -310 70.5t-188 202.5q-31 70 -44 156.5t-13 228.5v860h201v-856q0 -153 19 -238.5t65 -144.5q97 -121 270 -121q84 0 159 33.5t115 87.5q44 59 64 149t20 234v856h201v-860q0 -162 -19.5 -259.5t-66.5 -172.5q-67 -106 -190 -166t-283 -60zM721 1481
q-103 0 -165 64t-62 149q0 87 61.5 151t165.5 64q105 0 166 -64t61 -151q0 -85 -61 -149t-166 -64zM721 1573q61 0 91 35.5t30 85.5t-31 85.5t-90 35.5q-58 0 -88.5 -35.5t-30.5 -85.5q0 -49 30.5 -85t88.5 -36z" />
    <glyph glyph-name="uring" unicode="&#x16f;" horiz-adv-x="1171" 
d="M510 -23q-131 0 -210.5 49t-123.5 140q-16 34 -24.5 85t-9.5 87.5t-1 103.5v615h187v-596q0 -56 3.5 -97.5t16.5 -89t36.5 -77.5t65.5 -50t101 -20q135 0 207.5 94t72.5 281v555h187v-1057h-174v135q-117 -158 -334 -158zM580 1153q-101 0 -162.5 63.5t-61.5 145.5
q0 83 61.5 147t162.5 64q102 0 162.5 -63.5t60.5 -147.5q0 -82 -60.5 -145.5t-162.5 -63.5zM580 1243q60 0 89 35t29 84t-30 84t-88 35q-56 0 -86.5 -35.5t-30.5 -83.5q0 -47 30.5 -83t86.5 -36z" />
    <glyph glyph-name="Uhungarumlaut" unicode="&#x170;" horiz-adv-x="1441" 
d="M719 -31q-182 0 -310 70.5t-188 202.5q-31 70 -44 156.5t-13 228.5v860h201v-856q0 -153 19 -238.5t65 -144.5q97 -121 270 -121q84 0 159 33.5t115 87.5q44 59 64 149t20 234v856h201v-860q0 -162 -19.5 -259.5t-66.5 -172.5q-67 -106 -190 -166t-283 -60zM834 1620
l202 233h215l-258 -233h-159zM453 1620l174 233h213l-236 -233h-151z" />
    <glyph glyph-name="uhungarumlaut" unicode="&#x171;" horiz-adv-x="1171" 
d="M510 -23q-131 0 -210.5 49t-123.5 140q-16 34 -24.5 85t-9.5 87.5t-1 103.5v615h187v-596q0 -56 3.5 -97.5t16.5 -89t36.5 -77.5t65.5 -50t101 -20q135 0 207.5 94t72.5 281v555h187v-1057h-174v135q-117 -158 -334 -158zM680 1229l186 258h203l-240 -258h-149zM301 1229
l170 258h201l-228 -258h-143z" />
    <glyph glyph-name="Uogonek" unicode="&#x172;" horiz-adv-x="1441" 
d="M897 -420q-102 0 -165.5 55t-63.5 142q0 98 110 194q-20 -2 -59 -2q-181 0 -309.5 70.5t-188.5 202.5q-32 68 -44.5 155.5t-12.5 229.5v860h201v-856q0 -153 19 -239.5t65 -143.5q97 -121 270 -121q84 0 159 33.5t115 87.5q44 59 64 149t20 234v856h201v-860
q0 -161 -18 -258.5t-68 -173.5q-17 -27 -36 -49t-43.5 -42.5t-36 -29t-38.5 -27.5q-111 -78 -162 -135.5t-51 -108.5q0 -39 26 -63.5t71 -24.5q52 0 86 17v-133q-42 -19 -111 -19z" />
    <glyph glyph-name="uogonek" unicode="&#x173;" horiz-adv-x="1171" 
d="M918 -420q-95 0 -159.5 56t-64.5 141q0 122 150 237v121q-117 -158 -334 -158q-131 0 -210.5 49t-123.5 140q-16 34 -24.5 85t-9.5 87.5t-1 103.5v615h187v-596q0 -56 3.5 -97.5t16.5 -89t36.5 -77.5t65.5 -50t101 -20q135 0 207.5 94t72.5 281v555h187v-1057
q-83 -44 -127.5 -95t-44.5 -102q0 -40 26.5 -64t75.5 -24q35 0 70 13v-134q-36 -14 -100 -14z" />
    <glyph glyph-name="Wcircumflex" unicode="&#x174;" horiz-adv-x="1941" 
d="M399 0l-368 1487h207l221 -959q38 -170 61 -299h10q33 185 66 299l260 959h250l252 -959q5 -21 11.5 -50t21.5 -99.5t32 -149.5h13q42 208 63 299l225 959h185l-367 -1487h-239l-256 987q-29 118 -68 299h-10q-43 -196 -68 -299l-264 -987h-238zM659 1620l197 233h234
l194 -233h-180l-133 154l-135 -154h-177z" />
    <glyph glyph-name="wcircumflex" unicode="&#x175;" horiz-adv-x="1622" 
d="M324 0l-295 1057h194l144 -529q24 -89 79 -364h13q23 117 90 364l143 529h252l150 -529q44 -152 86 -364h12q33 189 80 364l143 529h176l-293 -1057h-243l-146 528q-30 113 -90 385h-12q-67 -286 -94 -385l-146 -528h-243zM500 1229l190 258h250l190 -258h-182l-135 180
l-137 -180h-176z" />
    <glyph glyph-name="Ycircumflex" unicode="&#x176;" horiz-adv-x="1263" 
d="M530 0v629l-514 858h234l387 -703l405 703h213l-524 -858v-629h-201zM324 1620l196 233h234l194 -233h-180l-133 154l-135 -154h-176z" />
    <glyph glyph-name="ycircumflex" unicode="&#x177;" horiz-adv-x="1046" 
d="M219 -420q-67 0 -123 10v158q50 -12 90 -12q98 0 151.5 62t86.5 179l-401 1080h208l185 -529q25 -71 62 -202t46 -160h11q61 217 112 362l187 529h190l-393 -1057q-31 -83 -59 -142.5t-64.5 -115t-77 -89t-94 -53.5t-117.5 -20zM211 1229l190 258h250l191 -258h-183
l-135 180l-137 -180h-176z" />
    <glyph glyph-name="Ydieresis" unicode="&#x178;" horiz-adv-x="1263" 
d="M530 0v629l-514 858h234l387 -703l405 703h213l-524 -858v-629h-201zM748 1628v215h184v-215h-184zM342 1628v215h184v-215h-184z" />
    <glyph glyph-name="Zacute" unicode="&#x179;" horiz-adv-x="1165" 
d="M68 0v170l792 1155q-168 -4 -254 -4h-518v166h987v-166l-796 -1161q176 8 305 8h530v-168h-1046zM489 1620l197 233h227l-258 -233h-166z" />
    <glyph glyph-name="zacute" unicode="&#x17a;" horiz-adv-x="925" 
d="M55 0v154l588 757q-69 -10 -231 -10h-328v156h768v-156l-582 -756q92 9 246 9h361v-154h-822zM381 1229l182 258h213l-237 -258h-158z" />
    <glyph glyph-name="Zdotaccent" unicode="&#x17b;" horiz-adv-x="1165" 
d="M68 0v170l792 1155q-168 -4 -254 -4h-518v166h987v-166l-796 -1161q176 8 305 8h530v-168h-1046zM496 1634v205h192v-205h-192z" />
    <glyph glyph-name="zdotaccent" unicode="&#x17c;" horiz-adv-x="925" 
d="M55 0v154l588 757q-69 -10 -231 -10h-328v156h768v-156l-582 -756q92 9 246 9h361v-154h-822zM383 1282v205h188v-205h-188z" />
    <glyph glyph-name="Zcaron" unicode="&#x17d;" horiz-adv-x="1165" 
d="M68 0v170l792 1155q-168 -4 -254 -4h-518v166h987v-166l-796 -1161q176 8 305 8h530v-168h-1046zM473 1620l-194 233h180l133 -153l135 153h176l-196 -233h-234z" />
    <glyph glyph-name="zcaron" unicode="&#x17e;" horiz-adv-x="925" 
d="M55 0v154l588 757q-69 -10 -231 -10h-328v156h768v-156l-582 -756q92 9 246 9h361v-154h-822zM358 1229l-190 258h172l135 -182l137 182h172l-190 -258h-236z" />
    <glyph glyph-name="longs" unicode="&#x17f;" horiz-adv-x="495" 
d="M154 0v1110q0 163 30 231q65 158 267 158q72 0 124 -12v-156q-44 8 -90 8q-90 0 -116.5 -52.5t-26.5 -186.5v-1100h-188z" />
    <glyph glyph-name="uni018F" unicode="&#x18f;" horiz-adv-x="1458" 
d="M727 -31q-305 0 -467 200t-162 550v53h1051q-3 129 -31 234.5t-80 185t-133.5 123t-185.5 43.5q-152 0 -245.5 -77.5t-131.5 -240.5h-217q19 118 75 211t136.5 150.5t177.5 87t205 29.5q205 0 351 -99t218 -272t72 -404q0 -175 -40.5 -317t-119 -244t-199 -157.5
t-274.5 -55.5zM727 129q182 0 286 127.5t128 349.5h-828q18 -226 121.5 -351.5t292.5 -125.5z" />
    <glyph glyph-name="uni0190" unicode="&#x190;" horiz-adv-x="1241" 
d="M625 -31q-153 0 -270 46t-186 142.5t-69 233.5q0 142 78.5 238t220.5 127v10q-117 28 -193.5 120.5t-76.5 213.5q0 193 140.5 302t365.5 109q232 0 359.5 -117t135.5 -335h-202q-5 144 -79.5 220.5t-217.5 76.5q-137 0 -221 -70t-84 -186q0 -129 91.5 -197.5t262.5 -68.5
h72v-158h-93q-165 0 -261.5 -72t-96.5 -201q0 -123 87.5 -200.5t236.5 -77.5q150 0 240.5 89t90.5 245h207q0 -225 -140.5 -357.5t-397.5 -132.5z" />
    <glyph glyph-name="florin" unicode="&#x192;" 
d="M289 -326q-76 0 -158 25v164q67 -25 117 -25q92 0 140.5 67t76.5 208l94 475h-233v157h254l59 316q32 173 120 269.5t236 96.5q66 0 156 -22v-158q-65 27 -117 27q-91 0 -138.5 -71t-72.5 -214l-43 -244h248v-157h-272l-99 -539q-32 -175 -125 -275t-243 -100z" />
    <glyph glyph-name="uni0194" unicode="&#x194;" horiz-adv-x="1269" 
d="M635 -420q-127 0 -203 82.5t-76 204.5q0 53 17.5 115t37.5 106.5t58.5 122.5t58.5 123l15 33l-514 1120h204l402 -920l401 920h205l-516 -1120l16 -33q11 -22 41.5 -81.5t42.5 -84t33.5 -73.5t30 -79.5t16.5 -71t8 -77.5q0 -122 -75.5 -204.5t-202.5 -82.5zM635 -264
q53 0 79.5 37.5t26.5 93.5q0 35 -18 92.5t-36.5 101t-51.5 115.5q-107 -224 -107 -309q0 -56 26.5 -93.5t80.5 -37.5z" />
    <glyph glyph-name="uni0197" unicode="&#x197;" horiz-adv-x="729" 
d="M27 688v154h237v645h201v-645h237v-154h-237v-688h-201v688h-237z" />
    <glyph glyph-name="uni019D" unicode="&#x19d;" horiz-adv-x="1533" 
d="M1169 1487h187v-1487h-271q-623 1092 -727 1296h-10q14 -387 14 -555v-761q0 -117 -16.5 -196t-52 -123.5t-83.5 -62.5t-118 -18q-51 0 -129 10v160q41 -10 84 -10q75 0 103 53.5t28 177.5v1516h275q609 -1056 718 -1278h11q-13 351 -13 536v742z" />
    <glyph glyph-name="uni01B5" unicode="&#x1b5;" horiz-adv-x="1200" 
d="M123 655v158h403l353 512q-168 -4 -254 -4h-519v166h988v-166l-349 -508h326v-158h-434l-340 -495q176 8 305 8h531v-168h-1047v170l332 485h-295z" />
    <glyph glyph-name="uni01B6" unicode="&#x1b6;" horiz-adv-x="944" 
d="M104 457v143h308l241 311q-69 -10 -231 -10h-328v156h768v-156l-231 -301h203v-143h-314l-239 -312q91 9 245 9h361v-154h-821v154l235 303h-197z" />
    <glyph glyph-name="uni01CD" unicode="&#x1cd;" horiz-adv-x="1425" 
d="M6 0l604 1487h203l610 -1487h-219l-172 432h-651l-162 -432h-213zM446 596h527l-142 383q-7 19 -51 135.5t-65 177.5h-8q-77 -221 -111 -309zM596 1620l-195 233h181l133 -153l135 153h176l-197 -233h-233z" />
    <glyph glyph-name="uni01CE" unicode="&#x1ce;" horiz-adv-x="1105" 
d="M446 -23q-171 0 -268.5 88.5t-97.5 231.5q0 56 15 102.5t44.5 80t64 59t84.5 43t94 29.5t104 20t103 12.5t102.5 9.5t92.5 9v36q0 248 -233 248q-113 0 -179.5 -55.5t-66.5 -159.5h-186q0 161 120 258.5t312 97.5q83 0 148.5 -16t109 -41t74.5 -65.5t47.5 -78t25.5 -91.5
t11 -93t2 -94v-289q0 -194 26 -319h-176q-12 60 -14 143q-66 -87 -154 -126.5t-205 -39.5zM489 115q62 0 111 14.5t92.5 50.5t67.5 106t24 171v59q-25 -3 -78 -7t-94.5 -8.5t-96 -13t-94.5 -23t-76.5 -36.5t-55.5 -56.5t-19 -78.5q0 -78 59.5 -128t159.5 -50zM438 1229
l-190 258h172l135 -182l137 182h172l-190 -258h-236z" />
    <glyph glyph-name="uni01CF" unicode="&#x1cf;" horiz-adv-x="557" 
d="M178 0v1487h201v-1487h-201zM160 1620l-195 233h180l134 -153l135 153h176l-197 -233h-233z" />
    <glyph glyph-name="uni01D0" unicode="&#x1d0;" horiz-adv-x="495" 
d="M154 0v1057h188v-1057h-188zM528 1487l-170 -258h-223l-168 258h160l121 -174l123 174h157z" />
    <glyph glyph-name="uni01D1" unicode="&#x1d1;" horiz-adv-x="1562" 
d="M780 -31q-205 0 -361 97.5t-239.5 273t-83.5 403.5q0 227 83.5 403t239.5 274t361 98t361.5 -98t240.5 -274t84 -403q0 -350 -187.5 -562t-498.5 -212zM780 129q143 0 252 80t167 219t58 315t-58 315t-167 219.5t-252 80.5q-142 0 -250.5 -80.5t-166.5 -219.5t-58 -315
t58 -315t166.5 -219t250.5 -80zM664 1620l-195 233h180l133 -153l136 153h176l-197 -233h-233z" />
    <glyph glyph-name="uni01D2" unicode="&#x1d2;" horiz-adv-x="1187" 
d="M590 -31q-232 0 -370 154.5t-138 404.5q0 249 139 404t371 155q234 0 374 -155t140 -404q0 -250 -139.5 -404.5t-376.5 -154.5zM590 119q148 0 234.5 111t86.5 296q0 184 -87 297t-232 113q-144 0 -230 -111t-86 -295q0 -186 85 -298.5t229 -112.5zM475 1229l-190 258
h172l135 -182l137 182h172l-190 -258h-236z" />
    <glyph glyph-name="uni01D3" unicode="&#x1d3;" horiz-adv-x="1441" 
d="M719 -31q-182 0 -310 70.5t-188 202.5q-31 70 -44 156.5t-13 228.5v860h201v-856q0 -153 19 -238.5t65 -144.5q97 -121 270 -121q84 0 159 33.5t115 87.5q44 59 64 149t20 234v856h201v-860q0 -162 -19.5 -259.5t-66.5 -172.5q-67 -106 -190 -166t-283 -60zM604 1620
l-194 233h180l133 -153l135 153h176l-196 -233h-234z" />
    <glyph glyph-name="uni01D4" unicode="&#x1d4;" horiz-adv-x="1171" 
d="M510 -23q-131 0 -210.5 49t-123.5 140q-16 34 -24.5 85t-9.5 87.5t-1 103.5v615h187v-596q0 -56 3.5 -97.5t16.5 -89t36.5 -77.5t65.5 -50t101 -20q135 0 207.5 94t72.5 281v555h187v-1057h-174v135q-117 -158 -334 -158zM465 1229l-191 258h172l136 -182l137 182h172
l-191 -258h-235z" />
    <glyph glyph-name="Gcaron" unicode="&#x1e6;" horiz-adv-x="1478" 
d="M733 -25q-161 0 -284.5 59t-199.5 164.5t-114.5 243t-38.5 301.5q0 162 46 302.5t131 246t213.5 166t285.5 60.5q247 0 400 -127.5t182 -335.5h-207q-26 143 -125 223t-250 80q-208 0 -337.5 -169.5t-129.5 -445.5q0 -277 122 -442.5t329 -165.5q182 0 293.5 129.5
t113.5 337.5h-364v168h559v-770h-176v61q0 90 6 129l-10 5q-73 -106 -187 -163t-258 -57zM653 1620l-194 233h180l133 -153l135 153h176l-196 -233h-234z" />
    <glyph glyph-name="gcaron" unicode="&#x1e7;" horiz-adv-x="1179" 
d="M565 -420q-196 0 -309.5 84t-126.5 248h195q12 -191 245 -191q144 0 212.5 83.5t68.5 285.5v105q-66 -89 -142.5 -124.5t-191.5 -35.5q-195 0 -313.5 143.5t-118.5 370.5q0 104 30 199t85 169t140 118t187 44q236 0 328 -170v148h174v-905q0 -112 -13.5 -198t-46 -158
t-85 -118.5t-132 -72t-186.5 -25.5zM563 180q132 0 210.5 104.5t78.5 282.5q0 162 -80 264.5t-209 102.5q-134 0 -210.5 -100t-76.5 -265q0 -182 77 -285.5t210 -103.5zM465 1229l-191 258h172l136 -182l137 182h172l-191 -258h-235z" />
    <glyph glyph-name="uni01E8" unicode="&#x1e8;" horiz-adv-x="1269" 
d="M178 0v1487h201v-664l614 664h238l-651 -684l704 -803h-258l-647 756v-756h-201zM547 1620l-195 233h180l134 -153l135 153h176l-197 -233h-233z" />
    <glyph glyph-name="uni01E9" unicode="&#x1e9;" horiz-adv-x="1024" 
d="M154 0v1487h188v-864l428 434h223l-467 -463l514 -594h-237l-461 553v-553h-188zM139 1620l-178 233h170l121 -153l123 153h168l-181 -233h-223z" />
    <glyph glyph-name="uni01EA" unicode="&#x1ea;" horiz-adv-x="1562" 
d="M948 -420q-104 0 -167.5 55t-63.5 142q0 96 110 194q-14 -2 -47 -2q-205 0 -361 97.5t-239.5 273t-83.5 403.5q0 227 83.5 403t239.5 274t361 98t361.5 -98t240.5 -274t84 -403q0 -245 -93.5 -423t-270.5 -277q-225 -125 -225 -240q0 -39 25.5 -63.5t70.5 -24.5
q52 0 86 17v-133q-42 -19 -111 -19zM780 129q143 0 252 80t167 219t58 315t-58 315t-167 219.5t-252 80.5q-142 0 -250.5 -80.5t-166.5 -219.5t-58 -315t58 -315t166.5 -219t250.5 -80z" />
    <glyph glyph-name="uni01EB" unicode="&#x1eb;" horiz-adv-x="1187" 
d="M715 -420q-101 0 -165.5 56t-64.5 137q0 104 111 196h-6q-232 0 -370 154.5t-138 404.5q0 249 139 404t371 155q234 0 374 -155t140 -404q0 -160 -58.5 -280.5t-164.5 -190.5q-91 -59 -111 -75q-41 -34 -62.5 -54t-44 -56t-22.5 -69q0 -39 25.5 -63.5t70.5 -24.5
q48 0 82 17v-133q-42 -19 -106 -19zM590 119q148 0 234.5 111t86.5 296q0 184 -87 297t-232 113q-144 0 -230 -111t-86 -295q0 -186 85 -298.5t229 -112.5z" />
    <glyph glyph-name="uni01F8" unicode="&#x1f8;" horiz-adv-x="1533" 
d="M178 0v1487h275q609 -1056 718 -1278h11q-13 351 -13 536v742h187v-1487h-271q-623 1092 -727 1296h-10q14 -387 14 -555v-741h-184zM713 1620l-256 233h227l197 -233h-168z" />
    <glyph glyph-name="uni01F9" unicode="&#x1f9;" horiz-adv-x="1177" 
d="M154 0v1057h174v-135q119 157 336 157q261 0 335 -188q37 -92 37 -258v-633h-188v596q0 46 -2.5 82t-10.5 77t-23.5 70t-39.5 54t-62 38t-87 13q-135 0 -208 -95t-73 -282v-553h-188zM557 1229l-238 258h216l180 -258h-158z" />
    <glyph glyph-name="Aringacute" unicode="&#x1fa;" horiz-adv-x="1425" 
d="M6 0l596 1468q-55 27 -86 79.5t-31 111.5q0 70 43.5 128.5t118.5 78.5l154 213h211l-207 -221q64 -25 99.5 -80t35.5 -119q0 -61 -31.5 -112.5t-89.5 -78.5l604 -1468h-219l-172 432h-651l-162 -432h-213zM446 596h527l-142 383q-7 19 -51 135.5t-65 177.5h-8
q-77 -221 -111 -309zM713 1538q61 0 91 35.5t30 85.5t-31 85.5t-90 35.5q-58 0 -88.5 -35.5t-30.5 -85.5q0 -49 30.5 -85t88.5 -36z" />
    <glyph glyph-name="aringacute" unicode="&#x1fb;" horiz-adv-x="1105" 
d="M446 -23q-171 0 -268.5 88.5t-97.5 231.5q0 56 15 102.5t44.5 80t64 59t84.5 43t94 29.5t104 20t103 12.5t102.5 9.5t92.5 9v36q0 248 -233 248q-113 0 -179.5 -55.5t-66.5 -159.5h-186q0 161 120 258.5t312 97.5q83 0 148.5 -16t109 -41t74.5 -65.5t47.5 -78t25.5 -91.5
t11 -93t2 -94v-289q0 -194 26 -319h-176q-12 60 -14 143q-66 -87 -154 -126.5t-205 -39.5zM553 1153q-100 0 -161.5 63.5t-61.5 145.5q0 64 37 118.5t102 78.5l174 241h211l-227 -239q69 -21 109 -77t40 -122q0 -82 -60.5 -145.5t-162.5 -63.5zM489 115q62 0 111 14.5
t92.5 50.5t67.5 106t24 171v59q-25 -3 -78 -7t-94.5 -8.5t-96 -13t-94.5 -23t-76.5 -36.5t-55.5 -56.5t-19 -78.5q0 -78 59.5 -128t159.5 -50zM553 1243q60 0 89.5 35.5t29.5 83.5q0 49 -30.5 84t-88.5 35q-56 0 -86.5 -35.5t-30.5 -83.5q0 -47 30.5 -83t86.5 -36z" />
    <glyph glyph-name="AEacute" unicode="&#x1fc;" horiz-adv-x="1959" 
d="M6 0l758 1487h1042v-166h-708l65 -465h627v-166h-604l76 -524h636v-166h-813l-67 465h-563l-230 -465h-219zM539 631h456l-96 696h-20zM922 1620l196 233h228l-259 -233h-165z" />
    <glyph glyph-name="aeacute" unicode="&#x1fd;" horiz-adv-x="1798" 
d="M459 -31q-170 0 -273.5 82.5t-103.5 237.5q0 350 577 350h123v4q-9 151 -67.5 227t-173.5 76q-216 0 -242 -211h-182q5 111 63 192t151 120.5t210 39.5q258 0 352 -192q74 98 162.5 145t208.5 47q220 0 335 -152t115 -427v-33h-743q0 -69 15.5 -129.5t48 -114t92 -85
t139.5 -31.5q102 0 161.5 47.5t92.5 146.5h184q-17 -91 -60 -159t-103 -106t-127.5 -56.5t-143.5 -18.5q-133 0 -238.5 55t-157.5 156q-62 -103 -170 -157t-245 -54zM479 109q71 0 124 18.5t94.5 60.5t63.5 116.5t23 180.5v9h-120q-110 0 -188.5 -16.5t-120.5 -45.5
t-60.5 -63t-18.5 -76q0 -81 52.5 -132.5t150.5 -51.5zM975 627h555q-11 142 -82.5 227.5t-190.5 85.5q-118 0 -196 -88t-86 -225zM813 1229l182 258h213l-237 -258h-158z" />
    <glyph glyph-name="Oslashacute" unicode="&#x1fe;" horiz-adv-x="1562" 
d="M274 -76l-122 92l124 170q-180 214 -180 555q0 227 83.5 403t239.5 274t361 98q223 0 389 -119l103 139l121 -92l-111 -150q184 -215 184 -553q0 -350 -187.5 -562t-498.5 -212q-226 0 -389 117zM780 127q143 0 252 80t167 219t58 315q0 225 -96 389l-661 -901
q117 -102 280 -102zM399 352l662 899q-121 105 -281 105q-142 0 -250.5 -80.5t-166.5 -219.5t-58 -315q0 -229 94 -389zM680 1620l197 233h227l-258 -233h-166z" />
    <glyph glyph-name="oslashacute" unicode="&#x1ff;" horiz-adv-x="1204" 
d="M219 -109l-110 86l112 152q-131 153 -131 399q0 249 139 404t371 155q158 0 281 -77l106 141l111 -84l-113 -149q129 -154 129 -390q0 -250 -139.5 -404.5t-376.5 -154.5q-148 0 -268 70zM598 119q148 0 235 111.5t87 295.5q0 132 -52 236l-440 -590q71 -53 170 -53z
M336 283l444 591q-78 62 -180 62q-144 0 -229.5 -111t-85.5 -295q0 -142 51 -247zM506 1229l182 258h213l-237 -258h-158z" />
    <glyph glyph-name="uni0218" unicode="&#x218;" horiz-adv-x="1275" 
d="M645 -31q-264 0 -412.5 135.5t-148.5 382.5h203q0 -174 92 -266t266 -92q156 0 245 69t89 187q0 30 -7 57t-18 48.5t-31 41t-38.5 34t-49 29t-53 24t-60.5 21t-62 18.5t-66 18q-62 17 -101 28.5t-95 33t-92 43t-76 54.5t-63 71t-38.5 90t-15.5 114q0 181 147.5 294.5
t378.5 113.5q244 0 383 -126t139 -348h-196q0 78 -28 140t-75 99t-105 56t-122 19q-80 0 -149 -24.5t-115.5 -80t-46.5 -131.5q0 -33 7 -61t23.5 -51.5t32.5 -41t47 -34.5t52.5 -28t64 -24.5t66.5 -20.5t73 -21q65 -18 103.5 -30t98.5 -34.5t96.5 -43.5t79.5 -55.5t67 -72.5
t40.5 -91.5t16.5 -115.5q0 -192 -151 -310t-396 -118zM557 -520l78 201h-82v190h207v-186l-98 -205h-105z" />
    <glyph glyph-name="uni0219" unicode="&#x219;" horiz-adv-x="1034" 
d="M532 -31q-219 0 -338.5 97t-121.5 274h190q0 -111 71.5 -168t203.5 -57q108 0 166.5 40.5t58.5 116.5q0 31 -9.5 56t-30.5 43t-42 30.5t-58 23t-62.5 16t-70.5 14.5q-154 29 -214 54q-145 58 -172 197q-7 34 -7 74q0 136 114 221.5t300 85.5q200 0 310.5 -91.5
t111.5 -262.5h-187q-2 105 -60 156t-179 51q-97 0 -155 -40t-58 -107q0 -35 15 -61.5t35 -42.5t59.5 -30t68.5 -21t82 -17q159 -31 223 -58q157 -64 182 -213q5 -31 5 -65q0 -141 -121.5 -228.5t-309.5 -87.5zM442 -518l72 201h-74v186h195v-186l-94 -201h-99z" />
    <glyph glyph-name="uni021A" unicode="&#x21a;" horiz-adv-x="1226" 
d="M512 0v1321h-489v166h1181v-166h-489v-1321h-203zM514 -520l78 201h-82v190h207v-186l-99 -205h-104z" />
    <glyph glyph-name="uni021B" unicode="&#x21b;" horiz-adv-x="681" 
d="M487 -18q-132 0 -199 69.5t-67 235.5v614h-194v156h194v256h189v-256h229v-156h-229v-526q0 -53 1.5 -83t8.5 -63t20 -49.5t37 -27.5t60 -11q59 0 106 11v-152q-83 -18 -156 -18zM362 -518l72 201h-74v186h195v-186l-94 -201h-99z" />
    <glyph glyph-name="uni021E" unicode="&#x21e;" horiz-adv-x="1525" 
d="M178 0v1487h201v-637h766v637h203v-1487h-203v684h-766v-684h-201zM645 1620l-194 233h180l133 -153l135 153h176l-196 -233h-234z" />
    <glyph glyph-name="uni021F" unicode="&#x21f;" horiz-adv-x="1177" 
d="M154 0v1487h188v-563q97 155 322 155q256 0 337 -188q35 -79 35 -258v-633h-188v594q0 46 -2.5 82t-10.5 77.5t-23.5 70.5t-39.5 54.5t-62 38.5t-87 13q-135 0 -208 -95t-73 -282v-553h-188zM139 1620l-178 233h170l121 -153l123 153h168l-181 -233h-223z" />
    <glyph glyph-name="uni022E" unicode="&#x22e;" horiz-adv-x="1562" 
d="M780 -31q-205 0 -361 97.5t-239.5 273t-83.5 403.5q0 227 83.5 403t239.5 274t361 98t361.5 -98t240.5 -274t84 -403q0 -350 -187.5 -562t-498.5 -212zM780 129q143 0 252 80t167 219t58 315t-58 315t-167 219.5t-252 80.5q-142 0 -250.5 -80.5t-166.5 -219.5t-58 -315
t58 -315t166.5 -219t250.5 -80zM684 1634v205h193v-205h-193z" />
    <glyph glyph-name="uni022F" unicode="&#x22f;" horiz-adv-x="1187" 
d="M590 -31q-232 0 -370 154.5t-138 404.5q0 249 139 404t371 155q234 0 374 -155t140 -404q0 -250 -139.5 -404.5t-376.5 -154.5zM590 119q148 0 234.5 111t86.5 296q0 184 -87 297t-232 113q-144 0 -230 -111t-86 -295q0 -186 85 -298.5t229 -112.5zM498 1282v205h188
v-205h-188z" />
    <glyph glyph-name="uni0232" unicode="&#x232;" horiz-adv-x="1263" 
d="M530 0v629l-514 858h234l387 -703l405 703h213l-524 -858v-629h-201zM362 1657v143h545v-143h-545z" />
    <glyph glyph-name="uni0233" unicode="&#x233;" horiz-adv-x="1046" 
d="M219 -420q-67 0 -123 10v158q50 -12 90 -12q98 0 151.5 62t86.5 179l-401 1080h208l185 -529q25 -71 62 -202t46 -160h11q61 217 112 362l187 529h190l-393 -1057q-31 -83 -59 -142.5t-64.5 -115t-77 -89t-94 -53.5t-117.5 -20zM258 1296v144h541v-144h-541z" />
    <glyph glyph-name="uni0237" unicode="&#x237;" horiz-adv-x="495" 
d="M84 -420q-51 0 -139 10v160q31 -10 92 -10q72 0 94.5 55.5t22.5 175.5v1086h188v-1061q0 -237 -54.5 -326.5t-203.5 -89.5z" />
    <glyph glyph-name="uni0244" unicode="&#x244;" horiz-adv-x="1529" 
d="M41 688v154h168v645h201v-645h712v645h201v-645h168v-154h-168v-61q0 -162 -19.5 -259.5t-66.5 -172.5q-67 -106 -190 -166t-283 -60q-181 0 -308.5 70.5t-189.5 202.5q-32 68 -44.5 154.5t-12.5 230.5v61h-168zM494 248q95 -121 270 -121q84 0 159 33.5t115 87.5
q84 115 84 383v57h-712v-57q0 -153 19 -238.5t65 -144.5z" />
    <glyph glyph-name="uni0259" unicode="&#x259;" horiz-adv-x="1157" 
d="M567 -31q-243 0 -361 158.5t-118 458.5h789q-9 158 -96 254t-218 96q-218 0 -274 -195h-199q33 166 163.5 256t317.5 90q241 0 371.5 -148t130.5 -411q0 -245 -138 -402t-368 -157zM575 119q121 0 199 79.5t98 235.5h-583q15 -155 91.5 -235t194.5 -80z" />
    <glyph glyph-name="uni025B" unicode="&#x25b;" horiz-adv-x="1046" 
d="M539 -31q-203 0 -331 78.5t-128 222.5q0 105 62 176t184 95v8q-97 21 -155 90.5t-58 155.5q0 130 114 211t295 81q205 0 320 -95t123 -263h-189q-5 97 -69 155t-177 58q-103 0 -162 -44t-59 -120q0 -84 66.5 -128t187.5 -44h41v-139h-65q-125 0 -194 -45.5t-69 -134.5
q0 -80 73 -126t190 -46q118 0 183 64.5t71 172.5h188q0 -170 -119.5 -276.5t-322.5 -106.5z" />
    <glyph glyph-name="uni0263" unicode="&#x263;" horiz-adv-x="970" 
d="M485 -420q-73 0 -128.5 24t-87 65.5t-47 90.5t-15.5 105q0 109 82 258l106 194l-409 740h196l305 -570l310 570h188l-407 -738l104 -196q82 -154 82 -258q0 -56 -15.5 -105t-47.5 -90.5t-87.5 -65.5t-128.5 -24zM371 -131q0 -56 26.5 -103t87.5 -47q43 0 70.5 27t36 58
t8.5 65q0 77 -57 180l-58 105l-57 -105q-57 -103 -57 -180z" />
    <glyph glyph-name="uni0268" unicode="&#x268;" horiz-adv-x="718" 
d="M59 510v147h205v400h189v-400h206v-147h-206v-510h-189v510h-205zM264 1282v205h189v-205h-189z" />
    <glyph glyph-name="uni0272" unicode="&#x272;" horiz-adv-x="1177" 
d="M999 891q37 -87 37 -258v-633h-188v596q0 46 -2.5 82t-10.5 77t-23.5 70t-39.5 54t-62 38t-87 13q-135 0 -208 -95t-73 -282v-573q0 -32 -0.5 -50t-3 -54.5t-7 -60t-14 -57.5t-22.5 -56.5t-34 -47.5t-47.5 -39.5t-64 -24.5t-81.5 -10q-51 0 -129 10v160q41 -10 77 -10
q28 0 50.5 8t37 19.5t24.5 32t15 37t7.5 44.5t3 44.5t0.5 45.5v1086h174v-135q119 157 336 157q134 0 214.5 -47.5t120.5 -140.5z" />
    <glyph glyph-name="uni0289" unicode="&#x289;" horiz-adv-x="1249" 
d="M35 510v147h147v400h187v-400h503v400h187v-400h149v-147h-149v-510h-174v135q-117 -158 -334 -158q-131 0 -210.5 49t-123.5 140q-16 34 -24.5 85t-9.5 87.5t-1 103.5v68h-147zM592 127q135 0 207.5 94t72.5 281v8h-503v-49q0 -56 3.5 -97.5t16.5 -89t36.5 -77.5
t65.5 -50t101 -20z" />
    <glyph glyph-name="uni02BC" unicode="&#x2bc;" horiz-adv-x="382" 
d="M301 1290l-98 -200h-99l78 198h-80v193h199v-191z" />
    <glyph glyph-name="circumflex" unicode="&#x2c6;" horiz-adv-x="1198" 
d="M283 1229l190 258h250l190 -258h-182l-135 180l-137 -180h-176z" />
    <glyph glyph-name="caron" unicode="&#x2c7;" horiz-adv-x="1183" 
d="M473 1229l-190 258h172l135 -182l137 182h172l-190 -258h-236z" />
    <glyph glyph-name="uni02C9" unicode="&#x2c9;" horiz-adv-x="1138" 
d="M299 1296v144h541v-144h-541z" />
    <glyph glyph-name="breve" unicode="&#x2d8;" horiz-adv-x="1142" 
d="M571 1223q-131 0 -211.5 67t-80.5 197h155q0 -76 37 -113t100 -37q62 0 99 37t37 113h155q0 -131 -80.5 -197.5t-210.5 -66.5z" />
    <glyph glyph-name="dotaccent" unicode="&#x2d9;" horiz-adv-x="1179" 
d="M496 1282v205h188v-205h-188z" />
    <glyph glyph-name="ring" unicode="&#x2da;" horiz-adv-x="1200" 
d="M598 1153q-100 0 -161.5 63.5t-61.5 145.5q0 83 61 147t162 64q102 0 162.5 -63.5t60.5 -147.5q0 -82 -60.5 -145.5t-162.5 -63.5zM598 1243q60 0 89.5 35.5t29.5 83.5q0 49 -30.5 84t-88.5 35q-56 0 -86.5 -35.5t-30.5 -83.5q0 -47 30.5 -83t86.5 -36z" />
    <glyph glyph-name="ogonek" unicode="&#x2db;" horiz-adv-x="1114" 
d="M610 -420q-95 0 -159 56t-64 141q0 134 186 266l138 -43q-83 -44 -127.5 -95t-44.5 -102q0 -40 26.5 -64t75.5 -24q35 0 70 13v-134q-36 -14 -101 -14z" />
    <glyph glyph-name="tilde" unicode="&#x2dc;" horiz-adv-x="1239" 
d="M289 1253q12 102 59.5 161t128.5 59q41 0 139 -41t136 -41q66 0 84 77h110q-12 -102 -59.5 -160.5t-128.5 -58.5q-40 0 -138 41t-137 41q-68 0 -84 -78h-110z" />
    <glyph glyph-name="hungarumlaut" unicode="&#x2dd;" horiz-adv-x="1236" 
d="M707 1229l186 258h203l-240 -258h-149zM328 1229l170 258h200l-227 -258h-143z" />
    <glyph glyph-name="gravecomb" unicode="&#x300;" horiz-adv-x="0" 
d="M-467 1229l-238 258h216l180 -258h-158z" />
    <glyph glyph-name="acutecomb" unicode="&#x301;" horiz-adv-x="0" 
d="M-719 1229l182 258h213l-237 -258h-158z" />
    <glyph glyph-name="uni0302" unicode="&#x302;" horiz-adv-x="0" 
d="M-823 1229l190 258h250l190 -258h-182l-135 180l-137 -180h-176z" />
    <glyph glyph-name="tildecomb" unicode="&#x303;" horiz-adv-x="0" 
d="M-848 1253q12 102 60 161t129 59q41 0 138 -41t136 -41q66 0 84 77h111q-12 -102 -60 -160.5t-129 -58.5q-40 0 -137.5 41t-136.5 41q-68 0 -84 -78h-111z" />
    <glyph glyph-name="uni0304" unicode="&#x304;" horiz-adv-x="0" 
d="M-782 1296v144h540v-144h-540z" />
    <glyph glyph-name="uni0306" unicode="&#x306;" horiz-adv-x="0" 
d="M-508 1223q-131 0 -212 67t-81 197h156q0 -76 37 -113t100 -37q62 0 98.5 37t36.5 113h156q0 -131 -80.5 -197.5t-210.5 -66.5z" />
    <glyph glyph-name="uni0307" unicode="&#x307;" horiz-adv-x="0" 
d="M-606 1282v205h188v-205h-188z" />
    <glyph glyph-name="uni0308" unicode="&#x308;" horiz-adv-x="0" 
d="M-403 1272v215h184v-215h-184zM-805 1272v215h184v-215h-184z" />
    <glyph glyph-name="uni030A" unicode="&#x30a;" horiz-adv-x="0" 
d="M-514 1153q-100 0 -161.5 63.5t-61.5 145.5q0 83 61 147t162 64q102 0 162.5 -63.5t60.5 -147.5q0 -82 -60.5 -145.5t-162.5 -63.5zM-514 1243q60 0 89.5 35.5t29.5 83.5q0 49 -30.5 84t-88.5 35q-56 0 -86.5 -35.5t-30.5 -83.5q0 -47 30.5 -83t86.5 -36z" />
    <glyph glyph-name="uni030B" unicode="&#x30b;" horiz-adv-x="0" 
d="M-508 1229l186 258h203l-239 -258h-150zM-887 1229l170 258h201l-227 -258h-144z" />
    <glyph glyph-name="uni030C" unicode="&#x30c;" horiz-adv-x="0" 
d="M-629 1229l-190 258h172l135 -182l137 182h172l-190 -258h-236z" />
    <glyph glyph-name="uni0312" unicode="&#x312;" horiz-adv-x="0" 
d="M-414 1585l-71 -201h73v-186h-194v186l94 201h98z" />
    <glyph glyph-name="uni0313" unicode="&#x313;" horiz-adv-x="0" 
d="M-412 1290l-98 -200h-98l78 198h-80v193h198v-191z" />
    <glyph glyph-name="dotbelowcomb" unicode="&#x323;" horiz-adv-x="0" 
d="M-606 -352v205h188v-205h-188z" />
    <glyph glyph-name="uni0326" unicode="&#x326;" horiz-adv-x="0" 
d="M-608 -518l71 201h-73v186h194v-186l-94 -201h-98z" />
    <glyph glyph-name="uni0327" unicode="&#x327;" horiz-adv-x="0" 
d="M-502 -420q-61 0 -90 10v109q24 -6 47 -6q121 0 121 82q0 36 -22 60t-68 24q-25 0 -37 -2v204h135v-124q64 -3 99.5 -53.5t35.5 -114.5q0 -78 -58.5 -133.5t-162.5 -55.5z" />
    <glyph glyph-name="uni0328" unicode="&#x328;" horiz-adv-x="0" 
d="M-494 -420q-95 0 -159 56t-64 141q0 133 187 266l137 -43q-83 -44 -127.5 -95t-44.5 -102q0 -40 26.5 -64t75.5 -24q35 0 70 13v-134q-36 -14 -101 -14z" />
    <glyph glyph-name="uni032E" unicode="&#x32e;" horiz-adv-x="0" 
d="M-510 -381q-131 0 -212 67t-81 197h156q0 -76 37 -112.5t100 -36.5q62 0 98.5 36.5t36.5 112.5h156q0 -131 -80.5 -197.5t-210.5 -66.5z" />
    <glyph glyph-name="uni0331" unicode="&#x331;" horiz-adv-x="0" 
d="M-782 -322v144h540v-144h-540z" />
    <glyph glyph-name="uni037E" unicode="&#x37e;" horiz-adv-x="493" 
d="M250 -283h-123l96 301h-96v226h240v-244zM131 1057h236v-244h-236v244z" />
    <glyph glyph-name="dieresistonos" unicode="&#x385;" horiz-adv-x="1331" 
d="M573 1229l2 299h211l-86 -299h-127zM301 1272v215h184v-215h-184zM846 1272v215h184v-215h-184z" />
    <glyph glyph-name="anoteleia" unicode="&#x387;" horiz-adv-x="460" 
d="M113 1057h235v-244h-235v244z" />
    <glyph glyph-name="uni0394" unicode="&#x394;" horiz-adv-x="1421" 
d="M37 145l569 1342h203l577 -1342v-145h-1349v145zM1163 166l-346 858q-85 206 -106 268h-9q-3 -10 -12 -39t-16.5 -52t-24 -67.5t-37.5 -95.5l-362 -872h913z" />
    <glyph glyph-name="Sigma" unicode="&#x3a3;" horiz-adv-x="1216" 
d="M66 0v172l602 565l-582 586v164h1049v-166h-662q-45 0 -151 4l557 -555v-51l-605 -561q69 10 297 10h582v-168h-1087z" />
    <glyph glyph-name="uni03A9" unicode="&#x3a9;" horiz-adv-x="1597" 
d="M127 168h281q-158 135 -230 294t-72 363q0 142 47.5 268t134.5 220.5t218.5 149.5t290.5 55t291 -54.5t219.5 -149t135.5 -220.5t48 -269q0 -204 -71.5 -363t-229.5 -294h280v-168h-530v164q174 97 260 268.5t86 390.5q0 243 -128.5 390t-360.5 147q-231 0 -358.5 -147.5
t-127.5 -389.5q0 -219 86 -390.5t260 -268.5v-164h-530v168z" />
    <glyph glyph-name="uni03BC" unicode="&#x3bc;" horiz-adv-x="1224" 
d="M154 1057h186v-563q0 -367 258 -367q73 0 123 27.5t76 80.5t36.5 116.5t10.5 150.5v555h186v-819q0 -59 21.5 -83t76.5 -24q32 0 78 12v-141q-55 -18 -121 -18q-184 0 -219 131l-4 16q-42 -75 -103.5 -113t-160.5 -38q-89 0 -156.5 38t-99.5 101v-531h-188v1469z" />
    <glyph glyph-name="pi" unicode="&#x3c0;" horiz-adv-x="1249" 
d="M1032 -16q-103 0 -160 59t-57 174v674h-407v-891h-183v891h-188v166h1147v-166h-187v-637q0 -61 16 -91t62 -30q42 0 84 12v-145q-62 -16 -127 -16z" />
    <glyph glyph-name="uni1E02" unicode="&#x1e02;" horiz-adv-x="1323" 
d="M178 0v1487h438q52 0 89.5 -1t88 -5.5t88 -12t81 -22t74.5 -34t62 -49.5t49.5 -67.5t30 -88t11.5 -111.5q0 -114 -67.5 -207t-188.5 -125v-4q147 -34 221 -116.5t74 -233.5q0 -75 -20 -136t-53.5 -103t-83.5 -73.5t-102.5 -49.5t-119 -29.5t-124.5 -15t-126 -3.5h-422z
M379 162h223q78 0 132 4t112.5 19t94 41.5t58.5 73.5t23 114q0 63 -17 108t-49.5 74t-88.5 46t-124.5 23.5t-167.5 6.5h-196v-510zM379 834h186h59.5t61 2.5t64.5 6.5t60 12t58 20t47.5 30.5t40 42.5t24 56.5t9.5 72.5q0 48 -11 85t-29 63t-48 44t-61 28.5t-75.5 16.5
t-83.5 7.5t-93 1.5h-209v-489zM547 1634v205h192v-205h-192z" />
    <glyph glyph-name="uni1E03" unicode="&#x1e03;" horiz-adv-x="1198" 
d="M664 -23q-220 0 -330 158v-135h-180v1487h188v-555q64 81 144.5 114t185.5 33q203 0 322.5 -153t119.5 -398q0 -251 -126 -401t-324 -150zM635 127q132 0 209.5 107t77.5 294q0 188 -77.5 295t-209.5 107q-133 0 -215 -111.5t-82 -290.5q0 -170 83 -285.5t214 -115.5z
M580 1282v205h188v-205h-188z" />
    <glyph glyph-name="uni1E0A" unicode="&#x1e0a;" horiz-adv-x="1454" 
d="M178 0v1487h430q302 0 461 -109q140 -97 214.5 -263t74.5 -372q0 -202 -79.5 -365.5t-221.5 -262.5q-88 -60 -195.5 -87.5t-253.5 -27.5h-430zM379 164h203q266 0 393 112q81 70 126.5 194t45.5 273q0 150 -42 275.5t-122 195.5q-124 109 -401 109h-203v-1159zM618 1634
v205h193v-205h-193z" />
    <glyph glyph-name="uni1E0B" unicode="&#x1e0b;" horiz-adv-x="1198" 
d="M537 -23q-211 0 -332 144.5t-121 406.5q0 157 55.5 282t159.5 197t238 72q111 0 189.5 -34t129.5 -111v553h188v-1487h-180v139q-110 -162 -327 -162zM563 127q134 0 215.5 109t81.5 292q0 187 -81 294.5t-216 107.5q-131 0 -207.5 -107t-76.5 -295q0 -184 76.5 -292.5
t207.5 -108.5zM430 1282v205h188v-205h-188z" />
    <glyph glyph-name="uni1E0C" unicode="&#x1e0c;" horiz-adv-x="1454" 
d="M178 0v1487h430q302 0 461 -109q140 -97 214.5 -263t74.5 -372q0 -202 -79.5 -365.5t-221.5 -262.5q-88 -60 -195.5 -87.5t-253.5 -27.5h-430zM379 164h203q266 0 393 112q81 70 126.5 194t45.5 273q0 150 -42 275.5t-122 195.5q-124 109 -401 109h-203v-1159zM578 -352
v205h192v-205h-192z" />
    <glyph glyph-name="uni1E0D" unicode="&#x1e0d;" horiz-adv-x="1198" 
d="M537 -23q-211 0 -332 144.5t-121 406.5q0 157 55.5 282t159.5 197t238 72q111 0 189.5 -34t129.5 -111v553h188v-1487h-180v139q-110 -162 -327 -162zM563 127q134 0 215.5 109t81.5 292q0 187 -81 294.5t-216 107.5q-131 0 -207.5 -107t-76.5 -295q0 -184 76.5 -292.5
t207.5 -108.5zM463 -352v205h188v-205h-188z" />
    <glyph glyph-name="uni1E0E" unicode="&#x1e0e;" horiz-adv-x="1454" 
d="M178 0v1487h430q302 0 461 -109q140 -97 214.5 -263t74.5 -372q0 -202 -79.5 -365.5t-221.5 -262.5q-88 -60 -195.5 -87.5t-253.5 -27.5h-430zM379 164h203q266 0 393 112q81 70 126.5 194t45.5 273q0 150 -42 275.5t-122 195.5q-124 109 -401 109h-203v-1159zM328 -322
v144h540v-144h-540z" />
    <glyph glyph-name="uni1E0F" unicode="&#x1e0f;" horiz-adv-x="1198" 
d="M537 -23q-211 0 -332 144.5t-121 406.5q0 157 55.5 282t159.5 197t238 72q111 0 189.5 -34t129.5 -111v553h188v-1487h-180v139q-110 -162 -327 -162zM563 127q134 0 215.5 109t81.5 292q0 187 -81 294.5t-216 107.5q-131 0 -207.5 -107t-76.5 -295q0 -184 76.5 -292.5
t207.5 -108.5zM287 -322v144h540v-144h-540z" />
    <glyph glyph-name="uni1E10" unicode="&#x1e10;" horiz-adv-x="1454" 
d="M178 0v1487h430q302 0 461 -109q140 -97 214.5 -263t74.5 -372q0 -202 -79.5 -365.5t-221.5 -262.5q-88 -60 -195.5 -87.5t-253.5 -27.5h-430zM379 164h203q266 0 393 112q81 70 126.5 194t45.5 273q0 150 -42 275.5t-122 195.5q-124 109 -401 109h-203v-1159zM567 -520
l78 201h-82v190h207v-186l-98 -205h-105z" />
    <glyph glyph-name="uni1E11" unicode="&#x1e11;" horiz-adv-x="1198" 
d="M537 -23q-211 0 -332 144.5t-121 406.5q0 157 55.5 282t159.5 197t238 72q111 0 189.5 -34t129.5 -111v553h188v-1487h-180v139q-110 -162 -327 -162zM563 127q134 0 215.5 109t81.5 292q0 187 -81 294.5t-216 107.5q-131 0 -207.5 -107t-76.5 -295q0 -184 76.5 -292.5
t207.5 -108.5zM461 -518l71 201h-73v186h194v-186l-94 -201h-98z" />
    <glyph glyph-name="uni1E1E" unicode="&#x1e1e;" horiz-adv-x="1177" 
d="M178 0v1487h940v-166h-739v-502h690v-166h-690v-653h-201zM551 1634v205h192v-205h-192z" />
    <glyph glyph-name="uni1E1F" unicode="&#x1e1f;" horiz-adv-x="667" 
d="M223 0v901h-194v156h194v53q0 159 29 231q62 158 266 158q73 0 125 -12v-156q-41 8 -90 8q-38 0 -63.5 -10t-41 -26.5t-23.5 -48t-10.5 -66t-2.5 -88.5v-43h231v-156h-231v-901h-189zM383 1634v205h188v-205h-188z" />
    <glyph glyph-name="uni1E20" unicode="&#x1e20;" horiz-adv-x="1478" 
d="M733 -25q-161 0 -284.5 59t-199.5 164.5t-114.5 243t-38.5 301.5q0 162 46 302.5t131 246t213.5 166t285.5 60.5q247 0 400 -127.5t182 -335.5h-207q-26 143 -125 223t-250 80q-208 0 -337.5 -169.5t-129.5 -445.5q0 -277 122 -442.5t329 -165.5q182 0 293.5 129.5
t113.5 337.5h-364v168h559v-770h-176v61q0 90 6 129l-10 5q-73 -106 -187 -163t-258 -57zM498 1657v143h544v-143h-544z" />
    <glyph glyph-name="uni1E21" unicode="&#x1e21;" horiz-adv-x="1179" 
d="M565 -420q-196 0 -309.5 84t-126.5 248h195q12 -191 245 -191q144 0 212.5 83.5t68.5 285.5v105q-66 -89 -142.5 -124.5t-191.5 -35.5q-195 0 -313.5 143.5t-118.5 370.5q0 104 30 199t85 169t140 118t187 44q236 0 328 -170v148h174v-905q0 -112 -13.5 -198t-46 -158
t-85 -118.5t-132 -72t-186.5 -25.5zM563 180q132 0 210.5 104.5t78.5 282.5q0 162 -80 264.5t-209 102.5q-134 0 -210.5 -100t-76.5 -265q0 -182 77 -285.5t210 -103.5zM297 1296v144h541v-144h-541z" />
    <glyph glyph-name="uni1E22" unicode="&#x1e22;" horiz-adv-x="1525" 
d="M178 0v1487h201v-637h766v637h203v-1487h-203v684h-766v-684h-201zM666 1634v205h192v-205h-192z" />
    <glyph glyph-name="uni1E23" unicode="&#x1e23;" horiz-adv-x="1177" 
d="M154 0v1487h188v-563q97 155 322 155q256 0 337 -188q35 -79 35 -258v-633h-188v594q0 46 -2.5 82t-10.5 77.5t-23.5 70.5t-39.5 54.5t-62 38.5t-87 13q-135 0 -208 -95t-73 -282v-553h-188zM569 1282v205h189v-205h-189z" />
    <glyph glyph-name="uni1E24" unicode="&#x1e24;" horiz-adv-x="1525" 
d="M178 0v1487h201v-637h766v637h203v-1487h-203v684h-766v-684h-201zM666 -352v205h192v-205h-192z" />
    <glyph glyph-name="uni1E25" unicode="&#x1e25;" horiz-adv-x="1177" 
d="M154 0v1487h188v-563q97 155 322 155q256 0 337 -188q35 -79 35 -258v-633h-188v594q0 46 -2.5 82t-10.5 77.5t-23.5 70.5t-39.5 54.5t-62 38.5t-87 13q-135 0 -208 -95t-73 -282v-553h-188zM500 -352v205h188v-205h-188z" />
    <glyph glyph-name="uni1E2A" unicode="&#x1e2a;" horiz-adv-x="1525" 
d="M178 0v1487h201v-637h766v637h203v-1487h-203v684h-766v-684h-201zM766 -381q-137 0 -215 73t-80 191h164q13 -141 131 -141t131 141h164q-2 -118 -80 -191t-215 -73z" />
    <glyph glyph-name="uni1E2B" unicode="&#x1e2b;" horiz-adv-x="1177" 
d="M154 0v1487h188v-563q97 155 322 155q256 0 337 -188q35 -79 35 -258v-633h-188v594q0 46 -2.5 82t-10.5 77.5t-23.5 70.5t-39.5 54.5t-62 38.5t-87 13q-135 0 -208 -95t-73 -282v-553h-188zM596 -381q-131 0 -212 67t-81 197h156q0 -76 37 -112.5t100 -36.5
q62 0 98.5 36.5t36.5 112.5h156q0 -131 -80.5 -197.5t-210.5 -66.5z" />
    <glyph glyph-name="uni1E36" unicode="&#x1e36;" horiz-adv-x="1132" 
d="M178 0v1487h201v-1319h727v-168h-928zM549 -352v205h192v-205h-192z" />
    <glyph glyph-name="uni1E37" unicode="&#x1e37;" horiz-adv-x="495" 
d="M154 0v1487h188v-1487h-188zM154 -352v205h188v-205h-188z" />
    <glyph glyph-name="uni1E38" unicode="&#x1e38;" horiz-adv-x="1132" 
d="M178 0v1487h201v-1319h727v-168h-928zM549 -352v205h192v-205h-192zM0 1657v143h545v-143h-545z" />
    <glyph glyph-name="uni1E39" unicode="&#x1e39;" horiz-adv-x="495" 
d="M154 0v1487h188v-1487h-188zM154 -352v205h188v-205h-188zM-2 1657v143h500v-143h-500z" />
    <glyph glyph-name="uni1E3A" unicode="&#x1e3a;" horiz-adv-x="1132" 
d="M178 0v1487h201v-1319h727v-168h-928zM375 -322v144h540v-144h-540z" />
    <glyph glyph-name="uni1E3B" unicode="&#x1e3b;" horiz-adv-x="495" 
d="M154 0v1487h188v-1487h-188zM-2 -322v144h500v-144h-500z" />
    <glyph glyph-name="uni1E3E" unicode="&#x1e3e;" horiz-adv-x="1900" 
d="M178 0v1487h309l365 -959q62 -162 104 -309h11q31 133 94 309l350 959h311v-1487h-188v850q0 76 3.5 226t4.5 220h-10l-475 -1296h-217l-478 1296h-10q0 -16 5 -194.5t5 -251.5v-850h-184zM862 1620l197 233h227l-258 -233h-166z" />
    <glyph glyph-name="uni1E3F" unicode="&#x1e3f;" horiz-adv-x="1792" 
d="M154 0v1057h176v-135q46 74 129 115.5t188 41.5q97 0 175.5 -48t113.5 -146q125 194 375 194q340 0 340 -391v-688h-189v586q0 46 -2 79.5t-8.5 77.5t-20.5 74t-36 57.5t-58 41.5t-84 14q-55 0 -98 -18.5t-69.5 -52.5t-45 -73t-27.5 -88.5t-12.5 -90t-3.5 -85.5v-522
h-188v586q0 56 -3 96t-15 90.5t-33.5 82t-62 53.5t-97.5 22q-55 0 -98 -18.5t-69.5 -52.5t-45 -73t-27.5 -88.5t-12.5 -90t-3.5 -85.5v-522h-188zM829 1229l183 258h213l-238 -258h-158z" />
    <glyph glyph-name="uni1E40" unicode="&#x1e40;" horiz-adv-x="1900" 
d="M178 0v1487h309l365 -959q62 -162 104 -309h11q31 133 94 309l350 959h311v-1487h-188v850q0 76 3.5 226t4.5 220h-10l-475 -1296h-217l-478 1296h-10q0 -16 5 -194.5t5 -251.5v-850h-184zM862 1634v205h193v-205h-193z" />
    <glyph glyph-name="uni1E41" unicode="&#x1e41;" horiz-adv-x="1792" 
d="M154 0v1057h176v-135q46 74 129 115.5t188 41.5q97 0 175.5 -48t113.5 -146q125 194 375 194q340 0 340 -391v-688h-189v586q0 46 -2 79.5t-8.5 77.5t-20.5 74t-36 57.5t-58 41.5t-84 14q-55 0 -98 -18.5t-69.5 -52.5t-45 -73t-27.5 -88.5t-12.5 -90t-3.5 -85.5v-522
h-188v586q0 56 -3 96t-15 90.5t-33.5 82t-62 53.5t-97.5 22q-55 0 -98 -18.5t-69.5 -52.5t-45 -73t-27.5 -88.5t-12.5 -90t-3.5 -85.5v-522h-188zM823 1282v205h189v-205h-189z" />
    <glyph glyph-name="uni1E42" unicode="&#x1e42;" horiz-adv-x="1900" 
d="M178 0v1487h309l365 -959q62 -162 104 -309h11q31 133 94 309l350 959h311v-1487h-188v850q0 76 3.5 226t4.5 220h-10l-475 -1296h-217l-478 1296h-10q0 -16 5 -194.5t5 -251.5v-850h-184zM854 -352v205h193v-205h-193z" />
    <glyph glyph-name="uni1E43" unicode="&#x1e43;" horiz-adv-x="1792" 
d="M154 0v1057h176v-135q46 74 129 115.5t188 41.5q97 0 175.5 -48t113.5 -146q125 194 375 194q340 0 340 -391v-688h-189v586q0 46 -2 79.5t-8.5 77.5t-20.5 74t-36 57.5t-58 41.5t-84 14q-55 0 -98 -18.5t-69.5 -52.5t-45 -73t-27.5 -88.5t-12.5 -90t-3.5 -85.5v-522
h-188v586q0 56 -3 96t-15 90.5t-33.5 82t-62 53.5t-97.5 22q-55 0 -98 -18.5t-69.5 -52.5t-45 -73t-27.5 -88.5t-12.5 -90t-3.5 -85.5v-522h-188zM807 -352v205h188v-205h-188z" />
    <glyph glyph-name="uni1E44" unicode="&#x1e44;" horiz-adv-x="1533" 
d="M178 0v1487h275q609 -1056 718 -1278h11q-13 351 -13 536v742h187v-1487h-271q-623 1092 -727 1296h-10q14 -387 14 -555v-741h-184zM690 1634v205h193v-205h-193z" />
    <glyph glyph-name="uni1E45" unicode="&#x1e45;" horiz-adv-x="1177" 
d="M154 0v1057h174v-135q119 157 336 157q261 0 335 -188q37 -92 37 -258v-633h-188v596q0 46 -2.5 82t-10.5 77t-23.5 70t-39.5 54t-62 38t-87 13q-135 0 -208 -95t-73 -282v-553h-188zM541 1282v205h188v-205h-188z" />
    <glyph glyph-name="uni1E46" unicode="&#x1e46;" horiz-adv-x="1533" 
d="M178 0v1487h275q609 -1056 718 -1278h11q-13 351 -13 536v742h187v-1487h-271q-623 1092 -727 1296h-10q14 -387 14 -555v-741h-184zM649 -352v205h193v-205h-193z" />
    <glyph glyph-name="uni1E47" unicode="&#x1e47;" horiz-adv-x="1177" 
d="M154 0v1057h174v-135q119 157 336 157q261 0 335 -188q37 -92 37 -258v-633h-188v596q0 46 -2.5 82t-10.5 77t-23.5 70t-39.5 54t-62 38t-87 13q-135 0 -208 -95t-73 -282v-553h-188zM496 -352v205h188v-205h-188z" />
    <glyph glyph-name="uni1E48" unicode="&#x1e48;" horiz-adv-x="1533" 
d="M178 0v1487h275q609 -1056 718 -1278h11q-13 351 -13 536v742h187v-1487h-271q-623 1092 -727 1296h-10q14 -387 14 -555v-741h-184zM475 -322v144h541v-144h-541z" />
    <glyph glyph-name="uni1E49" unicode="&#x1e49;" horiz-adv-x="1177" 
d="M154 0v1057h174v-135q119 157 336 157q261 0 335 -188q37 -92 37 -258v-633h-188v596q0 46 -2.5 82t-10.5 77t-23.5 70t-39.5 54t-62 38t-87 13q-135 0 -208 -95t-73 -282v-553h-188zM319 -322v144h541v-144h-541z" />
    <glyph glyph-name="uni1E56" unicode="&#x1e56;" horiz-adv-x="1280" 
d="M178 0v1487h451q86 0 135 -2t126 -17.5t136 -46.5q96 -50 147.5 -152t51.5 -231q0 -130 -53.5 -227.5t-147.5 -153.5q-117 -71 -408 -71h-237v-586h-201zM379 750h258q181 0 240 30q68 35 104.5 104t36.5 154t-36.5 153t-104.5 103q-55 29 -240 29h-258v-573zM573 1634
v205h193v-205h-193z" />
    <glyph glyph-name="uni1E57" unicode="&#x1e57;" horiz-adv-x="1198" 
d="M154 -412v1469h180v-144q113 166 338 166q208 0 325 -152t117 -399q0 -255 -125.5 -403t-324.5 -148q-228 0 -322 142v-531h-188zM635 127q132 0 209.5 107t77.5 294q0 188 -77.5 295t-209.5 107q-133 0 -215 -111.5t-82 -290.5q0 -180 82 -290.5t215 -110.5zM537 1282
v205h188v-205h-188z" />
    <glyph glyph-name="uni1E5A" unicode="&#x1e5a;" horiz-adv-x="1327" 
d="M178 0v1487h440q188 0 289 -31q128 -39 203.5 -136.5t75.5 -250.5q0 -133 -89.5 -237t-234.5 -136v-6q56 -3 99.5 -22t72 -51t46.5 -65t32 -75l156 -477h-215l-133 422q-11 36 -25 64t-33 48t-36 34t-45 23t-48 14.5t-57.5 7.5t-61 2.5t-69.5 0.5h-166v-616h-201z
M379 780h170q58 0 103 3t98.5 12t91.5 28t71.5 48t50.5 74.5t17 105.5q0 119 -58.5 179t-162.5 81q-63 12 -211 12h-170v-543zM604 -352v205h193v-205h-193z" />
    <glyph glyph-name="uni1E5B" unicode="&#x1e5b;" horiz-adv-x="774" 
d="M154 0v1057h178v-156q59 91 131.5 129.5t165.5 38.5q61 0 119 -12v-166q-82 14 -125 14q-67 0 -116.5 -19.5t-80.5 -54t-50 -88.5t-26.5 -115.5t-7.5 -142.5v-485h-188zM156 -352v205h188v-205h-188z" />
    <glyph glyph-name="uni1E5C" unicode="&#x1e5c;" horiz-adv-x="1327" 
d="M178 0v1487h440q188 0 289 -31q128 -39 203.5 -136.5t75.5 -250.5q0 -133 -89.5 -237t-234.5 -136v-6q56 -3 99.5 -22t72 -51t46.5 -65t32 -75l156 -477h-215l-133 422q-11 36 -25 64t-33 48t-36 34t-45 23t-48 14.5t-57.5 7.5t-61 2.5t-69.5 0.5h-166v-616h-201z
M379 780h170q58 0 103 3t98.5 12t91.5 28t71.5 48t50.5 74.5t17 105.5q0 119 -58.5 179t-162.5 81q-63 12 -211 12h-170v-543zM604 -352v205h193v-205h-193zM375 1657v143h545v-143h-545z" />
    <glyph glyph-name="uni1E5D" unicode="&#x1e5d;" horiz-adv-x="774" 
d="M154 0v1057h178v-156q59 91 131.5 129.5t165.5 38.5q61 0 119 -12v-166q-82 14 -125 14q-67 0 -116.5 -19.5t-80.5 -54t-50 -88.5t-26.5 -115.5t-7.5 -142.5v-485h-188zM156 -352v205h188v-205h-188zM176 1296v144h541v-144h-541z" />
    <glyph glyph-name="uni1E5E" unicode="&#x1e5e;" horiz-adv-x="1327" 
d="M178 0v1487h440q188 0 289 -31q128 -39 203.5 -136.5t75.5 -250.5q0 -133 -89.5 -237t-234.5 -136v-6q56 -3 99.5 -22t72 -51t46.5 -65t32 -75l156 -477h-215l-133 422q-11 36 -25 64t-33 48t-36 34t-45 23t-48 14.5t-57.5 7.5t-61 2.5t-69.5 0.5h-166v-616h-201z
M379 780h170q58 0 103 3t98.5 12t91.5 28t71.5 48t50.5 74.5t17 105.5q0 119 -58.5 179t-162.5 81q-63 12 -211 12h-170v-543zM430 -322v144h541v-144h-541z" />
    <glyph glyph-name="uni1E5F" unicode="&#x1e5f;" horiz-adv-x="774" 
d="M154 0v1057h178v-156q59 91 131.5 129.5t165.5 38.5q61 0 119 -12v-166q-82 14 -125 14q-67 0 -116.5 -19.5t-80.5 -54t-50 -88.5t-26.5 -115.5t-7.5 -142.5v-485h-188zM0 -322v144h500v-144h-500z" />
    <glyph glyph-name="uni1E60" unicode="&#x1e60;" horiz-adv-x="1275" 
d="M645 -31q-264 0 -412.5 135.5t-148.5 382.5h203q0 -174 92 -266t266 -92q156 0 245 69t89 187q0 30 -7 57t-18 48.5t-31 41t-38.5 34t-49 29t-53 24t-60.5 21t-62 18.5t-66 18q-62 17 -101 28.5t-95 33t-92 43t-76 54.5t-63 71t-38.5 90t-15.5 114q0 181 147.5 294.5
t378.5 113.5q244 0 383 -126t139 -348h-196q0 78 -28 140t-75 99t-105 56t-122 19q-80 0 -149 -24.5t-115.5 -80t-46.5 -131.5q0 -33 7 -61t23.5 -51.5t32.5 -41t47 -34.5t52.5 -28t64 -24.5t66.5 -20.5t73 -21q65 -18 103.5 -30t98.5 -34.5t96.5 -43.5t79.5 -55.5t67 -72.5
t40.5 -91.5t16.5 -115.5q0 -192 -151 -310t-396 -118zM541 1634v205h192v-205h-192z" />
    <glyph glyph-name="uni1E61" unicode="&#x1e61;" horiz-adv-x="1034" 
d="M532 -31q-219 0 -338.5 97t-121.5 274h190q0 -111 71.5 -168t203.5 -57q108 0 166.5 40.5t58.5 116.5q0 31 -9.5 56t-30.5 43t-42 30.5t-58 23t-62.5 16t-70.5 14.5q-154 29 -214 54q-145 58 -172 197q-7 34 -7 74q0 136 114 221.5t300 85.5q200 0 310.5 -91.5
t111.5 -262.5h-187q-2 105 -60 156t-179 51q-97 0 -155 -40t-58 -107q0 -35 15 -61.5t35 -42.5t59.5 -30t68.5 -21t82 -17q159 -31 223 -58q157 -64 182 -213q5 -31 5 -65q0 -141 -121.5 -228.5t-309.5 -87.5zM416 1282v205h188v-205h-188z" />
    <glyph glyph-name="uni1E62" unicode="&#x1e62;" horiz-adv-x="1275" 
d="M645 -31q-264 0 -412.5 135.5t-148.5 382.5h203q0 -174 92 -266t266 -92q156 0 245 69t89 187q0 30 -7 57t-18 48.5t-31 41t-38.5 34t-49 29t-53 24t-60.5 21t-62 18.5t-66 18q-62 17 -101 28.5t-95 33t-92 43t-76 54.5t-63 71t-38.5 90t-15.5 114q0 181 147.5 294.5
t378.5 113.5q244 0 383 -126t139 -348h-196q0 78 -28 140t-75 99t-105 56t-122 19q-80 0 -149 -24.5t-115.5 -80t-46.5 -131.5q0 -33 7 -61t23.5 -51.5t32.5 -41t47 -34.5t52.5 -28t64 -24.5t66.5 -20.5t73 -21q65 -18 103.5 -30t98.5 -34.5t96.5 -43.5t79.5 -55.5t67 -72.5
t40.5 -91.5t16.5 -115.5q0 -192 -151 -310t-396 -118zM551 -352v205h192v-205h-192z" />
    <glyph glyph-name="uni1E63" unicode="&#x1e63;" horiz-adv-x="1034" 
d="M532 -31q-219 0 -338.5 97t-121.5 274h190q0 -111 71.5 -168t203.5 -57q108 0 166.5 40.5t58.5 116.5q0 31 -9.5 56t-30.5 43t-42 30.5t-58 23t-62.5 16t-70.5 14.5q-154 29 -214 54q-145 58 -172 197q-7 34 -7 74q0 136 114 221.5t300 85.5q200 0 310.5 -91.5
t111.5 -262.5h-187q-2 105 -60 156t-179 51q-97 0 -155 -40t-58 -107q0 -35 15 -61.5t35 -42.5t59.5 -30t68.5 -21t82 -17q159 -31 223 -58q157 -64 182 -213q5 -31 5 -65q0 -141 -121.5 -228.5t-309.5 -87.5zM442 -352v205h189v-205h-189z" />
    <glyph glyph-name="uni1E6A" unicode="&#x1e6a;" horiz-adv-x="1226" 
d="M512 0v1321h-489v166h1181v-166h-489v-1321h-203zM518 1634v205h193v-205h-193z" />
    <glyph glyph-name="uni1E6B" unicode="&#x1e6b;" horiz-adv-x="681" 
d="M487 -18q-132 0 -199 69.5t-67 235.5v614h-194v156h194v256h189v-256h229v-156h-229v-526q0 -53 1.5 -83t8.5 -63t20 -49.5t37 -27.5t60 -11q59 0 106 11v-152q-83 -18 -156 -18zM221 1470v205h189v-205h-189z" />
    <glyph glyph-name="uni1E6C" unicode="&#x1e6c;" horiz-adv-x="1226" 
d="M512 0v1321h-489v166h1181v-166h-489v-1321h-203zM518 -352v205h193v-205h-193z" />
    <glyph glyph-name="uni1E6D" unicode="&#x1e6d;" horiz-adv-x="681" 
d="M487 -18q-132 0 -199 69.5t-67 235.5v614h-194v156h194v256h189v-256h229v-156h-229v-526q0 -53 1.5 -83t8.5 -63t20 -49.5t37 -27.5t60 -11q59 0 106 11v-152q-83 -18 -156 -18zM322 -352v205h188v-205h-188z" />
    <glyph glyph-name="uni1E6E" unicode="&#x1e6e;" horiz-adv-x="1226" 
d="M512 0v1321h-489v166h1181v-166h-489v-1321h-203zM344 -322v144h541v-144h-541z" />
    <glyph glyph-name="uni1E6F" unicode="&#x1e6f;" horiz-adv-x="681" 
d="M487 -18q-132 0 -199 69.5t-67 235.5v614h-194v156h194v256h189v-256h229v-156h-229v-526q0 -53 1.5 -83t8.5 -63t20 -49.5t37 -27.5t60 -11q59 0 106 11v-152q-83 -18 -156 -18zM166 -322v144h500v-144h-500z" />
    <glyph glyph-name="uni1E7C" unicode="&#x1e7c;" horiz-adv-x="1314" 
d="M543 0l-525 1487h224l323 -959q18 -52 47.5 -155t46.5 -152h13q86 274 96 307l334 959h203l-541 -1487h-221zM344 1630q12 102 59.5 160.5t128.5 58.5q42 0 139 -41t136 -41q32 0 53 18t31 60h110q-12 -102 -59.5 -160.5t-128.5 -58.5q-40 0 -137.5 41t-136.5 41
q-68 0 -84 -78h-111z" />
    <glyph glyph-name="uni1E7D" unicode="&#x1e7d;" horiz-adv-x="1046" 
d="M414 0l-391 1057h206l187 -529q54 -157 108 -364h13q42 173 108 364l186 529h193l-391 -1057h-219zM193 1253q12 102 59.5 161t128.5 59q41 0 138.5 -41t135.5 -41q66 0 84 77h111q-12 -102 -59.5 -160.5t-128.5 -58.5q-40 0 -138 41t-137 41q-68 0 -84 -78h-110z" />
    <glyph glyph-name="Wgrave" unicode="&#x1e80;" horiz-adv-x="1941" 
d="M399 0l-368 1487h207l221 -959q38 -170 61 -299h10q33 185 66 299l260 959h250l252 -959q5 -21 11.5 -50t21.5 -99.5t32 -149.5h13q42 208 63 299l225 959h185l-367 -1487h-239l-256 987q-29 118 -68 299h-10q-43 -196 -68 -299l-264 -987h-238zM907 1620l-256 233h228
l196 -233h-168z" />
    <glyph glyph-name="wgrave" unicode="&#x1e81;" horiz-adv-x="1622" 
d="M324 0l-295 1057h194l144 -529q24 -89 79 -364h13q23 117 90 364l143 529h252l150 -529q44 -152 86 -364h12q33 189 80 364l143 529h176l-293 -1057h-243l-146 528q-30 113 -90 385h-12q-67 -286 -94 -385l-146 -528h-243zM748 1229l-238 258h215l180 -258h-157z" />
    <glyph glyph-name="Wacute" unicode="&#x1e82;" horiz-adv-x="1941" 
d="M399 0l-368 1487h207l221 -959q38 -170 61 -299h10q33 185 66 299l260 959h250l252 -959q5 -21 11.5 -50t21.5 -99.5t32 -149.5h13q42 208 63 299l225 959h185l-367 -1487h-239l-256 987q-29 118 -68 299h-10q-43 -196 -68 -299l-264 -987h-238zM870 1620l197 233h227
l-258 -233h-166z" />
    <glyph glyph-name="wacute" unicode="&#x1e83;" horiz-adv-x="1622" 
d="M324 0l-295 1057h194l144 -529q24 -89 79 -364h13q23 117 90 364l143 529h252l150 -529q44 -152 86 -364h12q33 189 80 364l143 529h176l-293 -1057h-243l-146 528q-30 113 -90 385h-12q-67 -286 -94 -385l-146 -528h-243zM717 1229l182 258h213l-238 -258h-157z" />
    <glyph glyph-name="Wdieresis" unicode="&#x1e84;" horiz-adv-x="1941" 
d="M399 0l-368 1487h207l221 -959q38 -170 61 -299h10q33 185 66 299l260 959h250l252 -959q5 -21 11.5 -50t21.5 -99.5t32 -149.5h13q42 208 63 299l225 959h185l-367 -1487h-239l-256 987q-29 118 -68 299h-10q-43 -196 -68 -299l-264 -987h-238zM1083 1628v215h185v-215
h-185zM678 1628v215h184v-215h-184z" />
    <glyph glyph-name="wdieresis" unicode="&#x1e85;" horiz-adv-x="1622" 
d="M324 0l-295 1057h194l144 -529q24 -89 79 -364h13q23 117 90 364l143 529h252l150 -529q44 -152 86 -364h12q33 189 80 364l143 529h176l-293 -1057h-243l-146 528q-30 113 -90 385h-12q-67 -286 -94 -385l-146 -528h-243zM922 1272v215h184v-215h-184zM520 1272v215h185
v-215h-185z" />
    <glyph glyph-name="uni1E8A" unicode="&#x1e8a;" horiz-adv-x="1273" 
d="M4 0l514 774l-487 713h237l375 -576l379 576h219l-487 -713l520 -774h-236l-407 625l-404 -625h-223zM539 1634v205h192v-205h-192z" />
    <glyph glyph-name="uni1E8B" unicode="&#x1e8b;" horiz-adv-x="1007" 
d="M6 0l387 547l-358 510h233l242 -387l258 387h205l-363 -510l394 -547h-232l-276 414l-277 -414h-213zM420 1282v205h188v-205h-188z" />
    <glyph glyph-name="uni1E92" unicode="&#x1e92;" horiz-adv-x="1165" 
d="M68 0v170l792 1155q-168 -4 -254 -4h-518v166h987v-166l-796 -1161q176 8 305 8h530v-168h-1046zM494 -352v205h192v-205h-192z" />
    <glyph glyph-name="uni1E93" unicode="&#x1e93;" horiz-adv-x="925" 
d="M55 0v154l588 757q-69 -10 -231 -10h-328v156h768v-156l-582 -756q92 9 246 9h361v-154h-822zM371 -352v205h188v-205h-188z" />
    <glyph glyph-name="uni1E97" unicode="&#x1e97;" horiz-adv-x="681" 
d="M487 -18q-132 0 -199 69.5t-67 235.5v614h-194v156h194v256h189v-256h229v-156h-229v-526q0 -53 1.5 -83t8.5 -63t20 -49.5t37 -27.5t60 -11q59 0 106 11v-152q-83 -18 -156 -18zM387 1460v215h182v-215h-182zM61 1460v215h183v-215h-183z" />
    <glyph glyph-name="Germandbls" unicode="&#x1e9e;" horiz-adv-x="1529" 
d="M709 1038q0 97 56.5 168t156.5 107v8h-543v-1321h-201v1487h1049v-154q-94 -36 -156.5 -72t-94.5 -73.5t-44 -72t-12 -77.5q0 -37 17 -71t38.5 -58t62.5 -51.5t67 -42t73 -39.5q42 -22 62 -33t57.5 -35.5t57.5 -44.5t46.5 -53t40 -67.5t23.5 -83t10 -103.5
q0 -172 -118 -279.5t-327 -107.5q-223 0 -349 99.5t-126 296.5h199q0 -236 276 -236q119 0 177.5 61t58.5 154q0 57 -16.5 101.5t-50.5 77t-66.5 54.5t-80.5 49q-6 3 -8.5 4.5t-7 4t-8.5 4.5q-8 5 -43 24.5t-46 26t-42 26.5t-43.5 31t-38 33t-36.5 39t-27.5 43t-23.5 51.5
t-13 57.5t-6 67z" />
    <glyph glyph-name="uni1EA0" unicode="&#x1ea0;" horiz-adv-x="1425" 
d="M6 0l604 1487h203l610 -1487h-219l-172 432h-651l-162 -432h-213zM446 596h527l-142 383q-7 19 -51 135.5t-65 177.5h-8q-77 -221 -111 -309zM614 -352v205h193v-205h-193z" />
    <glyph glyph-name="uni1EA1" unicode="&#x1ea1;" horiz-adv-x="1105" 
d="M446 -23q-171 0 -268.5 88.5t-97.5 231.5q0 56 15 102.5t44.5 80t64 59t84.5 43t94 29.5t104 20t103 12.5t102.5 9.5t92.5 9v36q0 248 -233 248q-113 0 -179.5 -55.5t-66.5 -159.5h-186q0 161 120 258.5t312 97.5q83 0 148.5 -16t109 -41t74.5 -65.5t47.5 -78t25.5 -91.5
t11 -93t2 -94v-289q0 -194 26 -319h-176q-12 60 -14 143q-66 -87 -154 -126.5t-205 -39.5zM489 115q62 0 111 14.5t92.5 50.5t67.5 106t24 171v59q-25 -3 -78 -7t-94.5 -8.5t-96 -13t-94.5 -23t-76.5 -36.5t-55.5 -56.5t-19 -78.5q0 -78 59.5 -128t159.5 -50zM422 -352v205
h188v-205h-188z" />
    <glyph glyph-name="uni1EB8" unicode="&#x1eb8;" horiz-adv-x="1224" 
d="M178 0v1487h926v-166h-725v-477h692v-168h-692v-510h760v-166h-961zM547 -352v205h192v-205h-192z" />
    <glyph glyph-name="uni1EB9" unicode="&#x1eb9;" horiz-adv-x="1150" 
d="M584 -31q-241 0 -371.5 148t-130.5 411q0 244 138.5 401.5t367.5 157.5q243 0 361 -159t118 -459h-788q7 -156 94 -253t217 -97q104 0 176 48.5t100 147.5h199q-33 -166 -163.5 -256t-317.5 -90zM283 623h583q-15 155 -91.5 234t-194.5 79q-123 0 -200 -78.5t-97 -234.5z
M487 -352v205h189v-205h-189z" />
    <glyph glyph-name="uni1EBC" unicode="&#x1ebc;" horiz-adv-x="1224" 
d="M178 0v1487h926v-166h-725v-477h692v-168h-692v-510h760v-166h-961zM346 1630q12 102 60 160.5t129 58.5q41 0 138 -41t136 -41q32 0 53 18t31 60h111q-12 -102 -60 -160.5t-129 -58.5q-40 0 -137.5 41t-136.5 41q-68 0 -84 -78h-111z" />
    <glyph glyph-name="uni1EBD" unicode="&#x1ebd;" horiz-adv-x="1150" 
d="M584 -31q-241 0 -371.5 148t-130.5 411q0 244 138.5 401.5t367.5 157.5q243 0 361 -159t118 -459h-788q7 -156 94 -253t217 -97q104 0 176 48.5t100 147.5h199q-33 -166 -163.5 -256t-317.5 -90zM283 623h583q-15 155 -91.5 234t-194.5 79q-123 0 -200 -78.5t-97 -234.5z
M254 1253q12 102 59.5 161t128.5 59q42 0 139.5 -41t135.5 -41q66 0 84 77h110q-12 -102 -59.5 -160.5t-128.5 -58.5q-40 0 -137.5 41t-136.5 41q-68 0 -84 -78h-111z" />
    <glyph glyph-name="uni1ECA" unicode="&#x1eca;" horiz-adv-x="557" 
d="M178 0v1487h201v-1487h-201zM180 -352v205h193v-205h-193z" />
    <glyph glyph-name="uni1ECB" unicode="&#x1ecb;" horiz-adv-x="495" 
d="M154 0v1057h188v-1057h-188zM154 1282v205h188v-205h-188zM154 -352v205h188v-205h-188z" />
    <glyph glyph-name="uni1ECC" unicode="&#x1ecc;" horiz-adv-x="1562" 
d="M780 -31q-205 0 -361 97.5t-239.5 273t-83.5 403.5q0 227 83.5 403t239.5 274t361 98t361.5 -98t240.5 -274t84 -403q0 -350 -187.5 -562t-498.5 -212zM780 129q143 0 252 80t167 219t58 315t-58 315t-167 219.5t-252 80.5q-142 0 -250.5 -80.5t-166.5 -219.5t-58 -315
t58 -315t166.5 -219t250.5 -80zM684 -352v205h193v-205h-193z" />
    <glyph glyph-name="uni1ECD" unicode="&#x1ecd;" horiz-adv-x="1187" 
d="M590 -31q-232 0 -370 154.5t-138 404.5q0 249 139 404t371 155q234 0 374 -155t140 -404q0 -250 -139.5 -404.5t-376.5 -154.5zM590 119q148 0 234.5 111t86.5 296q0 184 -87 297t-232 113q-144 0 -230 -111t-86 -295q0 -186 85 -298.5t229 -112.5zM496 -352v205h188
v-205h-188z" />
    <glyph glyph-name="uni1EE4" unicode="&#x1ee4;" horiz-adv-x="1441" 
d="M719 -31q-182 0 -310 70.5t-188 202.5q-31 70 -44 156.5t-13 228.5v860h201v-856q0 -153 19 -238.5t65 -144.5q97 -121 270 -121q84 0 159 33.5t115 87.5q44 59 64 149t20 234v856h201v-860q0 -162 -19.5 -259.5t-66.5 -172.5q-67 -106 -190 -166t-283 -60zM625 -352v205
h192v-205h-192z" />
    <glyph glyph-name="uni1EE5" unicode="&#x1ee5;" horiz-adv-x="1171" 
d="M510 -23q-131 0 -210.5 49t-123.5 140q-16 34 -24.5 85t-9.5 87.5t-1 103.5v615h187v-596q0 -56 3.5 -97.5t16.5 -89t36.5 -77.5t65.5 -50t101 -20q135 0 207.5 94t72.5 281v555h187v-1057h-174v135q-117 -158 -334 -158zM455 -352v205h188v-205h-188z" />
    <glyph glyph-name="Ygrave" unicode="&#x1ef2;" horiz-adv-x="1263" 
d="M530 0v629l-514 858h234l387 -703l405 703h213l-524 -858v-629h-201zM571 1620l-256 233h228l196 -233h-168z" />
    <glyph glyph-name="ygrave" unicode="&#x1ef3;" horiz-adv-x="1046" 
d="M219 -420q-67 0 -123 10v158q50 -12 90 -12q98 0 151.5 62t86.5 179l-401 1080h208l185 -529q25 -71 62 -202t46 -160h11q61 217 112 362l187 529h190l-393 -1057q-31 -83 -59 -142.5t-64.5 -115t-77 -89t-94 -53.5t-117.5 -20zM459 1229l-238 258h215l180 -258h-157z
" />
    <glyph glyph-name="uni1EF8" unicode="&#x1ef8;" horiz-adv-x="1263" 
d="M530 0v629l-514 858h234l387 -703l405 703h213l-524 -858v-629h-201zM317 1630q12 102 60 160.5t129 58.5q41 0 138 -41t136 -41q32 0 53 18t31 60h111q-12 -102 -60 -160.5t-129 -58.5q-40 0 -137.5 41t-136.5 41q-68 0 -84 -78h-111z" />
    <glyph glyph-name="uni1EF9" unicode="&#x1ef9;" horiz-adv-x="1046" 
d="M219 -420q-67 0 -123 10v158q50 -12 90 -12q98 0 151.5 62t86.5 179l-401 1080h208l185 -529q25 -71 62 -202t46 -160h11q61 217 112 362l187 529h190l-393 -1057q-31 -83 -59 -142.5t-64.5 -115t-77 -89t-94 -53.5t-117.5 -20zM193 1253q12 102 59.5 161t128.5 59
q41 0 138.5 -41t135.5 -41q66 0 84 77h111q-12 -102 -59.5 -160.5t-128.5 -58.5q-40 0 -138 41t-137 41q-68 0 -84 -78h-110z" />
    <glyph glyph-name="uni2000" unicode="&#x2000;" horiz-adv-x="1024" 
 />
    <glyph glyph-name="uni2001" unicode="&#x2001;" horiz-adv-x="2048" 
 />
    <glyph glyph-name="uni2002" unicode="&#x2002;" horiz-adv-x="1024" 
 />
    <glyph glyph-name="uni2003" unicode="&#x2003;" horiz-adv-x="2048" 
 />
    <glyph glyph-name="uni2004" unicode="&#x2004;" horiz-adv-x="681" 
 />
    <glyph glyph-name="uni2005" unicode="&#x2005;" horiz-adv-x="512" 
 />
    <glyph glyph-name="uni2006" unicode="&#x2006;" horiz-adv-x="342" 
 />
    <glyph glyph-name="uni2007" unicode="&#x2007;" 
 />
    <glyph glyph-name="uni2008" unicode="&#x2008;" horiz-adv-x="460" 
 />
    <glyph glyph-name="uni2009" unicode="&#x2009;" horiz-adv-x="256" 
 />
    <glyph glyph-name="uni200A" unicode="&#x200a;" horiz-adv-x="86" 
 />
    <glyph glyph-name="uni200B" unicode="&#x200b;" horiz-adv-x="0" 
 />
    <glyph glyph-name="figuredash" unicode="&#x2012;" 
d="M195 653h899v-147h-899v147z" />
    <glyph glyph-name="endash" unicode="&#x2013;" horiz-adv-x="1148" 
d="M125 653h899v-147h-899v147z" />
    <glyph glyph-name="emdash" unicode="&#x2014;" horiz-adv-x="1665" 
d="M125 653h1415v-147h-1415v147z" />
    <glyph glyph-name="uni2015" unicode="&#x2015;" horiz-adv-x="1665" 
d="M125 653h1415v-147h-1415v147z" />
    <glyph glyph-name="quoteleft" unicode="&#x2018;" horiz-adv-x="438" 
d="M338 1487l-100 -307h90v-219h-228v243l117 283h121z" />
    <glyph glyph-name="quoteright" unicode="&#x2019;" horiz-adv-x="425" 
d="M223 961h-121l99 307h-88v219h227v-244z" />
    <glyph glyph-name="quotesinglbase" unicode="&#x201a;" horiz-adv-x="450" 
d="M221 -283h-121l99 308h-88v219h227v-244z" />
    <glyph glyph-name="quotereversed" unicode="&#x201b;" horiz-adv-x="425" 
d="M313 1268h-90l101 -307h-121l-117 282v244h227v-219z" />
    <glyph glyph-name="quotedblleft" unicode="&#x201c;" horiz-adv-x="788" 
d="M688 1487l-100 -307h90v-219h-229v243l118 283h121zM340 1487l-100 -307h90v-219h-230v243l119 283h121z" />
    <glyph glyph-name="quotedblright" unicode="&#x201d;" horiz-adv-x="776" 
d="M223 961h-121l99 307h-88v219h229v-244zM571 961h-120l98 307h-88v219h229v-244z" />
    <glyph glyph-name="quotedblbase" unicode="&#x201e;" horiz-adv-x="800" 
d="M221 -283h-121l99 308h-88v219h229v-244zM569 -283h-120l98 308h-88v219h229v-244z" />
    <glyph glyph-name="uni201F" unicode="&#x201f;" horiz-adv-x="776" 
d="M664 1268h-91l101 -307h-121l-119 282v244h230v-219zM315 1268h-90l101 -307h-121l-119 282v244h229v-219z" />
    <glyph glyph-name="dagger" unicode="&#x2020;" horiz-adv-x="1011" 
d="M416 936h-365v156h365v395h178v-395h367v-156h-367v-936h-178v936z" />
    <glyph glyph-name="daggerdbl" unicode="&#x2021;" horiz-adv-x="1122" 
d="M471 326v610h-365v156h365v395h178v-395h367v-156h-367v-610h367v-156h-367v-406h-178v406h-365v156h365z" />
    <glyph glyph-name="bullet" unicode="&#x2022;" horiz-adv-x="722" 
d="M580 725q0 -95 -62 -158t-156 -63q-96 0 -157.5 62.5t-61.5 158.5q0 94 61.5 155.5t157.5 61.5q94 0 156 -61.5t62 -155.5z" />
    <glyph glyph-name="ellipsis" unicode="&#x2026;" horiz-adv-x="1357" 
d="M113 244h235v-244h-235v244zM561 244h236v-244h-236v244zM1010 244h235v-244h-235v244z" />
    <glyph glyph-name="perthousand" unicode="&#x2030;" horiz-adv-x="2619" 
d="M391 1421q148 0 231 -113t83 -317q0 -201 -88.5 -309.5t-231.5 -108.5q-146 0 -229.5 109t-83.5 309q0 201 87.5 315.5t231.5 114.5zM391 1319q-82 0 -125 -86t-43 -242q0 -152 43.5 -234.5t124.5 -82.5q78 0 121 83t43 234q0 154 -43 241t-121 87zM1227 1427h133
l-756 -1456h-131zM1458 825q148 0 231 -113t83 -317q0 -201 -88.5 -309.5t-231.5 -108.5q-146 0 -229.5 109t-83.5 309q0 201 87.5 315.5t231.5 114.5zM1458 723q-82 0 -125 -86t-43 -242q0 -152 43.5 -234.5t124.5 -82.5q78 0 121 83t43 234q0 154 -43 241t-121 87z
M2234 825q148 0 231 -113t83 -317q0 -201 -88.5 -309.5t-231.5 -108.5q-146 0 -229.5 109t-83.5 309q0 201 87.5 315.5t231.5 114.5zM2234 723q-82 0 -125 -86t-43 -242q0 -152 43.5 -234.5t124.5 -82.5q78 0 121 83t43 234q0 154 -43 241t-121 87z" />
    <glyph glyph-name="minute" unicode="&#x2032;" horiz-adv-x="438" 
d="M96 1399h246l-57 -584h-129z" />
    <glyph glyph-name="second" unicode="&#x2033;" horiz-adv-x="786" 
d="M96 1399h246l-57 -584h-129zM444 1399h246l-57 -584h-129z" />
    <glyph glyph-name="guilsinglleft" unicode="&#x2039;" horiz-adv-x="561" 
d="M70 557l211 410h190l-190 -410l190 -414h-190z" />
    <glyph glyph-name="guilsinglright" unicode="&#x203a;" horiz-adv-x="561" 
d="M492 551l-211 -408h-191l191 408l-191 416h191z" />
    <glyph glyph-name="fraction" unicode="&#x2044;" horiz-adv-x="290" 
d="M451 1427h133l-756 -1456h-131z" />
    <glyph glyph-name="uni2070" unicode="&#x2070;" horiz-adv-x="776" 
d="M391 1804q148 0 231 -113t83 -317q0 -201 -88.5 -309.5t-231.5 -108.5q-146 0 -229.5 109t-83.5 309q0 201 87.5 315.5t231.5 114.5zM391 1702q-82 0 -125 -86t-43 -242q0 -152 43.5 -234.5t124.5 -82.5q78 0 121 83t43 234q0 154 -43 241t-121 87z" />
    <glyph glyph-name="uni2074" unicode="&#x2074;" horiz-adv-x="735" 
d="M688 1188h-141v-209h-135v209h-367v110l295 484h207v-486h141v-108zM412 1296q0 91 4 365h-15q-26 -48 -96 -160l-127 -205h234z" />
    <glyph glyph-name="uni2075" unicode="&#x2075;" horiz-adv-x="706" 
d="M121 1782h481v-109h-369l-20 -213q64 56 174 56q117 0 188.5 -77.5t71.5 -197.5q0 -126 -82.5 -205.5t-212.5 -79.5q-119 0 -196.5 62t-92.5 172h140q9 -64 48.5 -100.5t100.5 -36.5q68 0 112 51.5t44 130.5t-43 129.5t-109 50.5q-51 0 -87.5 -29t-51.5 -83l-141 12z" />
    <glyph glyph-name="uni2076" unicode="&#x2076;" horiz-adv-x="733" 
d="M514 1581q-15 121 -125 121q-81 0 -128 -76.5t-50 -200.5q71 80 186 80q117 0 194 -74t77 -196q0 -126 -81.5 -202.5t-209.5 -76.5q-154 0 -229.5 101.5t-75.5 308.5q0 202 84 320t233 118q117 0 187.5 -57t80.5 -166h-143zM381 1405q-65 0 -109.5 -50.5t-44.5 -121.5
q0 -75 44 -125.5t110 -50.5q62 0 103.5 49.5t41.5 124.5q0 76 -40.5 125t-104.5 49z" />
    <glyph glyph-name="uni2077" unicode="&#x2077;" horiz-adv-x="624" 
d="M154 979q76 359 282 694h-399v109h547v-99q-107 -186 -176 -352t-105 -352h-149z" />
    <glyph glyph-name="uni2078" unicode="&#x2078;" horiz-adv-x="733" 
d="M367 956q-132 0 -213.5 64t-81.5 172q0 74 39 130.5t108 74.5v6q-61 23 -95 69.5t-34 108.5q0 99 76.5 161t200.5 62t200 -62t76 -161q0 -62 -34 -108.5t-95 -69.5v-6q69 -18 108.5 -74.5t39.5 -130.5q0 -108 -81.5 -172t-213.5 -64zM367 1348q-68 0 -112 -43.5
t-44 -106.5q0 -59 44 -99t112 -40t111.5 40t43.5 99q0 63 -43.5 106.5t-111.5 43.5zM367 1702q-64 0 -101 -34t-37 -91t37.5 -93t100.5 -36q62 0 99.5 35.5t37.5 93.5q0 57 -36.5 91t-100.5 34z" />
    <glyph glyph-name="uni2079" unicode="&#x2079;" horiz-adv-x="733" 
d="M209 1190q9 -72 45.5 -102.5t97.5 -30.5q79 0 123.5 80t44.5 215q-65 -74 -176 -74q-121 0 -196.5 70.5t-75.5 185.5q0 120 79.5 195t210.5 75q155 0 226 -104.5t71 -304.5q0 -209 -77.5 -324t-229.5 -115q-129 0 -202 62.5t-78 171.5h137zM356 1702q-63 0 -105 -48
t-42 -118q0 -66 41.5 -113t101.5 -47q67 0 109.5 45.5t42.5 112.5q0 71 -42 119.5t-106 48.5z" />
    <glyph glyph-name="uni2080" unicode="&#x2080;" horiz-adv-x="776" 
d="M391 522q148 0 231 -113t83 -317q0 -201 -88.5 -309.5t-231.5 -108.5q-146 0 -229.5 109t-83.5 309q0 201 87.5 315.5t231.5 114.5zM391 420q-82 0 -125 -86t-43 -242q0 -152 43.5 -234.5t124.5 -82.5q78 0 121 83t43 234q0 154 -43 241t-121 87z" />
    <glyph glyph-name="uni2081" unicode="&#x2081;" horiz-adv-x="483" 
d="M233 266h-190v86q99 6 149.5 41.5t59.5 106.5h119v-803h-138v569z" />
    <glyph glyph-name="uni2082" unicode="&#x2082;" horiz-adv-x="700" 
d="M72 -303v43q0 83 26.5 144t77.5 107t141 97q94 54 131 98.5t37 102.5q0 61 -36 97t-95 36q-68 0 -105 -47.5t-40 -136.5h-137q3 133 79.5 208.5t206.5 75.5q120 0 194.5 -65.5t74.5 -171.5q0 -86 -51 -145.5t-173 -133.5q-43 -26 -64 -40t-51.5 -40t-46.5 -55t-22 -64
h412v-110h-559z" />
    <glyph glyph-name="uni2083" unicode="&#x2083;" horiz-adv-x="718" 
d="M205 -43q0 -84 40.5 -133t112.5 -49q70 0 109 40.5t39 102.5t-41.5 99.5t-112.5 37.5h-51v103h41q74 0 114 35.5t40 99.5q0 59 -36 93t-100 34q-67 0 -105 -45t-40 -125h-139q6 128 83.5 200t207.5 72q120 0 194 -62t74 -161q0 -59 -34 -113t-97 -73v-7q68 -21 104.5 -73
t36.5 -123q0 -104 -79.5 -170t-213.5 -66q-131 0 -210 76.5t-79 206.5h142z" />
    <glyph glyph-name="uni2084" unicode="&#x2084;" horiz-adv-x="735" 
d="M688 -94h-141v-209h-135v209h-367v110l295 484h207v-486h141v-108zM412 14q0 91 4 365h-15q-26 -48 -96 -160l-127 -205h234z" />
    <glyph glyph-name="uni2085" unicode="&#x2085;" horiz-adv-x="706" 
d="M121 500h481v-109h-369l-20 -213q35 31 75.5 43t98.5 12q117 0 188.5 -77t71.5 -197q0 -126 -82.5 -205.5t-212.5 -79.5q-119 0 -196.5 62t-92.5 172h140q9 -64 48.5 -100.5t100.5 -36.5q68 0 112 51.5t44 130.5t-43 129.5t-109 50.5q-51 0 -87.5 -29.5t-51.5 -83.5
l-141 13z" />
    <glyph glyph-name="uni2086" unicode="&#x2086;" horiz-adv-x="733" 
d="M514 299q-15 121 -125 121q-81 0 -128 -76.5t-50 -200.5q71 80 186 80q117 0 194 -74t77 -196q0 -126 -81.5 -202.5t-209.5 -76.5q-154 0 -229.5 101.5t-75.5 308.5q0 202 84 320t233 118q117 0 187.5 -57t80.5 -166h-143zM381 123q-65 0 -109.5 -50.5t-44.5 -121.5
q0 -75 44 -125.5t110 -50.5q62 0 103.5 49.5t41.5 124.5q0 76 -40.5 125t-104.5 49z" />
    <glyph glyph-name="uni2087" unicode="&#x2087;" horiz-adv-x="624" 
d="M156 -303q76 359 282 694h-399v109h547v-99q-107 -186 -176 -352t-105 -352h-149z" />
    <glyph glyph-name="uni2088" unicode="&#x2088;" horiz-adv-x="733" 
d="M367 -326q-132 0 -213.5 64t-81.5 172q0 74 39 130.5t108 74.5v6q-61 23 -95 69.5t-34 108.5q0 99 76.5 161t200.5 62t200 -62t76 -161q0 -62 -34 -108.5t-95 -69.5v-6q69 -18 108.5 -74.5t39.5 -130.5q0 -108 -81.5 -172t-213.5 -64zM367 66q-68 0 -112 -43.5
t-44 -106.5q0 -59 44 -99t112 -40t111.5 40t43.5 99q0 63 -43.5 106.5t-111.5 43.5zM367 420q-64 0 -101 -34t-37 -91t37.5 -93t100.5 -36q62 0 99.5 35.5t37.5 93.5q0 57 -36.5 91t-100.5 34z" />
    <glyph glyph-name="uni2089" unicode="&#x2089;" horiz-adv-x="733" 
d="M209 -92q9 -72 45.5 -102.5t97.5 -30.5q79 0 123.5 80t44.5 215q-65 -74 -176 -74q-121 0 -196.5 70.5t-75.5 185.5q0 120 79.5 195t210.5 75q155 0 226 -104.5t71 -304.5q0 -209 -77.5 -324t-229.5 -115q-129 0 -202 62.5t-78 171.5h137zM356 420q-63 0 -105 -48
t-42 -118q0 -66 41.5 -113t101.5 -47q67 0 109.5 45.5t42.5 112.5q0 71 -42 119.5t-106 48.5z" />
    <glyph glyph-name="colonmonetary" unicode="&#x20a1;" horiz-adv-x="1280" 
d="M840 1581h135l-25 -221q113 -57 179 -166.5t81 -257.5h-186q-25 152 -96 229l-111 -1018q168 62 211 314h189q-32 -195 -137.5 -323t-280.5 -158l-21 -185h-135l19 176q-69 3 -142 19l-20 -195h-135l26 246q-149 85 -225 257t-76 396q0 178 49 324t152 249t250 136
l20 178h135l-18 -162h8q61 0 133 -14zM539 156q69 -29 141 -29l123 1118q-60 17 -117 17q-4 0 -12 -1t-12 -1zM279 694q0 -296 135 -446l108 977q-118 -57 -180.5 -194.5t-62.5 -336.5z" />
    <glyph glyph-name="uni20A6" unicode="&#x20a6;" horiz-adv-x="1384" 
d="M1286 600v-137h-135v-463h-270l-183 463h-284v-463h-181v463h-135v137h135v174h-135v137h135v488h271l192 -488h275v488h180v-488h135v-137h-135v-174h135zM414 649v-49h231l-67 174h-164v-125zM971 600v166v8h-221l69 -174h152zM406 1198q0 -99 4 -287h114l-110 287h-8z
M979 215l-4 248h-103l99 -248h8z" />
    <glyph glyph-name="Euro" unicode="&#x20ac;" horiz-adv-x="1341" 
d="M76 899h137q20 116 62.5 209t109 163.5t163.5 109t218 38.5q222 0 347.5 -119t148.5 -323h-187q-25 145 -99 215t-210 70q-149 0 -240 -95t-123 -268h545l-12 -131h-547q-2 -25 -2 -74q0 -57 2 -84h524l-12 -131h-498q65 -352 355 -352q131 0 202 70.5t105 210.5h188
q-46 -204 -167 -321.5t-328 -117.5q-123 0 -219.5 37.5t-161 107t-104.5 160t-58 205.5h-152l13 131h125q-2 27 -2 84q0 49 2 74h-138z" />
    <glyph glyph-name="uni20B2" unicode="&#x20b2;" horiz-adv-x="1298" 
d="M993 1008q-33 126 -97 185.5t-171 68.5v-525h457v-737h-164l-8 162q-41 -68 -114.5 -114.5t-170.5 -59.5v-195h-135v191q-131 9 -227.5 65t-155.5 152.5t-87 222.5t-28 283q0 296 130.5 484t367.5 220v170h135v-166q185 -9 299 -107.5t166 -299.5h-197zM297 707
q0 -239 72.5 -388.5t220.5 -177.5v1112q-149 -34 -221 -176t-72 -370zM993 582h-268v-441q125 25 196.5 133t71.5 269v39z" />
    <glyph glyph-name="uni20B4" unicode="&#x20b4;" horiz-adv-x="1284" 
d="M715 682l-113 -64h594v-135h-764q-78 -75 -78 -166q0 -96 81 -149t208 -53q286 0 330 256h186q-28 -193 -159.5 -297.5t-348.5 -104.5q-137 0 -243 36t-170 112.5t-64 183.5q0 94 68 182h-160v135h303q47 31 197 115l84 47h-584v135h762q82 79 82 162q0 92 -73 149.5
t-196 57.5q-259 0 -295 -250h-182q27 194 159 295t325 101q204 0 323 -92.5t119 -245.5q0 -92 -66 -177h156v-135h-311q-48 -31 -170 -98z" />
    <glyph glyph-name="uni20B5" unicode="&#x20b5;" horiz-adv-x="1280" 
d="M610 1581h135v-164q207 -18 325.5 -147t139.5 -334h-186q-48 293 -279 321v-1126q227 28 283 330h189q-34 -209 -153 -340.5t-319 -149.5v-178h-135v180q-105 11 -190.5 53.5t-146.5 108.5t-102.5 153.5t-61 189.5t-19.5 216q0 143 33 266.5t96 220.5t163.5 158.5
t227.5 75.5v166zM287 694q0 -234 84 -381.5t239 -179.5v1122q-156 -30 -239.5 -178t-83.5 -383z" />
    <glyph glyph-name="uni20B8" unicode="&#x20b8;" horiz-adv-x="1339" 
d="M72 1092h1196v-154h-498v-938h-201v938h-497v154zM72 1399h1196v-154h-1196v154z" />
    <glyph glyph-name="uni20B9" unicode="&#x20b9;" horiz-adv-x="1204" 
d="M82 1067h661q-17 57 -55.5 94.5t-94.5 55t-109 24t-122 6.5h-288v152h1048v-144h-286q87 -66 108 -188h172v-143h-174q-22 -103 -107.5 -178t-207.5 -97v-6q187 -15 250 -197l155 -446h-215l-133 391q-19 57 -52 94.5t-81 56t-97.5 25t-119.5 6.5h-146v154h158
q57 0 103 3t101 15t94 32.5t70 58t40 88.5h-672v143z" />
    <glyph glyph-name="uni20BA" unicode="&#x20ba;" horiz-adv-x="1243" 
d="M102 721v143l172 101v434h201v-316l346 203v-145l-346 -203v-150l346 203v-145l-346 -203v-483h53q92 0 175 30t151.5 89t109 158.5t40.5 226.5h184q0 -299 -177.5 -481.5t-482.5 -182.5h-254v526l-172 -100v143l172 101v151z" />
    <glyph glyph-name="uni20BD" unicode="&#x20bd;" horiz-adv-x="1273" 
d="M102 756h134v643h483q115 0 204.5 -22.5t156 -69.5t102 -125t35.5 -183q0 -206 -133 -302.5t-365 -96.5h-283v-154h514v-155h-514v-291h-200v291h-134v155h134v154h-134v156zM436 1235v-479h258q322 0 322 243q0 125 -83 180.5t-239 55.5h-258z" />
    <glyph glyph-name="uni20BF" unicode="&#x20bf;" horiz-adv-x="1193" 
d="M160 1399h180v180h127v-180h8q116 0 209 -8v188h127v-211q254 -69 254 -332q0 -108 -66.5 -194t-187.5 -117v-8q131 -25 213 -108t82 -220q0 -274 -295 -354v-242h-127v217q-88 -10 -209 -10h-8v-207h-127v207h-180v1399zM475 156q66 0 111.5 2.5t99 9.5t88.5 23t66 41
t46 64.5t15 92.5q0 147 -85.5 196.5t-323.5 49.5h-136v-479h119zM483 791q66 0 119 5.5t104.5 20.5t85.5 39t55 64t21 94q0 63 -21.5 106.5t-54 67t-89.5 36.5t-107 16t-129 3h-111v-452h127z" />
    <glyph glyph-name="uni2113" unicode="&#x2113;" horiz-adv-x="903" 
d="M864 119q-57 -59 -144 -97t-175 -38q-87 0 -151.5 36t-102.5 101t-56 148.5t-18 185.5l-139 -86l-31 120q52 27 170 111v434q0 194 82 287.5t221 93.5q121 0 190.5 -67.5t69.5 -180.5q0 -51 -9.5 -98t-24 -86t-44.5 -83.5t-57 -78t-77 -83t-88.5 -85t-106.5 -96.5v-35
q0 -38 0.5 -65.5t4.5 -73.5t10.5 -79.5t19.5 -72t31.5 -63t47 -41t64.5 -16.5q66 0 142 43.5t128 107.5zM371 717l67 65q55 54 85 87t60 77.5t42 92t12 106.5q0 86 -32.5 120.5t-92.5 34.5q-141 0 -141 -233v-350z" />
    <glyph glyph-name="uni2116" unicode="&#x2116;" horiz-adv-x="2461" 
d="M1634 557h709v-115h-709v115zM1753 1087q0 -142 58.5 -229.5t177.5 -87.5t177 87.5t58 229.5q0 68 -13.5 125t-41.5 100.5t-73.5 68t-106.5 24.5q-119 0 -177.5 -88t-58.5 -230zM1602 1087q0 203 103.5 313.5t283.5 110.5t283.5 -110.5t103.5 -313.5t-103.5 -313
t-283.5 -110t-283.5 110t-103.5 313zM1085 0q-623 1092 -727 1296h-10q14 -387 14 -555v-741h-184v1487h275q609 -1056 718 -1278h11q-13 351 -13 536v742h187v-1487h-271z" />
    <glyph glyph-name="uni2117" unicode="&#x2117;" horiz-adv-x="1718" 
d="M90 743q0 161 61 305.5t164 247t244.5 162.5t298.5 60t299.5 -60t245.5 -162.5t164 -247t61 -305.5t-61 -305t-164 -246.5t-245.5 -162.5t-299.5 -60t-298.5 60t-244.5 162.5t-164 246.5t-61 305zM1518 743q0 131 -48.5 253.5t-133.5 215.5t-210 149t-268 56t-268 -56
t-209.5 -149t-133 -215.5t-48.5 -253.5q0 -132 48.5 -254t133 -215.5t209.5 -149.5t268 -56t268 56t210 149.5t133.5 216t48.5 253.5zM586 1188h323q143 0 232.5 -75t89.5 -208t-89 -207.5t-233 -74.5h-182v-320h-141v885zM1085 905q0 82 -49 125t-143 43h-166v-336h166
q94 0 143 43t49 125z" />
    <glyph glyph-name="trademark" unicode="&#x2122;" horiz-adv-x="1853" 
d="M330 1372h-279v115h690v-115h-274v-688h-137v688zM1569 684v637h-8l-222 -637h-141l-240 637h-8v-637h-127v803h211l238 -639h6l215 639h209v-803h-133z" />
    <glyph glyph-name="Omega" unicode="&#x2126;" horiz-adv-x="1581" 
d="M119 168h280q-158 135 -229.5 294t-71.5 363q0 142 47.5 268t134 220.5t218 149.5t290.5 55t291 -54.5t220 -149t136 -220.5t48 -269q0 -204 -71.5 -363t-229.5 -294h280v-168h-530v164q174 97 260 268.5t86 390.5q0 243 -129 390t-361 147q-231 0 -358 -147t-127 -390
q0 -219 86 -390.5t260 -268.5v-164h-530v168z" />
    <glyph glyph-name="estimated" unicode="&#x212e;" horiz-adv-x="1210" 
d="M299 510v-324q138 -153 338 -153q106 0 197.5 42t154.5 124l49 -45q-73 -96 -170.5 -137.5t-232.5 -41.5q-155 0 -280 73.5t-194 199.5t-69 278t69 278.5t194 200.5t280 74q223 0 368.5 -162.5t145.5 -406.5h-850zM946 870q-126 150 -323 150q-186 0 -324 -150v-301h647
v301z" />
    <glyph glyph-name="uni2150" unicode="&#x2150;" horiz-adv-x="1398" 
d="M231 1165h-190v86q99 6 149.5 41.5t59.5 106.5h119v-803h-138v569zM934 1427h133l-756 -1456h-131zM930 0q76 359 282 694h-399v109h547v-98q-106 -185 -175.5 -352t-105.5 -353h-149z" />
    <glyph glyph-name="uni2151" unicode="&#x2151;" horiz-adv-x="1507" 
d="M231 1165h-190v86q99 6 149.5 41.5t59.5 106.5h119v-803h-138v569zM934 1427h133l-756 -1456h-131zM983 211q9 -72 45.5 -102.5t97.5 -30.5q79 0 123.5 80t44.5 215q-65 -74 -176 -74q-121 0 -196.5 70.5t-75.5 185.5q0 119 80 194.5t211 75.5q155 0 226 -104.5
t71 -304.5q0 -208 -78 -323.5t-230 -115.5q-129 0 -202 62.5t-78 171.5h137zM1130 723q-63 0 -105 -48.5t-42 -117.5q0 -66 41.5 -113t101.5 -47q67 0 109.5 45.5t42.5 112.5q0 71 -42 119.5t-106 48.5z" />
    <glyph glyph-name="uni2152" unicode="&#x2152;" horiz-adv-x="2033" 
d="M231 1165h-190v86q99 6 149.5 41.5t59.5 106.5h119v-803h-138v569zM934 1427h133l-756 -1456h-131zM1008 569h-191v86q99 6 149.5 41.5t59.5 106.5h119v-803h-137v569zM1649 825q148 0 230.5 -113t82.5 -317q0 -201 -88.5 -309.5t-231.5 -108.5q-146 0 -229.5 109
t-83.5 309q0 201 88 315.5t232 114.5zM1649 723q-82 0 -125 -86t-43 -242q0 -152 43.5 -234.5t124.5 -82.5q78 0 120.5 83t42.5 234q0 155 -42.5 241.5t-120.5 86.5z" />
    <glyph glyph-name="onethird" unicode="&#x2153;" horiz-adv-x="1492" 
d="M231 1165h-190v86q99 6 149.5 41.5t59.5 106.5h119v-803h-138v569zM934 1427h133l-756 -1456h-131zM979 260q0 -84 41 -133t113 -49q70 0 108.5 40.5t38.5 102.5t-41.5 99.5t-112.5 37.5h-51v103h41q74 0 114 35.5t40 99.5q0 59 -35.5 93t-99.5 34q-67 0 -105.5 -45
t-40.5 -125h-139q6 128 83.5 200t207.5 72q120 0 194 -62t74 -161q0 -59 -34 -113t-97 -73v-6q68 -21 104.5 -73t36.5 -124q0 -104 -79.5 -170t-213.5 -66q-131 0 -209.5 76.5t-78.5 206.5h141z" />
    <glyph glyph-name="twothirds" unicode="&#x2154;" horiz-adv-x="1710" 
d="M72 596v43q0 83 26.5 144t77.5 107t141 97q94 54 131 98.5t37 102.5q0 61 -36 97t-95 36q-68 0 -105 -47.5t-40 -136.5h-137q3 133 79.5 208.5t206.5 75.5q120 0 194.5 -65.5t74.5 -171.5q0 -86 -51 -145.5t-173 -133.5q-36 -22 -51 -31.5t-44 -31t-43 -38.5t-27.5 -43
t-18.5 -54h412v-111h-559zM1151 1427h133l-756 -1456h-131zM1196 260q0 -84 41 -133t113 -49q70 0 108.5 40.5t38.5 102.5t-41.5 99.5t-112.5 37.5h-51v103h41q74 0 114 35.5t40 99.5q0 59 -35.5 93t-99.5 34q-67 0 -105.5 -45t-40.5 -125h-139q6 128 83.5 200t207.5 72
q120 0 194 -62t74 -161q0 -59 -34 -113t-97 -73v-6q68 -21 104.5 -73t36.5 -124q0 -104 -79.5 -170t-213.5 -66q-131 0 -209.5 76.5t-78.5 206.5h141z" />
    <glyph glyph-name="uni2155" unicode="&#x2155;" horiz-adv-x="1480" 
d="M231 1165h-190v86q99 6 149.5 41.5t59.5 106.5h119v-803h-138v569zM934 1427h133l-756 -1456h-131zM895 803h481v-109h-368l-21 -213q64 56 174 56q117 0 188.5 -77.5t71.5 -197.5q0 -126 -82.5 -205.5t-212.5 -79.5q-119 0 -196 62t-92 172h139q9 -64 48.5 -100.5
t100.5 -36.5q68 0 112 51.5t44 130.5t-43 129.5t-109 50.5q-51 0 -87.5 -29t-51.5 -83l-141 12z" />
    <glyph glyph-name="uni2156" unicode="&#x2156;" horiz-adv-x="1697" 
d="M72 596v43q0 83 26.5 144t77.5 107t141 97q94 54 131 98.5t37 102.5q0 61 -36 97t-95 36q-68 0 -105 -47.5t-40 -136.5h-137q3 133 79.5 208.5t206.5 75.5q120 0 194.5 -65.5t74.5 -171.5q0 -86 -51 -145.5t-173 -133.5q-36 -22 -51 -31.5t-44 -31t-43 -38.5t-27.5 -43
t-18.5 -54h412v-111h-559zM1151 1427h133l-756 -1456h-131zM1112 803h481v-109h-368l-21 -213q64 56 174 56q117 0 188.5 -77.5t71.5 -197.5q0 -126 -82.5 -205.5t-212.5 -79.5q-119 0 -196 62t-92 172h139q9 -64 48.5 -100.5t100.5 -36.5q69 0 112.5 51.5t43.5 130.5
t-42.5 129.5t-108.5 50.5q-51 0 -88 -29t-52 -83l-141 12z" />
    <glyph glyph-name="uni2157" unicode="&#x2157;" horiz-adv-x="1716" 
d="M205 856q0 -84 40.5 -133t112.5 -49q70 0 109 40.5t39 102.5t-41.5 99.5t-112.5 37.5h-51v103h41q74 0 114 35.5t40 99.5q0 59 -36 93t-100 34q-67 0 -105 -45t-40 -125h-139q6 128 83.5 200t207.5 72q120 0 194 -62t74 -161q0 -59 -34 -113t-97 -73v-6q68 -21 104.5 -73
t36.5 -124q0 -104 -79.5 -170t-213.5 -66q-131 0 -210 76.5t-79 206.5h142zM1169 1427h134l-756 -1456h-131zM1130 803h482v-109h-369l-20 -213q64 56 174 56q117 0 188.5 -77.5t71.5 -197.5q0 -126 -82.5 -205.5t-212.5 -79.5q-119 0 -196.5 62t-92.5 172h139
q9 -63 49 -100t101 -37q68 0 112 51.5t44 130.5t-43 129.5t-109 50.5q-51 0 -87.5 -29t-51.5 -83l-142 12z" />
    <glyph glyph-name="uni2158" unicode="&#x2158;" horiz-adv-x="1732" 
d="M688 805h-141v-209h-135v209h-367v110l295 484h207v-486h141v-108zM412 913q0 91 4 365h-15q-26 -48 -96 -160l-127 -205h234zM1186 1427h133l-756 -1456h-131zM1147 803h481v-109h-368l-21 -213q64 56 174 56q117 0 188.5 -77.5t71.5 -197.5q0 -126 -82.5 -205.5
t-212.5 -79.5q-119 0 -196 62t-92 172h139q9 -64 48.5 -100.5t100.5 -36.5q68 0 112 51.5t44 130.5t-43 129.5t-109 50.5q-51 0 -87.5 -29t-51.5 -83l-141 12z" />
    <glyph glyph-name="uni2159" unicode="&#x2159;" horiz-adv-x="1507" 
d="M231 1165h-190v86q99 6 149.5 41.5t59.5 106.5h119v-803h-138v569zM934 1427h133l-756 -1456h-131zM1288 602q-15 121 -125 121q-81 0 -128 -76.5t-50 -200.5q71 80 186 80q117 0 194 -74t77 -196q0 -126 -81.5 -202.5t-209.5 -76.5q-154 0 -229.5 101.5t-75.5 308.5
q0 202 84 320t233 118q117 0 188 -57t81 -166h-144zM1155 426q-65 0 -109.5 -50.5t-44.5 -121.5q0 -75 44 -125.5t110 -50.5q62 0 103.5 49.5t41.5 124.5q0 76 -40.5 125t-104.5 49z" />
    <glyph glyph-name="uni215A" unicode="&#x215a;" horiz-adv-x="1730" 
d="M121 1399h481v-109h-369l-20 -213q64 56 174 56q117 0 188.5 -77.5t71.5 -197.5q0 -126 -82.5 -205.5t-212.5 -79.5q-119 0 -196.5 62t-92.5 172h140q9 -64 48.5 -100.5t100.5 -36.5q68 0 112 51.5t44 130.5t-43 129.5t-109 50.5q-51 0 -87.5 -29t-51.5 -83l-141 12z
M1157 1427h133l-755 -1456h-132zM1511 602q-15 121 -125 121q-81 0 -128 -76.5t-50 -200.5q71 80 187 80q117 0 193.5 -74t76.5 -196q0 -126 -81.5 -202.5t-209.5 -76.5q-154 0 -229.5 101.5t-75.5 308.5q0 202 84 320t233 118q117 0 188 -57t81 -166h-144zM1378 426
q-65 0 -109 -50.5t-44 -121.5q0 -75 43.5 -125.5t109.5 -50.5q62 0 104 49.5t42 124.5t-41 124.5t-105 49.5z" />
    <glyph glyph-name="oneeighth" unicode="&#x215b;" horiz-adv-x="1507" 
d="M231 1165h-190v86q99 6 149.5 41.5t59.5 106.5h119v-803h-138v569zM934 1427h133l-756 -1456h-131zM1141 -23q-132 0 -213.5 64t-81.5 172q0 74 39 130.5t108 74.5v6q-61 23 -95 69.5t-34 108.5q0 99 76.5 161t200.5 62t200 -62t76 -161q0 -62 -34 -108.5t-95 -69.5v-6
q69 -18 108.5 -74.5t39.5 -130.5q0 -108 -81.5 -172t-213.5 -64zM1141 369q-68 0 -112 -43.5t-44 -106.5q0 -59 44 -99t112 -40t111.5 40t43.5 99q0 63 -43.5 106.5t-111.5 43.5zM1141 723q-64 0 -100.5 -34t-36.5 -91q0 -58 37.5 -93.5t99.5 -35.5t99.5 35.5t37.5 93.5
q0 57 -36.5 91t-100.5 34z" />
    <glyph glyph-name="threeeighths" unicode="&#x215c;" horiz-adv-x="1742" 
d="M205 856q0 -84 40.5 -133t112.5 -49q70 0 109 40.5t39 102.5t-41.5 99.5t-112.5 37.5h-51v103h41q74 0 114 35.5t40 99.5q0 59 -36 93t-100 34q-67 0 -105 -45t-40 -125h-139q6 128 83.5 200t207.5 72q120 0 194 -62t74 -161q0 -59 -34 -113t-97 -73v-6q68 -21 104.5 -73
t36.5 -124q0 -104 -79.5 -170t-213.5 -66q-131 0 -210 76.5t-79 206.5h142zM1169 1427h134l-756 -1456h-131zM1376 -23q-132 0 -213.5 64t-81.5 172q0 74 39.5 130.5t108.5 74.5v6q-61 23 -95 69.5t-34 108.5q0 99 76 161t200 62t200.5 -62t76.5 -161q0 -62 -34 -108.5
t-95 -69.5v-6q69 -18 108 -74.5t39 -130.5q0 -108 -81.5 -172t-213.5 -64zM1376 369q-68 0 -111.5 -43.5t-43.5 -106.5q0 -59 43.5 -99t111.5 -40t112 40t44 99q0 63 -44 106.5t-112 43.5zM1376 723q-64 0 -100.5 -34t-36.5 -91q0 -58 37.5 -93.5t99.5 -35.5t99.5 35.5
t37.5 93.5q0 57 -36.5 91t-100.5 34z" />
    <glyph glyph-name="fiveeighths" unicode="&#x215d;" horiz-adv-x="1730" 
d="M121 1399h481v-109h-369l-20 -213q64 56 174 56q117 0 188.5 -77.5t71.5 -197.5q0 -126 -82.5 -205.5t-212.5 -79.5q-119 0 -196.5 62t-92.5 172h140q9 -64 48.5 -100.5t100.5 -36.5q68 0 112 51.5t44 130.5t-43 129.5t-109 50.5q-51 0 -87.5 -29t-51.5 -83l-141 12z
M1157 1427h133l-755 -1456h-132zM1364 -23q-132 0 -213.5 64t-81.5 172q0 74 39.5 130.5t108.5 74.5v6q-62 23 -96 70t-34 108q0 99 76.5 161t200.5 62t200 -62t76 -161q0 -62 -34 -108.5t-95 -69.5v-6q69 -18 108.5 -74.5t39.5 -130.5q0 -108 -81.5 -172t-213.5 -64z
M1364 369q-68 0 -112 -43.5t-44 -106.5q0 -59 44 -99t112 -40t112 40t44 99q0 63 -44 106.5t-112 43.5zM1364 723q-64 0 -100.5 -34t-36.5 -91q0 -58 37.5 -93.5t99.5 -35.5t99.5 35.5t37.5 93.5q0 57 -36.5 91t-100.5 34z" />
    <glyph glyph-name="seveneighths" unicode="&#x215e;" horiz-adv-x="1574" 
d="M156 596q76 359 282 694h-399v109h547v-99q-107 -186 -176 -352t-105 -352h-149zM1001 1427h134l-756 -1456h-131zM1208 -23q-132 0 -213.5 64t-81.5 172q0 74 39.5 130.5t108.5 74.5v6q-61 23 -95 69.5t-34 108.5q0 99 76 161t200 62t200.5 -62t76.5 -161
q0 -62 -34 -108.5t-95 -69.5v-6q69 -18 108 -74.5t39 -130.5q0 -108 -81.5 -172t-213.5 -64zM1208 369q-68 0 -111.5 -43.5t-43.5 -106.5q0 -59 43.5 -99t111.5 -40t112 40t44 99q0 63 -44 106.5t-112 43.5zM1208 723q-64 0 -100.5 -34t-36.5 -91q0 -58 37.5 -93.5
t99.5 -35.5q63 0 100.5 36t37.5 93t-37 91t-101 34z" />
    <glyph glyph-name="uni215F" unicode="&#x215f;" horiz-adv-x="774" 
d="M231 1165h-190v86q99 6 149.5 41.5t59.5 106.5h119v-803h-138v569zM934 1427h133l-756 -1456h-131z" />
    <glyph glyph-name="uni2160" unicode="&#x2160;" horiz-adv-x="557" 
d="M178 0v1487h201v-1487h-201z" />
    <glyph glyph-name="uni2161" unicode="&#x2161;" horiz-adv-x="1134" 
d="M178 0v1487h201v-1487h-201zM756 0v1487h200v-1487h-200z" />
    <glyph glyph-name="uni2162" unicode="&#x2162;" horiz-adv-x="1712" 
d="M178 0v1487h201v-1487h-201zM756 0v1487h200v-1487h-200zM1333 0v1487h201v-1487h-201z" />
    <glyph glyph-name="uni2163" unicode="&#x2163;" horiz-adv-x="1871" 
d="M178 0v1487h201v-1487h-201zM1100 0l-525 1487h224l323 -959q18 -53 48.5 -155.5t46.5 -151.5h12q86 274 96 307l334 959h203l-541 -1487h-221z" />
    <glyph glyph-name="uni2164" unicode="&#x2164;" horiz-adv-x="1314" 
d="M543 0l-525 1487h224l323 -959q18 -52 47.5 -155t46.5 -152h13q86 274 96 307l334 959h203l-541 -1487h-221z" />
    <glyph glyph-name="uni2165" unicode="&#x2165;" horiz-adv-x="1880" 
d="M543 0l-525 1487h224l323 -959q18 -52 47.5 -155t46.5 -152h13q86 274 96 307l334 959h203l-541 -1487h-221zM1501 0v1487h201v-1487h-201z" />
    <glyph glyph-name="uni2166" unicode="&#x2166;" horiz-adv-x="2457" 
d="M543 0l-525 1487h224l323 -959q18 -52 47.5 -155t46.5 -152h13q86 274 96 307l334 959h203l-541 -1487h-221zM1501 0v1487h201v-1487h-201zM2079 0v1487h200v-1487h-200z" />
    <glyph glyph-name="uni2167" unicode="&#x2167;" horiz-adv-x="3035" 
d="M543 0l-525 1487h224l323 -959q18 -52 47.5 -155t46.5 -152h13q86 274 96 307l334 959h203l-541 -1487h-221zM1501 0v1487h201v-1487h-201zM2079 0v1487h200v-1487h-200zM2656 0v1487h201v-1487h-201z" />
    <glyph glyph-name="uni2168" unicode="&#x2168;" horiz-adv-x="1845" 
d="M178 0v1487h201v-1487h-201zM575 0l515 774l-488 713h238l374 -576l379 576h219l-487 -713l520 -774h-235l-408 625l-403 -625h-224z" />
    <glyph glyph-name="uni2169" unicode="&#x2169;" horiz-adv-x="1273" 
d="M4 0l514 774l-487 713h237l375 -576l379 576h219l-487 -713l520 -774h-236l-407 625l-404 -625h-223z" />
    <glyph glyph-name="uni216A" unicode="&#x216a;" horiz-adv-x="1849" 
d="M4 0l514 774l-487 713h237l375 -576l379 576h219l-487 -713l520 -774h-236l-407 625l-404 -625h-223zM1470 0v1487h201v-1487h-201z" />
    <glyph glyph-name="uni216B" unicode="&#x216b;" horiz-adv-x="2426" 
d="M4 0l514 774l-487 713h237l375 -576l379 576h219l-487 -713l520 -774h-236l-407 625l-404 -625h-223zM1470 0v1487h201v-1487h-201zM2048 0v1487h201v-1487h-201z" />
    <glyph glyph-name="uni216C" unicode="&#x216c;" horiz-adv-x="1132" 
d="M178 0v1487h201v-1319h727v-168h-928z" />
    <glyph glyph-name="uni216D" unicode="&#x216d;" horiz-adv-x="1433" 
d="M768 -31q-161 0 -290 60t-211.5 166t-126.5 245.5t-44 302.5q0 218 76.5 391.5t230 278.5t361.5 105q253 0 413.5 -143.5t184.5 -373.5h-207q-26 169 -128 263t-263 94q-207 0 -333 -169t-126 -446q0 -276 128 -445t335 -169q157 0 260 98t131 267h209
q-36 -232 -196.5 -378.5t-403.5 -146.5z" />
    <glyph glyph-name="uni216E" unicode="&#x216e;" horiz-adv-x="1454" 
d="M178 0v1487h430q302 0 461 -109q140 -97 214.5 -263t74.5 -372q0 -202 -79.5 -365.5t-221.5 -262.5q-88 -60 -195.5 -87.5t-253.5 -27.5h-430zM379 164h203q266 0 393 112q81 70 126.5 194t45.5 273q0 150 -42 275.5t-122 195.5q-124 109 -401 109h-203v-1159z" />
    <glyph glyph-name="uni216F" unicode="&#x216f;" horiz-adv-x="1900" 
d="M178 0v1487h309l365 -959q62 -162 104 -309h11q31 133 94 309l350 959h311v-1487h-188v850q0 76 3.5 226t4.5 220h-10l-475 -1296h-217l-478 1296h-10q0 -16 5 -194.5t5 -251.5v-850h-184z" />
    <glyph glyph-name="uni2170" unicode="&#x2170;" horiz-adv-x="495" 
d="M154 0v1057h188v-1057h-188zM154 1282v205h188v-205h-188z" />
    <glyph glyph-name="uni2171" unicode="&#x2171;" horiz-adv-x="995" 
d="M154 0v1057h188v-1057h-188zM154 1282v205h188v-205h-188zM653 0v1057h189v-1057h-189zM653 1282v205h189v-205h-189z" />
    <glyph glyph-name="uni2172" unicode="&#x2172;" horiz-adv-x="1495" 
d="M154 0v1057h188v-1057h-188zM154 1282v205h188v-205h-188zM653 0v1057h189v-1057h-189zM653 1282v205h189v-205h-189zM1153 0v1057h188v-1057h-188zM1153 1282v205h188v-205h-188z" />
    <glyph glyph-name="uni2173" unicode="&#x2173;" horiz-adv-x="1529" 
d="M154 0v1057h188v-1057h-188zM154 1282v205h188v-205h-188zM897 0l-391 1057h207l186 -529q58 -169 109 -364h12q42 173 108 364l187 529h192l-391 -1057h-219z" />
    <glyph glyph-name="uni2174" unicode="&#x2174;" horiz-adv-x="1046" 
d="M414 0l-391 1057h206l187 -529q54 -157 108 -364h13q42 173 108 364l186 529h193l-391 -1057h-219z" />
    <glyph glyph-name="uni2175" unicode="&#x2175;" horiz-adv-x="1529" 
d="M414 0l-391 1057h206l187 -529q54 -157 108 -364h13q42 173 108 364l186 529h193l-391 -1057h-219zM1188 0v1057h188v-1057h-188zM1188 1282v205h188v-205h-188z" />
    <glyph glyph-name="uni2176" unicode="&#x2176;" horiz-adv-x="2029" 
d="M414 0l-391 1057h206l187 -529q54 -157 108 -364h13q42 173 108 364l186 529h193l-391 -1057h-219zM1188 0v1057h188v-1057h-188zM1188 1282v205h188v-205h-188zM1688 0v1057h188v-1057h-188zM1688 1282v205h188v-205h-188z" />
    <glyph glyph-name="uni2177" unicode="&#x2177;" horiz-adv-x="2529" 
d="M414 0l-391 1057h206l187 -529q54 -157 108 -364h13q42 173 108 364l186 529h193l-391 -1057h-219zM1188 0v1057h188v-1057h-188zM1188 1282v205h188v-205h-188zM1688 0v1057h188v-1057h-188zM1688 1282v205h188v-205h-188zM2187 0v1057h189v-1057h-189zM2187 1282v205
h189v-205h-189z" />
    <glyph glyph-name="uni2178" unicode="&#x2178;" horiz-adv-x="1507" 
d="M154 0v1057h188v-1057h-188zM154 1282v205h188v-205h-188zM506 0l387 547l-358 510h233l242 -387l258 387h205l-363 -510l393 -547h-231l-277 414l-276 -414h-213z" />
    <glyph glyph-name="uni2179" unicode="&#x2179;" horiz-adv-x="1007" 
d="M6 0l387 547l-358 510h233l242 -387l258 387h205l-363 -510l394 -547h-232l-276 414l-277 -414h-213z" />
    <glyph glyph-name="uni217A" unicode="&#x217a;" horiz-adv-x="1509" 
d="M6 0l387 547l-358 510h233l242 -387l258 387h205l-363 -510l394 -547h-232l-276 414l-277 -414h-213zM1167 0v1057h189v-1057h-189zM1167 1282v205h189v-205h-189z" />
    <glyph glyph-name="uni217B" unicode="&#x217b;" horiz-adv-x="2009" 
d="M6 0l387 547l-358 510h233l242 -387l258 387h205l-363 -510l394 -547h-232l-276 414l-277 -414h-213zM1167 0v1057h189v-1057h-189zM1167 1282v205h189v-205h-189zM1667 0v1057h188v-1057h-188zM1667 1282v205h188v-205h-188z" />
    <glyph glyph-name="uni217C" unicode="&#x217c;" horiz-adv-x="495" 
d="M154 0v1487h188v-1487h-188z" />
    <glyph glyph-name="uni217D" unicode="&#x217d;" horiz-adv-x="1087" 
d="M575 -31q-235 0 -364 151.5t-129 407.5q0 161 57.5 286.5t171.5 199t269 73.5q189 0 304 -98t140 -278h-197q-35 225 -249 225q-143 0 -221 -110.5t-78 -297.5t79 -298t220 -111q105 0 172.5 58.5t91.5 176.5h184q-67 -385 -451 -385z" />
    <glyph glyph-name="uni217E" unicode="&#x217e;" horiz-adv-x="1198" 
d="M537 -23q-211 0 -332 144.5t-121 406.5q0 157 55.5 282t159.5 197t238 72q111 0 189.5 -34t129.5 -111v553h188v-1487h-180v139q-110 -162 -327 -162zM563 127q134 0 215.5 109t81.5 292q0 187 -81 294.5t-216 107.5q-131 0 -207.5 -107t-76.5 -295q0 -184 76.5 -292.5
t207.5 -108.5z" />
    <glyph glyph-name="uni217F" unicode="&#x217f;" horiz-adv-x="1792" 
d="M154 0v1057h176v-135q46 74 129 115.5t188 41.5q97 0 175.5 -48t113.5 -146q125 194 375 194q340 0 340 -391v-688h-189v586q0 46 -2 79.5t-8.5 77.5t-20.5 74t-36 57.5t-58 41.5t-84 14q-55 0 -98 -18.5t-69.5 -52.5t-45 -73t-27.5 -88.5t-12.5 -90t-3.5 -85.5v-522
h-188v586q0 56 -3 96t-15 90.5t-33.5 82t-62 53.5t-97.5 22q-55 0 -98 -18.5t-69.5 -52.5t-45 -73t-27.5 -88.5t-12.5 -90t-3.5 -85.5v-522h-188z" />
    <glyph glyph-name="uni2189" unicode="&#x2189;" horiz-adv-x="1785" 
d="M391 1421q148 0 231 -113t83 -317q0 -201 -88.5 -309.5t-231.5 -108.5q-146 0 -229.5 109t-83.5 309q0 201 87.5 315.5t231.5 114.5zM391 1319q-82 0 -125 -86t-43 -242q0 -152 43.5 -234.5t124.5 -82.5q78 0 121 83t43 234q0 154 -43 241t-121 87zM1227 1427h133
l-756 -1456h-131zM1272 260q0 -84 40.5 -133t112.5 -49q70 0 109 40.5t39 102.5t-41.5 99.5t-112.5 37.5h-51v103h41q74 0 114 35.5t40 99.5q0 59 -36 93t-100 34q-67 0 -105 -45t-40 -125h-139q6 128 83.5 200t207.5 72q120 0 194 -62t74 -161q0 -59 -34 -113t-97 -73v-6
q68 -21 104.5 -73t36.5 -124q0 -104 -79.5 -170t-213.5 -66q-131 0 -210 76.5t-79 206.5h142z" />
    <glyph glyph-name="arrowleft" unicode="&#x2190;" horiz-adv-x="1232" 
d="M602 1135l103 -103l-396 -377h862v-147h-862l396 -375l-103 -102l-553 551z" />
    <glyph glyph-name="arrowup" unicode="&#x2191;" horiz-adv-x="1185" 
d="M594 1122l551 -553l-103 -102l-374 395v-862h-148v862l-377 -395l-102 102z" />
    <glyph glyph-name="arrowright" unicode="&#x2192;" horiz-adv-x="1232" 
d="M1184 582l-553 -551l-103 102l396 375h-863v147h863l-396 377l103 103z" />
    <glyph glyph-name="arrowdown" unicode="&#x2193;" horiz-adv-x="1185" 
d="M41 487l102 103l377 -395v862h148v-862l374 395l103 -103l-551 -553z" />
    <glyph glyph-name="uni2196" unicode="&#x2196;" horiz-adv-x="1083" 
d="M920 954v-143l-545 12l608 -610l-104 -104l-609 610l15 -545h-146l-2 780h783z" />
    <glyph glyph-name="uni2197" unicode="&#x2197;" horiz-adv-x="1083" 
d="M946 954l-2 -780h-145l14 545l-608 -610l-105 104l609 610l-545 -12v143h782z" />
    <glyph glyph-name="uni2198" unicode="&#x2198;" horiz-adv-x="1081" 
d="M137 109l2 780h146l-15 -545l609 610l104 -104l-608 -610l545 12v-143h-783z" />
    <glyph glyph-name="uni2199" unicode="&#x2199;" horiz-adv-x="1081" 
d="M162 109v143l545 -12l-609 610l105 104l608 -610l-14 545h145l2 -780h-782z" />
    <glyph glyph-name="partialdiff" unicode="&#x2202;" horiz-adv-x="1079" 
d="M348 1430q189 0 333.5 -97.5t221 -267t76.5 -383.5q0 -344 -118.5 -527.5t-358.5 -183.5q-202 0 -323.5 124.5t-121.5 344.5q0 99 36.5 183.5t96.5 139.5t136.5 85.5t156.5 30.5q102 0 189.5 -42.5t132.5 -125.5v2q0 77 -16.5 154.5t-55 153t-94 133t-140.5 93t-188 35.5
zM510 111q109 0 182.5 91t73.5 232q0 130 -69 216.5t-189 86.5q-117 0 -188.5 -88.5t-71.5 -218.5q0 -136 72 -227.5t190 -91.5z" />
    <glyph glyph-name="Delta" unicode="&#x2206;" horiz-adv-x="1447" 
d="M49 145l569 1342h203l578 -1342v-145h-1350v145zM1176 166l-347 858q-85 206 -106 268h-8q-3 -10 -12 -39t-16.5 -52t-24 -67.5t-37.5 -95.5l-363 -872h914z" />
    <glyph glyph-name="product" unicode="&#x220f;" horiz-adv-x="1480" 
d="M1411 1399v-156h-178v-1474h-189v1474h-608v-1474h-186v1474h-184v156h1345z" />
    <glyph glyph-name="summation" unicode="&#x2211;" horiz-adv-x="1183" 
d="M57 -102l625 704l-600 645v152h1014v-152h-781v-8l590 -641l-618 -690v-10h837v-150h-1067v150z" />
    <glyph glyph-name="minus" unicode="&#x2212;" 
d="M156 481v160h977v-160h-977z" />
    <glyph glyph-name="uni2215" unicode="&#x2215;" horiz-adv-x="290" 
d="M451 1427h133l-756 -1456h-131z" />
    <glyph glyph-name="uni2219" unicode="&#x2219;" 
d="M526 831h236v-243h-236v243z" />
    <glyph glyph-name="radical" unicode="&#x221a;" horiz-adv-x="1257" 
d="M496 -23l-271 811l-182 -77l-53 127l350 147l244 -770l526 1544h162l-613 -1782h-163z" />
    <glyph glyph-name="infinity" unicode="&#x221e;" 
d="M381 381q51 0 98 41t101 113q-11 12 -39.5 50t-46.5 58.5t-50.5 39.5t-66.5 19q-51 0 -86 -45.5t-35 -109.5q0 -69 34.5 -117.5t90.5 -48.5zM899 254q-35 0 -64.5 11t-55.5 33.5t-45 43t-46 53.5t-45 51q-133 -192 -268 -192q-100 0 -168 81t-68 212q0 122 75 209.5
t179 87.5q40 0 76.5 -16t69.5 -49t53.5 -59t50.5 -69q34 43 57.5 69t60 59t75 49t79.5 16q102 0 170 -82t68 -213q0 -119 -75 -207t-179 -88zM911 717q-52 0 -96.5 -40.5t-99.5 -115.5q21 -32 37.5 -53.5t43 -50.5t56.5 -44.5t61 -15.5q52 0 87.5 44.5t35.5 107.5
q0 70 -35 119t-90 49z" />
    <glyph glyph-name="integral" unicode="&#x222b;" horiz-adv-x="804" 
d="M283 80l55 901q15 235 96 342t230 107q80 0 151 -31l-39 -137q-59 18 -100 18q-74 0 -112 -66.5t-48 -232.5l-55 -901q-15 -240 -95 -344.5t-231 -104.5q-80 0 -151 31l39 137q58 -18 100 -18q74 0 112 66.5t48 232.5z" />
    <glyph glyph-name="approxequal" unicode="&#x2248;" 
d="M645 262q-128 64 -209 64q-39 0 -73.5 -20t-55 -42.5t-53.5 -66.5l-98 102q72 98 130.5 142t141.5 44t217 -67q124 -62 209 -62q40 0 74.5 19.5t54.5 41.5t53 66l101 -102q-71 -97 -131.5 -141.5t-143.5 -44.5t-217 67zM645 666q-126 63 -209 63q-39 0 -73.5 -20
t-55 -42.5t-53.5 -66.5l-98 102q72 99 130.5 143t141.5 44q81 0 217 -68q122 -61 209 -61q40 0 74.5 19.5t54.5 41.5t53 66l101 -103q-71 -97 -131.5 -141.5t-143.5 -44.5q-81 0 -217 68z" />
    <glyph glyph-name="notequal" unicode="&#x2260;" 
d="M1137 836v-160h-359l-102 -225h461v-158h-535l-133 -293h-166l129 293h-276v158h350l102 225h-452v160h524l111 249h170l-109 -249h285z" />
    <glyph glyph-name="equivalence" unicode="&#x2261;" 
d="M156 170v147h977v-147h-977zM156 475v148h977v-148h-977zM156 782v148h977v-148h-977z" />
    <glyph glyph-name="lessequal" unicode="&#x2264;" 
d="M1114 0h-946v152h946v-152zM1114 1067v-172l-747 -238l747 -251v-173l-946 338v160z" />
    <glyph glyph-name="greaterequal" unicode="&#x2265;" 
d="M176 152h946v-152h-946v152zM1122 731v-160l-946 -338v173l750 251l-750 238v172z" />
    <glyph glyph-name="uni25AF" unicode="&#x25af;" horiz-adv-x="1333" 
d="M1155 0h-977v1487h977v-1487zM295 109h743v1269h-743v-1269z" />
    <glyph glyph-name="triagup" unicode="&#x25b2;" horiz-adv-x="1189" 
d="M180 25v1040l967 -516z" />
    <glyph glyph-name="triagrt" unicode="&#x25ba;" horiz-adv-x="1120" 
d="M1081 68h-1040l516 1032z" />
    <glyph glyph-name="triagdn" unicode="&#x25bc;" horiz-adv-x="1120" 
d="M557 43l-516 1032h1040z" />
    <glyph glyph-name="triaglf" unicode="&#x25c4;" horiz-adv-x="1189" 
d="M43 549l967 516v-1040z" />
    <glyph glyph-name="lozenge" unicode="&#x25ca;" horiz-adv-x="1058" 
d="M600 0h-141l-396 698l396 701h141l395 -701zM528 1239l-299 -541l301 -536l299 536z" />
    <glyph glyph-name="uniFB00" unicode="&#xfb00;" horiz-adv-x="1224" 
d="M223 0v901h-194v156h194v53q0 159 29 231q62 158 266 158q73 0 125 -12v-156q-41 8 -90 8q-38 0 -63.5 -10t-41 -26.5t-23.5 -48t-10.5 -66t-2.5 -88.5v-43h368v53q0 159 29 231q62 158 266 158q73 0 125 -12v-156q-41 8 -90 8q-38 0 -63.5 -10t-41 -26.5t-23.5 -48
t-10.5 -66t-2.5 -88.5v-43h231v-156h-231v-901h-189v901h-368v-901h-189z" />
    <glyph glyph-name="fi" unicode="&#xfb01;" horiz-adv-x="1112" 
d="M223 0v901h-194v156h194v53q0 159 29 231q62 158 266 158q73 0 125 -12v-156q-41 8 -90 8q-38 0 -63.5 -10t-41 -26.5t-23.5 -48t-10.5 -66t-2.5 -88.5v-43h231v-156h-231v-901h-189zM770 0v1057h188v-1057h-188zM770 1282v205h188v-205h-188z" />
    <glyph glyph-name="fl" unicode="&#xfb02;" horiz-adv-x="1112" 
d="M223 0v901h-194v156h194v53q0 159 29 231q62 158 266 158q73 0 125 -12v-156q-41 8 -90 8q-38 0 -63.5 -10t-41 -26.5t-23.5 -48t-10.5 -66t-2.5 -88.5v-43h231v-156h-231v-901h-189zM770 0v1487h188v-1487h-188z" />
    <glyph glyph-name="uniFB03" unicode="&#xfb03;" horiz-adv-x="1677" 
d="M1335 0v1057h189v-1057h-189zM1335 1282v205h189v-205h-189zM223 0v901h-194v156h194v53q0 159 29 231q62 158 266 158q73 0 125 -12v-156q-41 8 -90 8q-38 0 -63.5 -10t-41 -26.5t-23.5 -48t-10.5 -66t-2.5 -88.5v-43h368v53q0 159 29 231q62 158 266 158q73 0 125 -12
v-156q-41 8 -90 8q-38 0 -63.5 -10t-41 -26.5t-23.5 -48t-10.5 -66t-2.5 -88.5v-43h231v-156h-231v-901h-189v901h-368v-901h-189z" />
    <glyph glyph-name="uniFB04" unicode="&#xfb04;" horiz-adv-x="1677" 
d="M1335 0v1487h189v-1487h-189zM223 0v901h-194v156h194v53q0 159 29 231q62 158 266 158q73 0 125 -12v-156q-41 8 -90 8q-38 0 -63.5 -10t-41 -26.5t-23.5 -48t-10.5 -66t-2.5 -88.5v-43h368v53q0 159 29 231q62 158 266 158q73 0 125 -12v-156q-41 8 -90 8
q-38 0 -63.5 -10t-41 -26.5t-23.5 -48t-10.5 -66t-2.5 -88.5v-43h231v-156h-231v-901h-189v901h-368v-901h-189z" />
    <glyph glyph-name="uniFEFF" unicode="&#xfeff;" horiz-adv-x="0" 
 />
    <glyph glyph-name="i.latn_TRK" horiz-adv-x="495" 
d="M154 0v1057h188v-1057h-188zM154 1282v205h188v-205h-188z" />
    <glyph glyph-name="Ldot.latn_CAT" horiz-adv-x="1134" 
d="M178 0v1487h201v-1319h727v-168h-928zM741 692v205h191v-205h-191z" />
    <glyph glyph-name="ldot.latn_CAT" horiz-adv-x="651" 
d="M154 0v1487h188v-1487h-188zM479 692v205h189v-205h-189z" />
    <glyph glyph-name="uni0306.cyrl_dflt" horiz-adv-x="0" 
d="M-512 1204q-140 0 -221.5 80.5t-87.5 222.5h162q0 -89 39 -136.5t108 -47.5t108 47.5t39 136.5h162q-6 -142 -87.5 -222.5t-221.5 -80.5z" />
    <glyph glyph-name="zero.numr" horiz-adv-x="776" 
d="M391 1421q148 0 231 -113t83 -317q0 -201 -88.5 -309.5t-231.5 -108.5q-146 0 -229.5 109t-83.5 309q0 201 87.5 315.5t231.5 114.5zM391 1319q-82 0 -125 -86t-43 -242q0 -152 43.5 -234.5t124.5 -82.5q78 0 121 83t43 234q0 154 -43 241t-121 87z" />
    <glyph glyph-name="one.numr" horiz-adv-x="483" 
d="M231 1165h-190v86q99 6 149.5 41.5t59.5 106.5h119v-803h-138v569z" />
    <glyph glyph-name="two.numr" horiz-adv-x="700" 
d="M72 596v43q0 83 26.5 144t77.5 107t141 97q94 54 131 98.5t37 102.5q0 61 -36 97t-95 36q-68 0 -105 -47.5t-40 -136.5h-137q3 133 79.5 208.5t206.5 75.5q120 0 194.5 -65.5t74.5 -171.5q0 -86 -51 -145.5t-173 -133.5q-36 -22 -51 -31.5t-44 -31t-43 -38.5t-27.5 -43
t-18.5 -54h412v-111h-559z" />
    <glyph glyph-name="three.numr" horiz-adv-x="718" 
d="M205 856q0 -84 40.5 -133t112.5 -49q70 0 109 40.5t39 102.5t-41.5 99.5t-112.5 37.5h-51v103h41q74 0 114 35.5t40 99.5q0 59 -36 93t-100 34q-67 0 -105 -45t-40 -125h-139q6 128 83.5 200t207.5 72q120 0 194 -62t74 -161q0 -59 -34 -113t-97 -73v-6q68 -21 104.5 -73
t36.5 -124q0 -104 -79.5 -170t-213.5 -66q-131 0 -210 76.5t-79 206.5h142z" />
    <glyph glyph-name="four.numr" horiz-adv-x="735" 
d="M688 805h-141v-209h-135v209h-367v110l295 484h207v-486h141v-108zM412 913q0 91 4 365h-15q-26 -48 -96 -160l-127 -205h234z" />
    <glyph glyph-name="five.numr" horiz-adv-x="706" 
d="M121 1399h481v-109h-369l-20 -213q64 56 174 56q117 0 188.5 -77.5t71.5 -197.5q0 -126 -82.5 -205.5t-212.5 -79.5q-119 0 -196.5 62t-92.5 172h140q9 -64 48.5 -100.5t100.5 -36.5q68 0 112 51.5t44 130.5t-43 129.5t-109 50.5q-51 0 -87.5 -29t-51.5 -83l-141 12z" />
    <glyph glyph-name="six.numr" horiz-adv-x="733" 
d="M514 1198q-15 121 -125 121q-81 0 -128 -76.5t-50 -200.5q71 80 186 80q117 0 194 -74t77 -196q0 -126 -81.5 -202.5t-209.5 -76.5q-154 0 -229.5 101.5t-75.5 308.5q0 202 84 320t233 118q117 0 187.5 -57t80.5 -166h-143zM381 1022q-65 0 -109.5 -50.5t-44.5 -121.5
q0 -75 44 -125.5t110 -50.5q62 0 103.5 49.5t41.5 124.5q0 76 -40.5 125t-104.5 49z" />
    <glyph glyph-name="seven.numr" horiz-adv-x="624" 
d="M156 596q76 359 282 694h-399v109h547v-99q-107 -186 -176 -352t-105 -352h-149z" />
    <glyph glyph-name="eight.numr" horiz-adv-x="733" 
d="M367 573q-132 0 -213.5 64t-81.5 172q0 74 39 130.5t108 74.5v6q-61 23 -95 69.5t-34 108.5q0 99 76.5 161t200.5 62t200 -62t76 -161q0 -62 -34 -108.5t-95 -69.5v-6q69 -18 108.5 -74.5t39.5 -130.5q0 -108 -81.5 -172t-213.5 -64zM367 965q-68 0 -112 -43.5
t-44 -106.5q0 -59 44 -99t112 -40t111.5 40t43.5 99q0 63 -43.5 106.5t-111.5 43.5zM367 1319q-64 0 -101 -34t-37 -91t37.5 -93t100.5 -36q62 0 99.5 35.5t37.5 93.5q0 57 -36.5 91t-100.5 34z" />
    <glyph glyph-name="nine.numr" horiz-adv-x="733" 
d="M209 807q9 -72 45.5 -102.5t97.5 -30.5q79 0 123.5 80t44.5 215q-65 -74 -176 -74q-121 0 -196.5 70.5t-75.5 185.5q0 120 79.5 195t210.5 75q155 0 226 -104.5t71 -304.5q0 -209 -77.5 -324t-229.5 -115q-129 0 -202 62.5t-78 171.5h137zM356 1319q-63 0 -105 -48.5
t-42 -117.5q0 -66 41.5 -113t101.5 -47q67 0 109.5 45.5t42.5 112.5q0 71 -42 119.5t-106 48.5z" />
    <glyph glyph-name="zero.dnom" horiz-adv-x="776" 
d="M391 825q148 0 231 -113t83 -317q0 -201 -88.5 -309.5t-231.5 -108.5q-146 0 -229.5 109t-83.5 309q0 201 87.5 315.5t231.5 114.5zM391 723q-82 0 -125 -86t-43 -242q0 -152 43.5 -234.5t124.5 -82.5q78 0 121 83t43 234q0 154 -43 241t-121 87z" />
    <glyph glyph-name="one.dnom" horiz-adv-x="483" 
d="M233 569h-190v86q99 6 149.5 41.5t59.5 106.5h119v-803h-138v569z" />
    <glyph glyph-name="two.dnom" horiz-adv-x="700" 
d="M70 0v43q0 83 26.5 144t77.5 107t141 97q94 54 131 98.5t37 102.5q0 61 -36 97t-95 36q-68 0 -105 -47.5t-40 -136.5h-137q3 133 79.5 208.5t206.5 75.5q120 0 194.5 -65.5t74.5 -171.5q0 -86 -51 -145.5t-173 -133.5q-36 -22 -51 -31.5t-44 -31t-43 -38.5t-27.5 -43
t-18.5 -54h412v-111h-559z" />
    <glyph glyph-name="three.dnom" horiz-adv-x="718" 
d="M205 260q0 -84 40.5 -133t112.5 -49q70 0 109 40.5t39 102.5t-41.5 99.5t-112.5 37.5h-51v103h41q74 0 114 35.5t40 99.5q0 59 -36 93t-100 34q-67 0 -105 -45t-40 -125h-139q6 128 83.5 200t207.5 72q120 0 194 -62t74 -161q0 -59 -34 -113t-97 -73v-6q68 -21 104.5 -73
t36.5 -124q0 -104 -79.5 -170t-213.5 -66q-131 0 -210 76.5t-79 206.5h142z" />
    </font>
</defs>
</svg>
