<?xml version="1.0" standalone="no"?>
<!DOCTYPE svg PUBLIC "-//W3C//DTD SVG 1.1//EN" "http://www.w3.org/Graphics/SVG/1.1/DTD/svg11.dtd" >
<svg xmlns="http://www.w3.org/2000/svg" xmlns:xlink="http://www.w3.org/1999/xlink" version="1.1">
<metadata>
Created by FontForge 20170731 at Fri Sep 10 17:07:37 2021
 By Aleksey,,,
(c) 2012-2019, Copyright by Lineto GmbH. All rights reserved.
</metadata>
<defs>
<font id="Unica_77LLTT-Regular" horiz-adv-x="630" >
  <font-face 
    font-family="Unica 77 LL TT"
    font-weight="400"
    font-stretch="normal"
    units-per-em="1000"
    panose-1="2 11 5 4 1 1 1 1 1 4"
    ascent="800"
    descent="-200"
    x-height="516"
    cap-height="726"
    bbox="-433 -255 1395 1015"
    underline-thickness="50"
    underline-position="-200"
    unicode-range="U+000D-FEFF"
  />
<missing-glyph horiz-adv-x="651" 
d="M87 0v726h477v-726h-477zM507 53v620h-363v-620h363z" />
    <glyph glyph-name="f_f" unicode="ff" horiz-adv-x="598" 
d="M109 440h-95v76h95v26q0 34 3 63t11 50q16 40 49 58.5t81 18.5q13 0 29 -1t32 -5v-76q-11 2 -23 3t-21 1q-23 0 -37 -7t-21 -21.5t-9 -36.5t-2 -52v-21h180v26q0 34 3 63t11 50q16 40 49 58.5t81 18.5q13 0 29 -1t32 -5v-76q-11 2 -23 3t-21 1q-23 0 -37 -7t-21 -21.5
t-9 -36.5t-2 -52v-21h113v-76h-113v-440h-92v440h-180v-440h-92v440z" />
    <glyph glyph-name="f_f_i" unicode="ffi" horiz-adv-x="819" 
d="M652 516h92v-516h-92v516zM652 726h92v-100h-92v100zM109 440h-95v76h95v26q0 34 3 63t11 50q16 40 49 58.5t81 18.5q13 0 29 -1t32 -5v-76q-11 2 -23 3t-21 1q-23 0 -37 -7t-21 -21.5t-9 -36.5t-2 -52v-21h180v26q0 34 3 63t11 50q16 40 49 58.5t81 18.5q13 0 29 -1
t32 -5v-76q-11 2 -23 3t-21 1q-23 0 -37 -7t-21 -21.5t-9 -36.5t-2 -52v-21h113v-76h-113v-440h-92v440h-180v-440h-92v440z" />
    <glyph glyph-name="f_f_l" unicode="ffl" horiz-adv-x="819" 
d="M652 726h92v-726h-92v726zM109 440h-95v76h95v26q0 34 3 63t11 50q16 40 49 58.5t81 18.5q13 0 29 -1t32 -5v-76q-11 2 -23 3t-21 1q-23 0 -37 -7t-21 -21.5t-9 -36.5t-2 -52v-21h180v26q0 34 3 63t11 50q16 40 49 58.5t81 18.5q13 0 29 -1t32 -5v-76q-11 2 -23 3t-21 1
q-23 0 -37 -7t-21 -21.5t-9 -36.5t-2 -52v-21h113v-76h-113v-440h-92v440h-180v-440h-92v440z" />
    <glyph glyph-name="f_i" unicode="fi" horiz-adv-x="543" 
d="M109 440h-95v76h95v26q0 34 3 63t11 50q16 40 49 58.5t81 18.5q13 0 29 -1t32 -5v-76q-11 2 -23 3t-21 1q-23 0 -37 -7t-21 -21.5t-9 -36.5t-2 -52v-21h113v-76h-113v-440h-92v440zM376 516h92v-516h-92v516zM376 726h92v-100h-92v100z" />
    <glyph glyph-name="f_l" unicode="fl" horiz-adv-x="543" 
d="M109 440h-95v76h95v26q0 34 3 63t11 50q16 40 49 58.5t81 18.5q13 0 29 -1t32 -5v-76q-11 2 -23 3t-21 1q-23 0 -37 -7t-21 -21.5t-9 -36.5t-2 -52v-21h113v-76h-113v-440h-92v440zM376 726h92v-726h-92v726z" />
    <glyph glyph-name=".notdef" horiz-adv-x="651" 
d="M87 0v726h477v-726h-477zM507 53v620h-363v-620h363z" />
    <glyph glyph-name=".null" horiz-adv-x="0" 
 />
    <glyph glyph-name=".null" horiz-adv-x="0" 
 />
    <glyph glyph-name="nonmarkingreturn" unicode="&#xd;" horiz-adv-x="200" 
 />
    <glyph glyph-name="space" unicode=" " horiz-adv-x="200" 
 />
    <glyph glyph-name="exclam" unicode="!" horiz-adv-x="262" 
d="M184 114v-114h-106v114h106zM185 726l-18 -529h-73l-18 529h109z" />
    <glyph glyph-name="quotedbl" unicode="&#x22;" horiz-adv-x="384" 
d="M167 683l-28 -285h-63l-29 285h120zM337 683l-28 -285h-63l-29 285h120z" />
    <glyph glyph-name="numbersign" unicode="#" horiz-adv-x="608" 
d="M209 204l-58 -204h-72l58 204h-111l15 56h112l49 173h-114l15 56h115l56 194h73l-56 -194h109l57 194h71l-56 -194h110l-15 -56h-111l-50 -173h114l-15 -56h-115l-59 -204h-72l59 204h-109zM334 260l50 173h-109l-50 -173h109z" />
    <glyph glyph-name="dollar" unicode="$" horiz-adv-x="576" 
d="M255 -7q-101 10 -157.5 69t-61.5 160h95q4 -64 36.5 -103t87.5 -47v234l-21 7q-36 12 -69 27t-59 37t-41.5 52.5t-15.5 73.5q0 39 15.5 72t43 57.5t66.5 39.5t86 18v82h62v-82q45 -4 82 -19.5t64 -42t42.5 -63t18.5 -82.5h-94q-5 58 -38 88.5t-75 38.5v-226l24 -8
q36 -12 70.5 -26.5t62 -36t44.5 -53t17 -77.5q0 -41 -15.5 -75t-45 -58.5t-70.5 -40t-92 -18.5v-92h-62v94zM144 509q0 -24 8.5 -41.5t24 -30.5t37 -23t46.5 -17v215q-24 -1 -45 -8.5t-36.5 -21t-25 -32t-9.5 -41.5zM442 177q0 24 -9.5 42.5t-26.5 32.5t-40 24t-49 18v-223
q57 2 91 29.5t34 76.5z" />
    <glyph glyph-name="percent" unicode="%" horiz-adv-x="900" 
d="M191 694q72 0 112.5 -55t40.5 -155q0 -51 -11.5 -89t-32.5 -63.5t-49.5 -38.5t-62.5 -13q-71 0 -112 52t-41 152t43.5 155t112.5 55zM191 644q-41 0 -61.5 -42.5t-20.5 -117.5q0 -74 21 -114.5t61 -40.5q38 0 59 40.5t21 114.5q0 75 -21 117.5t-59 42.5zM664 697
l-369 -711h-64l368 711h65zM712 403q72 0 112.5 -55t40.5 -155q0 -51 -11.5 -89t-32.5 -63.5t-49.5 -38.5t-62.5 -13q-71 0 -112 52t-41 152t43.5 155t112.5 55zM712 353q-41 0 -61.5 -42.5t-20.5 -117.5q0 -74 21 -114.5t61 -40.5q38 0 59 40.5t21 114.5q0 75 -21 117.5
t-59 42.5z" />
    <glyph glyph-name="ampersand" unicode="&#x26;" horiz-adv-x="705" 
d="M648 377q-8 -60 -27 -118.5t-51 -110.5l137 -148h-126l-69 75q-42 -42 -97 -66t-124 -24q-54 0 -99.5 15.5t-79.5 42.5t-53 65t-19 83q0 69 40 119.5t120 92.5q-44 44 -65.5 84t-21.5 91q0 35 14.5 65t40.5 51.5t61.5 34t78.5 12.5q41 0 76.5 -12t61 -32.5t40 -48.5
t14.5 -61q0 -57 -34.5 -104.5t-114.5 -94.5l158 -173q17 38 27 79t15 83h97zM299 64q52 0 91 19t68 51l-195 215q-118 -53 -118 -152q0 -61 42.5 -97t111.5 -36zM292 435q57 32 83 67.5t26 71.5q0 40 -26 65.5t-69 25.5q-41 0 -68 -25t-27 -63q0 -32 21.5 -69.5t59.5 -72.5z
" />
    <glyph glyph-name="quotesingle" unicode="'" horiz-adv-x="214" 
d="M167 683l-28 -285h-63l-29 285h120z" />
    <glyph glyph-name="parenleft" unicode="(" horiz-adv-x="270" 
d="M167 -106q-63 113 -93 218.5t-30 209.5q0 103 36 210t88 208h71q-25 -57 -45 -108t-34.5 -100.5t-22 -100.5t-7.5 -109q0 -109 30.5 -218.5t78.5 -209.5h-72z" />
    <glyph glyph-name="parenright" unicode=")" horiz-adv-x="270" 
d="M31 -106q48 100 78.5 209.5t30.5 218.5q0 58 -8 109t-22 100.5t-34 100.5t-45 108h71q52 -101 88 -208t36 -210q0 -104 -30 -209.5t-93 -218.5h-72z" />
    <glyph glyph-name="asterisk" unicode="*" horiz-adv-x="403" 
d="M179 593l-18 133h84l-20 -133l118 61l28 -83l-132 -21l92 -96l-70 -49l-61 120l-60 -120l-70 49l91 96l-128 21l27 83z" />
    <glyph glyph-name="plus" unicode="+" 
d="M76 308h196v208h84v-208h197v-77h-197v-208h-84v208h-196v77z" />
    <glyph glyph-name="comma" unicode="," horiz-adv-x="226" 
d="M54 -138l47 147h-47v110h117v-119l-57 -138h-60z" />
    <glyph glyph-name="hyphen" unicode="-" horiz-adv-x="387" 
d="M326 325v-81h-265v81h265z" />
    <glyph glyph-name="period" unicode="." horiz-adv-x="225" 
d="M170 119v-119h-115v119h115z" />
    <glyph glyph-name="slash" unicode="/" horiz-adv-x="381" 
d="M23 0l258 726h79l-257 -726h-80z" />
    <glyph glyph-name="zero" unicode="0" horiz-adv-x="602" 
d="M300 698q116 0 183 -91t67 -265q0 -89 -17.5 -155.5t-50 -111.5t-78.5 -67.5t-104 -22.5q-116 0 -182.5 91.5t-66.5 265.5t66.5 265t182.5 91zM300 622q-78 0 -114.5 -71.5t-36.5 -208.5q0 -134 36.5 -207.5t114.5 -73.5q77 0 114 73.5t37 207.5q0 137 -37 208.5
t-114 71.5z" />
    <glyph glyph-name="one" unicode="1" horiz-adv-x="354" 
d="M23 496v65q43 2 73 9.5t49.5 22t30 36.5t13.5 54h78v-683h-92v496h-152z" />
    <glyph glyph-name="two" unicode="2" horiz-adv-x="553" 
d="M48 29q0 49 14 95t39 78q21 26 56 55.5t97 67.5q42 26 71 47.5t47 42.5t26 43t8 48q0 56 -35 86t-92 30q-65 0 -100.5 -39t-38.5 -117h-93q1 55 19 98.5t49.5 73t75 45t96.5 15.5q49 0 89 -15t68 -41t43 -62t15 -79q0 -34 -10 -63.5t-31.5 -57.5t-56 -56t-83.5 -59
q-32 -20 -52.5 -33.5t-34.5 -24t-23.5 -20t-18.5 -19.5q-16 -17 -26.5 -37t-13.5 -50h354v-81h-458v29z" />
    <glyph glyph-name="three" unicode="3" horiz-adv-x="584" 
d="M142 216q0 -73 39 -114t109 -41q31 0 57.5 9.5t46 26.5t30 40.5t10.5 51.5q0 57 -39.5 89t-110.5 32h-32v77h22q73 0 112.5 30.5t39.5 87.5q0 54 -36.5 85.5t-98.5 31.5q-66 0 -104 -37.5t-40 -107.5h-95q5 106 69 163.5t175 57.5q51 0 92.5 -13.5t71.5 -38t46.5 -58.5
t16.5 -75q0 -28 -9.5 -53.5t-26 -47t-39 -36.5t-49.5 -22v-5q66 -16 99.5 -58.5t33.5 -107.5q0 -44 -18.5 -80t-51.5 -62.5t-78.5 -41t-98.5 -14.5q-56 0 -100.5 16.5t-76 46.5t-48 72.5t-16.5 95.5h98z" />
    <glyph glyph-name="four" unicode="4" horiz-adv-x="579" 
d="M430 173v-173h-93v173h-313v76l299 434h107v-431h123v-79h-123zM342 252v135v43t1 51.5t1.5 52t2.5 44.5l-7 1q-17 -30 -31.5 -53t-34.5 -52l-152 -222h220z" />
    <glyph glyph-name="five" unicode="5" horiz-adv-x="568" 
d="M486 683v-80h-316l-24 -217q36 38 72 55t87 17q49 0 90 -17.5t70.5 -48t46 -73t16.5 -93.5q0 -53 -18 -97t-50.5 -76t-77 -50t-98.5 -18q-50 0 -91 14t-71.5 39.5t-50 62t-25.5 81.5h96q7 -57 45 -89t96 -32q67 0 107.5 43t40.5 117q0 35 -10.5 64.5t-29.5 51t-45.5 33.5
t-58.5 12q-51 0 -85.5 -24.5t-48.5 -70.5l-98 9l38 387h393z" />
    <glyph glyph-name="six" unicode="6" horiz-adv-x="585" 
d="M431 510q-6 56 -36.5 84t-83.5 28q-39 0 -69.5 -17.5t-51.5 -50.5t-32.5 -79.5t-11.5 -103.5v-25q58 101 174 101q43 0 82 -15t69 -44t47.5 -71t17.5 -95q0 -56 -18.5 -99.5t-51 -74.5t-76.5 -47t-95 -16q-118 0 -181 91t-63 256q0 86 17.5 154t51 115t81.5 72t110 25
q94 0 151 -49t67 -139h-98zM307 371q-31 0 -57.5 -11.5t-46 -31.5t-30.5 -47.5t-11 -60.5q0 -35 11 -64.5t30.5 -50.5t46 -33t57.5 -12q30 0 55 11.5t42.5 32.5t27.5 50t10 64q0 69 -36 111t-99 42z" />
    <glyph glyph-name="seven" unicode="7" horiz-adv-x="509" 
d="M136 0q31 151 95 299.5t152 302.5h-360v81h461v-69q-83 -145 -147.5 -295t-97.5 -319h-103z" />
    <glyph glyph-name="eight" unicode="8" horiz-adv-x="590" 
d="M296 -15q-55 0 -100.5 14.5t-78 41t-50.5 62.5t-18 79q0 68 34.5 110.5t108.5 59.5v5q-60 14 -92 55t-32 100q0 42 16.5 76t46.5 58.5t72 38t93 13.5t92.5 -13.5t71 -38t46 -58.5t16.5 -76q0 -59 -31.5 -100t-92.5 -55v-5q74 -17 108.5 -59.5t34.5 -110.5q0 -43 -18 -79
t-50.5 -62.5t-77.5 -41t-99 -14.5zM296 59q33 0 60 9.5t46.5 27t30 41t10.5 51.5q0 58 -40.5 92.5t-106.5 34.5q-67 0 -107.5 -34.5t-40.5 -92.5q0 -28 10.5 -51.5t30 -41t47 -27t60.5 -9.5zM296 392q60 0 96.5 31t36.5 85q0 52 -35.5 84t-97.5 32q-63 0 -99 -32t-36 -84
q0 -54 37 -85t98 -31z" />
    <glyph glyph-name="nine" unicode="9" horiz-adv-x="581" 
d="M147 171q8 -54 42.5 -82t88.5 -28q77 0 116.5 66t39.5 184v39q-55 -94 -167 -94q-49 0 -89.5 15.5t-70 44t-45.5 69t-16 91.5q0 49 18.5 89.5t50.5 70t75 46t93 16.5q122 0 184 -90t62 -256q0 -177 -63.5 -272t-184.5 -95q-48 0 -88.5 12.5t-70 36.5t-47.5 58.5t-22 78.5
h94zM276 623q-30 0 -55.5 -11t-44 -30.5t-28.5 -46.5t-10 -59q0 -31 10 -57.5t28 -46t42.5 -30.5t54.5 -11q31 0 57.5 11t46 30t30.5 45.5t11 56.5q0 33 -11 60t-30 47t-45 31t-56 11z" />
    <glyph glyph-name="colon" unicode=":" horiz-adv-x="237" 
d="M176 119v-119h-115v119h115zM176 516v-119h-115v119h115z" />
    <glyph glyph-name="semicolon" unicode=";" horiz-adv-x="240" 
d="M61 -138l47 147h-47v110h117v-119l-57 -138h-60zM178 516v-119h-115v119h115z" />
    <glyph glyph-name="less" unicode="&#x3c;" 
d="M545 520v-85l-385 -166l385 -171v-84l-470 215v78z" />
    <glyph glyph-name="equal" unicode="=" 
d="M77 221h477v-78h-477v78zM77 408h477v-78h-477v78z" />
    <glyph glyph-name="greater" unicode="&#x3e;" 
d="M85 14v84l385 171l-385 166v85l470 -213v-78z" />
    <glyph glyph-name="question" unicode="?" horiz-adv-x="512" 
d="M184 108h108v-108h-108v108zM192 208q0 39 4.5 66.5t18 52t37.5 49.5t63 59q65 56 65 117q0 29 -10 50.5t-26.5 35.5t-39 21t-46.5 7q-25 0 -49.5 -8.5t-43.5 -26.5t-31 -46.5t-12 -68.5h-96q0 56 21 98.5t54.5 70.5t76 42t86.5 14q41 0 80 -11.5t70 -35t49.5 -59
t18.5 -82.5q0 -29 -8 -53t-21 -44t-30 -38t-36 -34q-20 -18 -39 -36.5t-34 -39.5t-24 -45.5t-9 -55.5v-17h-89v18z" />
    <glyph glyph-name="at" unicode="@" horiz-adv-x="884" 
d="M451 469q-27 0 -50 -17.5t-39.5 -45t-25.5 -62t-9 -67.5q0 -57 22 -86t54 -29q33 0 57 22.5t39.5 55.5t23 70.5t7.5 67.5q0 18 -5 34t-14.5 29t-24.5 20.5t-35 7.5zM742 -30q-69 -40 -149 -63t-154 -23q-81 0 -153.5 27.5t-126.5 80t-86 129t-32 174.5q0 88 31 165
t87.5 134.5t136.5 90.5t179 33q75 0 144 -21.5t122 -64t85 -107t32 -150.5q0 -67 -18 -119t-49.5 -87t-74 -53.5t-90.5 -18.5q-12 0 -28.5 2.5t-32.5 11t-27.5 23.5t-14.5 41q-18 -25 -35 -40.5t-33.5 -23.5t-33 -11t-32.5 -3q-65 0 -104.5 42.5t-39.5 137.5q0 51 15 97
t41.5 81t63 55.5t80.5 20.5q35 0 66 -13.5t45 -49.5l10 48h83q-29 -110 -43 -180.5t-14 -111.5q0 -33 14.5 -47t35.5 -14q25 0 50 12.5t45 39t32.5 66.5t12.5 95q0 68 -26.5 120t-70.5 87t-101 52.5t-119 17.5q-74 0 -137.5 -25.5t-110 -71.5t-73.5 -110.5t-27 -143.5
q0 -81 27.5 -146t73 -110.5t105.5 -70t125 -24.5t132.5 20.5t124.5 55.5z" />
    <glyph glyph-name="A" unicode="A" horiz-adv-x="696" 
d="M298 726h99l298 -726h-107l-84 211h-318l-79 -211h-104zM475 291l-69 187q-14 39 -29 77t-28 76h-4q-13 -37 -26.5 -75t-27.5 -76l-73 -189h257z" />
    <glyph glyph-name="B" unicode="B" horiz-adv-x="646" 
d="M87 726h214q48 0 97.5 -4.5t90 -23t66.5 -57t26 -106.5q0 -54 -31.5 -99.5t-93.5 -62.5v-2q69 -16 106.5 -55t37.5 -116q0 -66 -28 -105.5t-72.5 -60.5t-99 -27.5t-107.5 -6.5h-206v726zM294 79q42 0 79 3.5t65 16t44.5 37t16.5 66.5q0 39 -12.5 63.5t-39 38.5t-68 19
t-98.5 5h-96v-249h109zM276 407q31 0 67 2t67 13t52 35t21 69q0 42 -15.5 66t-42 36t-62 15t-76.5 3h-102v-239h91z" />
    <glyph glyph-name="C" unicode="C" horiz-adv-x="700" 
d="M375 -15q-81 0 -142 29.5t-102.5 80.5t-62.5 120t-21 148t21.5 148t63 120t102.5 80.5t139 29.5q63 0 114.5 -18.5t89 -52t60 -80t28.5 -101.5h-101q-13 83 -62.5 128.5t-128.5 45.5q-51 0 -92 -21.5t-70.5 -61t-45.5 -95t-16 -122.5q0 -68 16.5 -123t46 -94.5t71 -61
t92.5 -21.5q78 0 127.5 48t63.5 130h102q-9 -55 -33 -102t-61.5 -81t-87.5 -53.5t-111 -19.5z" />
    <glyph glyph-name="D" unicode="D" horiz-adv-x="710" 
d="M87 726h210q72 0 127 -12t98 -41q69 -48 105 -129t36 -181t-39 -179.5t-108 -127.5q-43 -29 -95 -42.5t-124 -13.5h-210v726zM284 80q63 0 111.5 13.5t80.5 41.5q40 35 62 95.5t22 132.5q0 71 -20 133t-60 97q-31 27 -82 40t-114 13h-99v-566h99z" />
    <glyph glyph-name="E" unicode="E" horiz-adv-x="598" 
d="M87 726h452v-81h-354v-233h338v-82h-338v-249h371v-81h-469v726z" />
    <glyph glyph-name="F" unicode="F" horiz-adv-x="575" 
d="M87 726h459v-81h-361v-245h337v-81h-337v-319h-98v726z" />
    <glyph glyph-name="G" unicode="G" horiz-adv-x="722" 
d="M358 -12q-81 0 -139.5 29t-96.5 79.5t-56.5 119t-18.5 147.5t22 148t64.5 120t104 80.5t139.5 29.5q62 0 111.5 -17t85.5 -47t58 -71.5t29 -90.5h-101q-13 70 -61 109t-122 39q-51 0 -93 -21.5t-72 -61t-46.5 -95t-16.5 -122.5q0 -68 15.5 -122.5t44 -93.5t69 -60
t91.5 -21q45 0 81.5 16.5t62.5 46.5t40.5 72t14.5 93h-178v82h273v-376h-86v30q0 16 0.5 32.5t2.5 30.5l-5 2q-35 -51 -90 -79t-127 -28z" />
    <glyph glyph-name="H" unicode="H" horiz-adv-x="745" 
d="M87 726h98v-311h374v311h99v-726h-99v334h-374v-334h-98v726z" />
    <glyph glyph-name="I" unicode="I" horiz-adv-x="272" 
d="M87 726h98v-726h-98v726z" />
    <glyph glyph-name="J" unicode="J" horiz-adv-x="362" 
d="M97 -8q-18 0 -38.5 1.5t-43.5 6.5v84q18 -4 34.5 -5t31.5 -1q28 0 47.5 7.5t31.5 25.5t17.5 48t5.5 75v492h98v-503q0 -57 -9.5 -100t-31 -72.5t-57 -44t-86.5 -14.5z" />
    <glyph glyph-name="K" unicode="K" horiz-adv-x="620" 
d="M87 726h98v-324l300 324h116l-318 -334l344 -392h-126l-316 369v-369h-98v726z" />
    <glyph glyph-name="L" unicode="L" horiz-adv-x="553" 
d="M87 726h98v-644h355v-82h-453v726z" />
    <glyph glyph-name="M" unicode="M" horiz-adv-x="928" 
d="M87 726h151l178 -468q19 -51 30 -84t21 -67h5q8 36 19.5 72.5t26.5 78.5l171 468h152v-726h-92v415q0 51 1.5 103.5t2.5 114.5h-5l-232 -633h-106l-233 633h-5q0 -20 1 -48t2 -58t1.5 -60t0.5 -52v-415h-90v726z" />
    <glyph glyph-name="N" unicode="N" horiz-adv-x="749" 
d="M87 726h134q96 -167 160.5 -280.5t105 -186t60 -109t25.5 -48.5h5q-1 30 -2 67.5t-2 74.5t-1.5 69.5t-0.5 50.5v362h91v-726h-132q-95 167 -160.5 282.5t-106.5 189.5t-61.5 112t-26.5 49h-5q1 -30 2.5 -69.5t2.5 -78t1.5 -72t0.5 -51.5v-362h-90v726z" />
    <glyph glyph-name="O" unicode="O" horiz-adv-x="763" 
d="M381 -15q-76 0 -138 27.5t-105.5 77.5t-67 119.5t-23.5 153.5t23.5 153.5t67 119.5t105.5 77.5t138 27.5t138 -27.5t105.5 -77.5t67.5 -119.5t24 -153.5q0 -85 -24 -155t-67.5 -119.5t-105.5 -76.5t-138 -27zM381 63q53 0 96 22.5t73.5 63t47 95t16.5 119.5
q0 64 -16.5 119t-47 95.5t-73.5 63t-96 22.5t-96 -22.5t-73 -63t-46.5 -95.5t-16.5 -119q0 -65 16.5 -119.5t46.5 -95t73 -63t96 -22.5z" />
    <glyph glyph-name="P" unicode="P" horiz-adv-x="625" 
d="M87 726h220q46 0 96.5 -4t97.5 -28q48 -25 72.5 -75t24.5 -112q0 -66 -26.5 -113t-71.5 -73q-31 -19 -81 -27t-118 -8h-116v-286h-98v726zM311 366q38 0 69 3.5t48 11.5q34 17 51.5 51t17.5 75t-17.5 74.5t-51.5 50.5q-17 9 -48 11.5t-69 2.5h-126v-280h126z" />
    <glyph glyph-name="Q" unicode="Q" horiz-adv-x="763" 
d="M570 41q-39 -27 -86.5 -41.5t-102.5 -14.5q-76 0 -138 27.5t-105.5 77.5t-67 119.5t-23.5 153.5t23.5 153.5t67 119.5t105.5 77.5t138 27.5t138 -27.5t105.5 -77.5t67.5 -119.5t24 -153.5q0 -82 -22 -149t-63 -117l91 -88l-57 -61zM381 63q36 0 67 10.5t57 30.5l-90 89
l59 58l88 -86q25 39 38.5 89t13.5 109q0 64 -16.5 119t-47 95.5t-73.5 63t-96 22.5t-96 -22.5t-73 -63t-46.5 -95.5t-16.5 -119q0 -65 16.5 -119.5t46.5 -95t73 -63t96 -22.5z" />
    <glyph glyph-name="R" unicode="R" horiz-adv-x="648" 
d="M87 726h215q36 0 72.5 -2.5t68.5 -12.5q60 -18 98 -64.5t38 -124.5q0 -32 -11.5 -61.5t-32 -53.5t-49.5 -41.5t-65 -25.5v-3q28 -2 48.5 -11.5t35 -24t23.5 -32.5t15 -36l76 -233h-105l-65 206q-11 35 -28 54.5t-39.5 28.5t-51.5 10.5t-64 1.5h-81v-301h-98v726zM268 381
q37 0 74.5 3.5t68 17t49.5 40t19 71.5q0 62 -31 90t-77 37q-23 5 -50 5.5t-53 0.5h-83v-265h83z" />
    <glyph glyph-name="S" unicode="S" horiz-adv-x="623" 
d="M315 -15q-129 0 -201.5 65.5t-72.5 187.5h99q0 -85 44.5 -130t130.5 -45q77 0 120 34t43 91q0 34 -15.5 57t-42 38.5t-60.5 26t-70 20.5q-43 12 -85 26t-75.5 37.5t-54 59t-20.5 89.5q0 44 19 80.5t53 63t81.5 41t103.5 14.5q119 0 187 -61t68 -170h-96q0 40 -14 68.5
t-36.5 47.5t-51.5 28t-59 9q-28 0 -55.5 -7t-49 -21.5t-34.5 -36t-13 -50.5q0 -33 14.5 -55t39 -37t57 -25.5t68.5 -20.5q43 -12 87 -26.5t79 -38.5t57 -60t22 -91q0 -47 -19.5 -85.5t-54.5 -66t-84 -42.5t-109 -15z" />
    <glyph glyph-name="T" unicode="T" horiz-adv-x="599" 
d="M250 645h-239v81h577v-81h-239v-645h-99v645z" />
    <glyph glyph-name="U" unicode="U" horiz-adv-x="704" 
d="M351 -15q-90 0 -152 34t-91 99q-15 34 -21.5 76t-6.5 112v420h98v-418q0 -75 9 -117t32 -70t56.5 -43.5t75.5 -15.5t78 16.5t56 42.5q22 29 31.5 72.5t9.5 114.5v418h98v-420q0 -39 -2 -70t-7 -56.5t-13 -46t-20 -38.5q-32 -51 -91.5 -80.5t-139.5 -29.5z" />
    <glyph glyph-name="V" unicode="V" horiz-adv-x="642" 
d="M9 726h109l158 -468q13 -37 23 -74.5t23 -75.5h6l6.5 19.5t8.5 27t12.5 41t19.5 62.5l163 468h99l-264 -726h-108z" />
    <glyph glyph-name="W" unicode="W" horiz-adv-x="948" 
d="M15 726h101l108 -468q8 -33 15.5 -71t14.5 -75h5q7 37 14.5 74t17.5 72l127 468h122l123 -468q2 -9 4.5 -19.5t6 -26.5t8.5 -40t13 -60h6q7 36 12 59.5t8.5 39.5t6 27t4.5 20l110 468h90l-179 -726h-117l-125 482q-2 9 -4.5 19.5t-6.5 26.5t-9 40t-13 60h-5
q-8 -36 -13 -60t-9 -40t-6.5 -26.5t-4.5 -19.5l-129 -482h-116z" />
    <glyph glyph-name="X" unicode="X" horiz-adv-x="622" 
d="M253 378l-238 348h116l183 -281l185 281h107l-238 -348l254 -378h-115l-199 305l-197 -305h-109z" />
    <glyph glyph-name="Y" unicode="Y" horiz-adv-x="617" 
d="M259 307l-251 419h114l189 -343l198 343h104l-256 -419v-307h-98v307z" />
    <glyph glyph-name="Z" unicode="Z" horiz-adv-x="569" 
d="M33 83l387 564q-31 -1 -62.5 -1.5t-61.5 -0.5h-253v81h482v-81l-389 -567q32 2 74.5 3t74.5 1h259v-82h-511v83z" />
    <glyph glyph-name="bracketleft" unicode="[" horiz-adv-x="306" 
d="M85 726h197v-59h-110v-713h110v-59h-197v831z" />
    <glyph glyph-name="backslash" unicode="\" horiz-adv-x="381" 
d="M100 726l258 -726h-80l-257 726h79z" />
    <glyph glyph-name="bracketright" unicode="]" horiz-adv-x="306" 
d="M24 -46h110v713h-110v59h197v-831h-197v59z" />
    <glyph glyph-name="asciicircum" unicode="^" 
d="M542 323h-85l-145 305l-142 -305h-82l190 403h73z" />
    <glyph glyph-name="underscore" unicode="_" horiz-adv-x="477" 
d="M0 -74h477v-49h-477v49z" />
    <glyph glyph-name="grave" unicode="`" horiz-adv-x="577" 
d="M138 726h105l88 -126h-77z" />
    <glyph glyph-name="a" unicode="a" horiz-adv-x="540" 
d="M218 -11q-86 0 -132.5 43.5t-46.5 112.5q0 42 16.5 70.5t44 47t63.5 29t74 16t76 8.5t70 7v18q0 58 -27 89.5t-87 31.5q-54 0 -87 -26.5t-33 -78.5h-91q0 40 15.5 72t43.5 54.5t66.5 35t85.5 12.5q73 0 114 -22t61 -56t24.5 -75.5t4.5 -80.5v-141q0 -45 2.5 -83t10.5 -73
h-86q-2 11 -4 27.5t-3 42.5q-33 -44 -76 -62.5t-99 -18.5zM239 56q28 0 54 7t46 25.5t32 51t12 83.5v29q-29 -4 -72 -6.5t-83 -12.5t-68 -30.5t-28 -59.5q0 -38 28.5 -62.5t78.5 -24.5z" />
    <glyph glyph-name="b" unicode="b" horiz-adv-x="585" 
d="M324 -11q-53 0 -93.5 19t-67.5 58v-66h-88v726h92v-271q33 42 73 57t88 15q50 0 90 -20t68 -55.5t43 -85t15 -108.5q0 -62 -16.5 -112t-46 -85t-69.5 -53.5t-88 -18.5zM310 62q64 0 102 51.5t38 144.5t-38 144.5t-102 51.5q-33 0 -59.5 -14.5t-45.5 -40t-29.5 -62
t-10.5 -79.5q0 -41 10.5 -76.5t29.5 -62t45.5 -42t59.5 -15.5z" />
    <glyph glyph-name="c" unicode="c" horiz-adv-x="531" 
d="M281 -15q-59 0 -103.5 19.5t-75.5 55.5t-46.5 86.5t-15.5 111.5q0 58 16 108t47 87t76.5 57.5t103.5 20.5q94 0 149.5 -48t67.5 -136h-96q-17 110 -122 110q-36 0 -63 -14.5t-45.5 -40.5t-28 -62.5t-9.5 -81.5q0 -90 38 -145t108 -55q51 0 84 28t45 87h90
q-33 -188 -220 -188z" />
    <glyph glyph-name="d" unicode="d" horiz-adv-x="585" 
d="M262 -11q-103 0 -162 69.5t-59 199.5q0 58 15.5 107t44.5 85t70 56.5t91 20.5q53 0 91.5 -16t64.5 -55v270h92v-726h-88v68q-53 -79 -160 -79zM275 62q66 0 105.5 52.5t39.5 143.5q0 93 -39.5 144.5t-105.5 51.5q-64 0 -101.5 -51.5t-37.5 -144.5q0 -91 37.5 -143.5
t101.5 -52.5z" />
    <glyph glyph-name="e" unicode="e" horiz-adv-x="562" 
d="M285 -15q-119 0 -182 72.5t-63 200.5q0 58 17 108t49.5 87t78 57.5t102.5 20.5q121 0 177.5 -79t56.5 -223h-385q2 -38 14 -69.5t32.5 -54t47 -35t58.5 -12.5q50 0 85.5 23t49.5 73h97q-17 -84 -81.5 -126.5t-153.5 -42.5zM423 304q-8 78 -46 115.5t-94 37.5
q-59 0 -97 -37.5t-48 -115.5h285z" />
    <glyph glyph-name="f" unicode="f" horiz-adv-x="326" 
d="M109 440h-95v76h95v26q0 34 3 63t11 50q16 40 49 58.5t81 18.5q13 0 29 -1t32 -5v-76q-11 2 -23 3t-21 1q-23 0 -37 -7t-21 -21.5t-9 -36.5t-2 -52v-21h113v-76h-113v-440h-92v440z" />
    <glyph glyph-name="g" unicode="g" horiz-adv-x="576" 
d="M276 -205q-94 0 -150 40t-63 122h95q3 -48 34 -70.5t86 -22.5q34 0 59.5 9t42.5 30t26 55.5t9 85.5v51q-33 -44 -70.5 -61t-92.5 -17q-48 0 -87 18.5t-66.5 52t-42.5 79.5t-15 101q0 50 14.5 97t42 83t68 57.5t91.5 21.5q115 0 160 -83v72h85v-442q0 -66 -10.5 -118
t-36.5 -87.5t-69.5 -54.5t-109.5 -19zM275 88q65 0 103 50.5t38 138.5q0 39 -10 72t-29 57t-45 37t-57 13q-67 0 -103.5 -49t-36.5 -129q0 -90 37.5 -140t102.5 -50z" />
    <glyph glyph-name="h" unicode="h" horiz-adv-x="575" 
d="M75 726h92v-275q28 44 70.5 60t86.5 16q67 0 106.5 -24t58.5 -68q11 -26 14 -57.5t3 -68.5v-309h-92v290q0 30 -3.5 59.5t-14.5 52.5t-33 37.5t-59 14.5q-65 0 -101 -45t-36 -139v-270h-92v726z" />
    <glyph glyph-name="i" unicode="i" horiz-adv-x="242" 
d="M75 516h92v-516h-92v516zM75 726h92v-100h-92v100z" />
    <glyph glyph-name="j" unicode="j" horiz-adv-x="242" 
d="M41 -205q-15 0 -31.5 1.5t-36.5 3.5v78q11 -4 24 -4.5t21 -0.5q38 0 47.5 30.5t9.5 82.5v530h92v-518q0 -58 -6 -97t-20.5 -62.5t-39 -33.5t-60.5 -10zM75 726h92v-100h-92v100z" />
    <glyph glyph-name="k" unicode="k" horiz-adv-x="500" 
d="M75 726h92v-422l209 212h109l-228 -226l251 -290h-116l-225 270v-270h-92v726z" />
    <glyph glyph-name="l" unicode="l" horiz-adv-x="242" 
d="M75 726h92v-726h-92v726z" />
    <glyph glyph-name="m" unicode="m" horiz-adv-x="875" 
d="M75 516h86v-66q23 36 63 56.5t92 20.5q44 0 83.5 -22.5t57.5 -72.5q32 51 80 73t103 22q89 0 127.5 -51.5t38.5 -139.5v-336h-92v286q0 28 -2.5 58t-12.5 54.5t-30.5 40t-56.5 15.5q-42 0 -66.5 -20.5t-37.5 -50.5t-17 -64.5t-4 -63.5v-255h-92v286q0 28 -2.5 58
t-13 54.5t-31 40t-56.5 15.5q-42 0 -66.5 -20.5t-37.5 -50.5t-17 -64.5t-4 -63.5v-255h-92v516z" />
    <glyph glyph-name="n" unicode="n" horiz-adv-x="575" 
d="M75 516h85v-66q18 23 38.5 38t42 23.5t42.5 12t41 3.5q67 0 107 -24t57 -68q11 -26 14.5 -57.5t3.5 -68.5v-309h-92v291q0 30 -3.5 59t-14.5 52.5t-33 37.5t-59 14q-65 0 -101 -45t-36 -139v-270h-92v516z" />
    <glyph glyph-name="o" unicode="o" horiz-adv-x="580" 
d="M288 -15q-57 0 -103 20t-78.5 56t-49.5 86.5t-17 110.5t17.5 110t49.5 86.5t78.5 56.5t103.5 20q58 0 104.5 -20t79 -56.5t50 -86.5t17.5 -110t-17.5 -110.5t-50 -86.5t-79.5 -56t-105 -20zM288 58q36 0 65.5 14.5t49.5 40.5t31 62.5t11 81.5t-11 81.5t-31.5 63t-49 41
t-64.5 14.5q-35 0 -63.5 -14t-48.5 -40t-31 -62.5t-11 -81.5t10.5 -82t30.5 -63.5t48.5 -41t63.5 -14.5z" />
    <glyph glyph-name="p" unicode="p" horiz-adv-x="585" 
d="M75 516h88v-70q26 39 67 60t98 21q52 0 92 -20t67.5 -55.5t42 -85t14.5 -108.5q0 -63 -16.5 -113t-46 -84.5t-69.5 -53t-88 -18.5q-53 0 -93 16t-64 53v-259h-92v717zM310 62q64 0 102 51.5t38 144.5t-38 144.5t-102 51.5q-33 0 -59.5 -14.5t-45.5 -40t-29.5 -62
t-10.5 -79.5q0 -44 10.5 -80t29.5 -62t45.5 -40t59.5 -14z" />
    <glyph glyph-name="q" unicode="q" horiz-adv-x="585" 
d="M418 60q-26 -37 -64.5 -54t-91.5 -17q-103 0 -162 69.5t-59 199.5q0 58 15.5 107t44.5 85t70 56.5t91 20.5q54 0 94 -18.5t66 -56.5v64h88v-717h-92v261zM275 62q66 0 105.5 52.5t39.5 143.5q0 93 -39.5 144.5t-105.5 51.5q-64 0 -101.5 -51.5t-37.5 -144.5
q0 -91 37.5 -143.5t101.5 -52.5z" />
    <glyph glyph-name="r" unicode="r" horiz-adv-x="378" 
d="M75 516h87v-76q30 47 66 64.5t79 17.5q29 0 58 -6v-81q-17 3 -32 5t-29 2q-42 0 -68.5 -14.5t-41.5 -41t-21 -64.5t-6 -85v-237h-92v516z" />
    <glyph glyph-name="s" unicode="s" horiz-adv-x="505" 
d="M260 -15q-108 0 -166 47t-59 134h93q0 -55 35 -82.5t99 -27.5q53 0 81.5 19.5t28.5 57.5q0 24 -11 39t-29.5 24.5t-42.5 15t-50 10.5q-34 6 -68 14t-61.5 24.5t-45 45t-17.5 75.5q0 33 14.5 60.5t41 47.5t63.5 31t83 11q98 0 151.5 -44t54.5 -129h-91q-1 101 -117 101
q-48 0 -76 -19.5t-28 -52.5q0 -22 10.5 -36t27.5 -23t40 -14.5t49 -10.5q34 -7 70 -15.5t64.5 -25.5t47 -46t18.5 -77q0 -35 -16 -63.5t-44 -48.5t-66.5 -31t-83.5 -11z" />
    <glyph glyph-name="t" unicode="t" horiz-adv-x="333" 
d="M238 -9q-30 0 -54.5 7.5t-41 24.5t-25.5 46t-9 71v300h-95v76h95v125h92v-125h112v-76h-112v-257q0 -27 1.5 -48.5t7.5 -36t18.5 -22t34.5 -7.5q11 0 23.5 0.5t28.5 4.5v-74q-41 -9 -76 -9z" />
    <glyph glyph-name="u" unicode="u" horiz-adv-x="572" 
d="M249 -11q-68 0 -105.5 25.5t-57.5 66.5q-13 26 -15 62t-2 73v300h91v-291q0 -30 3 -59t14.5 -52t33 -37.5t58.5 -14.5q65 0 101 44.5t36 138.5v271h91v-516h-85v66q-17 -23 -37.5 -38t-42 -23.5t-43 -12t-40.5 -3.5z" />
    <glyph glyph-name="v" unicode="v" horiz-adv-x="511" 
d="M11 516h101l91 -258q15 -44 28.5 -89t24.5 -89h6q11 44 24.5 89t28.5 89l91 258h94l-191 -516h-107z" />
    <glyph glyph-name="w" unicode="w" horiz-adv-x="792" 
d="M14 516h95l70 -258q11 -42 21 -89t18 -89h6q8 42 20.5 89t23.5 89l70 258h123l73 -258q12 -42 23 -89t19 -89h6q8 42 18 89t21 89l70 258h86l-143 -516h-119l-71 258q-12 45 -23 94t-21 94h-6q-11 -45 -22.5 -94t-23.5 -94l-71 -258h-119z" />
    <glyph glyph-name="x" unicode="x" horiz-adv-x="492" 
d="M192 267l-175 249h114l118 -189l126 189h100l-177 -249l192 -267h-113l-135 202l-135 -202h-104z" />
    <glyph glyph-name="y" unicode="y" horiz-adv-x="511" 
d="M107 -205q-14 0 -28.5 1t-31.5 4v77q24 -6 44 -6q26 0 44.5 9t32 24.5t23 37t16.5 47.5l-196 527h102l90 -258q16 -45 27.5 -88.5t25.5 -88.5h5q12 43 26 88.5t29 88.5l91 258h93l-192 -516q-18 -47 -36.5 -85t-41.5 -64.5t-53 -41t-70 -14.5z" />
    <glyph glyph-name="z" unicode="z" horiz-adv-x="452" 
d="M27 75l287 370q-10 -2 -25 -2.5t-31.5 -1.5t-31.5 -1h-25h-160v76h375v-76l-284 -369q11 1 27 2t33 1.5t33 0.5h27h176v-75h-401v75z" />
    <glyph glyph-name="braceleft" unicode="{" horiz-adv-x="326" 
d="M197 69q0 -24 4.5 -46.5t14 -39.5t24.5 -27t37 -10q11 0 25 3v-55q-8 -1 -17 -1.5t-17 -0.5q-73 0 -112.5 40t-39.5 126v90q0 131 -99 143v53q52 8 75.5 42.5t23.5 101.5v70q0 52 9.5 87t29 56t49.5 30t71 9q5 0 13 -0.5t14 -0.5v-53q-5 1 -9.5 1h-9.5q-29 0 -46 -10.5
t-26 -29.5t-11.5 -44t-2.5 -55v-47q0 -42 -5 -74.5t-19 -55.5t-38 -36t-62 -17q41 -6 65.5 -21t37.5 -38.5t17 -55t4 -70.5v-64z" />
    <glyph glyph-name="bar" unicode="|" horiz-adv-x="252" 
d="M85 0v726h82v-726h-82z" />
    <glyph glyph-name="braceright" unicode="}" horiz-adv-x="327" 
d="M129 133q0 39 4 70.5t17 55t37.5 38.5t65.5 21q-38 4 -62 17t-37.5 36t-19 55.5t-5.5 74.5v47q0 30 -2.5 55t-11.5 44t-26 29.5t-46 10.5h-9.5t-9.5 -1v53q6 0 14 0.5t13 0.5q41 0 71 -9t49.5 -30t29 -56t9.5 -87v-70q0 -67 24 -101.5t75 -42.5v-53q-99 -12 -99 -143v-90
q0 -86 -39 -126t-113 -40q-7 0 -16.5 0.5t-17.5 1.5v55q13 -3 26 -3q21 0 36 10t24.5 27t14 39.5t4.5 46.5v64z" />
    <glyph glyph-name="asciitilde" unicode="~" 
d="M315 229q-25 11 -48.5 21t-51.5 10q-31 0 -51 -18.5t-40 -43.5l-49 49q32 43 62 67t74 24q28 0 53 -10t51 -22q25 -11 48.5 -21t52.5 -10q31 0 50.5 18.5t39.5 43.5l50 -50q-32 -43 -62 -66.5t-75 -23.5q-28 0 -53 10t-51 22z" />
    <glyph glyph-name="uni00A0" unicode="&#xa0;" horiz-adv-x="200" 
 />
    <glyph glyph-name="exclamdown" unicode="&#xa1;" horiz-adv-x="249" 
d="M71 422v114h106v-114h-106zM70 -190l18 529h73l18 -529h-109z" />
    <glyph glyph-name="cent" unicode="&#xa2;" horiz-adv-x="531" 
d="M255 94q-50 4 -89 25.5t-66 56.5t-41.5 83.5t-14.5 106.5q0 55 14.5 103t41.5 84t66 58t89 27v103h64v-103q75 -7 124.5 -54.5t60.5 -128.5h-94q-8 46 -32 72.5t-59 33.5v-391q35 8 60.5 34.5t37.5 76.5h88q-15 -88 -63 -134t-123 -53v-109h-64v109zM138 366
q0 -81 31.5 -133t85.5 -62v390q-54 -10 -85.5 -62t-31.5 -133z" />
    <glyph glyph-name="sterling" unicode="&#xa3;" horiz-adv-x="604" 
d="M53 76q28 3 45.5 13t28 28.5t14.5 46.5t4 67v89h-111v79h111v28q0 65 12 116t38.5 85.5t67.5 52.5t100 18q94 0 146 -45.5t52 -136.5h-96q0 52 -25 79.5t-76 27.5q-40 0 -64.5 -14t-38 -40t-18 -63.5t-4.5 -83.5v-24h144v-79h-144v-79q0 -35 -3.5 -61t-11 -44.5
t-19.5 -32t-30 -23.5v-6q53 3 86 4.5t64 1.5h236v-80h-508v76z" />
    <glyph glyph-name="currency" unicode="&#xa4;" horiz-adv-x="551" 
d="M275 495q35 0 65 -11t50 -28l72 72l45 -44l-79 -68q15 -19 25 -48t10 -64q0 -39 -10.5 -69t-24.5 -48l75 -70l-44 -43l-70 73q-22 -20 -54 -30t-62 -10q-32 0 -63 10t-52 28l-68 -71l-42 43l72 66q-15 20 -26 50t-11 66q0 38 11 67.5t28 49.5l-76 68l44 44l69 -72
q22 17 52 28t64 11zM274 435q-28 0 -50.5 -10.5t-38 -29t-24 -43t-8.5 -52.5q0 -35 11.5 -60t29 -41.5t38.5 -24t41 -7.5q21 0 42 7.5t38 23.5t28 42t11 63q0 25 -7.5 49t-22.5 42.5t-37 29.5t-51 11z" />
    <glyph glyph-name="yen" unicode="&#xa5;" horiz-adv-x="605" 
d="M210 379l-186 304h109l170 -297l175 297h104l-190 -304h125v-71h-168v-76h168v-71h-168v-161h-96v161h-168v71h168v76h-168v71h125z" />
    <glyph glyph-name="brokenbar" unicode="&#xa6;" horiz-adv-x="252" 
d="M86 696h79v-271h-79v271zM86 0v269h79v-269h-79z" />
    <glyph glyph-name="section" unicode="&#xa7;" horiz-adv-x="543" 
d="M415 128q17 -18 27 -31.5t15 -25t6.5 -22.5t1.5 -23q0 -33 -15 -60t-41 -46t-63 -29.5t-80 -10.5q-95 0 -149.5 44.5t-59.5 124.5h96q6 -103 110 -103q45 0 73.5 22.5t28.5 58.5q0 22 -12 39t-31.5 30t-43.5 23.5t-49 20.5q-32 13 -65.5 28t-60.5 36t-44.5 50.5
t-17.5 71.5q0 45 23 79t71 54q-26 25 -36.5 47.5t-10.5 49.5q0 31 14.5 57t40 45t60.5 29.5t77 10.5q89 0 142.5 -45t55.5 -124h-89q-6 103 -104 103q-47 0 -73.5 -20.5t-26.5 -55.5q0 -18 6 -31.5t20.5 -26.5t39.5 -26t64 -29q48 -21 83.5 -39.5t58 -40t33.5 -48t11 -62.5
q0 -42 -21.5 -74t-64.5 -51zM367 163q25 20 35 38t10 43q0 24 -7 41t-20.5 30t-35 24.5t-49.5 24.5l-120 55q-23 -17 -35 -37t-12 -46q0 -35 23.5 -63t74.5 -51z" />
    <glyph glyph-name="dieresis" unicode="&#xa8;" horiz-adv-x="580" 
d="M343 726h90v-105h-90v105zM147 726h90v-105h-90v105z" />
    <glyph glyph-name="copyright" unicode="&#xa9;" horiz-adv-x="839" 
d="M607 298q-8 -75 -57.5 -118t-126.5 -43q-46 0 -82.5 16t-62 46t-39.5 72.5t-14 94.5q0 50 14 91.5t40.5 71t63.5 45.5t82 16q37 0 69 -11.5t56 -32t39 -49.5t18 -64h-74q-8 49 -35.5 75t-72.5 26q-29 0 -52.5 -12t-40.5 -34t-26.5 -53t-9.5 -69q0 -79 35 -125.5t92 -46.5
q45 0 73.5 27.5t36.5 76.5h74zM44 363q0 80 29.5 149t80.5 120t119 80t146 29t146.5 -29t119.5 -80t80.5 -120t29.5 -149t-29.5 -149t-80.5 -120t-119.5 -80t-146.5 -29t-146 29t-119 80t-80.5 120t-29.5 149zM741 363q0 64 -23.5 123.5t-65.5 105.5t-101.5 73t-131.5 27
t-131.5 -27t-101.5 -73t-65.5 -105.5t-23.5 -123.5q0 -65 23.5 -124.5t65.5 -105t101.5 -73t131.5 -27.5t131.5 27.5t101.5 73t65.5 105t23.5 124.5z" />
    <glyph glyph-name="ordfeminine" unicode="&#xaa;" horiz-adv-x="432" 
d="M175 324q-66 0 -100 29.5t-34 86.5q0 36 16.5 60t45.5 39t68.5 23t84.5 11l46 3v18q0 45 -23 68.5t-65 23.5q-40 0 -65 -16.5t-25 -59.5h-68q0 27 11.5 50.5t32 41t49.5 27t65 9.5q56 0 87.5 -16.5t46.5 -42t18 -56.5t3 -60v-110q0 -32 2.5 -60.5t8.5 -57.5h-70
q-2 8 -4 21t-3 24q-25 -29 -55.5 -42.5t-72.5 -13.5zM191 376q21 0 40.5 7t35.5 22.5t25.5 41t9.5 61.5v16l-34 -2q-31 -2 -60 -6.5t-51 -13.5t-35.5 -23.5t-13.5 -37.5q0 -33 23 -49t60 -16z" />
    <glyph glyph-name="guillemotleft" unicode="&#xab;" horiz-adv-x="451" 
d="M134 269l93 -199h-90l-103 199l103 203h90zM313 269l94 -199h-91l-102 199l102 203h91z" />
    <glyph glyph-name="logicalnot" unicode="&#xac;" 
d="M547 103h-78v202h-397v78h475v-280z" />
    <glyph glyph-name="uni00AD" unicode="&#xad;" horiz-adv-x="387" 
d="M326 325v-81h-265v81h265z" />
    <glyph glyph-name="registered" unicode="&#xae;" horiz-adv-x="839" 
d="M435 580q69 0 107.5 -31t38.5 -88q0 -40 -21.5 -67t-59.5 -40q29 -6 45.5 -28.5t24.5 -60.5l12 -63q4 -20 6.5 -30t9.5 -24h-75q-5 20 -9 40t-9 50q-4 27 -9.5 43.5t-15.5 26.5t-25 13.5t-39 3.5h-69v-177h-69v432h157zM419 378q45 0 68 20t23 56q0 70 -90 70h-73v-146
h72zM44 363q0 80 29.5 149t80.5 120t119 80t146 29t146.5 -29t119.5 -80t80.5 -120t29.5 -149t-29.5 -149t-80.5 -120t-119.5 -80t-146.5 -29t-146 29t-119 80t-80.5 120t-29.5 149zM741 363q0 64 -23.5 123.5t-65.5 105.5t-101.5 73t-131.5 27t-131.5 -27t-101.5 -73
t-65.5 -105.5t-23.5 -123.5q0 -65 23.5 -124.5t65.5 -105t101.5 -73t131.5 -27.5t131.5 27.5t101.5 73t65.5 105t23.5 124.5z" />
    <glyph glyph-name="macron" unicode="&#xaf;" horiz-adv-x="556" 
d="M146 703h264v-70h-264v70z" />
    <glyph glyph-name="degree" unicode="&#xb0;" horiz-adv-x="365" 
d="M328 550q0 -31 -11.5 -57.5t-31 -46t-46 -31t-56.5 -11.5q-32 0 -58.5 11.5t-46 31t-30.5 46t-11 55.5q0 31 11.5 57.5t31.5 46t46.5 31t56.5 11.5q31 0 57.5 -11.5t46 -31.5t30.5 -46t11 -55zM183 456q19 0 35.5 7.5t29 20t19.5 29.5t7 37q0 19 -7 35.5t-19.5 29t-29 20
t-35.5 7.5t-36 -7.5t-29.5 -20t-19.5 -29.5t-7 -36t7 -36t19.5 -29.5t29.5 -20t36 -7.5z" />
    <glyph glyph-name="plusminus" unicode="&#xb1;" 
d="M93 361h180v168h82v-168h181v-75h-181v-154h-82v154h-180v75zM93 75h443v-75h-443v75z" />
    <glyph glyph-name="twosuperior" unicode="&#xb2;" horiz-adv-x="342" 
d="M34 499q0 31 7 54.5t21.5 43t37 37t54.5 35.5q46 26 64 47.5t18 50.5q0 30 -17.5 47.5t-46.5 17.5q-34 0 -51.5 -23.5t-19.5 -66.5h-67q2 66 39.5 102.5t100.5 36.5q59 0 95 -32t36 -84q0 -22 -6.5 -40t-20 -33.5t-34 -30.5t-48.5 -32q-31 -19 -57.5 -40t-32.5 -57h201
v-54h-273v21z" />
    <glyph glyph-name="threesuperior" unicode="&#xb3;" horiz-adv-x="351" 
d="M100 605q0 -41 20 -65t55 -24t53.5 20.5t18.5 49.5q0 30 -20 48.5t-55 18.5h-25v50h20q37 0 56 17.5t19 48.5q0 29 -17 45.5t-49 16.5q-33 0 -51.5 -22t-19.5 -61h-68q3 63 40.5 98t101.5 35q59 0 95 -30.5t36 -78.5q0 -13 -4 -27t-11.5 -26.5t-20 -22.5t-28.5 -15v-3
q34 -11 51.5 -36t17.5 -60q0 -51 -38 -83t-105 -32q-64 0 -102.5 37t-38.5 101h69z" />
    <glyph glyph-name="acute" unicode="&#xb4;" horiz-adv-x="576" 
d="M335 726h104l-116 -126h-77z" />
    <glyph glyph-name="mu" unicode="&#xb5;" horiz-adv-x="628" 
d="M172 516v-275q0 -36 5.5 -68t20 -57t38.5 -39.5t62 -14.5q37 0 60 14t36.5 38.5t18.5 58t5 72.5v271h91v-400q0 -29 10.5 -40.5t37.5 -11.5q10 0 20 2t18 4v-69q-16 -5 -30.5 -7t-28.5 -2q-42 0 -70 14.5t-37 49.5l-2 8q-20 -35 -49 -54.5t-80 -19.5q-45 0 -77.5 19
t-47.5 49v-259h-92v717h91z" />
    <glyph glyph-name="paragraph" unicode="&#xb6;" horiz-adv-x="592" 
d="M413 -129v790h-110v-790h-71v401q-49 2 -87.5 20t-64.5 48.5t-40 70.5t-14 87q0 54 18.5 96.5t51 71.5t76.5 44.5t95 15.5h288v-65h-70v-790h-72z" />
    <glyph glyph-name="periodcentered" unicode="&#xb7;" horiz-adv-x="239" 
d="M177 406v-119h-115v119h115z" />
    <glyph glyph-name="cedilla" unicode="&#xb8;" horiz-adv-x="541" 
d="M200 -205q-11 0 -22 0.5t-22 4.5v53q12 -3 23 -3q32 0 45.5 11t13.5 29q0 16 -10 28.5t-34 12.5h-9t-9 -1v100h66v-61q34 -2 50 -28t16 -54q0 -36 -27 -64t-81 -28z" />
    <glyph glyph-name="onesuperior" unicode="&#xb9;" horiz-adv-x="236" 
d="M21 756v42q48 3 72.5 20t29.5 52h58v-392h-67v278h-93z" />
    <glyph glyph-name="ordmasculine" unicode="&#xba;" horiz-adv-x="456" 
d="M228 324q-87 0 -138 53t-51 154t51 154t138 53t138 -53t51 -154t-51 -154t-138 -53zM228 376q30 0 52 12t36 33t20.5 49t6.5 61t-6.5 61t-20.5 49t-36 33t-52 12t-52 -12t-36 -33t-20.5 -49t-6.5 -61t6.5 -61t20.5 -49t36 -33t52 -12z" />
    <glyph glyph-name="guillemotright" unicode="&#xbb;" horiz-adv-x="450" 
d="M416 269l-103 -199h-90l93 199l-93 203h90zM237 269l-102 -199h-91l94 199l-94 203h91z" />
    <glyph glyph-name="onequarter" unicode="&#xbc;" horiz-adv-x="714" 
d="M20 569v42q48 3 72.5 20t29.5 52h58v-392h-67v278h-93zM521 697l-369 -711h-64l368 711h65zM623 102v-102h-66v102h-179v54l144 236h101v-237h69v-53h-69zM557 155q0 44 0.5 85.5t1.5 92.5h-7q-11 -20 -23 -39t-24 -39l-62 -100h114z" />
    <glyph glyph-name="onehalf" unicode="&#xbd;" horiz-adv-x="720" 
d="M20 569v42q48 3 72.5 20t29.5 52h58v-392h-67v278h-93zM521 697l-369 -711h-64l368 711h65zM412 21q0 31 7 54.5t21.5 43t37 37t54.5 35.5q46 26 64 47.5t18 50.5q0 30 -17.5 47.5t-46.5 17.5q-34 0 -51.5 -23.5t-19.5 -66.5h-67q2 66 39.5 102.5t100.5 36.5q59 0 95 -32
t36 -84q0 -22 -6.5 -40t-20 -33.5t-34 -30.5t-48.5 -32q-31 -19 -57.5 -40t-32.5 -57h201v-54h-273v21z" />
    <glyph glyph-name="threequarters" unicode="&#xbe;" horiz-adv-x="829" 
d="M100 418q0 -41 20 -65t55 -24t53.5 20.5t18.5 49.5q0 30 -20 48.5t-55 18.5h-25v50h20q37 0 56 17.5t19 48.5q0 29 -17 45.5t-49 16.5q-33 0 -51.5 -22t-19.5 -61h-68q3 63 40.5 98t101.5 35q59 0 95 -30.5t36 -78.5q0 -13 -4 -27t-11.5 -26.5t-20 -22.5t-28.5 -15v-3
q34 -11 51.5 -36t17.5 -60q0 -51 -38 -83t-105 -32q-64 0 -102.5 37t-38.5 101h69zM636 697l-369 -711h-64l368 711h65zM738 102v-102h-66v102h-179v54l144 236h101v-237h69v-53h-69zM672 155q0 44 0.5 85.5t1.5 92.5h-7q-11 -20 -23 -39t-24 -39l-62 -100h114z" />
    <glyph glyph-name="questiondown" unicode="&#xbf;" horiz-adv-x="506" 
d="M325 428h-108v108h108v-108zM317 328q0 -39 -4.5 -66.5t-18 -52t-37.5 -49.5t-63 -59q-32 -27 -48.5 -56.5t-16.5 -60.5q0 -29 10 -50.5t26.5 -35.5t39 -21t46.5 -7q25 0 49.5 8.5t43.5 26.5t31 46.5t12 68.5h96q0 -56 -21 -98.5t-54.5 -70.5t-76 -42t-86.5 -14
q-41 0 -80 11.5t-70 35t-49.5 59t-18.5 82.5q0 30 9 54.5t23 45.5t32.5 39t37.5 36q19 17 36.5 35t31.5 38.5t22.5 44.5t8.5 53v17h89v-18z" />
    <glyph glyph-name="Agrave" unicode="&#xc0;" horiz-adv-x="696" 
d="M298 726h99l298 -726h-107l-84 211h-318l-79 -211h-104zM475 291l-69 187q-14 39 -29 77t-28 76h-4q-13 -37 -26.5 -75t-27.5 -76l-73 -189h257zM192 905h111l96 -114h-82z" />
    <glyph glyph-name="Aacute" unicode="&#xc1;" horiz-adv-x="696" 
d="M298 726h99l298 -726h-107l-84 211h-318l-79 -211h-104zM475 291l-69 187q-14 39 -29 77t-28 76h-4q-13 -37 -26.5 -75t-27.5 -76l-73 -189h257zM395 905h111l-126 -114h-81z" />
    <glyph glyph-name="Acircumflex" unicode="&#xc2;" horiz-adv-x="696" 
d="M298 726h99l298 -726h-107l-84 211h-318l-79 -211h-104zM475 291l-69 187q-14 39 -29 77t-28 76h-4q-13 -37 -26.5 -75t-27.5 -76l-73 -189h257zM292 905h114l95 -114h-88l-65 75l-66 -75h-86z" />
    <glyph glyph-name="Atilde" unicode="&#xc3;" horiz-adv-x="696" 
d="M298 726h99l298 -726h-107l-84 211h-318l-79 -211h-104zM475 291l-69 187q-14 39 -29 77t-28 76h-4q-13 -37 -26.5 -75t-27.5 -76l-73 -189h257zM193 796q6 48 28.5 77.5t63.5 29.5q15 0 32.5 -6.5t35.5 -14t35 -13.5t31 -6q15 0 25.5 8t15.5 30h54q-6 -48 -28.5 -77.5
t-63.5 -29.5q-15 0 -32 6t-35 13.5t-35.5 14t-31.5 6.5q-15 0 -25.5 -8t-15.5 -30h-54z" />
    <glyph glyph-name="Adieresis" unicode="&#xc4;" horiz-adv-x="696" 
d="M298 726h99l298 -726h-107l-84 211h-318l-79 -211h-104zM475 291l-69 187q-14 39 -29 77t-28 76h-4q-13 -37 -26.5 -75t-27.5 -76l-73 -189h257zM403 900h90v-105h-90v105zM205 900h90v-105h-90v105z" />
    <glyph glyph-name="Aring" unicode="&#xc5;" horiz-adv-x="696" 
d="M695 0h-107l-84 211h-318l-79 -211h-104l291 717q-16 9 -28 21q-14 15 -21.5 33.5t-7.5 38.5t7.5 39t21.5 33.5t34.5 23.5t47.5 9t47.5 -9t35 -23.5t21.5 -33.5t7 -39t-7 -38.5t-22 -33.5q-12 -12 -30 -21zM475 291l-69 187q-14 39 -29 77t-28 76h-4q-13 -37 -26.5 -75
t-27.5 -76l-73 -189h257zM348 751q32 0 45.5 18.5t13.5 40.5q0 23 -14 41t-45 18q-30 0 -44 -18t-14 -41q0 -22 14 -40.5t44 -18.5z" />
    <glyph glyph-name="AE" unicode="&#xc6;" horiz-adv-x="957" 
d="M373 726h509v-81h-346l32 -227h306v-81h-295l37 -256h311v-81h-397l-33 227h-275l-112 -227h-107zM486 308l-47 340h-10l-166 -340h223z" />
    <glyph glyph-name="Ccedilla" unicode="&#xc7;" horiz-adv-x="700" 
d="M344 -205q-11 0 -22 0.5t-22 4.5v53q12 -3 23 -3q32 0 45.5 11t13.5 29q0 16 -10 28.5t-34 12.5h-9q-4 0 -9 -1v59q-48 7 -87 25q-61 30 -102.5 81t-62.5 120t-21 148t21.5 148t63 120t102.5 80.5t139 29.5q63 0 114.5 -18.5t89 -52t60 -80t28.5 -101.5h-101
q-13 83 -62.5 128.5t-128.5 45.5q-51 0 -92 -21.5t-70.5 -61t-45.5 -95t-16 -122.5q0 -68 16.5 -123t46 -94.5t71 -61t92.5 -21.5q78 0 127.5 48t63.5 130h102q-9 -55 -33 -102t-61.5 -81t-87.5 -54q-46 -17 -100 -19v-16q34 -2 50 -28t16 -54q0 -36 -27 -64t-81 -28z" />
    <glyph glyph-name="Egrave" unicode="&#xc8;" horiz-adv-x="598" 
d="M87 726h452v-81h-354v-233h338v-82h-338v-249h371v-81h-469v726zM168 905h111l96 -114h-82z" />
    <glyph glyph-name="Eacute" unicode="&#xc9;" horiz-adv-x="598" 
d="M87 726h452v-81h-354v-233h338v-82h-338v-249h371v-81h-469v726zM371 905h111l-126 -114h-81z" />
    <glyph glyph-name="Ecircumflex" unicode="&#xca;" horiz-adv-x="598" 
d="M87 726h452v-81h-354v-233h338v-82h-338v-249h371v-81h-469v726zM268 905h114l95 -114h-88l-65 75l-66 -75h-86z" />
    <glyph glyph-name="Edieresis" unicode="&#xcb;" horiz-adv-x="598" 
d="M87 726h452v-81h-354v-233h338v-82h-338v-249h371v-81h-469v726zM379 900h90v-105h-90v105zM181 900h90v-105h-90v105z" />
    <glyph glyph-name="Igrave" unicode="&#xcc;" horiz-adv-x="272" 
d="M87 726h98v-726h-98v726zM-21 905h111l96 -114h-82z" />
    <glyph glyph-name="Iacute" unicode="&#xcd;" horiz-adv-x="272" 
d="M87 726h98v-726h-98v726zM182 905h111l-126 -114h-81z" />
    <glyph glyph-name="Icircumflex" unicode="&#xce;" horiz-adv-x="272" 
d="M87 726h98v-726h-98v726zM79 905h114l95 -114h-88l-65 75l-66 -75h-86z" />
    <glyph glyph-name="Idieresis" unicode="&#xcf;" horiz-adv-x="272" 
d="M87 726h98v-726h-98v726zM176 900h90v-105h-90v105zM6 900h90v-105h-90v105z" />
    <glyph glyph-name="Eth" unicode="&#xd0;" horiz-adv-x="740" 
d="M117 335h-97v77h97v314h210q72 0 127 -12t98 -41q69 -48 105 -129t36 -181t-39 -179.5t-108 -127.5q-43 -29 -95 -42.5t-124 -13.5h-210v335zM314 80q63 0 111.5 13.5t80.5 41.5q40 35 62 95.5t22 132.5q0 71 -20 133t-60 97q-31 27 -82 40t-114 13h-99v-234h127v-77
h-127v-255h99z" />
    <glyph glyph-name="Ntilde" unicode="&#xd1;" horiz-adv-x="749" 
d="M87 726h134q96 -167 160.5 -280.5t105 -186t60 -109t25.5 -48.5h5q-1 30 -2 67.5t-2 74.5t-1.5 69.5t-0.5 50.5v362h91v-726h-132q-95 167 -160.5 282.5t-106.5 189.5t-61.5 112t-26.5 49h-5q1 -30 2.5 -69.5t2.5 -78t1.5 -72t0.5 -51.5v-362h-90v726zM219 796
q6 48 28.5 77.5t63.5 29.5q15 0 32.5 -6.5t35.5 -14t35 -13.5t31 -6q15 0 25.5 8t15.5 30h54q-6 -48 -28.5 -77.5t-63.5 -29.5q-15 0 -32 6t-35 13.5t-35.5 14t-31.5 6.5q-15 0 -25.5 -8t-15.5 -30h-54z" />
    <glyph glyph-name="Ograve" unicode="&#xd2;" horiz-adv-x="763" 
d="M381 -15q-76 0 -138 27.5t-105.5 77.5t-67 119.5t-23.5 153.5t23.5 153.5t67 119.5t105.5 77.5t138 27.5t138 -27.5t105.5 -77.5t67.5 -119.5t24 -153.5q0 -85 -24 -155t-67.5 -119.5t-105.5 -76.5t-138 -27zM381 63q53 0 96 22.5t73.5 63t47 95t16.5 119.5
q0 64 -16.5 119t-47 95.5t-73.5 63t-96 22.5t-96 -22.5t-73 -63t-46.5 -95.5t-16.5 -119q0 -65 16.5 -119.5t46.5 -95t73 -63t96 -22.5zM225 905h111l96 -114h-82z" />
    <glyph glyph-name="Oacute" unicode="&#xd3;" horiz-adv-x="763" 
d="M381 -15q-76 0 -138 27.5t-105.5 77.5t-67 119.5t-23.5 153.5t23.5 153.5t67 119.5t105.5 77.5t138 27.5t138 -27.5t105.5 -77.5t67.5 -119.5t24 -153.5q0 -85 -24 -155t-67.5 -119.5t-105.5 -76.5t-138 -27zM381 63q53 0 96 22.5t73.5 63t47 95t16.5 119.5
q0 64 -16.5 119t-47 95.5t-73.5 63t-96 22.5t-96 -22.5t-73 -63t-46.5 -95.5t-16.5 -119q0 -65 16.5 -119.5t46.5 -95t73 -63t96 -22.5zM428 905h111l-126 -114h-81z" />
    <glyph glyph-name="Ocircumflex" unicode="&#xd4;" horiz-adv-x="763" 
d="M381 -15q-76 0 -138 27.5t-105.5 77.5t-67 119.5t-23.5 153.5t23.5 153.5t67 119.5t105.5 77.5t138 27.5t138 -27.5t105.5 -77.5t67.5 -119.5t24 -153.5q0 -85 -24 -155t-67.5 -119.5t-105.5 -76.5t-138 -27zM381 63q53 0 96 22.5t73.5 63t47 95t16.5 119.5
q0 64 -16.5 119t-47 95.5t-73.5 63t-96 22.5t-96 -22.5t-73 -63t-46.5 -95.5t-16.5 -119q0 -65 16.5 -119.5t46.5 -95t73 -63t96 -22.5zM325 905h114l95 -114h-88l-65 75l-66 -75h-86z" />
    <glyph glyph-name="Otilde" unicode="&#xd5;" horiz-adv-x="763" 
d="M381 -15q-76 0 -138 27.5t-105.5 77.5t-67 119.5t-23.5 153.5t23.5 153.5t67 119.5t105.5 77.5t138 27.5t138 -27.5t105.5 -77.5t67.5 -119.5t24 -153.5q0 -85 -24 -155t-67.5 -119.5t-105.5 -76.5t-138 -27zM381 63q53 0 96 22.5t73.5 63t47 95t16.5 119.5
q0 64 -16.5 119t-47 95.5t-73.5 63t-96 22.5t-96 -22.5t-73 -63t-46.5 -95.5t-16.5 -119q0 -65 16.5 -119.5t46.5 -95t73 -63t96 -22.5zM226 796q6 48 28.5 77.5t63.5 29.5q15 0 32.5 -6.5t35.5 -14t35 -13.5t31 -6q15 0 25.5 8t15.5 30h54q-6 -48 -28.5 -77.5t-63.5 -29.5
q-15 0 -32 6t-35 13.5t-35.5 14t-31.5 6.5q-15 0 -25.5 -8t-15.5 -30h-54z" />
    <glyph glyph-name="Odieresis" unicode="&#xd6;" horiz-adv-x="763" 
d="M381 -15q-76 0 -138 27.5t-105.5 77.5t-67 119.5t-23.5 153.5t23.5 153.5t67 119.5t105.5 77.5t138 27.5t138 -27.5t105.5 -77.5t67.5 -119.5t24 -153.5q0 -85 -24 -155t-67.5 -119.5t-105.5 -76.5t-138 -27zM381 63q53 0 96 22.5t73.5 63t47 95t16.5 119.5
q0 64 -16.5 119t-47 95.5t-73.5 63t-96 22.5t-96 -22.5t-73 -63t-46.5 -95.5t-16.5 -119q0 -65 16.5 -119.5t46.5 -95t73 -63t96 -22.5zM436 900h90v-105h-90v105zM238 900h90v-105h-90v105z" />
    <glyph glyph-name="multiply" unicode="&#xd7;" 
d="M114 125l143 143l-150 150l59 59l150 -149l143 143l55 -55l-143 -143l151 -151l-60 -59l-151 151l-143 -143z" />
    <glyph glyph-name="Oslash" unicode="&#xd8;" horiz-adv-x="763" 
d="M74 8l61 83q-42 51 -65 119t-23 152t23.5 153.5t67 119.5t105.5 77.5t138 27.5q56 0 103.5 -15t86.5 -43l50 68l59 -45l-54 -73q43 -51 66.5 -119t23.5 -151q0 -85 -24 -155t-67.5 -119.5t-105.5 -76.5t-138 -27q-110 0 -190 57l-57 -78zM381 62q53 0 96 22.5t73.5 63
t47 95t16.5 119.5q0 55 -12 103.5t-35 86.5l-323 -440q28 -24 62 -37t75 -13zM518 611q-28 24 -62 37.5t-75 13.5q-53 0 -96 -22.5t-73 -63t-46.5 -95.5t-16.5 -119q0 -112 46 -190z" />
    <glyph glyph-name="Ugrave" unicode="&#xd9;" horiz-adv-x="704" 
d="M351 -15q-90 0 -152 34t-91 99q-15 34 -21.5 76t-6.5 112v420h98v-418q0 -75 9 -117t32 -70t56.5 -43.5t75.5 -15.5t78 16.5t56 42.5q22 29 31.5 72.5t9.5 114.5v418h98v-420q0 -39 -2 -70t-7 -56.5t-13 -46t-20 -38.5q-32 -51 -91.5 -80.5t-139.5 -29.5zM196 905h111
l96 -114h-82z" />
    <glyph glyph-name="Uacute" unicode="&#xda;" horiz-adv-x="704" 
d="M351 -15q-90 0 -152 34t-91 99q-15 34 -21.5 76t-6.5 112v420h98v-418q0 -75 9 -117t32 -70t56.5 -43.5t75.5 -15.5t78 16.5t56 42.5q22 29 31.5 72.5t9.5 114.5v418h98v-420q0 -39 -2 -70t-7 -56.5t-13 -46t-20 -38.5q-32 -51 -91.5 -80.5t-139.5 -29.5zM399 905h111
l-126 -114h-81z" />
    <glyph glyph-name="Ucircumflex" unicode="&#xdb;" horiz-adv-x="704" 
d="M351 -15q-90 0 -152 34t-91 99q-15 34 -21.5 76t-6.5 112v420h98v-418q0 -75 9 -117t32 -70t56.5 -43.5t75.5 -15.5t78 16.5t56 42.5q22 29 31.5 72.5t9.5 114.5v418h98v-420q0 -39 -2 -70t-7 -56.5t-13 -46t-20 -38.5q-32 -51 -91.5 -80.5t-139.5 -29.5zM296 905h114
l95 -114h-88l-65 75l-66 -75h-86z" />
    <glyph glyph-name="Udieresis" unicode="&#xdc;" horiz-adv-x="704" 
d="M351 -15q-90 0 -152 34t-91 99q-15 34 -21.5 76t-6.5 112v420h98v-418q0 -75 9 -117t32 -70t56.5 -43.5t75.5 -15.5t78 16.5t56 42.5q22 29 31.5 72.5t9.5 114.5v418h98v-420q0 -39 -2 -70t-7 -56.5t-13 -46t-20 -38.5q-32 -51 -91.5 -80.5t-139.5 -29.5zM407 900h90
v-105h-90v105zM209 900h90v-105h-90v105z" />
    <glyph glyph-name="Yacute" unicode="&#xdd;" horiz-adv-x="617" 
d="M259 307l-251 419h114l189 -343l198 343h104l-256 -419v-307h-98v307zM357 905h111l-126 -114h-81z" />
    <glyph glyph-name="Thorn" unicode="&#xde;" horiz-adv-x="636" 
d="M87 726h98v-129h119q47 0 96.5 -4t97.5 -28q48 -25 72.5 -75t24.5 -112q0 -66 -26.5 -112.5t-71.5 -73.5q-31 -18 -81 -26.5t-118 -8.5h-113v-157h-98v726zM308 237q38 0 69 3.5t48 11.5q35 17 52 51t17 75t-17 74.5t-52 50.5q-17 9 -48 11.5t-69 2.5h-123v-280h123z" />
    <glyph glyph-name="germandbls" unicode="&#xdf;" horiz-adv-x="551" 
d="M295 -6q-27 0 -55 6v72q11 -4 25.5 -5t25.5 -1q57 0 93 39.5t36 108.5q0 72 -32.5 110.5t-109.5 38.5h-19t-19 -1v74q7 -1 15.5 -1h15.5q52 0 88 31t36 91q0 21 -6.5 40.5t-20 35.5t-33.5 25.5t-47 9.5q-38 0 -62 -15t-37.5 -39t-18 -54.5t-4.5 -61.5v-498h-91v463
q0 145 51.5 209.5t161.5 64.5q46 0 82.5 -13.5t61.5 -37.5t38 -56t13 -68q0 -48 -29 -90.5t-92 -64.5v-4q38 -6 66.5 -23.5t47 -42.5t28 -55.5t9.5 -62.5q0 -45 -14.5 -85.5t-42 -71.5t-68.5 -49.5t-93 -18.5z" />
    <glyph glyph-name="agrave" unicode="&#xe0;" horiz-adv-x="540" 
d="M218 -11q-86 0 -132.5 43.5t-46.5 112.5q0 42 16.5 70.5t44 47t63.5 29t74 16t76 8.5t70 7v18q0 58 -27 89.5t-87 31.5q-54 0 -87 -26.5t-33 -78.5h-91q0 40 15.5 72t43.5 54.5t66.5 35t85.5 12.5q73 0 114 -22t61 -56t24.5 -75.5t4.5 -80.5v-141q0 -45 2.5 -83t10.5 -73
h-86q-2 11 -4 27.5t-3 42.5q-33 -44 -76 -62.5t-99 -18.5zM239 56q28 0 54 7t46 25.5t32 51t12 83.5v29q-29 -4 -72 -6.5t-83 -12.5t-68 -30.5t-28 -59.5q0 -38 28.5 -62.5t78.5 -24.5zM124 726h105l88 -126h-77z" />
    <glyph glyph-name="aacute" unicode="&#xe1;" horiz-adv-x="540" 
d="M218 -11q-86 0 -132.5 43.5t-46.5 112.5q0 42 16.5 70.5t44 47t63.5 29t74 16t76 8.5t70 7v18q0 58 -27 89.5t-87 31.5q-54 0 -87 -26.5t-33 -78.5h-91q0 40 15.5 72t43.5 54.5t66.5 35t85.5 12.5q73 0 114 -22t61 -56t24.5 -75.5t4.5 -80.5v-141q0 -45 2.5 -83t10.5 -73
h-86q-2 11 -4 27.5t-3 42.5q-33 -44 -76 -62.5t-99 -18.5zM239 56q28 0 54 7t46 25.5t32 51t12 83.5v29q-29 -4 -72 -6.5t-83 -12.5t-68 -30.5t-28 -59.5q0 -38 28.5 -62.5t78.5 -24.5zM314 726h104l-116 -126h-77z" />
    <glyph glyph-name="acircumflex" unicode="&#xe2;" horiz-adv-x="540" 
d="M218 -11q-86 0 -132.5 43.5t-46.5 112.5q0 42 16.5 70.5t44 47t63.5 29t74 16t76 8.5t70 7v18q0 58 -27 89.5t-87 31.5q-54 0 -87 -26.5t-33 -78.5h-91q0 40 15.5 72t43.5 54.5t66.5 35t85.5 12.5q73 0 114 -22t61 -56t24.5 -75.5t4.5 -80.5v-141q0 -45 2.5 -83t10.5 -73
h-86q-2 11 -4 27.5t-3 42.5q-33 -44 -76 -62.5t-99 -18.5zM239 56q28 0 54 7t46 25.5t32 51t12 83.5v29q-29 -4 -72 -6.5t-83 -12.5t-68 -30.5t-28 -59.5q0 -38 28.5 -62.5t78.5 -24.5zM212 726h122l93 -126h-89l-66 88l-67 -88h-86z" />
    <glyph glyph-name="atilde" unicode="&#xe3;" horiz-adv-x="540" 
d="M218 -11q-86 0 -132.5 43.5t-46.5 112.5q0 42 16.5 70.5t44 47t63.5 29t74 16t76 8.5t70 7v18q0 58 -27 89.5t-87 31.5q-54 0 -87 -26.5t-33 -78.5h-91q0 40 15.5 72t43.5 54.5t66.5 35t85.5 12.5q73 0 114 -22t61 -56t24.5 -75.5t4.5 -80.5v-141q0 -45 2.5 -83t10.5 -73
h-86q-2 11 -4 27.5t-3 42.5q-33 -44 -76 -62.5t-99 -18.5zM239 56q28 0 54 7t46 25.5t32 51t12 83.5v29q-29 -4 -72 -6.5t-83 -12.5t-68 -30.5t-28 -59.5q0 -38 28.5 -62.5t78.5 -24.5zM107 612q6 48 28.5 77.5t63.5 29.5q15 0 32.5 -6.5t35.5 -14t35 -13.5t31 -6
q15 0 25.5 8t15.5 30h54q-6 -48 -28.5 -77.5t-63.5 -29.5q-15 0 -32 6t-35 13.5t-35.5 14t-31.5 6.5q-15 0 -25.5 -8t-15.5 -30h-54z" />
    <glyph glyph-name="adieresis" unicode="&#xe4;" horiz-adv-x="540" 
d="M218 -11q-86 0 -132.5 43.5t-46.5 112.5q0 42 16.5 70.5t44 47t63.5 29t74 16t76 8.5t70 7v18q0 58 -27 89.5t-87 31.5q-54 0 -87 -26.5t-33 -78.5h-91q0 40 15.5 72t43.5 54.5t66.5 35t85.5 12.5q73 0 114 -22t61 -56t24.5 -75.5t4.5 -80.5v-141q0 -45 2.5 -83t10.5 -73
h-86q-2 11 -4 27.5t-3 42.5q-33 -44 -76 -62.5t-99 -18.5zM239 56q28 0 54 7t46 25.5t32 51t12 83.5v29q-29 -4 -72 -6.5t-83 -12.5t-68 -30.5t-28 -59.5q0 -38 28.5 -62.5t78.5 -24.5zM325 726h90v-105h-90v105zM129 726h90v-105h-90v105z" />
    <glyph glyph-name="aring" unicode="&#xe5;" horiz-adv-x="540" 
d="M218 -11q-86 0 -132.5 43.5t-46.5 112.5q0 42 16.5 70.5t44 47t63.5 29t74 16t76 8.5t70 7v18q0 58 -27 89.5t-87 31.5q-54 0 -87 -26.5t-33 -78.5h-91q0 40 15.5 72t43.5 54.5t66.5 35t85.5 12.5q73 0 114 -22t61 -56t24.5 -75.5t4.5 -80.5v-141q0 -45 2.5 -83t10.5 -73
h-86q-2 11 -4 27.5t-3 42.5q-33 -44 -76 -62.5t-99 -18.5zM239 56q28 0 54 7t46 25.5t32 51t12 83.5v29q-29 -4 -72 -6.5t-83 -12.5t-68 -30.5t-28 -59.5q0 -38 28.5 -62.5t78.5 -24.5zM270 563q-26 0 -46 9t-34 23.5t-21.5 32.5t-7.5 37t7.5 37.5t21.5 33t34 23.5t46 9
t46.5 -9t34.5 -23.5t21 -33t7 -37.5t-7 -37t-21 -32.5t-34.5 -23.5t-46.5 -9zM270 607q32 0 45 18.5t13 39.5q0 22 -14 40t-44 18q-29 0 -43 -18t-14 -40q0 -21 14 -39.5t43 -18.5z" />
    <glyph glyph-name="ae" unicode="&#xe6;" horiz-adv-x="878" 
d="M224 -15q-40 0 -74 9.5t-58.5 29t-38 49t-13.5 68.5q0 46 19.5 78.5t56.5 53t89 30t117 9.5h60v2q-5 72 -33 110t-85 38q-52 0 -81.5 -24.5t-36.5 -78.5h-89q2 42 18.5 74t44.5 54t65 33t79 11q67 0 109 -25.5t63 -68.5q35 47 78 70.5t103 23.5q109 0 164.5 -74.5
t55.5 -208.5v-16h-363q0 -32 7 -63t24 -56.5t44.5 -41t68.5 -15.5q52 0 80 24t44 71h90q-9 -46 -30 -78t-49.5 -51.5t-63 -28t-69.5 -8.5q-64 0 -115.5 26t-77.5 77q-31 -51 -84 -77t-119 -26zM234 53q33 0 60.5 9t47 30t30.5 56.5t11 88.5v4h-59q-56 0 -92.5 -8t-58 -21.5
t-30 -31.5t-8.5 -37q0 -38 24.5 -64t74.5 -26zM747 306q-5 68 -39 110.5t-94 42.5q-29 0 -53.5 -11.5t-42.5 -31.5t-29 -48.5t-13 -61.5h271z" />
    <glyph glyph-name="ccedilla" unicode="&#xe7;" horiz-adv-x="531" 
d="M254 -205q-11 0 -22 0.5t-22 4.5v53q12 -3 23 -3q32 0 45.5 11t13.5 29q0 16 -10 28.5t-34 12.5h-9q-4 0 -9 -1v59q-28 5 -53 15q-44 20 -75 56t-46.5 86.5t-15.5 111.5q0 58 16 108t47 87t76.5 57.5t103.5 20.5q94 0 149.5 -48t67.5 -136h-96q-17 110 -122 110
q-36 0 -63 -14.5t-45.5 -40.5t-28 -62.5t-9.5 -81.5q0 -90 38 -145t108 -55q51 0 84 28t45 87h90q-32 -180 -205 -187v-17q34 -2 50 -28t16 -54q0 -36 -27 -64t-81 -28z" />
    <glyph glyph-name="egrave" unicode="&#xe8;" horiz-adv-x="562" 
d="M285 -15q-119 0 -182 72.5t-63 200.5q0 58 17 108t49.5 87t78 57.5t102.5 20.5q121 0 177.5 -79t56.5 -223h-385q2 -38 14 -69.5t32.5 -54t47 -35t58.5 -12.5q50 0 85.5 23t49.5 73h97q-17 -84 -81.5 -126.5t-153.5 -42.5zM423 304q-8 78 -46 115.5t-94 37.5
q-59 0 -97 -37.5t-48 -115.5h285zM139 726h105l88 -126h-77z" />
    <glyph glyph-name="eacute" unicode="&#xe9;" horiz-adv-x="562" 
d="M285 -15q-119 0 -182 72.5t-63 200.5q0 58 17 108t49.5 87t78 57.5t102.5 20.5q121 0 177.5 -79t56.5 -223h-385q2 -38 14 -69.5t32.5 -54t47 -35t58.5 -12.5q50 0 85.5 23t49.5 73h97q-17 -84 -81.5 -126.5t-153.5 -42.5zM423 304q-8 78 -46 115.5t-94 37.5
q-59 0 -97 -37.5t-48 -115.5h285zM329 726h104l-116 -126h-77z" />
    <glyph glyph-name="ecircumflex" unicode="&#xea;" horiz-adv-x="562" 
d="M285 -15q-119 0 -182 72.5t-63 200.5q0 58 17 108t49.5 87t78 57.5t102.5 20.5q121 0 177.5 -79t56.5 -223h-385q2 -38 14 -69.5t32.5 -54t47 -35t58.5 -12.5q50 0 85.5 23t49.5 73h97q-17 -84 -81.5 -126.5t-153.5 -42.5zM423 304q-8 78 -46 115.5t-94 37.5
q-59 0 -97 -37.5t-48 -115.5h285zM227 726h122l93 -126h-89l-66 88l-67 -88h-86z" />
    <glyph glyph-name="edieresis" unicode="&#xeb;" horiz-adv-x="562" 
d="M285 -15q-119 0 -182 72.5t-63 200.5q0 58 17 108t49.5 87t78 57.5t102.5 20.5q121 0 177.5 -79t56.5 -223h-385q2 -38 14 -69.5t32.5 -54t47 -35t58.5 -12.5q50 0 85.5 23t49.5 73h97q-17 -84 -81.5 -126.5t-153.5 -42.5zM423 304q-8 78 -46 115.5t-94 37.5
q-59 0 -97 -37.5t-48 -115.5h285zM340 726h90v-105h-90v105zM144 726h90v-105h-90v105z" />
    <glyph glyph-name="igrave" unicode="&#xec;" horiz-adv-x="242" 
d="M75 516h92v-516h-92v516zM1 726h98l74 -126h-75z" />
    <glyph glyph-name="iacute" unicode="&#xed;" horiz-adv-x="242" 
d="M75 516h92v-516h-92v516zM143 726h98l-97 -126h-75z" />
    <glyph glyph-name="icircumflex" unicode="&#xee;" horiz-adv-x="242" 
d="M75 516h92v-516h-92v516zM67 726h109l82 -126h-78l-59 85l-60 -85h-77z" />
    <glyph glyph-name="idieresis" unicode="&#xef;" horiz-adv-x="242" 
d="M75 516h92v-516h-92v516zM156 726h89v-105h-89v105zM-3 726h89v-105h-89v105z" />
    <glyph glyph-name="eth" unicode="&#xf0;" horiz-adv-x="566" 
d="M280 -15q-58 0 -102.5 20.5t-75 56.5t-46.5 84t-16 102q0 58 18.5 105.5t50 81t71.5 52t84 18.5q37 0 62.5 -9t53.5 -28l4 3q-54 72 -116 131l-102 -61l-34 50l89 53q-47 41 -100 82h114q14 -11 27 -21t25 -21l89 53l35 -50l-77 -46q89 -87 140 -178.5t51 -198.5
q0 -57 -16 -107.5t-47 -89t-76.5 -60.5t-105.5 -22zM279 58q39 0 67.5 16.5t47.5 43.5t28 61.5t9 70.5t-9 69.5t-27.5 59t-46.5 41t-65 15.5q-38 0 -66 -16t-46 -43t-27 -61.5t-9 -71.5q0 -36 8.5 -69t26 -59t44.5 -41.5t65 -15.5z" />
    <glyph glyph-name="ntilde" unicode="&#xf1;" horiz-adv-x="575" 
d="M75 516h85v-66q18 23 38.5 38t42 23.5t42.5 12t41 3.5q67 0 107 -24t57 -68q11 -26 14.5 -57.5t3.5 -68.5v-309h-92v291q0 30 -3.5 59t-14.5 52.5t-33 37.5t-59 14q-65 0 -101 -45t-36 -139v-270h-92v516zM132 612q6 48 28.5 77.5t63.5 29.5q15 0 32.5 -6.5t35.5 -14
t35 -13.5t31 -6q15 0 25.5 8t15.5 30h54q-6 -48 -28.5 -77.5t-63.5 -29.5q-15 0 -32 6t-35 13.5t-35.5 14t-31.5 6.5q-15 0 -25.5 -8t-15.5 -30h-54z" />
    <glyph glyph-name="ograve" unicode="&#xf2;" horiz-adv-x="580" 
d="M288 -15q-57 0 -103 20t-78.5 56t-49.5 86.5t-17 110.5t17.5 110t49.5 86.5t78.5 56.5t103.5 20q58 0 104.5 -20t79 -56.5t50 -86.5t17.5 -110t-17.5 -110.5t-50 -86.5t-79.5 -56t-105 -20zM288 58q36 0 65.5 14.5t49.5 40.5t31 62.5t11 81.5t-11 81.5t-31.5 63t-49 41
t-64.5 14.5q-35 0 -63.5 -14t-48.5 -40t-31 -62.5t-11 -81.5t10.5 -82t30.5 -63.5t48.5 -41t63.5 -14.5zM142 726h105l88 -126h-77z" />
    <glyph glyph-name="oacute" unicode="&#xf3;" horiz-adv-x="580" 
d="M288 -15q-57 0 -103 20t-78.5 56t-49.5 86.5t-17 110.5t17.5 110t49.5 86.5t78.5 56.5t103.5 20q58 0 104.5 -20t79 -56.5t50 -86.5t17.5 -110t-17.5 -110.5t-50 -86.5t-79.5 -56t-105 -20zM288 58q36 0 65.5 14.5t49.5 40.5t31 62.5t11 81.5t-11 81.5t-31.5 63t-49 41
t-64.5 14.5q-35 0 -63.5 -14t-48.5 -40t-31 -62.5t-11 -81.5t10.5 -82t30.5 -63.5t48.5 -41t63.5 -14.5zM332 726h104l-116 -126h-77z" />
    <glyph glyph-name="ocircumflex" unicode="&#xf4;" horiz-adv-x="580" 
d="M288 -15q-57 0 -103 20t-78.5 56t-49.5 86.5t-17 110.5t17.5 110t49.5 86.5t78.5 56.5t103.5 20q58 0 104.5 -20t79 -56.5t50 -86.5t17.5 -110t-17.5 -110.5t-50 -86.5t-79.5 -56t-105 -20zM288 58q36 0 65.5 14.5t49.5 40.5t31 62.5t11 81.5t-11 81.5t-31.5 63t-49 41
t-64.5 14.5q-35 0 -63.5 -14t-48.5 -40t-31 -62.5t-11 -81.5t10.5 -82t30.5 -63.5t48.5 -41t63.5 -14.5zM230 726h122l93 -126h-89l-66 88l-67 -88h-86z" />
    <glyph glyph-name="otilde" unicode="&#xf5;" horiz-adv-x="580" 
d="M288 -15q-57 0 -103 20t-78.5 56t-49.5 86.5t-17 110.5t17.5 110t49.5 86.5t78.5 56.5t103.5 20q58 0 104.5 -20t79 -56.5t50 -86.5t17.5 -110t-17.5 -110.5t-50 -86.5t-79.5 -56t-105 -20zM288 58q36 0 65.5 14.5t49.5 40.5t31 62.5t11 81.5t-11 81.5t-31.5 63t-49 41
t-64.5 14.5q-35 0 -63.5 -14t-48.5 -40t-31 -62.5t-11 -81.5t10.5 -82t30.5 -63.5t48.5 -41t63.5 -14.5zM125 612q6 48 28.5 77.5t63.5 29.5q15 0 32.5 -6.5t35.5 -14t35 -13.5t31 -6q15 0 25.5 8t15.5 30h54q-6 -48 -28.5 -77.5t-63.5 -29.5q-15 0 -32 6t-35 13.5t-35.5 14
t-31.5 6.5q-15 0 -25.5 -8t-15.5 -30h-54z" />
    <glyph glyph-name="odieresis" unicode="&#xf6;" horiz-adv-x="580" 
d="M288 -15q-57 0 -103 20t-78.5 56t-49.5 86.5t-17 110.5t17.5 110t49.5 86.5t78.5 56.5t103.5 20q58 0 104.5 -20t79 -56.5t50 -86.5t17.5 -110t-17.5 -110.5t-50 -86.5t-79.5 -56t-105 -20zM288 58q36 0 65.5 14.5t49.5 40.5t31 62.5t11 81.5t-11 81.5t-31.5 63t-49 41
t-64.5 14.5q-35 0 -63.5 -14t-48.5 -40t-31 -62.5t-11 -81.5t10.5 -82t30.5 -63.5t48.5 -41t63.5 -14.5zM343 726h90v-105h-90v105zM147 726h90v-105h-90v105z" />
    <glyph glyph-name="divide" unicode="&#xf7;" 
d="M265 156h99v-103h-99v103zM364 386h-99v103h99v-103zM70 309h489v-77h-489v77z" />
    <glyph glyph-name="oslash" unicode="&#xf8;" horiz-adv-x="588" 
d="M53 -11l55 74q-31 36 -47.5 85.5t-16.5 109.5t17.5 110t49.5 86.5t78.5 56.5t103.5 20q40 0 74 -10t63 -28l52 69l54 -41l-55 -73q30 -36 46.5 -84.5t16.5 -105.5q0 -60 -17.5 -110.5t-50 -86.5t-79.5 -56t-105 -20q-38 0 -71 9t-60 25l-54 -72zM292 58q36 0 65.5 14.5
t49.5 40.5t31 62.5t11 81.5q0 65 -25 115l-215 -288q35 -26 83 -26zM381 427q-38 30 -88 30q-35 0 -63.5 -14t-48.5 -40t-31 -62.5t-11 -81.5q0 -69 25 -121z" />
    <glyph glyph-name="ugrave" unicode="&#xf9;" horiz-adv-x="572" 
d="M249 -11q-68 0 -105.5 25.5t-57.5 66.5q-13 26 -15 62t-2 73v300h91v-291q0 -30 3 -59t14.5 -52t33 -37.5t58.5 -14.5q65 0 101 44.5t36 138.5v271h91v-516h-85v66q-17 -23 -37.5 -38t-42 -23.5t-43 -12t-40.5 -3.5zM137 726h105l88 -126h-77z" />
    <glyph glyph-name="uacute" unicode="&#xfa;" horiz-adv-x="572" 
d="M249 -11q-68 0 -105.5 25.5t-57.5 66.5q-13 26 -15 62t-2 73v300h91v-291q0 -30 3 -59t14.5 -52t33 -37.5t58.5 -14.5q65 0 101 44.5t36 138.5v271h91v-516h-85v66q-17 -23 -37.5 -38t-42 -23.5t-43 -12t-40.5 -3.5zM327 726h104l-116 -126h-77z" />
    <glyph glyph-name="ucircumflex" unicode="&#xfb;" horiz-adv-x="572" 
d="M249 -11q-68 0 -105.5 25.5t-57.5 66.5q-13 26 -15 62t-2 73v300h91v-291q0 -30 3 -59t14.5 -52t33 -37.5t58.5 -14.5q65 0 101 44.5t36 138.5v271h91v-516h-85v66q-17 -23 -37.5 -38t-42 -23.5t-43 -12t-40.5 -3.5zM225 726h122l93 -126h-89l-66 88l-67 -88h-86z" />
    <glyph glyph-name="udieresis" unicode="&#xfc;" horiz-adv-x="572" 
d="M249 -11q-68 0 -105.5 25.5t-57.5 66.5q-13 26 -15 62t-2 73v300h91v-291q0 -30 3 -59t14.5 -52t33 -37.5t58.5 -14.5q65 0 101 44.5t36 138.5v271h91v-516h-85v66q-17 -23 -37.5 -38t-42 -23.5t-43 -12t-40.5 -3.5zM338 726h90v-105h-90v105zM142 726h90v-105h-90v105z
" />
    <glyph glyph-name="yacute" unicode="&#xfd;" horiz-adv-x="511" 
d="M107 -205q-14 0 -28.5 1t-31.5 4v77q24 -6 44 -6q26 0 44.5 9t32 24.5t23 37t16.5 47.5l-196 527h102l90 -258q16 -45 27.5 -88.5t25.5 -88.5h5q12 43 26 88.5t29 88.5l91 258h93l-192 -516q-18 -47 -36.5 -85t-41.5 -64.5t-53 -41t-70 -14.5zM298 726h104l-116 -126h-77
z" />
    <glyph glyph-name="thorn" unicode="&#xfe;" horiz-adv-x="585" 
d="M75 726h92v-276q26 39 65 58t96 19q52 0 92 -20t67.5 -55.5t42 -85t14.5 -108.5q0 -63 -16.5 -113t-46 -84.5t-69.5 -53t-88 -18.5q-53 0 -93 16t-64 53v-259h-92v927zM310 62q64 0 102 51.5t38 144.5t-38 144.5t-102 51.5q-33 0 -59.5 -14.5t-45.5 -40t-29.5 -62
t-10.5 -79.5q0 -44 10.5 -80t29.5 -62t45.5 -40t59.5 -14z" />
    <glyph glyph-name="ydieresis" unicode="&#xff;" horiz-adv-x="511" 
d="M107 -205q-14 0 -28.5 1t-31.5 4v77q24 -6 44 -6q26 0 44.5 9t32 24.5t23 37t16.5 47.5l-196 527h102l90 -258q16 -45 27.5 -88.5t25.5 -88.5h5q12 43 26 88.5t29 88.5l91 258h93l-192 -516q-18 -47 -36.5 -85t-41.5 -64.5t-53 -41t-70 -14.5zM309 726h90v-105h-90v105z
M113 726h90v-105h-90v105z" />
    <glyph glyph-name="Amacron" unicode="&#x100;" horiz-adv-x="696" 
d="M298 726h99l298 -726h-107l-84 211h-318l-79 -211h-104zM475 291l-69 187q-14 39 -29 77t-28 76h-4q-13 -37 -26.5 -75t-27.5 -76l-73 -189h257zM216 879h266v-70h-266v70z" />
    <glyph glyph-name="amacron" unicode="&#x101;" horiz-adv-x="540" 
d="M218 -11q-86 0 -132.5 43.5t-46.5 112.5q0 42 16.5 70.5t44 47t63.5 29t74 16t76 8.5t70 7v18q0 58 -27 89.5t-87 31.5q-54 0 -87 -26.5t-33 -78.5h-91q0 40 15.5 72t43.5 54.5t66.5 35t85.5 12.5q73 0 114 -22t61 -56t24.5 -75.5t4.5 -80.5v-141q0 -45 2.5 -83t10.5 -73
h-86q-2 11 -4 27.5t-3 42.5q-33 -44 -76 -62.5t-99 -18.5zM239 56q28 0 54 7t46 25.5t32 51t12 83.5v29q-29 -4 -72 -6.5t-83 -12.5t-68 -30.5t-28 -59.5q0 -38 28.5 -62.5t78.5 -24.5zM140 703h264v-70h-264v70z" />
    <glyph glyph-name="Abreve" unicode="&#x102;" horiz-adv-x="696" 
d="M298 726h99l298 -726h-107l-84 211h-318l-79 -211h-104zM475 291l-69 187q-14 39 -29 77t-28 76h-4q-13 -37 -26.5 -75t-27.5 -76l-73 -189h257zM350 784q-34 0 -60.5 9.5t-45 26t-29 38t-11.5 46.5h82q3 -26 17.5 -43t46.5 -17t46.5 17t17.5 43h82q-2 -25 -12 -46.5
t-28.5 -38t-45 -26t-60.5 -9.5z" />
    <glyph glyph-name="abreve" unicode="&#x103;" horiz-adv-x="540" 
d="M218 -11q-86 0 -132.5 43.5t-46.5 112.5q0 42 16.5 70.5t44 47t63.5 29t74 16t76 8.5t70 7v18q0 58 -27 89.5t-87 31.5q-54 0 -87 -26.5t-33 -78.5h-91q0 40 15.5 72t43.5 54.5t66.5 35t85.5 12.5q73 0 114 -22t61 -56t24.5 -75.5t4.5 -80.5v-141q0 -45 2.5 -83t10.5 -73
h-86q-2 11 -4 27.5t-3 42.5q-33 -44 -76 -62.5t-99 -18.5zM239 56q28 0 54 7t46 25.5t32 51t12 83.5v29q-29 -4 -72 -6.5t-83 -12.5t-68 -30.5t-28 -59.5q0 -38 28.5 -62.5t78.5 -24.5zM273 597q-30 0 -56.5 8t-45.5 23.5t-30 40t-11 57.5h76q0 -39 19 -56t48 -17t47.5 17
t18.5 56h76q0 -33 -11 -57.5t-30 -40.5t-45 -23.5t-56 -7.5z" />
    <glyph glyph-name="Aogonek" unicode="&#x104;" horiz-adv-x="696" 
d="M646 -205q-46 0 -77.5 27t-31.5 69q0 55 63 109h-12l-84 211h-318l-79 -211h-104l295 726h99l298 -726q-41 -22 -62.5 -46.5t-21.5 -49.5q0 -19 12.5 -31t37.5 -12q12 0 20 2t14 4v-65q-11 -5 -24.5 -6t-24.5 -1zM475 291l-69 187q-14 39 -29 77t-28 76h-4
q-13 -37 -26.5 -75t-27.5 -76l-73 -189h257z" />
    <glyph glyph-name="aogonek" unicode="&#x105;" horiz-adv-x="540" 
d="M437 -205q-46 0 -77.5 27t-31.5 69q0 58 70 115q-1 9 -2 21q-2 17 -3 43q-33 -44 -76 -62.5t-99 -18.5q-86 0 -132.5 43.5t-46.5 112.5q0 42 16.5 70.5t44 47t63.5 29t74 16t76 8.5t70 7v18q0 58 -27 89.5t-87 31.5q-54 0 -87 -26.5t-33 -78.5h-91q0 40 15.5 72
t43.5 54.5t66.5 35t85.5 12.5q73 0 114 -22t61 -56t24.5 -75.5t4.5 -80.5v-141q0 -45 2.5 -83t10.5 -73q-41 -22 -62.5 -46.5t-21.5 -49.5q0 -19 12.5 -31t37.5 -12q12 0 20 2t14 4v-65q-11 -5 -24.5 -6t-24.5 -1zM239 56q28 0 54 7t46 25.5t32 51t12 83.5v29
q-29 -4 -72 -6.5t-83 -12.5t-68 -30.5t-28 -59.5q0 -38 28.5 -62.5t78.5 -24.5z" />
    <glyph glyph-name="Cacute" unicode="&#x106;" horiz-adv-x="700" 
d="M375 -15q-81 0 -142 29.5t-102.5 80.5t-62.5 120t-21 148t21.5 148t63 120t102.5 80.5t139 29.5q63 0 114.5 -18.5t89 -52t60 -80t28.5 -101.5h-101q-13 83 -62.5 128.5t-128.5 45.5q-51 0 -92 -21.5t-70.5 -61t-45.5 -95t-16 -122.5q0 -68 16.5 -123t46 -94.5t71 -61
t92.5 -21.5q78 0 127.5 48t63.5 130h102q-9 -55 -33 -102t-61.5 -81t-87.5 -53.5t-111 -19.5zM421 905h111l-126 -114h-81z" />
    <glyph glyph-name="cacute" unicode="&#x107;" horiz-adv-x="531" 
d="M281 -15q-59 0 -103.5 19.5t-75.5 55.5t-46.5 86.5t-15.5 111.5q0 58 16 108t47 87t76.5 57.5t103.5 20.5q94 0 149.5 -48t67.5 -136h-96q-17 110 -122 110q-36 0 -63 -14.5t-45.5 -40.5t-28 -62.5t-9.5 -81.5q0 -90 38 -145t108 -55q51 0 84 28t45 87h90
q-33 -188 -220 -188zM321 726h104l-116 -126h-77z" />
    <glyph glyph-name="Ccircumflex" unicode="&#x108;" horiz-adv-x="700" 
d="M375 -15q-81 0 -142 29.5t-102.5 80.5t-62.5 120t-21 148t21.5 148t63 120t102.5 80.5t139 29.5q63 0 114.5 -18.5t89 -52t60 -80t28.5 -101.5h-101q-13 83 -62.5 128.5t-128.5 45.5q-51 0 -92 -21.5t-70.5 -61t-45.5 -95t-16 -122.5q0 -68 16.5 -123t46 -94.5t71 -61
t92.5 -21.5q78 0 127.5 48t63.5 130h102q-9 -55 -33 -102t-61.5 -81t-87.5 -53.5t-111 -19.5zM318 905h114l95 -114h-88l-65 75l-66 -75h-86z" />
    <glyph glyph-name="ccircumflex" unicode="&#x109;" horiz-adv-x="531" 
d="M281 -15q-59 0 -103.5 19.5t-75.5 55.5t-46.5 86.5t-15.5 111.5q0 58 16 108t47 87t76.5 57.5t103.5 20.5q94 0 149.5 -48t67.5 -136h-96q-17 110 -122 110q-36 0 -63 -14.5t-45.5 -40.5t-28 -62.5t-9.5 -81.5q0 -90 38 -145t108 -55q51 0 84 28t45 87h90
q-33 -188 -220 -188zM219 726h122l93 -126h-89l-66 88l-67 -88h-86z" />
    <glyph glyph-name="Cdotaccent" unicode="&#x10a;" horiz-adv-x="700" 
d="M375 -15q-81 0 -142 29.5t-102.5 80.5t-62.5 120t-21 148t21.5 148t63 120t102.5 80.5t139 29.5q63 0 114.5 -18.5t89 -52t60 -80t28.5 -101.5h-101q-13 83 -62.5 128.5t-128.5 45.5q-51 0 -92 -21.5t-70.5 -61t-45.5 -95t-16 -122.5q0 -68 16.5 -123t46 -94.5t71 -61
t92.5 -21.5q78 0 127.5 48t63.5 130h102q-9 -55 -33 -102t-61.5 -81t-87.5 -53.5t-111 -19.5zM328 898h94v-100h-94v100z" />
    <glyph glyph-name="cdotaccent" unicode="&#x10b;" horiz-adv-x="531" 
d="M281 -15q-59 0 -103.5 19.5t-75.5 55.5t-46.5 86.5t-15.5 111.5q0 58 16 108t47 87t76.5 57.5t103.5 20.5q94 0 149.5 -48t67.5 -136h-96q-17 110 -122 110q-36 0 -63 -14.5t-45.5 -40.5t-28 -62.5t-9.5 -81.5q0 -90 38 -145t108 -55q51 0 84 28t45 87h90
q-33 -188 -220 -188zM233 726h92v-100h-92v100z" />
    <glyph glyph-name="Ccaron" unicode="&#x10c;" horiz-adv-x="700" 
d="M375 -15q-81 0 -142 29.5t-102.5 80.5t-62.5 120t-21 148t21.5 148t63 120t102.5 80.5t139 29.5q63 0 114.5 -18.5t89 -52t60 -80t28.5 -101.5h-101q-13 83 -62.5 128.5t-128.5 45.5q-51 0 -92 -21.5t-70.5 -61t-45.5 -95t-16 -122.5q0 -68 16.5 -123t46 -94.5t71 -61
t92.5 -21.5q78 0 127.5 48t63.5 130h102q-9 -55 -33 -102t-61.5 -81t-87.5 -53.5t-111 -19.5zM222 905h88l65 -75l66 75h86l-96 -114h-114z" />
    <glyph glyph-name="ccaron" unicode="&#x10d;" horiz-adv-x="531" 
d="M281 -15q-59 0 -103.5 19.5t-75.5 55.5t-46.5 86.5t-15.5 111.5q0 58 16 108t47 87t76.5 57.5t103.5 20.5q94 0 149.5 -48t67.5 -136h-96q-17 110 -122 110q-36 0 -63 -14.5t-45.5 -40.5t-28 -62.5t-9.5 -81.5q0 -90 38 -145t108 -55q51 0 84 28t45 87h90
q-33 -188 -220 -188zM128 726h84l66 -89l67 89h84l-93 -126h-115z" />
    <glyph glyph-name="Dcaron" unicode="&#x10e;" horiz-adv-x="710" 
d="M87 726h210q72 0 127 -12t98 -41q69 -48 105 -129t36 -181t-39 -179.5t-108 -127.5q-43 -29 -95 -42.5t-124 -13.5h-210v726zM284 80q63 0 111.5 13.5t80.5 41.5q40 35 62 95.5t22 132.5q0 71 -20 133t-60 97q-31 27 -82 40t-114 13h-99v-566h99zM182 905h88l65 -75
l66 75h86l-96 -114h-114z" />
    <glyph glyph-name="dcaron" unicode="&#x10f;" horiz-adv-x="601" 
d="M262 -11q-103 0 -162 69.5t-59 199.5q0 58 15.5 107t44.5 85t70 56.5t91 20.5q53 0 91.5 -16t64.5 -55v270h92v-726h-88v68q-53 -79 -160 -79zM275 62q66 0 105.5 52.5t39.5 143.5q0 93 -39.5 144.5t-105.5 51.5q-64 0 -101.5 -51.5t-37.5 -144.5q0 -91 37.5 -143.5
t101.5 -52.5zM583 726h84v-22l-30 -130h-62z" />
    <glyph glyph-name="Dcroat" unicode="&#x110;" horiz-adv-x="740" 
d="M117 335h-97v77h97v314h210q72 0 127 -12t98 -41q69 -48 105 -129t36 -181t-39 -179.5t-108 -127.5q-43 -29 -95 -42.5t-124 -13.5h-210v335zM314 80q63 0 111.5 13.5t80.5 41.5q40 35 62 95.5t22 132.5q0 71 -20 133t-60 97q-31 27 -82 40t-114 13h-99v-234h127v-77
h-127v-255h99z" />
    <glyph glyph-name="dcroat" unicode="&#x111;" horiz-adv-x="585" 
d="M262 -11q-103 0 -162 68.5t-59 195.5q0 57 15.5 105t44.5 83.5t70 55.5t91 20q53 0 91.5 -16t64.5 -54v140h-122v68h122v71h92v-71h77v-68h-77v-587h-88v67q-54 -78 -160 -78zM275 62q66 0 105.5 51.5t39.5 139.5q0 91 -39.5 141t-105.5 50q-64 0 -101.5 -50t-37.5 -141
q0 -88 37.5 -139.5t101.5 -51.5z" />
    <glyph glyph-name="Emacron" unicode="&#x112;" horiz-adv-x="598" 
d="M87 726h452v-81h-354v-233h338v-82h-338v-249h371v-81h-469v726zM192 879h266v-70h-266v70z" />
    <glyph glyph-name="emacron" unicode="&#x113;" horiz-adv-x="562" 
d="M285 -15q-119 0 -182 72.5t-63 200.5q0 58 17 108t49.5 87t78 57.5t102.5 20.5q121 0 177.5 -79t56.5 -223h-385q2 -38 14 -69.5t32.5 -54t47 -35t58.5 -12.5q50 0 85.5 23t49.5 73h97q-17 -84 -81.5 -126.5t-153.5 -42.5zM423 304q-8 78 -46 115.5t-94 37.5
q-59 0 -97 -37.5t-48 -115.5h285zM155 703h264v-70h-264v70z" />
    <glyph glyph-name="Ebreve" unicode="&#x114;" horiz-adv-x="598" 
d="M87 726h452v-81h-354v-233h338v-82h-338v-249h371v-81h-469v726zM326 784q-34 0 -60.5 9.5t-45 26t-29 38t-11.5 46.5h82q3 -26 17.5 -43t46.5 -17t46.5 17t17.5 43h82q-2 -25 -12 -46.5t-28.5 -38t-45 -26t-60.5 -9.5z" />
    <glyph glyph-name="ebreve" unicode="&#x115;" horiz-adv-x="562" 
d="M285 -15q-119 0 -182 72.5t-63 200.5q0 58 17 108t49.5 87t78 57.5t102.5 20.5q121 0 177.5 -79t56.5 -223h-385q2 -38 14 -69.5t32.5 -54t47 -35t58.5 -12.5q50 0 85.5 23t49.5 73h97q-17 -84 -81.5 -126.5t-153.5 -42.5zM423 304q-8 78 -46 115.5t-94 37.5
q-59 0 -97 -37.5t-48 -115.5h285zM288 597q-30 0 -56.5 8t-45.5 23.5t-30 40t-11 57.5h76q0 -39 19 -56t48 -17t47.5 17t18.5 56h76q0 -33 -11 -57.5t-30 -40.5t-45 -23.5t-56 -7.5z" />
    <glyph glyph-name="Edotaccent" unicode="&#x116;" horiz-adv-x="598" 
d="M87 726h452v-81h-354v-233h338v-82h-338v-249h371v-81h-469v726zM278 898h94v-100h-94v100z" />
    <glyph glyph-name="edotaccent" unicode="&#x117;" horiz-adv-x="562" 
d="M285 -15q-119 0 -182 72.5t-63 200.5q0 58 17 108t49.5 87t78 57.5t102.5 20.5q121 0 177.5 -79t56.5 -223h-385q2 -38 14 -69.5t32.5 -54t47 -35t58.5 -12.5q50 0 85.5 23t49.5 73h97q-17 -84 -81.5 -126.5t-153.5 -42.5zM423 304q-8 78 -46 115.5t-94 37.5
q-59 0 -97 -37.5t-48 -115.5h285zM241 726h92v-100h-92v100z" />
    <glyph glyph-name="Eogonek" unicode="&#x118;" horiz-adv-x="598" 
d="M507 -205q-46 0 -77.5 27t-31.5 69q0 55 63 109h-374v726h452v-81h-354v-233h338v-82h-338v-249h371v-81q-41 -22 -62.5 -46.5t-21.5 -49.5q0 -19 12.5 -31t37.5 -12q12 0 20 2t14 4v-65q-11 -5 -24.5 -6t-24.5 -1z" />
    <glyph glyph-name="eogonek" unicode="&#x119;" horiz-adv-x="562" 
d="M361 -205q-51 0 -81 27t-30 69q0 47 54 95q-5 -1 -9.5 -1h-9.5q-119 0 -182 72.5t-63 200.5q0 58 17 108t49.5 87t78 57.5t102.5 20.5q117 0 173 -73.5t61 -207.5v-21h-385q2 -38 14 -69.5t32.5 -54t47 -35t58.5 -12.5q50 0 85.5 23t49.5 73h97q-9 -44 -32 -75.5
t-56 -54.5q-55 -38 -80.5 -66t-25.5 -54q0 -19 12 -31t35 -12q12 0 24 2.5t18 5.5v-65q-11 -5 -27 -7t-27 -2zM423 304q-8 78 -46 115.5t-94 37.5q-59 0 -97 -37.5t-48 -115.5h285z" />
    <glyph glyph-name="Ecaron" unicode="&#x11a;" horiz-adv-x="598" 
d="M87 726h452v-81h-354v-233h338v-82h-338v-249h371v-81h-469v726zM172 905h88l65 -75l66 75h86l-96 -114h-114z" />
    <glyph glyph-name="ecaron" unicode="&#x11b;" horiz-adv-x="562" 
d="M285 -15q-119 0 -182 72.5t-63 200.5q0 58 17 108t49.5 87t78 57.5t102.5 20.5q121 0 177.5 -79t56.5 -223h-385q2 -38 14 -69.5t32.5 -54t47 -35t58.5 -12.5q50 0 85.5 23t49.5 73h97q-17 -84 -81.5 -126.5t-153.5 -42.5zM423 304q-8 78 -46 115.5t-94 37.5
q-59 0 -97 -37.5t-48 -115.5h285zM136 726h84l66 -89l67 89h84l-93 -126h-115z" />
    <glyph glyph-name="Gcircumflex" unicode="&#x11c;" horiz-adv-x="722" 
d="M358 -12q-81 0 -139.5 29t-96.5 79.5t-56.5 119t-18.5 147.5t22 148t64.5 120t104 80.5t139.5 29.5q62 0 111.5 -17t85.5 -47t58 -71.5t29 -90.5h-101q-13 70 -61 109t-122 39q-51 0 -93 -21.5t-72 -61t-46.5 -95t-16.5 -122.5q0 -68 15.5 -122.5t44 -93.5t69 -60
t91.5 -21q45 0 81.5 16.5t62.5 46.5t40.5 72t14.5 93h-178v82h273v-376h-86v30q0 16 0.5 32.5t2.5 30.5l-5 2q-35 -51 -90 -79t-127 -28zM322 905h114l95 -114h-88l-65 75l-66 -75h-86z" />
    <glyph glyph-name="gcircumflex" unicode="&#x11d;" horiz-adv-x="576" 
d="M276 -205q-94 0 -150 40t-63 122h95q3 -48 34 -70.5t86 -22.5q34 0 59.5 9t42.5 30t26 55.5t9 85.5v51q-33 -44 -70.5 -61t-92.5 -17q-48 0 -87 18.5t-66.5 52t-42.5 79.5t-15 101q0 50 14.5 97t42 83t68 57.5t91.5 21.5q115 0 160 -83v72h85v-442q0 -66 -10.5 -118
t-36.5 -87.5t-69.5 -54.5t-109.5 -19zM275 88q65 0 103 50.5t38 138.5q0 39 -10 72t-29 57t-45 37t-57 13q-67 0 -103.5 -49t-36.5 -129q0 -90 37.5 -140t102.5 -50zM216 726h122l93 -126h-89l-66 88l-67 -88h-86z" />
    <glyph glyph-name="Gbreve" unicode="&#x11e;" horiz-adv-x="722" 
d="M358 -12q-81 0 -139.5 29t-96.5 79.5t-56.5 119t-18.5 147.5t22 148t64.5 120t104 80.5t139.5 29.5q62 0 111.5 -17t85.5 -47t58 -71.5t29 -90.5h-101q-13 70 -61 109t-122 39q-51 0 -93 -21.5t-72 -61t-46.5 -95t-16.5 -122.5q0 -68 15.5 -122.5t44 -93.5t69 -60
t91.5 -21q45 0 81.5 16.5t62.5 46.5t40.5 72t14.5 93h-178v82h273v-376h-86v30q0 16 0.5 32.5t2.5 30.5l-5 2q-35 -51 -90 -79t-127 -28zM380 784q-34 0 -60.5 9.5t-45 26t-29 38t-11.5 46.5h82q3 -26 17.5 -43t46.5 -17t46.5 17t17.5 43h82q-2 -25 -12 -46.5t-28.5 -38
t-45 -26t-60.5 -9.5z" />
    <glyph glyph-name="gbreve" unicode="&#x11f;" horiz-adv-x="576" 
d="M276 -205q-94 0 -150 40t-63 122h95q3 -48 34 -70.5t86 -22.5q34 0 59.5 9t42.5 30t26 55.5t9 85.5v51q-33 -44 -70.5 -61t-92.5 -17q-48 0 -87 18.5t-66.5 52t-42.5 79.5t-15 101q0 50 14.5 97t42 83t68 57.5t91.5 21.5q115 0 160 -83v72h85v-442q0 -66 -10.5 -118
t-36.5 -87.5t-69.5 -54.5t-109.5 -19zM275 88q65 0 103 50.5t38 138.5q0 39 -10 72t-29 57t-45 37t-57 13q-67 0 -103.5 -49t-36.5 -129q0 -90 37.5 -140t102.5 -50zM277 597q-30 0 -56.5 8t-45.5 23.5t-30 40t-11 57.5h76q0 -39 19 -56t48 -17t47.5 17t18.5 56h76
q0 -33 -11 -57.5t-30 -40.5t-45 -23.5t-56 -7.5z" />
    <glyph glyph-name="Gdotaccent" unicode="&#x120;" horiz-adv-x="722" 
d="M358 -12q-81 0 -139.5 29t-96.5 79.5t-56.5 119t-18.5 147.5t22 148t64.5 120t104 80.5t139.5 29.5q62 0 111.5 -17t85.5 -47t58 -71.5t29 -90.5h-101q-13 70 -61 109t-122 39q-51 0 -93 -21.5t-72 -61t-46.5 -95t-16.5 -122.5q0 -68 15.5 -122.5t44 -93.5t69 -60
t91.5 -21q45 0 81.5 16.5t62.5 46.5t40.5 72t14.5 93h-178v82h273v-376h-86v30q0 16 0.5 32.5t2.5 30.5l-5 2q-35 -51 -90 -79t-127 -28zM332 898h94v-100h-94v100z" />
    <glyph glyph-name="gdotaccent" unicode="&#x121;" horiz-adv-x="576" 
d="M276 -205q-94 0 -150 40t-63 122h95q3 -48 34 -70.5t86 -22.5q34 0 59.5 9t42.5 30t26 55.5t9 85.5v51q-33 -44 -70.5 -61t-92.5 -17q-48 0 -87 18.5t-66.5 52t-42.5 79.5t-15 101q0 50 14.5 97t42 83t68 57.5t91.5 21.5q115 0 160 -83v72h85v-442q0 -66 -10.5 -118
t-36.5 -87.5t-69.5 -54.5t-109.5 -19zM275 88q65 0 103 50.5t38 138.5q0 39 -10 72t-29 57t-45 37t-57 13q-67 0 -103.5 -49t-36.5 -129q0 -90 37.5 -140t102.5 -50zM230 726h92v-100h-92v100z" />
    <glyph glyph-name="uni0122" unicode="&#x122;" horiz-adv-x="722" 
d="M358 -12q-81 0 -139.5 29t-96.5 79.5t-56.5 119t-18.5 147.5t22 148t64.5 120t104 80.5t139.5 29.5q62 0 111.5 -17t85.5 -47t58 -71.5t29 -90.5h-101q-13 70 -61 109t-122 39q-51 0 -93 -21.5t-72 -61t-46.5 -95t-16.5 -122.5q0 -68 15.5 -122.5t44 -93.5t69 -60
t91.5 -21q45 0 81.5 16.5t62.5 46.5t40.5 72t14.5 93h-178v82h273v-376h-86v30q0 16 0.5 32.5t2.5 30.5l-5 2q-35 -51 -90 -79t-127 -28zM362 -156h-40v93h101v-91l-48 -100h-51z" />
    <glyph glyph-name="uni0123" unicode="&#x123;" horiz-adv-x="576" 
d="M276 -205q-94 0 -150 40t-63 122h95q3 -48 34 -70.5t86 -22.5q34 0 59.5 9t42.5 30t26 55.5t9 85.5v51q-33 -44 -70.5 -61t-92.5 -17q-48 0 -87 18.5t-66.5 52t-42.5 79.5t-15 101q0 50 14.5 97t42 83t68 57.5t91.5 21.5q115 0 160 -83v72h85v-442q0 -66 -10.5 -118
t-36.5 -87.5t-69.5 -54.5t-109.5 -19zM275 88q65 0 103 50.5t38 138.5q0 39 -10 72t-29 57t-45 37t-57 13q-67 0 -103.5 -49t-36.5 -129q0 -90 37.5 -140t102.5 -50zM289 676h36v-91h-95v91l46 98h48z" />
    <glyph glyph-name="Hcircumflex" unicode="&#x124;" horiz-adv-x="745" 
d="M87 726h98v-311h374v311h99v-726h-99v334h-374v-334h-98v726zM316 905h114l95 -114h-88l-65 75l-66 -75h-86z" />
    <glyph glyph-name="hcircumflex" unicode="&#x125;" horiz-adv-x="575" 
d="M75 726h92v-275q28 44 70.5 60t86.5 16q67 0 106.5 -24t58.5 -68q11 -26 14 -57.5t3 -68.5v-309h-92v290q0 30 -3.5 59.5t-14.5 52.5t-33 37.5t-59 14.5q-65 0 -101 -45t-36 -139v-270h-92v726zM263 791h-83l-59 75l-60 -75h-82l88 114h109z" />
    <glyph glyph-name="Hbar" unicode="&#x126;" horiz-adv-x="786" 
d="M108 544h-82v75h82v107h98v-107h374v107h98v-107h82v-75h-82v-544h-98v319h-374v-319h-98v544zM580 400v144h-374v-144h374z" />
    <glyph glyph-name="hbar" unicode="&#x127;" horiz-adv-x="575" 
d="M75 587h-77v68h77v71h92v-71h122v-68h-122v-146q28 44 70.5 60t86.5 16q67 0 107.5 -23.5t57.5 -68.5q11 -26 14 -57.5t3 -68.5v-299h-92v280q0 30 -3.5 59.5t-14.5 52.5t-33 37.5t-59 14.5q-65 0 -101 -45t-36 -139v-260h-92v587z" />
    <glyph glyph-name="Itilde" unicode="&#x128;" horiz-adv-x="272" 
d="M-5 797q5 48 25.5 77.5t57.5 29.5q13 0 28 -6.5t29.5 -14t28.5 -13.5t27 -6q14 0 23 8t14 30h49q-5 -48 -25.5 -77.5t-57.5 -29.5q-13 0 -27.5 6t-29.5 13.5t-29 14t-27 6.5q-14 0 -23.5 -8t-13.5 -30h-49zM87 726h98v-726h-98v726z" />
    <glyph glyph-name="itilde" unicode="&#x129;" horiz-adv-x="242" 
d="M75 516h92v-516h-92v516zM-20 612q5 48 25.5 77.5t57.5 29.5q13 0 28 -6.5t29.5 -14t28.5 -13.5t27 -6q14 0 23 8t14 30h49q-5 -48 -25.5 -77.5t-57.5 -29.5q-13 0 -27.5 6t-29.5 13.5t-29 14t-27 6.5q-14 0 -23.5 -8t-13.5 -30h-49z" />
    <glyph glyph-name="Imacron" unicode="&#x12a;" horiz-adv-x="272" 
d="M87 726h98v-726h-98v726zM3 879h266v-70h-266v70z" />
    <glyph glyph-name="imacron" unicode="&#x12b;" horiz-adv-x="242" 
d="M75 516h92v-516h-92v516zM-1 703h244v-70h-244v70z" />
    <glyph glyph-name="Ibreve" unicode="&#x12c;" horiz-adv-x="272" 
d="M87 726h98v-726h-98v726zM137 784q-34 0 -60.5 9.5t-45 26t-29 38t-11.5 46.5h82q3 -26 17.5 -43t46.5 -17t46.5 17t17.5 43h82q-2 -25 -12 -46.5t-28.5 -38t-45 -26t-60.5 -9.5z" />
    <glyph glyph-name="ibreve" unicode="&#x12d;" horiz-adv-x="242" 
d="M75 516h92v-516h-92v516zM121 597q-56 0 -93 32t-37 97h73q0 -39 16 -56t41 -17q24 0 40 17t16 56h74q0 -66 -37.5 -97.5t-92.5 -31.5z" />
    <glyph glyph-name="Iogonek" unicode="&#x12e;" horiz-adv-x="272" 
d="M139 -205q-49 0 -79 27t-30 69q0 29 14.5 55.5t42.5 53.5v726h98v-726q-37 -21 -58.5 -45t-21.5 -51q0 -19 11.5 -31t34.5 -12q11 0 23 2.5t18 5.5v-65q-11 -5 -26.5 -7t-26.5 -2z" />
    <glyph glyph-name="iogonek" unicode="&#x12f;" horiz-adv-x="242" 
d="M121 -205q-49 0 -79 27t-30 69q0 56 63 109v516h92v-516q-37 -21 -58.5 -45.5t-21.5 -50.5q0 -19 11.5 -31t34.5 -12q11 0 23 2.5t18 5.5v-65q-11 -5 -26.5 -7t-26.5 -2zM75 726h92v-100h-92v100z" />
    <glyph glyph-name="Idotaccent" unicode="&#x130;" horiz-adv-x="272" 
d="M87 726h98v-726h-98v726zM89 898h94v-100h-94v100z" />
    <glyph glyph-name="dotlessi" unicode="&#x131;" horiz-adv-x="242" 
d="M75 516h92v-516h-92v516z" />
    <glyph glyph-name="IJ" unicode="&#x132;" horiz-adv-x="636" 
d="M87 726h98v-726h-98v726zM371 -8q-18 0 -38.5 1.5t-43.5 6.5v84q18 -4 34.5 -5t31.5 -1q28 0 47.5 7.5t31.5 25.5t17.5 48t5.5 75v492h98v-503q0 -57 -9.5 -100t-31 -72.5t-57 -44t-86.5 -14.5z" />
    <glyph glyph-name="ij" unicode="&#x133;" horiz-adv-x="486" 
d="M75 516h92v-516h-92v516zM75 726h92v-100h-92v100zM285 -205q-15 0 -31.5 1.5t-36.5 3.5v78q11 -4 24 -4.5t21 -0.5q38 0 47.5 30.5t9.5 82.5v530h92v-518q0 -58 -6 -97t-20.5 -62.5t-39 -33.5t-60.5 -10zM319 726h92v-100h-92v100z" />
    <glyph glyph-name="Jcircumflex" unicode="&#x134;" horiz-adv-x="362" 
d="M97 -8q-18 0 -38.5 1.5t-43.5 6.5v84q18 -4 34.5 -5t31.5 -1q28 0 47.5 7.5t31.5 25.5t17.5 48t5.5 75v492h98v-503q0 -57 -9.5 -100t-31 -72.5t-57 -44t-86.5 -14.5zM173 905h114l95 -114h-88l-65 75l-66 -75h-86z" />
    <glyph glyph-name="jcircumflex" unicode="&#x135;" horiz-adv-x="242" 
d="M68 726h109l82 -126h-78l-59 85l-60 -85h-77zM41 -205q-15 0 -31.5 1.5t-36.5 3.5v78q11 -4 24 -4.5t21 -0.5q38 0 47.5 30.5t9.5 82.5v530h92v-518q0 -58 -6 -97t-20.5 -62.5t-39 -33.5t-60.5 -10z" />
    <glyph glyph-name="uni0136" unicode="&#x136;" horiz-adv-x="620" 
d="M87 726h98v-324l300 324h116l-318 -334l344 -392h-126l-316 369v-369h-98v726zM301 -156h-40v93h101v-91l-48 -100h-51z" />
    <glyph glyph-name="uni0137" unicode="&#x137;" horiz-adv-x="500" 
d="M75 726h92v-422l209 212h109l-228 -226l251 -290h-116l-225 270v-270h-92v726zM248 -155h-36v91h95v-91l-46 -98h-48z" />
    <glyph glyph-name="kgreenlandic" unicode="&#x138;" horiz-adv-x="499" 
d="M75 516h92v-235l209 235h109l-228 -249l251 -267h-116l-225 247v-247h-92v516z" />
    <glyph glyph-name="Lacute" unicode="&#x139;" horiz-adv-x="553" 
d="M87 726h98v-644h355v-82h-453v726zM180 905h111l-126 -114h-81z" />
    <glyph glyph-name="lacute" unicode="&#x13a;" horiz-adv-x="242" 
d="M75 726h92v-726h-92v726zM170 905h111l-126 -114h-81z" />
    <glyph glyph-name="uni013B" unicode="&#x13b;" horiz-adv-x="553" 
d="M87 726h98v-644h355v-82h-453v726zM304 -156h-40v93h101v-91l-48 -100h-51z" />
    <glyph glyph-name="uni013C" unicode="&#x13c;" horiz-adv-x="242" 
d="M75 726h92v-726h-92v726zM110 -155h-36v91h95v-91l-46 -98h-48z" />
    <glyph glyph-name="Lcaron" unicode="&#x13d;" horiz-adv-x="553" 
d="M87 726h98v-644h355v-82h-453v726zM326 726h84v-22l-30 -130h-62z" />
    <glyph glyph-name="lcaron" unicode="&#x13e;" horiz-adv-x="258" 
d="M75 726h92v-726h-92v726zM241 726h84v-22l-30 -130h-62z" />
    <glyph glyph-name="Ldot" unicode="&#x13f;" horiz-adv-x="554" 
d="M87 726h98v-644h355v-82h-453v726zM362 438h93v-100h-93v100z" />
    <glyph glyph-name="ldot" unicode="&#x140;" horiz-adv-x="318" 
d="M75 726h92v-726h-92v726zM234 438h92v-100h-92v100z" />
    <glyph glyph-name="Lslash" unicode="&#x141;" horiz-adv-x="595" 
d="M38 280l91 57v389h98v-336l196 128v-91l-196 -125v-220h355v-82h-453v251l-91 -58v87z" />
    <glyph glyph-name="lslash" unicode="&#x142;" horiz-adv-x="318" 
d="M34 329l83 63v334h92v-275l83 66v-85l-83 -63v-369h-92v310l-83 -64v83z" />
    <glyph glyph-name="Nacute" unicode="&#x143;" horiz-adv-x="749" 
d="M87 726h134q96 -167 160.5 -280.5t105 -186t60 -109t25.5 -48.5h5q-1 30 -2 67.5t-2 74.5t-1.5 69.5t-0.5 50.5v362h91v-726h-132q-95 167 -160.5 282.5t-106.5 189.5t-61.5 112t-26.5 49h-5q1 -30 2.5 -69.5t2.5 -78t1.5 -72t0.5 -51.5v-362h-90v726zM421 905h111
l-126 -114h-81z" />
    <glyph glyph-name="nacute" unicode="&#x144;" horiz-adv-x="575" 
d="M75 516h85v-66q18 23 38.5 38t42 23.5t42.5 12t41 3.5q67 0 107 -24t57 -68q11 -26 14.5 -57.5t3.5 -68.5v-309h-92v291q0 30 -3.5 59t-14.5 52.5t-33 37.5t-59 14q-65 0 -101 -45t-36 -139v-270h-92v516zM333 726h104l-116 -126h-77z" />
    <glyph glyph-name="uni0145" unicode="&#x145;" horiz-adv-x="749" 
d="M87 726h134q96 -167 160.5 -280.5t105 -186t60 -109t25.5 -48.5h5q-1 30 -2 67.5t-2 74.5t-1.5 69.5t-0.5 50.5v362h91v-726h-132q-95 167 -160.5 282.5t-106.5 189.5t-61.5 112t-26.5 49h-5q1 -30 2.5 -69.5t2.5 -78t1.5 -72t0.5 -51.5v-362h-90v726zM363 -156h-40v93
h101v-91l-48 -100h-51z" />
    <glyph glyph-name="uni0146" unicode="&#x146;" horiz-adv-x="575" 
d="M75 516h85v-66q18 23 38.5 38t42 23.5t42.5 12t41 3.5q67 0 107 -24t57 -68q11 -26 14.5 -57.5t3.5 -68.5v-309h-92v291q0 30 -3.5 59t-14.5 52.5t-33 37.5t-59 14q-65 0 -101 -45t-36 -139v-270h-92v516zM277 -155h-36v91h95v-91l-46 -98h-48z" />
    <glyph glyph-name="Ncaron" unicode="&#x147;" horiz-adv-x="749" 
d="M87 726h134q96 -167 160.5 -280.5t105 -186t60 -109t25.5 -48.5h5q-1 30 -2 67.5t-2 74.5t-1.5 69.5t-0.5 50.5v362h91v-726h-132q-95 167 -160.5 282.5t-106.5 189.5t-61.5 112t-26.5 49h-5q1 -30 2.5 -69.5t2.5 -78t1.5 -72t0.5 -51.5v-362h-90v726zM222 905h88l65 -75
l66 75h86l-96 -114h-114z" />
    <glyph glyph-name="ncaron" unicode="&#x148;" horiz-adv-x="575" 
d="M75 516h85v-66q18 23 38.5 38t42 23.5t42.5 12t41 3.5q67 0 107 -24t57 -68q11 -26 14.5 -57.5t3.5 -68.5v-309h-92v291q0 30 -3.5 59t-14.5 52.5t-33 37.5t-59 14q-65 0 -101 -45t-36 -139v-270h-92v516zM140 726h84l66 -89l67 89h84l-93 -126h-115z" />
    <glyph glyph-name="napostrophe" unicode="&#x149;" horiz-adv-x="672" 
d="M172 516h85v-66q18 23 38.5 38t42 23.5t42.5 12t41 3.5q67 0 107 -24t57 -68q11 -26 14.5 -57.5t3.5 -68.5v-309h-92v291q0 30 -3.5 59t-14.5 52.5t-33 37.5t-59 14q-65 0 -101 -45t-36 -139v-270h-92v516zM73 532h-48l38 97h-39v94h97v-93z" />
    <glyph glyph-name="Eng" unicode="&#x14a;" horiz-adv-x="749" 
d="M490 -205q-34 0 -75 7v74q17 -4 31.5 -5t29.5 -1q45 0 69 30.5t24 99.5l-394 633h-5l1 -29q1 -31 2 -66.5t2 -69t1.5 -62t0.5 -44.5v-362h-90v726h134l351 -567h5q-1 34 -2 73.5t-2 76t-1.5 68t-0.5 49.5v300h91v-701q0 -114 -39 -172t-133 -58z" />
    <glyph glyph-name="eng" unicode="&#x14b;" horiz-adv-x="573" 
d="M378 -205q-15 0 -31.5 1.5t-36.5 3.5v78q11 -4 24 -4.5t21 -0.5q38 0 48 30.5t10 82.5v300q0 84 -24 125.5t-85 41.5q-137 0 -137 -187v-266h-92v516h85v-67q35 46 79 62t83 16q53 0 88 -15t56 -43.5t29.5 -69t8.5 -90.5v-311q0 -58 -6 -97t-20.5 -62.5t-38.5 -33.5
t-61 -10z" />
    <glyph glyph-name="Omacron" unicode="&#x14c;" horiz-adv-x="763" 
d="M381 -15q-76 0 -138 27.5t-105.5 77.5t-67 119.5t-23.5 153.5t23.5 153.5t67 119.5t105.5 77.5t138 27.5t138 -27.5t105.5 -77.5t67.5 -119.5t24 -153.5q0 -85 -24 -155t-67.5 -119.5t-105.5 -76.5t-138 -27zM381 63q53 0 96 22.5t73.5 63t47 95t16.5 119.5
q0 64 -16.5 119t-47 95.5t-73.5 63t-96 22.5t-96 -22.5t-73 -63t-46.5 -95.5t-16.5 -119q0 -65 16.5 -119.5t46.5 -95t73 -63t96 -22.5zM249 879h266v-70h-266v70z" />
    <glyph glyph-name="omacron" unicode="&#x14d;" horiz-adv-x="580" 
d="M288 -15q-57 0 -103 20t-78.5 56t-49.5 86.5t-17 110.5t17.5 110t49.5 86.5t78.5 56.5t103.5 20q58 0 104.5 -20t79 -56.5t50 -86.5t17.5 -110t-17.5 -110.5t-50 -86.5t-79.5 -56t-105 -20zM288 58q36 0 65.5 14.5t49.5 40.5t31 62.5t11 81.5t-11 81.5t-31.5 63t-49 41
t-64.5 14.5q-35 0 -63.5 -14t-48.5 -40t-31 -62.5t-11 -81.5t10.5 -82t30.5 -63.5t48.5 -41t63.5 -14.5zM158 703h264v-70h-264v70z" />
    <glyph glyph-name="Obreve" unicode="&#x14e;" horiz-adv-x="763" 
d="M381 -15q-76 0 -138 27.5t-105.5 77.5t-67 119.5t-23.5 153.5t23.5 153.5t67 119.5t105.5 77.5t138 27.5t138 -27.5t105.5 -77.5t67.5 -119.5t24 -153.5q0 -85 -24 -155t-67.5 -119.5t-105.5 -76.5t-138 -27zM381 63q53 0 96 22.5t73.5 63t47 95t16.5 119.5
q0 64 -16.5 119t-47 95.5t-73.5 63t-96 22.5t-96 -22.5t-73 -63t-46.5 -95.5t-16.5 -119q0 -65 16.5 -119.5t46.5 -95t73 -63t96 -22.5zM383 784q-34 0 -60.5 9.5t-45 26t-29 38t-11.5 46.5h82q3 -26 17.5 -43t46.5 -17t46.5 17t17.5 43h82q-2 -25 -12 -46.5t-28.5 -38
t-45 -26t-60.5 -9.5z" />
    <glyph glyph-name="obreve" unicode="&#x14f;" horiz-adv-x="580" 
d="M288 -15q-57 0 -103 20t-78.5 56t-49.5 86.5t-17 110.5t17.5 110t49.5 86.5t78.5 56.5t103.5 20q58 0 104.5 -20t79 -56.5t50 -86.5t17.5 -110t-17.5 -110.5t-50 -86.5t-79.5 -56t-105 -20zM288 58q36 0 65.5 14.5t49.5 40.5t31 62.5t11 81.5t-11 81.5t-31.5 63t-49 41
t-64.5 14.5q-35 0 -63.5 -14t-48.5 -40t-31 -62.5t-11 -81.5t10.5 -82t30.5 -63.5t48.5 -41t63.5 -14.5zM291 597q-30 0 -56.5 8t-45.5 23.5t-30 40t-11 57.5h76q0 -39 19 -56t48 -17t47.5 17t18.5 56h76q0 -33 -11 -57.5t-30 -40.5t-45 -23.5t-56 -7.5z" />
    <glyph glyph-name="Ohungarumlaut" unicode="&#x150;" horiz-adv-x="763" 
d="M381 -15q-76 0 -138 27.5t-105.5 77.5t-67 119.5t-23.5 153.5t23.5 153.5t67 119.5t105.5 77.5t138 27.5t138 -27.5t105.5 -77.5t67.5 -119.5t24 -153.5q0 -85 -24 -155t-67.5 -119.5t-105.5 -76.5t-138 -27zM381 63q53 0 96 22.5t73.5 63t47 95t16.5 119.5
q0 64 -16.5 119t-47 95.5t-73.5 63t-96 22.5t-96 -22.5t-73 -63t-46.5 -95.5t-16.5 -119q0 -65 16.5 -119.5t46.5 -95t73 -63t96 -22.5zM535 905h105l-126 -114h-78zM335 905h104l-115 -114h-74z" />
    <glyph glyph-name="ohungarumlaut" unicode="&#x151;" horiz-adv-x="580" 
d="M288 -15q-57 0 -103 20t-78.5 56t-49.5 86.5t-17 110.5t17.5 110t49.5 86.5t78.5 56.5t103.5 20q58 0 104.5 -20t79 -56.5t50 -86.5t17.5 -110t-17.5 -110.5t-50 -86.5t-79.5 -56t-105 -20zM288 58q36 0 65.5 14.5t49.5 40.5t31 62.5t11 81.5t-11 81.5t-31.5 63t-49 41
t-64.5 14.5q-35 0 -63.5 -14t-48.5 -40t-31 -62.5t-11 -81.5t10.5 -82t30.5 -63.5t48.5 -41t63.5 -14.5zM428 726h99l-117 -126h-73zM235 726h98l-111 -126h-70z" />
    <glyph glyph-name="OE" unicode="&#x152;" horiz-adv-x="982" 
d="M410 0q-83 0 -144 18.5t-106 53.5q-56 45 -84.5 116.5t-28.5 174.5q0 98 36.5 173t102.5 123q45 32 102.5 49.5t125.5 17.5h514v-81h-324v-230h301v-81h-301v-253h334v-81h-528zM505 81v564h-78q-278 0 -278 -282q0 -82 18.5 -139t61.5 -92q32 -26 79.5 -38.5
t113.5 -12.5h83z" />
    <glyph glyph-name="oe" unicode="&#x153;" horiz-adv-x="929" 
d="M282 -15q-54 0 -98.5 20t-76.5 56t-50 86t-18 111q0 59 18 109t49.5 86.5t75.5 57t97 20.5q63 0 116 -29.5t82 -86.5q69 116 192 116q109 0 164 -76t57 -211v-10h-364q0 -32 7.5 -63t24 -56.5t44 -41t68.5 -15.5q52 0 80.5 23t44.5 70h89q-10 -47 -31 -78.5t-49.5 -51
t-63 -28t-71.5 -8.5q-29 0 -58 7t-55 22t-46.5 37.5t-31.5 53.5q-26 -55 -78.5 -87.5t-117.5 -32.5zM287 58q69 0 108.5 54t39.5 146q0 93 -40.5 146t-109.5 53q-70 0 -108.5 -54t-38.5 -145q0 -92 38.5 -146t110.5 -54zM799 306q-5 68 -38.5 109.5t-93.5 41.5
q-59 0 -96.5 -42t-42.5 -109h271z" />
    <glyph glyph-name="Racute" unicode="&#x154;" horiz-adv-x="648" 
d="M87 726h215q36 0 72.5 -2.5t68.5 -12.5q60 -18 98 -64.5t38 -124.5q0 -32 -11.5 -61.5t-32 -53.5t-49.5 -41.5t-65 -25.5v-3q28 -2 48.5 -11.5t35 -24t23.5 -32.5t15 -36l76 -233h-105l-65 206q-11 35 -28 54.5t-39.5 28.5t-51.5 10.5t-64 1.5h-81v-301h-98v726zM268 381
q37 0 74.5 3.5t68 17t49.5 40t19 71.5q0 62 -31 90t-77 37q-23 5 -50 5.5t-53 0.5h-83v-265h83zM353 905h111l-126 -114h-81z" />
    <glyph glyph-name="racute" unicode="&#x155;" horiz-adv-x="378" 
d="M75 516h87v-76q30 47 66 64.5t79 17.5q29 0 58 -6v-81q-17 3 -32 5t-29 2q-42 0 -68.5 -14.5t-41.5 -41t-21 -64.5t-6 -85v-237h-92v516zM261 726h104l-116 -126h-77z" />
    <glyph glyph-name="uni0156" unicode="&#x156;" horiz-adv-x="648" 
d="M87 726h215q36 0 72.5 -2.5t68.5 -12.5q60 -18 98 -64.5t38 -124.5q0 -32 -11.5 -61.5t-32 -53.5t-49.5 -41.5t-65 -25.5v-3q28 -2 48.5 -11.5t35 -24t23.5 -32.5t15 -36l76 -233h-105l-65 206q-11 35 -28 54.5t-39.5 28.5t-51.5 10.5t-64 1.5h-81v-301h-98v726zM268 381
q37 0 74.5 3.5t68 17t49.5 40t19 71.5q0 62 -31 90t-77 37q-23 5 -50 5.5t-53 0.5h-83v-265h83zM321 -156h-40v93h101v-91l-48 -100h-51z" />
    <glyph glyph-name="uni0157" unicode="&#x157;" horiz-adv-x="378" 
d="M75 516h87v-76q30 47 66 64.5t79 17.5q29 0 58 -6v-81q-17 3 -32 5t-29 2q-42 0 -68.5 -14.5t-41.5 -41t-21 -64.5t-6 -85v-237h-92v516zM111 -155h-36v91h95v-91l-46 -98h-48z" />
    <glyph glyph-name="Rcaron" unicode="&#x158;" horiz-adv-x="648" 
d="M87 726h215q36 0 72.5 -2.5t68.5 -12.5q60 -18 98 -64.5t38 -124.5q0 -32 -11.5 -61.5t-32 -53.5t-49.5 -41.5t-65 -25.5v-3q28 -2 48.5 -11.5t35 -24t23.5 -32.5t15 -36l76 -233h-105l-65 206q-11 35 -28 54.5t-39.5 28.5t-51.5 10.5t-64 1.5h-81v-301h-98v726zM268 381
q37 0 74.5 3.5t68 17t49.5 40t19 71.5q0 62 -31 90t-77 37q-23 5 -50 5.5t-53 0.5h-83v-265h83zM154 905h88l65 -75l66 75h86l-96 -114h-114z" />
    <glyph glyph-name="rcaron" unicode="&#x159;" horiz-adv-x="378" 
d="M75 516h87v-76q30 47 66 64.5t79 17.5q29 0 58 -6v-81q-17 3 -32 5t-29 2q-42 0 -68.5 -14.5t-41.5 -41t-21 -64.5t-6 -85v-237h-92v516zM68 726h84l66 -89l67 89h84l-93 -126h-115z" />
    <glyph glyph-name="Sacute" unicode="&#x15a;" horiz-adv-x="623" 
d="M315 -15q-129 0 -201.5 65.5t-72.5 187.5h99q0 -85 44.5 -130t130.5 -45q77 0 120 34t43 91q0 34 -15.5 57t-42 38.5t-60.5 26t-70 20.5q-43 12 -85 26t-75.5 37.5t-54 59t-20.5 89.5q0 44 19 80.5t53 63t81.5 41t103.5 14.5q119 0 187 -61t68 -170h-96q0 40 -14 68.5
t-36.5 47.5t-51.5 28t-59 9q-28 0 -55.5 -7t-49 -21.5t-34.5 -36t-13 -50.5q0 -33 14.5 -55t39 -37t57 -25.5t68.5 -20.5q43 -12 87 -26.5t79 -38.5t57 -60t22 -91q0 -47 -19.5 -85.5t-54.5 -66t-84 -42.5t-109 -15zM358 905h111l-126 -114h-81z" />
    <glyph glyph-name="sacute" unicode="&#x15b;" horiz-adv-x="505" 
d="M260 -15q-108 0 -166 47t-59 134h93q0 -55 35 -82.5t99 -27.5q53 0 81.5 19.5t28.5 57.5q0 24 -11 39t-29.5 24.5t-42.5 15t-50 10.5q-34 6 -68 14t-61.5 24.5t-45 45t-17.5 75.5q0 33 14.5 60.5t41 47.5t63.5 31t83 11q98 0 151.5 -44t54.5 -129h-91q-1 101 -117 101
q-48 0 -76 -19.5t-28 -52.5q0 -22 10.5 -36t27.5 -23t40 -14.5t49 -10.5q34 -7 70 -15.5t64.5 -25.5t47 -46t18.5 -77q0 -35 -16 -63.5t-44 -48.5t-66.5 -31t-83.5 -11zM292 726h104l-116 -126h-77z" />
    <glyph glyph-name="Scircumflex" unicode="&#x15c;" horiz-adv-x="623" 
d="M315 -15q-129 0 -201.5 65.5t-72.5 187.5h99q0 -85 44.5 -130t130.5 -45q77 0 120 34t43 91q0 34 -15.5 57t-42 38.5t-60.5 26t-70 20.5q-43 12 -85 26t-75.5 37.5t-54 59t-20.5 89.5q0 44 19 80.5t53 63t81.5 41t103.5 14.5q119 0 187 -61t68 -170h-96q0 40 -14 68.5
t-36.5 47.5t-51.5 28t-59 9q-28 0 -55.5 -7t-49 -21.5t-34.5 -36t-13 -50.5q0 -33 14.5 -55t39 -37t57 -25.5t68.5 -20.5q43 -12 87 -26.5t79 -38.5t57 -60t22 -91q0 -47 -19.5 -85.5t-54.5 -66t-84 -42.5t-109 -15zM255 905h114l95 -114h-88l-65 75l-66 -75h-86z" />
    <glyph glyph-name="scircumflex" unicode="&#x15d;" horiz-adv-x="505" 
d="M260 -15q-108 0 -166 47t-59 134h93q0 -55 35 -82.5t99 -27.5q53 0 81.5 19.5t28.5 57.5q0 24 -11 39t-29.5 24.5t-42.5 15t-50 10.5q-34 6 -68 14t-61.5 24.5t-45 45t-17.5 75.5q0 33 14.5 60.5t41 47.5t63.5 31t83 11q98 0 151.5 -44t54.5 -129h-91q-1 101 -117 101
q-48 0 -76 -19.5t-28 -52.5q0 -22 10.5 -36t27.5 -23t40 -14.5t49 -10.5q34 -7 70 -15.5t64.5 -25.5t47 -46t18.5 -77q0 -35 -16 -63.5t-44 -48.5t-66.5 -31t-83.5 -11zM190 726h122l93 -126h-89l-66 88l-67 -88h-86z" />
    <glyph glyph-name="Scedilla" unicode="&#x15e;" horiz-adv-x="623" 
d="M297 -205q-11 0 -22 0.5t-22 4.5v53q12 -3 23 -3q32 0 45.5 11t13.5 29q0 16 -10 28.5t-34 12.5h-9q-4 0 -9 -1v57q-99 9 -160 63q-72 66 -72 188h99q0 -85 44.5 -130t130.5 -45q77 0 120 34t43 91q0 34 -15.5 57t-42 38.5t-60.5 26t-70 20.5q-43 12 -85 26t-75.5 37.5
t-54 59t-20.5 89.5q0 44 19 80.5t53 63t81.5 41t103.5 14.5q119 0 187 -61t68 -170h-96q0 40 -14 68.5t-36.5 47.5t-51.5 28t-59 9q-28 0 -55.5 -7t-49 -21.5t-34.5 -36t-13 -50.5q0 -33 14.5 -55t39 -37t57 -25.5t68.5 -20.5q43 -12 87 -26.5t79 -38.5t57 -60t22 -91
q0 -47 -19.5 -85.5t-54.5 -66t-84 -42.5q-39 -12 -85 -14v-17q34 -2 50 -28t16 -54q0 -36 -27 -64t-81 -28z" />
    <glyph glyph-name="scedilla" unicode="&#x15f;" horiz-adv-x="505" 
d="M237 -205q-11 0 -22 0.5t-22 4.5v53q12 -3 23 -3q32 0 45.5 11t13.5 29q0 16 -10 28.5t-34 12.5h-9q-4 0 -9 -1v58q-75 8 -119 44q-58 47 -59 134h93q0 -55 35 -82.5t99 -27.5q53 0 81.5 19.5t28.5 57.5q0 24 -11 39t-29.5 24.5t-42.5 15t-50 10.5q-34 6 -68 14
t-61.5 24.5t-45 45t-17.5 75.5q0 33 14.5 60.5t41 47.5t63.5 31t83 11q98 0 151.5 -44t54.5 -129h-91q-1 101 -117 101q-48 0 -76 -19.5t-28 -52.5q0 -22 10.5 -36t27.5 -23t40 -14.5t49 -10.5q34 -7 70 -15.5t64.5 -25.5t47 -46t18.5 -77q0 -35 -16 -63.5t-44 -48.5
t-67 -31q-30 -8 -64 -10v-17q34 -2 50 -28t16 -54q0 -36 -27 -64t-81 -28z" />
    <glyph glyph-name="Scaron" unicode="&#x160;" horiz-adv-x="623" 
d="M315 -15q-129 0 -201.5 65.5t-72.5 187.5h99q0 -85 44.5 -130t130.5 -45q77 0 120 34t43 91q0 34 -15.5 57t-42 38.5t-60.5 26t-70 20.5q-43 12 -85 26t-75.5 37.5t-54 59t-20.5 89.5q0 44 19 80.5t53 63t81.5 41t103.5 14.5q119 0 187 -61t68 -170h-96q0 40 -14 68.5
t-36.5 47.5t-51.5 28t-59 9q-28 0 -55.5 -7t-49 -21.5t-34.5 -36t-13 -50.5q0 -33 14.5 -55t39 -37t57 -25.5t68.5 -20.5q43 -12 87 -26.5t79 -38.5t57 -60t22 -91q0 -47 -19.5 -85.5t-54.5 -66t-84 -42.5t-109 -15zM159 905h88l65 -75l66 75h86l-96 -114h-114z" />
    <glyph glyph-name="scaron" unicode="&#x161;" horiz-adv-x="505" 
d="M260 -15q-108 0 -166 47t-59 134h93q0 -55 35 -82.5t99 -27.5q53 0 81.5 19.5t28.5 57.5q0 24 -11 39t-29.5 24.5t-42.5 15t-50 10.5q-34 6 -68 14t-61.5 24.5t-45 45t-17.5 75.5q0 33 14.5 60.5t41 47.5t63.5 31t83 11q98 0 151.5 -44t54.5 -129h-91q-1 101 -117 101
q-48 0 -76 -19.5t-28 -52.5q0 -22 10.5 -36t27.5 -23t40 -14.5t49 -10.5q34 -7 70 -15.5t64.5 -25.5t47 -46t18.5 -77q0 -35 -16 -63.5t-44 -48.5t-66.5 -31t-83.5 -11zM99 726h84l66 -89l67 89h84l-93 -126h-115z" />
    <glyph glyph-name="uni0162" unicode="&#x162;" horiz-adv-x="599" 
d="M291 -205q-11 0 -22 0.5t-22 4.5v53q12 -3 23 -3q32 0 45.5 11t13.5 29q0 16 -10 28.5t-34 12.5h-9q-4 0 -9 -1v70h-17v645h-239v81h577v-81h-239v-645h-16v-31q34 -2 50 -28t16 -54q0 -36 -27 -64t-81 -28z" />
    <glyph glyph-name="uni0163" unicode="&#x163;" horiz-adv-x="333" 
d="M191 -205q-11 0 -22 0.5t-22 4.5v53q12 -3 23 -3q32 0 45.5 11t13.5 29q0 16 -10 28.5t-34 12.5h-9q-4 0 -9 -1v75q-14 7 -25 18q-16 17 -25 46t-9 71v300h-95v76h95v125h92v-125h112v-76h-112v-257q0 -27 1.5 -48.5t7.5 -36t18.5 -22t34.5 -7.5q11 0 23.5 0.5t28.5 4.5
v-74q-41 -9 -76 -9h-5v-22q34 -2 50 -28t16 -54q0 -36 -27 -64t-81 -28z" />
    <glyph glyph-name="Tcaron" unicode="&#x164;" horiz-adv-x="599" 
d="M250 645h-239v81h577v-81h-239v-645h-99v645zM148 905h88l65 -75l66 75h86l-96 -114h-114z" />
    <glyph glyph-name="tcaron" unicode="&#x165;" horiz-adv-x="333" 
d="M238 -9q-30 0 -54.5 7.5t-41 24.5t-25.5 46t-9 71v300h-95v76h95v125h92v-125h112v-76h-112v-257q0 -27 1.5 -48.5t7.5 -36t18.5 -22t34.5 -7.5q11 0 23.5 0.5t28.5 4.5v-74q-41 -9 -76 -9zM274 726h84v-22l-30 -130h-62z" />
    <glyph glyph-name="Tbar" unicode="&#x166;" horiz-adv-x="617" 
d="M259 329h-166v77h166v239h-239v81h577v-81h-239v-239h165v-77h-165v-329h-99v329z" />
    <glyph glyph-name="tbar" unicode="&#x167;" horiz-adv-x="346" 
d="M247 -9q-42 0 -71 13.5t-44 48.5q-15 33 -15 87v108h-95v72h95v124h-95v72h95v125h92v-125h112v-72h-112v-124h107v-72h-107v-65q0 -27 1.5 -48.5t7.5 -36t18.5 -22t34.5 -7.5q11 0 23.5 0.5t28.5 4.5v-74q-41 -9 -76 -9z" />
    <glyph glyph-name="Utilde" unicode="&#x168;" horiz-adv-x="704" 
d="M351 -15q-90 0 -152 34t-91 99q-15 34 -21.5 76t-6.5 112v420h98v-418q0 -75 9 -117t32 -70t56.5 -43.5t75.5 -15.5t78 16.5t56 42.5q22 29 31.5 72.5t9.5 114.5v418h98v-420q0 -39 -2 -70t-7 -56.5t-13 -46t-20 -38.5q-32 -51 -91.5 -80.5t-139.5 -29.5zM197 796
q6 48 28.5 77.5t63.5 29.5q15 0 32.5 -6.5t35.5 -14t35 -13.5t31 -6q15 0 25.5 8t15.5 30h54q-6 -48 -28.5 -77.5t-63.5 -29.5q-15 0 -32 6t-35 13.5t-35.5 14t-31.5 6.5q-15 0 -25.5 -8t-15.5 -30h-54z" />
    <glyph glyph-name="utilde" unicode="&#x169;" horiz-adv-x="572" 
d="M249 -11q-68 0 -105.5 25.5t-57.5 66.5q-13 26 -15 62t-2 73v300h91v-291q0 -30 3 -59t14.5 -52t33 -37.5t58.5 -14.5q65 0 101 44.5t36 138.5v271h91v-516h-85v66q-17 -23 -37.5 -38t-42 -23.5t-43 -12t-40.5 -3.5zM120 612q6 48 28.5 77.5t63.5 29.5q15 0 32.5 -6.5
t35.5 -14t35 -13.5t31 -6q15 0 25.5 8t15.5 30h54q-6 -48 -28.5 -77.5t-63.5 -29.5q-15 0 -32 6t-35 13.5t-35.5 14t-31.5 6.5q-15 0 -25.5 -8t-15.5 -30h-54z" />
    <glyph glyph-name="Umacron" unicode="&#x16a;" horiz-adv-x="704" 
d="M351 -15q-90 0 -152 34t-91 99q-15 34 -21.5 76t-6.5 112v420h98v-418q0 -75 9 -117t32 -70t56.5 -43.5t75.5 -15.5t78 16.5t56 42.5q22 29 31.5 72.5t9.5 114.5v418h98v-420q0 -39 -2 -70t-7 -56.5t-13 -46t-20 -38.5q-32 -51 -91.5 -80.5t-139.5 -29.5zM220 879h266
v-70h-266v70z" />
    <glyph glyph-name="umacron" unicode="&#x16b;" horiz-adv-x="572" 
d="M249 -11q-68 0 -105.5 25.5t-57.5 66.5q-13 26 -15 62t-2 73v300h91v-291q0 -30 3 -59t14.5 -52t33 -37.5t58.5 -14.5q65 0 101 44.5t36 138.5v271h91v-516h-85v66q-17 -23 -37.5 -38t-42 -23.5t-43 -12t-40.5 -3.5zM153 703h264v-70h-264v70z" />
    <glyph glyph-name="Ubreve" unicode="&#x16c;" horiz-adv-x="704" 
d="M351 -15q-90 0 -152 34t-91 99q-15 34 -21.5 76t-6.5 112v420h98v-418q0 -75 9 -117t32 -70t56.5 -43.5t75.5 -15.5t78 16.5t56 42.5q22 29 31.5 72.5t9.5 114.5v418h98v-420q0 -39 -2 -70t-7 -56.5t-13 -46t-20 -38.5q-32 -51 -91.5 -80.5t-139.5 -29.5zM354 784
q-34 0 -60.5 9.5t-45 26t-29 38t-11.5 46.5h82q3 -26 17.5 -43t46.5 -17t46.5 17t17.5 43h82q-2 -25 -12 -46.5t-28.5 -38t-45 -26t-60.5 -9.5z" />
    <glyph glyph-name="ubreve" unicode="&#x16d;" horiz-adv-x="572" 
d="M249 -11q-68 0 -105.5 25.5t-57.5 66.5q-13 26 -15 62t-2 73v300h91v-291q0 -30 3 -59t14.5 -52t33 -37.5t58.5 -14.5q65 0 101 44.5t36 138.5v271h91v-516h-85v66q-17 -23 -37.5 -38t-42 -23.5t-43 -12t-40.5 -3.5zM286 597q-30 0 -56.5 8t-45.5 23.5t-30 40t-11 57.5
h76q0 -39 19 -56t48 -17t47.5 17t18.5 56h76q0 -33 -11 -57.5t-30 -40.5t-45 -23.5t-56 -7.5z" />
    <glyph glyph-name="Uring" unicode="&#x16e;" horiz-adv-x="704" 
d="M351 -15q-90 0 -152 34t-91 99q-15 34 -21.5 76t-6.5 112v420h98v-418q0 -75 9 -117t32 -70t56.5 -43.5t75.5 -15.5t78 16.5t56 42.5q22 29 31.5 72.5t9.5 114.5v418h98v-420q0 -39 -2 -70t-7 -56.5t-13 -46t-20 -38.5q-32 -51 -91.5 -80.5t-139.5 -29.5zM352 723
q-27 0 -47.5 9t-34.5 23.5t-21.5 33t-7.5 38.5t7.5 39t21.5 33.5t34.5 23.5t47.5 9t47.5 -9t35 -23.5t21.5 -33.5t7 -39t-7 -38.5t-21.5 -33t-35 -23.5t-47.5 -9zM352 768q32 0 45.5 18.5t13.5 40.5q0 23 -14 41t-45 18q-30 0 -44 -18t-14 -41q0 -22 14 -40.5t44 -18.5z" />
    <glyph glyph-name="uring" unicode="&#x16f;" horiz-adv-x="572" 
d="M249 -11q-68 0 -105.5 25.5t-57.5 66.5q-13 26 -15 62t-2 73v300h91v-291q0 -30 3 -59t14.5 -52t33 -37.5t58.5 -14.5q65 0 101 44.5t36 138.5v271h91v-516h-85v66q-17 -23 -37.5 -38t-42 -23.5t-43 -12t-40.5 -3.5zM283 563q-26 0 -46 9t-34 23.5t-21.5 32.5t-7.5 37
t7.5 37.5t21.5 33t34 23.5t46 9t46.5 -9t34.5 -23.5t21 -33t7 -37.5t-7 -37t-21 -32.5t-34.5 -23.5t-46.5 -9zM283 607q32 0 45 18.5t13 39.5q0 22 -14 40t-44 18q-29 0 -43 -18t-14 -40q0 -21 14 -39.5t43 -18.5z" />
    <glyph glyph-name="Uhungarumlaut" unicode="&#x170;" horiz-adv-x="704" 
d="M351 -15q-90 0 -152 34t-91 99q-15 34 -21.5 76t-6.5 112v420h98v-418q0 -75 9 -117t32 -70t56.5 -43.5t75.5 -15.5t78 16.5t56 42.5q22 29 31.5 72.5t9.5 114.5v418h98v-420q0 -39 -2 -70t-7 -56.5t-13 -46t-20 -38.5q-32 -51 -91.5 -80.5t-139.5 -29.5zM506 905h105
l-126 -114h-78zM306 905h104l-115 -114h-74z" />
    <glyph glyph-name="uhungarumlaut" unicode="&#x171;" horiz-adv-x="572" 
d="M249 -11q-68 0 -105.5 25.5t-57.5 66.5q-13 26 -15 62t-2 73v300h91v-291q0 -30 3 -59t14.5 -52t33 -37.5t58.5 -14.5q65 0 101 44.5t36 138.5v271h91v-516h-85v66q-17 -23 -37.5 -38t-42 -23.5t-43 -12t-40.5 -3.5zM423 726h99l-117 -126h-73zM230 726h98l-111 -126h-70
z" />
    <glyph glyph-name="Uogonek" unicode="&#x172;" horiz-adv-x="704" 
d="M438 -205q-51 0 -81.5 27t-30.5 69q0 48 54 95q-8 -1 -14.5 -1h-14.5q-89 0 -151.5 34t-91.5 99q-16 34 -22 77t-6 111v420h98v-418q0 -38 2 -66.5t7 -50.5t13 -39t19 -31q23 -28 56.5 -43.5t75.5 -15.5t78 16.5t56 42.5q22 29 31.5 72.5t9.5 114.5v418h98v-420
q0 -74 -8.5 -123t-33.5 -88q-18 -28 -38 -44t-37 -28q-54 -38 -79 -65.5t-25 -53.5q0 -19 12 -31t35 -12q12 0 24 2.5t18 5.5v-65q-11 -5 -27 -7t-27 -2z" />
    <glyph glyph-name="uogonek" unicode="&#x173;" horiz-adv-x="572" 
d="M448 -205q-46 0 -77.5 27t-31.5 69q0 58 73 116v59q-17 -23 -37.5 -38t-42 -23.5t-43 -12t-40.5 -3.5q-68 0 -105.5 25.5t-57.5 66.5q-13 26 -15 62t-2 73v300h91v-291q0 -30 3 -59t14.5 -52t33 -37.5t58.5 -14.5q65 0 101 44.5t36 138.5v271h91v-516
q-41 -22 -62.5 -46.5t-21.5 -49.5q0 -19 12.5 -31t37.5 -12q12 0 20 2t14 4v-65q-11 -5 -24.5 -6t-24.5 -1z" />
    <glyph glyph-name="Wcircumflex" unicode="&#x174;" horiz-adv-x="948" 
d="M15 726h101l108 -468q8 -33 15.5 -71t14.5 -75h5q7 37 14.5 74t17.5 72l127 468h122l123 -468q2 -9 4.5 -19.5t6 -26.5t8.5 -40t13 -60h6q7 36 12 59.5t8.5 39.5t6 27t4.5 20l110 468h90l-179 -726h-117l-125 482q-2 9 -4.5 19.5t-6.5 26.5t-9 40t-13 60h-5
q-8 -36 -13 -60t-9 -40t-6.5 -26.5t-4.5 -19.5l-129 -482h-116zM418 905h114l95 -114h-88l-65 75l-66 -75h-86z" />
    <glyph glyph-name="wcircumflex" unicode="&#x175;" horiz-adv-x="792" 
d="M14 516h95l70 -258q11 -42 21 -89t18 -89h6q8 42 20.5 89t23.5 89l70 258h123l73 -258q12 -42 23 -89t19 -89h6q8 42 18 89t21 89l70 258h86l-143 -516h-119l-71 258q-12 45 -23 94t-21 94h-6q-11 -45 -22.5 -94t-23.5 -94l-71 -258h-119zM337 726h122l93 -126h-89
l-66 88l-67 -88h-86z" />
    <glyph glyph-name="Ycircumflex" unicode="&#x176;" horiz-adv-x="617" 
d="M259 307l-251 419h114l189 -343l198 343h104l-256 -419v-307h-98v307zM254 905h114l95 -114h-88l-65 75l-66 -75h-86z" />
    <glyph glyph-name="ycircumflex" unicode="&#x177;" horiz-adv-x="511" 
d="M107 -205q-14 0 -28.5 1t-31.5 4v77q24 -6 44 -6q26 0 44.5 9t32 24.5t23 37t16.5 47.5l-196 527h102l90 -258q16 -45 27.5 -88.5t25.5 -88.5h5q12 43 26 88.5t29 88.5l91 258h93l-192 -516q-18 -47 -36.5 -85t-41.5 -64.5t-53 -41t-70 -14.5zM196 726h122l93 -126h-89
l-66 88l-67 -88h-86z" />
    <glyph glyph-name="Ydieresis" unicode="&#x178;" horiz-adv-x="617" 
d="M259 307l-251 419h114l189 -343l198 343h104l-256 -419v-307h-98v307zM365 900h90v-105h-90v105zM167 900h90v-105h-90v105z" />
    <glyph glyph-name="Zacute" unicode="&#x179;" horiz-adv-x="569" 
d="M33 83l387 564q-31 -1 -62.5 -1.5t-61.5 -0.5h-253v81h482v-81l-389 -567q32 2 74.5 3t74.5 1h259v-82h-511v83zM335 905h111l-126 -114h-81z" />
    <glyph glyph-name="zacute" unicode="&#x17a;" horiz-adv-x="452" 
d="M27 75l287 370q-10 -2 -25 -2.5t-31.5 -1.5t-31.5 -1h-25h-160v76h375v-76l-284 -369q11 1 27 2t33 1.5t33 0.5h27h176v-75h-401v75zM275 726h104l-116 -126h-77z" />
    <glyph glyph-name="Zdotaccent" unicode="&#x17b;" horiz-adv-x="569" 
d="M33 83l387 564q-31 -1 -62.5 -1.5t-61.5 -0.5h-253v81h482v-81l-389 -567q32 2 74.5 3t74.5 1h259v-82h-511v83zM242 898h94v-100h-94v100z" />
    <glyph glyph-name="zdotaccent" unicode="&#x17c;" horiz-adv-x="452" 
d="M27 75l287 370q-10 -2 -25 -2.5t-31.5 -1.5t-31.5 -1h-25h-160v76h375v-76l-284 -369q11 1 27 2t33 1.5t33 0.5h27h176v-75h-401v75zM187 726h92v-100h-92v100z" />
    <glyph glyph-name="Zcaron" unicode="&#x17d;" horiz-adv-x="569" 
d="M33 83l387 564q-31 -1 -62.5 -1.5t-61.5 -0.5h-253v81h482v-81l-389 -567q32 2 74.5 3t74.5 1h259v-82h-511v83zM136 905h88l65 -75l66 75h86l-96 -114h-114z" />
    <glyph glyph-name="zcaron" unicode="&#x17e;" horiz-adv-x="452" 
d="M27 75l287 370q-10 -2 -25 -2.5t-31.5 -1.5t-31.5 -1h-25h-160v76h375v-76l-284 -369q11 1 27 2t33 1.5t33 0.5h27h176v-75h-401v75zM82 726h84l66 -89l67 89h84l-93 -126h-115z" />
    <glyph glyph-name="longs" unicode="&#x17f;" horiz-adv-x="242" 
d="M75 542q0 34 3 63t12 50q32 77 130 77q13 0 29 -1t32 -5v-76q-12 2 -24 3t-20 1q-23 0 -37 -7t-21.5 -21.5t-9.5 -36.5t-2 -52v-537h-92v542z" />
    <glyph glyph-name="uni018F" unicode="&#x18f;" horiz-adv-x="712" 
d="M355 -15q-76 0 -133.5 26t-96 73.5t-58 115t-19.5 151.5v26h513q-2 62 -15 114.5t-39 90.5t-65 59.5t-91 21.5q-73 0 -119 -37t-65 -118h-106q10 59 37 103t66 73t87 43t100 14q76 0 134.5 -27.5t98.5 -77.5t60 -119.5t20 -153.5q0 -85 -19.5 -155t-58.5 -119.5
t-97 -76.5t-134 -27zM355 63q46 0 81.5 17t60 47.5t39.5 73.5t21 95h-404q8 -107 57.5 -170t144.5 -63z" />
    <glyph glyph-name="uni0190" unicode="&#x190;" horiz-adv-x="606" 
d="M305 -15q-55 0 -102 13t-81 38.5t-53.5 64.5t-19.5 90q0 69 38 116t108 62v5q-28 7 -52 22t-42 36.5t-28 48t-10 56.5q0 48 18.5 85.5t51.5 63t78.5 39t98.5 13.5q115 0 176.5 -57.5t65.5 -163.5h-99q-2 70 -38 107.5t-107 37.5q-67 0 -108 -34t-41 -91q0 -63 44.5 -96.5
t128.5 -33.5h35v-77h-45q-80 0 -127.5 -34.5t-47.5 -98.5q0 -59 41.5 -97.5t116.5 -38.5q72 0 117 42.5t45 120.5h101q0 -54 -17 -98t-50.5 -75.5t-82.5 -48.5t-113 -17z" />
    <glyph glyph-name="florin" unicode="&#x192;" 
d="M141 -159q-17 0 -36 2.5t-41 9.5v80q31 -12 57 -12q47 0 70 34.5t36 99.5l46 232h-114v77h124l29 154q15 81 57 130t117 49q32 0 76 -11v-77q-30 13 -57 13q-47 0 -69.5 -37.5t-33.5 -101.5l-21 -119h121v-77h-133l-48 -263q-15 -83 -59.5 -133t-120.5 -50z" />
    <glyph glyph-name="uni0194" unicode="&#x194;" horiz-adv-x="620" 
d="M310 -205q-32 0 -57 11t-42.5 30t-27 44.5t-9.5 54.5q0 28 8 55t20 54.5t27 57t29 61.5l7 16l-251 547h100l196 -449l196 449h100l-252 -547l8 -16q16 -32 31 -61t27 -57t19 -55t7 -55q0 -29 -9.5 -54.5t-27 -44.5t-42.5 -30t-57 -11zM310 -129q28 0 40 19.5t12 44.5
q0 28 -16.5 69t-35.5 82q-20 -41 -36 -82t-16 -69q0 -25 12 -44.5t40 -19.5z" />
    <glyph glyph-name="uni0197" unicode="&#x197;" horiz-adv-x="356" 
d="M13 411h116v315h98v-315h116v-75h-116v-336h-98v336h-116v75z" />
    <glyph glyph-name="uni019D" unicode="&#x19d;" horiz-adv-x="749" 
d="M662 726v-726h-132q-95 167 -160.5 282.5t-106.5 189.5t-61.5 112t-26.5 49h-5q1 -30 2.5 -69.5t2.5 -78t1.5 -72t0.5 -51.5v-372q0 -58 -8.5 -96t-25 -60t-41 -30.5t-57.5 -8.5q-14 0 -30 1.5t-33 3.5v78q12 -3 22 -4t19 -1q38 0 51 27.5t13 85.5v740h134
q96 -167 160.5 -280.5t105 -186t60 -109t25.5 -48.5h5q-1 30 -2 67.5t-2 74.5t-1.5 69.5t-0.5 50.5v362h91z" />
    <glyph glyph-name="uni01B5" unicode="&#x1b5;" horiz-adv-x="586" 
d="M60 397h197l172 250q-31 -1 -62.5 -1.5t-61.5 -0.5h-253v81h482v-81l-170 -248h159v-77h-212l-166 -242q32 2 74.5 3t74.5 1h259v-82h-511v83l162 237h-144v77z" />
    <glyph glyph-name="uni01B6" unicode="&#x1b6;" horiz-adv-x="461" 
d="M51 293h150l118 152q-10 -2 -25 -2.5t-31.5 -1.5t-31.5 -1h-25h-160v76h375v-76l-113 -147h99v-70h-153l-117 -152q11 1 27 2t33 1.5t33 0.5h27h176v-75h-401v75l115 148h-96v70z" />
    <glyph glyph-name="uni01CD" unicode="&#x1cd;" horiz-adv-x="696" 
d="M298 726h99l298 -726h-107l-84 211h-318l-79 -211h-104zM475 291l-69 187q-14 39 -29 77t-28 76h-4q-13 -37 -26.5 -75t-27.5 -76l-73 -189h257zM196 905h88l65 -75l66 75h86l-96 -114h-114z" />
    <glyph glyph-name="uni01CE" unicode="&#x1ce;" horiz-adv-x="540" 
d="M218 -11q-86 0 -132.5 43.5t-46.5 112.5q0 42 16.5 70.5t44 47t63.5 29t74 16t76 8.5t70 7v18q0 58 -27 89.5t-87 31.5q-54 0 -87 -26.5t-33 -78.5h-91q0 40 15.5 72t43.5 54.5t66.5 35t85.5 12.5q73 0 114 -22t61 -56t24.5 -75.5t4.5 -80.5v-141q0 -45 2.5 -83t10.5 -73
h-86q-2 11 -4 27.5t-3 42.5q-33 -44 -76 -62.5t-99 -18.5zM239 56q28 0 54 7t46 25.5t32 51t12 83.5v29q-29 -4 -72 -6.5t-83 -12.5t-68 -30.5t-28 -59.5q0 -38 28.5 -62.5t78.5 -24.5zM121 726h84l66 -89l67 89h84l-93 -126h-115z" />
    <glyph glyph-name="uni01CF" unicode="&#x1cf;" horiz-adv-x="272" 
d="M87 726h98v-726h-98v726zM-17 905h88l65 -75l66 75h86l-96 -114h-114z" />
    <glyph glyph-name="uni01D0" unicode="&#x1d0;" horiz-adv-x="242" 
d="M75 516h92v-516h-92v516zM175 600h-109l-82 126h78l59 -85l60 85h77z" />
    <glyph glyph-name="uni01D1" unicode="&#x1d1;" horiz-adv-x="763" 
d="M381 -15q-76 0 -138 27.5t-105.5 77.5t-67 119.5t-23.5 153.5t23.5 153.5t67 119.5t105.5 77.5t138 27.5t138 -27.5t105.5 -77.5t67.5 -119.5t24 -153.5q0 -85 -24 -155t-67.5 -119.5t-105.5 -76.5t-138 -27zM381 63q53 0 96 22.5t73.5 63t47 95t16.5 119.5
q0 64 -16.5 119t-47 95.5t-73.5 63t-96 22.5t-96 -22.5t-73 -63t-46.5 -95.5t-16.5 -119q0 -65 16.5 -119.5t46.5 -95t73 -63t96 -22.5zM229 905h88l65 -75l66 75h86l-96 -114h-114z" />
    <glyph glyph-name="uni01D2" unicode="&#x1d2;" horiz-adv-x="580" 
d="M288 -15q-57 0 -103 20t-78.5 56t-49.5 86.5t-17 110.5t17.5 110t49.5 86.5t78.5 56.5t103.5 20q58 0 104.5 -20t79 -56.5t50 -86.5t17.5 -110t-17.5 -110.5t-50 -86.5t-79.5 -56t-105 -20zM288 58q36 0 65.5 14.5t49.5 40.5t31 62.5t11 81.5t-11 81.5t-31.5 63t-49 41
t-64.5 14.5q-35 0 -63.5 -14t-48.5 -40t-31 -62.5t-11 -81.5t10.5 -82t30.5 -63.5t48.5 -41t63.5 -14.5zM139 726h84l66 -89l67 89h84l-93 -126h-115z" />
    <glyph glyph-name="uni01D3" unicode="&#x1d3;" horiz-adv-x="704" 
d="M351 -15q-90 0 -152 34t-91 99q-15 34 -21.5 76t-6.5 112v420h98v-418q0 -75 9 -117t32 -70t56.5 -43.5t75.5 -15.5t78 16.5t56 42.5q22 29 31.5 72.5t9.5 114.5v418h98v-420q0 -39 -2 -70t-7 -56.5t-13 -46t-20 -38.5q-32 -51 -91.5 -80.5t-139.5 -29.5zM200 905h88
l65 -75l66 75h86l-96 -114h-114z" />
    <glyph glyph-name="uni01D4" unicode="&#x1d4;" horiz-adv-x="572" 
d="M249 -11q-68 0 -105.5 25.5t-57.5 66.5q-13 26 -15 62t-2 73v300h91v-291q0 -30 3 -59t14.5 -52t33 -37.5t58.5 -14.5q65 0 101 44.5t36 138.5v271h91v-516h-85v66q-17 -23 -37.5 -38t-42 -23.5t-43 -12t-40.5 -3.5zM134 726h84l66 -89l67 89h84l-93 -126h-115z" />
    <glyph glyph-name="Gcaron" unicode="&#x1e6;" horiz-adv-x="722" 
d="M358 -12q-81 0 -139.5 29t-96.5 79.5t-56.5 119t-18.5 147.5t22 148t64.5 120t104 80.5t139.5 29.5q62 0 111.5 -17t85.5 -47t58 -71.5t29 -90.5h-101q-13 70 -61 109t-122 39q-51 0 -93 -21.5t-72 -61t-46.5 -95t-16.5 -122.5q0 -68 15.5 -122.5t44 -93.5t69 -60
t91.5 -21q45 0 81.5 16.5t62.5 46.5t40.5 72t14.5 93h-178v82h273v-376h-86v30q0 16 0.5 32.5t2.5 30.5l-5 2q-35 -51 -90 -79t-127 -28zM224 905h88l65 -75l66 75h86l-96 -114h-114z" />
    <glyph glyph-name="gcaron" unicode="&#x1e7;" horiz-adv-x="576" 
d="M276 -205q-94 0 -150 40t-63 122h95q3 -48 34 -70.5t86 -22.5q34 0 59.5 9t42.5 30t26 55.5t9 85.5v51q-33 -44 -70.5 -61t-92.5 -17q-48 0 -87 18.5t-66.5 52t-42.5 79.5t-15 101q0 50 14.5 97t42 83t68 57.5t91.5 21.5q115 0 160 -83v72h85v-442q0 -66 -10.5 -118
t-36.5 -87.5t-69.5 -54.5t-109.5 -19zM275 88q65 0 103 50.5t38 138.5q0 39 -10 72t-29 57t-45 37t-57 13q-67 0 -103.5 -49t-36.5 -129q0 -90 37.5 -140t102.5 -50zM134 726h84l66 -89l67 89h84l-93 -126h-115z" />
    <glyph glyph-name="uni01E8" unicode="&#x1e8;" horiz-adv-x="620" 
d="M87 726h98v-324l300 324h116l-318 -334l344 -392h-126l-316 369v-369h-98v726zM172 905h88l65 -75l66 75h86l-96 -114h-114z" />
    <glyph glyph-name="uni01E9" unicode="&#x1e9;" horiz-adv-x="500" 
d="M75 726h92v-422l209 212h109l-228 -226l251 -290h-116l-225 270v-270h-92v726zM-19 905h83l59 -75l60 75h82l-88 -114h-109z" />
    <glyph glyph-name="uni01EA" unicode="&#x1ea;" horiz-adv-x="763" 
d="M463 -205q-51 0 -82 27t-31 69q0 47 54 95q-5 -1 -11 -1h-12q-76 0 -138 27.5t-105.5 77.5t-67 119.5t-23.5 153.5t23.5 153.5t67 119.5t105.5 77.5t138 27.5t138 -27.5t105.5 -77.5t67.5 -119.5t24 -153.5q0 -121 -46 -207.5t-132 -134.5q-58 -32 -84 -61.5t-26 -55.5
q0 -19 12 -31t35 -12q12 0 24 2.5t18 5.5v-65q-11 -5 -27 -7t-27 -2zM381 63q53 0 96 22.5t73.5 63t47 95t16.5 119.5q0 64 -16.5 119t-47 95.5t-73.5 63t-96 22.5t-96 -22.5t-73 -63t-46.5 -95.5t-16.5 -119q0 -65 16.5 -119.5t46.5 -95t73 -63t96 -22.5z" />
    <glyph glyph-name="uni01EB" unicode="&#x1eb;" horiz-adv-x="580" 
d="M349 -205q-51 0 -81.5 27.5t-30.5 66.5q0 51 54 96h-3q-57 0 -103 20t-78.5 56t-49.5 86.5t-17 110.5t17.5 110t49.5 86.5t78.5 56.5t103.5 20q58 0 104.5 -20t79 -56.5t50 -86.5t17.5 -110q0 -80 -29 -138t-80 -92q-21 -14 -35.5 -24t-18.5 -13q-22 -18 -42.5 -39.5
t-20.5 -47.5q0 -19 12 -31t35 -12q11 0 22.5 2.5t17.5 5.5v-65q-11 -5 -26 -7t-26 -2zM288 58q36 0 65.5 14.5t49.5 40.5t31 62.5t11 81.5t-11 81.5t-31.5 63t-49 41t-64.5 14.5q-35 0 -63.5 -14t-48.5 -40t-31 -62.5t-11 -81.5t10.5 -82t30.5 -63.5t48.5 -41t63.5 -14.5z
" />
    <glyph glyph-name="uni01F8" unicode="&#x1f8;" horiz-adv-x="749" 
d="M87 726h134q96 -167 160.5 -280.5t105 -186t60 -109t25.5 -48.5h5q-1 30 -2 67.5t-2 74.5t-1.5 69.5t-0.5 50.5v362h91v-726h-132q-95 167 -160.5 282.5t-106.5 189.5t-61.5 112t-26.5 49h-5q1 -30 2.5 -69.5t2.5 -78t1.5 -72t0.5 -51.5v-362h-90v726zM223 905h111
l96 -114h-82z" />
    <glyph glyph-name="uni01F9" unicode="&#x1f9;" horiz-adv-x="575" 
d="M75 516h85v-66q18 23 38.5 38t42 23.5t42.5 12t41 3.5q67 0 107 -24t57 -68q11 -26 14.5 -57.5t3.5 -68.5v-309h-92v291q0 30 -3.5 59t-14.5 52.5t-33 37.5t-59 14q-65 0 -101 -45t-36 -139v-270h-92v516zM156 726h105l88 -126h-77z" />
    <glyph glyph-name="Aringacute" unicode="&#x1fa;" horiz-adv-x="696" 
d="M294 717q-28 14 -42.5 39.5t-14.5 53.5q0 33 20.5 62t58.5 39l75 104h103l-101 -108q32 -13 49 -40t17 -57q0 -29 -15 -54t-44 -39l295 -717h-107l-84 211h-318l-79 -211h-104zM475 291l-69 187q-14 39 -29 77t-28 76h-4q-13 -37 -26.5 -75t-27.5 -76l-73 -189h257z
M348 751q32 0 45.5 18.5t13.5 40.5q0 23 -14 41t-45 18q-30 0 -44 -18t-14 -41q0 -22 14 -40.5t44 -18.5z" />
    <glyph glyph-name="aringacute" unicode="&#x1fb;" horiz-adv-x="540" 
d="M218 -11q-86 0 -132.5 43.5t-46.5 112.5q0 42 16.5 70.5t44 47t63.5 29t74 16t76 8.5t70 7v18q0 58 -27 89.5t-87 31.5q-54 0 -87 -26.5t-33 -78.5h-91q0 40 15.5 72t43.5 54.5t66.5 35t85.5 12.5q73 0 114 -22t61 -56t24.5 -75.5t4.5 -80.5v-141q0 -45 2.5 -83t10.5 -73
h-86q-2 11 -4 27.5t-3 42.5q-33 -44 -76 -62.5t-99 -18.5zM270 563q-26 0 -46 9t-34 23.5t-21.5 32.5t-7.5 37q0 30 17.5 57t50.5 39l85 118h103l-111 -117q35 -11 54 -38.5t19 -58.5q0 -19 -7 -37t-21 -32.5t-34.5 -23.5t-46.5 -9zM239 56q28 0 54 7t46 25.5t32 51t12 83.5
v29q-29 -4 -72 -6.5t-83 -12.5t-68 -30.5t-28 -59.5q0 -38 28.5 -62.5t78.5 -24.5zM270 607q32 0 45 18.5t13 39.5q0 22 -14 40t-44 18q-29 0 -43 -18t-14 -40q0 -21 14 -39.5t43 -18.5z" />
    <glyph glyph-name="AEacute" unicode="&#x1fc;" horiz-adv-x="957" 
d="M373 726h509v-81h-346l32 -227h306v-81h-295l37 -256h311v-81h-397l-33 227h-275l-112 -227h-107zM486 308l-47 340h-10l-166 -340h223zM546 905h111l-126 -114h-81z" />
    <glyph glyph-name="aeacute" unicode="&#x1fd;" horiz-adv-x="878" 
d="M224 -15q-40 0 -74 9.5t-58.5 29t-38 49t-13.5 68.5q0 46 19.5 78.5t56.5 53t89 30t117 9.5h60v2q-5 72 -33 110t-85 38q-52 0 -81.5 -24.5t-36.5 -78.5h-89q2 42 18.5 74t44.5 54t65 33t79 11q67 0 109 -25.5t63 -68.5q35 47 78 70.5t103 23.5q109 0 164.5 -74.5
t55.5 -208.5v-16h-363q0 -32 7 -63t24 -56.5t44.5 -41t68.5 -15.5q52 0 80 24t44 71h90q-9 -46 -30 -78t-49.5 -51.5t-63 -28t-69.5 -8.5q-64 0 -115.5 26t-77.5 77q-31 -51 -84 -77t-119 -26zM234 53q33 0 60.5 9t47 30t30.5 56.5t11 88.5v4h-59q-56 0 -92.5 -8t-58 -21.5
t-30 -31.5t-8.5 -37q0 -38 24.5 -64t74.5 -26zM747 306q-5 68 -39 110.5t-94 42.5q-29 0 -53.5 -11.5t-42.5 -31.5t-29 -48.5t-13 -61.5h271zM486 726h104l-116 -126h-77z" />
    <glyph glyph-name="Oslashacute" unicode="&#x1fe;" horiz-adv-x="763" 
d="M74 8l61 83q-42 51 -65 119t-23 152t23.5 153.5t67 119.5t105.5 77.5t138 27.5q56 0 103.5 -15t86.5 -43l50 68l59 -45l-54 -73q43 -51 66.5 -119t23.5 -151q0 -85 -24 -155t-67.5 -119.5t-105.5 -76.5t-138 -27q-110 0 -190 57l-57 -78zM381 62q53 0 96 22.5t73.5 63
t47 95t16.5 119.5q0 55 -12 103.5t-35 86.5l-323 -440q28 -24 62 -37t75 -13zM518 611q-28 24 -62 37.5t-75 13.5q-53 0 -96 -22.5t-73 -63t-46.5 -95.5t-16.5 -119q0 -112 46 -190zM428 905h111l-126 -114h-81z" />
    <glyph glyph-name="oslashacute" unicode="&#x1ff;" horiz-adv-x="588" 
d="M53 -11l55 74q-31 36 -47.5 85.5t-16.5 109.5t17.5 110t49.5 86.5t78.5 56.5t103.5 20q40 0 74 -10t63 -28l52 69l54 -41l-55 -73q30 -36 46.5 -84.5t16.5 -105.5q0 -60 -17.5 -110.5t-50 -86.5t-79.5 -56t-105 -20q-38 0 -71 9t-60 25l-54 -72zM292 58q36 0 65.5 14.5
t49.5 40.5t31 62.5t11 81.5q0 65 -25 115l-215 -288q35 -26 83 -26zM381 427q-38 30 -88 30q-35 0 -63.5 -14t-48.5 -40t-31 -62.5t-11 -81.5q0 -69 25 -121zM336 726h104l-116 -126h-77z" />
    <glyph glyph-name="uni0218" unicode="&#x218;" horiz-adv-x="623" 
d="M315 -15q-129 0 -201.5 65.5t-72.5 187.5h99q0 -85 44.5 -130t130.5 -45q77 0 120 34t43 91q0 34 -15.5 57t-42 38.5t-60.5 26t-70 20.5q-43 12 -85 26t-75.5 37.5t-54 59t-20.5 89.5q0 44 19 80.5t53 63t81.5 41t103.5 14.5q119 0 187 -61t68 -170h-96q0 40 -14 68.5
t-36.5 47.5t-51.5 28t-59 9q-28 0 -55.5 -7t-49 -21.5t-34.5 -36t-13 -50.5q0 -33 14.5 -55t39 -37t57 -25.5t68.5 -20.5q43 -12 87 -26.5t79 -38.5t57 -60t22 -91q0 -47 -19.5 -85.5t-54.5 -66t-84 -42.5t-109 -15zM310 -156h-40v93h101v-91l-48 -100h-51z" />
    <glyph glyph-name="uni0219" unicode="&#x219;" horiz-adv-x="505" 
d="M260 -15q-108 0 -166 47t-59 134h93q0 -55 35 -82.5t99 -27.5q53 0 81.5 19.5t28.5 57.5q0 24 -11 39t-29.5 24.5t-42.5 15t-50 10.5q-34 6 -68 14t-61.5 24.5t-45 45t-17.5 75.5q0 33 14.5 60.5t41 47.5t63.5 31t83 11q98 0 151.5 -44t54.5 -129h-91q-1 101 -117 101
q-48 0 -76 -19.5t-28 -52.5q0 -22 10.5 -36t27.5 -23t40 -14.5t49 -10.5q34 -7 70 -15.5t64.5 -25.5t47 -46t18.5 -77q0 -35 -16 -63.5t-44 -48.5t-66.5 -31t-83.5 -11zM251 -155h-36v91h95v-91l-46 -98h-48z" />
    <glyph glyph-name="uni021A" unicode="&#x21a;" horiz-adv-x="599" 
d="M250 645h-239v81h577v-81h-239v-645h-99v645zM289 -156h-40v93h101v-91l-48 -100h-51z" />
    <glyph glyph-name="uni021B" unicode="&#x21b;" horiz-adv-x="333" 
d="M238 -9q-30 0 -54.5 7.5t-41 24.5t-25.5 46t-9 71v300h-95v76h95v125h92v-125h112v-76h-112v-257q0 -27 1.5 -48.5t7.5 -36t18.5 -22t34.5 -7.5q11 0 23.5 0.5t28.5 4.5v-74q-41 -9 -76 -9zM212 -155h-36v91h95v-91l-46 -98h-48z" />
    <glyph glyph-name="uni021E" unicode="&#x21e;" horiz-adv-x="745" 
d="M87 726h98v-311h374v311h99v-726h-99v334h-374v-334h-98v726zM220 905h88l65 -75l66 75h86l-96 -114h-114z" />
    <glyph glyph-name="uni021F" unicode="&#x21f;" horiz-adv-x="575" 
d="M75 726h92v-275q28 44 70.5 60t86.5 16q67 0 106.5 -24t58.5 -68q11 -26 14 -57.5t3 -68.5v-309h-92v290q0 30 -3.5 59.5t-14.5 52.5t-33 37.5t-59 14.5q-65 0 -101 -45t-36 -139v-270h-92v726zM-19 905h83l59 -75l60 75h82l-88 -114h-109z" />
    <glyph glyph-name="uni022E" unicode="&#x22e;" horiz-adv-x="763" 
d="M381 -15q-76 0 -138 27.5t-105.5 77.5t-67 119.5t-23.5 153.5t23.5 153.5t67 119.5t105.5 77.5t138 27.5t138 -27.5t105.5 -77.5t67.5 -119.5t24 -153.5q0 -85 -24 -155t-67.5 -119.5t-105.5 -76.5t-138 -27zM381 63q53 0 96 22.5t73.5 63t47 95t16.5 119.5
q0 64 -16.5 119t-47 95.5t-73.5 63t-96 22.5t-96 -22.5t-73 -63t-46.5 -95.5t-16.5 -119q0 -65 16.5 -119.5t46.5 -95t73 -63t96 -22.5zM334 898h94v-100h-94v100z" />
    <glyph glyph-name="uni022F" unicode="&#x22f;" horiz-adv-x="580" 
d="M288 -15q-57 0 -103 20t-78.5 56t-49.5 86.5t-17 110.5t17.5 110t49.5 86.5t78.5 56.5t103.5 20q58 0 104.5 -20t79 -56.5t50 -86.5t17.5 -110t-17.5 -110.5t-50 -86.5t-79.5 -56t-105 -20zM288 58q36 0 65.5 14.5t49.5 40.5t31 62.5t11 81.5t-11 81.5t-31.5 63t-49 41
t-64.5 14.5q-35 0 -63.5 -14t-48.5 -40t-31 -62.5t-11 -81.5t10.5 -82t30.5 -63.5t48.5 -41t63.5 -14.5zM243 726h92v-100h-92v100z" />
    <glyph glyph-name="uni0232" unicode="&#x232;" horiz-adv-x="617" 
d="M259 307l-251 419h114l189 -343l198 343h104l-256 -419v-307h-98v307zM177 879h266v-70h-266v70z" />
    <glyph glyph-name="uni0233" unicode="&#x233;" horiz-adv-x="511" 
d="M107 -205q-14 0 -28.5 1t-31.5 4v77q24 -6 44 -6q26 0 44.5 9t32 24.5t23 37t16.5 47.5l-196 527h102l90 -258q16 -45 27.5 -88.5t25.5 -88.5h5q12 43 26 88.5t29 88.5l91 258h93l-192 -516q-18 -47 -36.5 -85t-41.5 -64.5t-53 -41t-70 -14.5zM126 703h264v-70h-264v70z
" />
    <glyph glyph-name="uni0237" unicode="&#x237;" horiz-adv-x="242" 
d="M41 -205q-15 0 -31.5 1.5t-36.5 3.5v78q11 -4 24 -4.5t21 -0.5q38 0 47.5 30.5t9.5 82.5v530h92v-518q0 -58 -6 -97t-20.5 -62.5t-39 -33.5t-60.5 -10z" />
    <glyph glyph-name="uni0244" unicode="&#x244;" horiz-adv-x="747" 
d="M20 411h82v315h98v-315h348v315h98v-315h82v-75h-82v-30q0 -39 -2 -70t-7 -56.5t-13 -46t-20 -38.5q-32 -51 -91.5 -80.5t-139.5 -29.5q-90 0 -151.5 34.5t-91.5 98.5q-16 34 -22 76t-6 112v30h-82v75zM241 121q47 -59 132 -59q42 0 78 16.5t56 42.5q21 29 31 72.5
t10 114.5v28h-348v-28q0 -75 9 -117t32 -70z" />
    <glyph glyph-name="uni0259" unicode="&#x259;" horiz-adv-x="565" 
d="M277 -15q-121 0 -177.5 78.5t-56.5 222.5h385q-2 39 -14.5 70.5t-32.5 54t-47 34.5t-59 12q-50 0 -85 -22.5t-49 -72.5h-97q17 84 81.5 126.5t153.5 42.5q119 0 182 -72.5t63 -200.5q0 -59 -17 -109t-49.5 -86.5t-78 -57t-102.5 -20.5zM281 58q58 0 96.5 38t48.5 116
h-285q8 -78 46 -116t94 -38z" />
    <glyph glyph-name="uni025B" unicode="&#x25b;" horiz-adv-x="511" 
d="M263 -15q-48 0 -89 9.5t-71 28t-47 46t-17 63.5q0 51 29.5 85.5t90.5 46.5v4q-48 11 -76 44.5t-28 75.5q0 32 15 58.5t41.5 45t63 29t80.5 10.5q102 0 157 -47t59 -128h-92q-2 47 -32.5 75.5t-87.5 28.5q-51 0 -79.5 -21.5t-28.5 -58.5q0 -42 32.5 -63t91.5 -21h20v-68
h-32q-60 0 -94 -21.5t-34 -66.5q0 -40 36 -62t92 -22q60 0 90.5 32.5t33.5 83.5h92q0 -41 -15 -75.5t-43 -59t-68 -38.5t-90 -14z" />
    <glyph glyph-name="uni0263" unicode="&#x263;" horiz-adv-x="474" 
d="M237 -205q-37 0 -63 12t-42 31.5t-23.5 44.5t-7.5 51q0 32 10 61.5t30 64.5l52 95l-200 361h96l149 -278l151 278h92l-199 -360l51 -96q19 -35 29.5 -64.5t10.5 -61.5q0 -26 -7.5 -51t-23.5 -44.5t-42 -31.5t-63 -12zM181 -64q0 -11 2.5 -23.5t8.5 -23.5t17 -18.5
t28 -7.5t28 7.5t17 18.5t8.5 23.5t2.5 23.5q0 23 -7.5 44t-20.5 44l-28 51l-28 -51q-13 -23 -20.5 -44t-7.5 -44z" />
    <glyph glyph-name="uni0268" unicode="&#x268;" horiz-adv-x="351" 
d="M29 321h100v195h92v-195h101v-72h-101v-249h-92v249h-100v72zM129 726h92v-100h-92v100z" />
    <glyph glyph-name="uni0272" unicode="&#x272;" horiz-adv-x="575" 
d="M488 435q12 -29 15 -63t3 -63v-309h-92v291q0 30 -3.5 59t-14.5 52.5t-33 37.5t-59 14q-65 0 -101 -45t-36 -139v-280q0 -25 -2 -58.5t-14.5 -64t-40 -51.5t-77.5 -21q-13 0 -29.5 1.5t-33.5 3.5v78q12 -3 22 -4t16 -1q25 0 38.5 10.5t20 27t7.5 36.5t1 39v530h85v-66
q18 23 38.5 38t42 23.5t42.5 12t41 3.5q68 0 106.5 -24t57.5 -68z" />
    <glyph glyph-name="uni0289" unicode="&#x289;" horiz-adv-x="610" 
d="M17 321h72v195h91v-195h246v195h91v-195h73v-72h-73v-249h-85v66q-17 -23 -37.5 -38t-42 -23.5t-43 -12t-40.5 -3.5q-68 0 -105.5 25.5t-57.5 66.5q-13 26 -15 62t-2 73v33h-72v72zM289 62q65 0 101 44.5t36 138.5v4h-246v-24q0 -30 3 -59t14.5 -52t33 -37.5t58.5 -14.5z
" />
    <glyph glyph-name="uni02BC" unicode="&#x2bc;" horiz-adv-x="187" 
d="M99 532h-48l38 97h-39v94h97v-93z" />
    <glyph glyph-name="circumflex" unicode="&#x2c6;" horiz-adv-x="585" 
d="M231 726h122l93 -126h-89l-66 88l-67 -88h-86z" />
    <glyph glyph-name="caron" unicode="&#x2c7;" horiz-adv-x="578" 
d="M138 726h84l66 -89l67 89h84l-93 -126h-115z" />
    <glyph glyph-name="uni02C9" unicode="&#x2c9;" horiz-adv-x="556" 
d="M146 703h264v-70h-264v70z" />
    <glyph glyph-name="breve" unicode="&#x2d8;" horiz-adv-x="558" 
d="M279 597q-30 0 -56.5 8t-45.5 23.5t-30 40t-11 57.5h76q0 -39 19 -56t48 -17t47.5 17t18.5 56h76q0 -33 -11 -57.5t-30 -40.5t-45 -23.5t-56 -7.5z" />
    <glyph glyph-name="dotaccent" unicode="&#x2d9;" horiz-adv-x="576" 
d="M242 726h92v-100h-92v100z" />
    <glyph glyph-name="ring" unicode="&#x2da;" horiz-adv-x="586" 
d="M292 563q-26 0 -46 9t-34 23.5t-21.5 32.5t-7.5 37t7.5 37.5t21.5 33t34 23.5t46 9t46.5 -9t34.5 -23.5t21 -33t7 -37.5t-7 -37t-21 -32.5t-34.5 -23.5t-46.5 -9zM292 607q32 0 45 18.5t13 39.5q0 22 -14 40t-44 18q-29 0 -43 -18t-14 -40q0 -21 14 -39.5t43 -18.5z" />
    <glyph glyph-name="ogonek" unicode="&#x2db;" horiz-adv-x="544" 
d="M298 -205q-46 0 -77.5 27t-31.5 69q0 65 91 130l67 -21q-41 -22 -62.5 -46.5t-21.5 -49.5q0 -19 12.5 -31t37.5 -12q12 0 20 2t14 4v-65q-11 -5 -24.5 -6t-24.5 -1z" />
    <glyph glyph-name="tilde" unicode="&#x2dc;" horiz-adv-x="605" 
d="M141 612q6 48 28.5 77.5t63.5 29.5q15 0 32.5 -6.5t35.5 -14t35 -13.5t31 -6q15 0 25.5 8t15.5 30h54q-6 -48 -28.5 -77.5t-63.5 -29.5q-15 0 -32 6t-35 13.5t-35.5 14t-31.5 6.5q-15 0 -25.5 -8t-15.5 -30h-54z" />
    <glyph glyph-name="hungarumlaut" unicode="&#x2dd;" horiz-adv-x="604" 
d="M436 726h99l-117 -126h-73zM243 726h98l-111 -126h-70z" />
    <glyph glyph-name="gravecomb" unicode="&#x300;" horiz-adv-x="0" 
d="M-344 726h105l88 -126h-77z" />
    <glyph glyph-name="acutecomb" unicode="&#x301;" horiz-adv-x="0" 
d="M-262 726h104l-116 -126h-77z" />
    <glyph glyph-name="uni0302" unicode="&#x302;" horiz-adv-x="0" 
d="M-309 726h122l93 -126h-89l-66 88l-67 -88h-86z" />
    <glyph glyph-name="tildecomb" unicode="&#x303;" horiz-adv-x="0" 
d="M-414 612q6 48 28.5 77.5t63.5 29.5q15 0 32.5 -6.5t35.5 -14t35 -13.5t31 -6q15 0 25.5 8t15.5 30h54q-6 -48 -28.5 -77.5t-63.5 -29.5q-15 0 -32 6t-35 13.5t-35.5 14t-31.5 6.5q-15 0 -25.5 -8t-15.5 -30h-54z" />
    <glyph glyph-name="uni0304" unicode="&#x304;" horiz-adv-x="0" 
d="M-382 703h264v-70h-264v70z" />
    <glyph glyph-name="uni0306" unicode="&#x306;" horiz-adv-x="0" 
d="M-248 597q-30 0 -56.5 8t-45.5 23.5t-30 40t-11 57.5h76q0 -39 19 -56t48 -17t47.5 17t18.5 56h76q0 -33 -11 -57.5t-30 -40.5t-45 -23.5t-56 -7.5z" />
    <glyph glyph-name="uni0307" unicode="&#x307;" horiz-adv-x="0" 
d="M-296 726h92v-100h-92v100z" />
    <glyph glyph-name="uni0308" unicode="&#x308;" horiz-adv-x="0" 
d="M-197 726h90v-105h-90v105zM-393 726h90v-105h-90v105z" />
    <glyph glyph-name="uni030A" unicode="&#x30a;" horiz-adv-x="0" 
d="M-251 563q-26 0 -46 9t-34 23.5t-21.5 32.5t-7.5 37t7.5 37.5t21.5 33t34 23.5t46 9t46.5 -9t34.5 -23.5t21 -33t7 -37.5t-7 -37t-21 -32.5t-34.5 -23.5t-46.5 -9zM-251 607q32 0 45 18.5t13 39.5q0 22 -14 40t-44 18q-29 0 -43 -18t-14 -40q0 -21 14 -39.5t43 -18.5z
" />
    <glyph glyph-name="uni030B" unicode="&#x30b;" horiz-adv-x="0" 
d="M-157 726h99l-117 -126h-73zM-350 726h98l-111 -126h-70z" />
    <glyph glyph-name="uni030C" unicode="&#x30c;" horiz-adv-x="0" 
d="M-400 726h84l66 -89l67 89h84l-93 -126h-115z" />
    <glyph glyph-name="uni0312" unicode="&#x312;" horiz-adv-x="0" 
d="M-237 676h36v-91h-95v91l46 98h48z" />
    <glyph glyph-name="uni0313" unicode="&#x313;" horiz-adv-x="0" 
d="M-249 532h-48l38 97h-39v94h97v-93z" />
    <glyph glyph-name="dotbelowcomb" unicode="&#x323;" horiz-adv-x="0" 
d="M-296 -72h92v-100h-92v100z" />
    <glyph glyph-name="uni0326" unicode="&#x326;" horiz-adv-x="0" 
d="M-262 -155h-36v91h95v-91l-46 -98h-48z" />
    <glyph glyph-name="uni0327" unicode="&#x327;" horiz-adv-x="0" 
d="M-245 -205q-11 0 -22 0.5t-22 4.5v53q12 -3 23 -3q32 0 45.5 11t13.5 29q0 16 -10 28.5t-34 12.5h-9t-9 -1v100h66v-61q34 -2 50 -28t16 -54q0 -36 -27 -64t-81 -28z" />
    <glyph glyph-name="uni0328" unicode="&#x328;" horiz-adv-x="0" 
d="M-241 -205q-46 0 -77.5 27t-31.5 69q0 65 91 130l67 -21q-41 -22 -62.5 -46.5t-21.5 -49.5q0 -19 12.5 -31t37.5 -12q12 0 20 2t14 4v-65q-11 -5 -24.5 -6t-24.5 -1z" />
    <glyph glyph-name="uni032E" unicode="&#x32e;" horiz-adv-x="0" 
d="M-249 -186q-30 0 -56.5 8t-45.5 23.5t-30 40t-11 57.5h76q0 -39 19 -56t48 -17t47.5 17t18.5 56h76q0 -33 -11 -57.5t-30 -40.5t-45 -23.5t-56 -7.5z" />
    <glyph glyph-name="uni0331" unicode="&#x331;" horiz-adv-x="0" 
d="M-382 -87h264v-70h-264v70z" />
    <glyph glyph-name="uni037E" unicode="&#x37e;" horiz-adv-x="241" 
d="M62 -138l47 147h-47v110h117v-119l-57 -138h-60zM179 516v-119h-115v119h115z" />
    <glyph glyph-name="dieresistonos" unicode="&#x385;" horiz-adv-x="650" 
d="M281 746h103l-42 -146h-62zM147 726h90v-105h-90v105zM413 726h90v-105h-90v105z" />
    <glyph glyph-name="anoteleia" unicode="&#x387;" horiz-adv-x="225" 
d="M171 516v-119h-115v119h115z" />
    <glyph glyph-name="uni0394" unicode="&#x394;" horiz-adv-x="694" 
d="M296 726h99l282 -655v-71h-659v71zM399 500q-12 29 -20.5 49.5t-14.5 35.5t-10 25.5t-7 20.5h-4q-3 -9 -6 -19.5t-7.5 -24.5t-12 -33.5t-18.5 -46.5l-177 -426h446z" />
    <glyph glyph-name="Sigma" unicode="&#x3a3;" horiz-adv-x="594" 
d="M32 84l294 276l-284 286v80h512v-81h-323q-19 0 -36.5 0.5t-37.5 1.5l272 -271v-25l-295 -274q10 1 30 2t42.5 2t42.5 1h30h284v-82h-531v84z" />
    <glyph glyph-name="uni03A9" unicode="&#x3a9;" horiz-adv-x="780" 
d="M199 82q-78 67 -112.5 144.5t-34.5 176.5q0 69 23 130.5t66 107.5t105.5 73t142.5 27q79 0 142 -26.5t107 -72.5t67 -107.5t23 -131.5q0 -99 -34.5 -176.5t-112.5 -144.5h137v-82h-259v80q87 49 128 133.5t41 188.5q0 58 -15.5 106.5t-46 83t-75 53.5t-102.5 19
t-102 -19.5t-74 -54t-45.5 -82.5t-15.5 -106q0 -104 41 -188.5t128 -133.5v-80h-259v82h137z" />
    <glyph glyph-name="uni03BC" unicode="&#x3bc;" horiz-adv-x="598" 
d="M166 516v-275q0 -36 5.5 -68t20 -57t38.5 -39.5t62 -14.5q37 0 60 14t36.5 38.5t18.5 58t5 72.5v271h91v-400q0 -29 10.5 -40.5t37.5 -11.5q10 0 20 2t18 4v-69q-16 -5 -30.5 -7t-28.5 -2q-42 0 -70 14.5t-37 49.5l-2 8q-20 -35 -49 -54.5t-80 -19.5q-45 0 -77.5 19
t-47.5 49v-259h-92v717h91z" />
    <glyph glyph-name="pi" unicode="&#x3c0;" horiz-adv-x="610" 
d="M504 -8q-50 0 -78 28.5t-28 85.5v329h-199v-435h-89v435h-92v81h560v-81h-91v-311q0 -26 7 -42.5t31 -16.5q8 0 18 1t23 5v-71q-30 -8 -62 -8z" />
    <glyph glyph-name="uni1E02" unicode="&#x1e02;" horiz-adv-x="646" 
d="M87 726h214q48 0 97.5 -4.5t90 -23t66.5 -57t26 -106.5q0 -54 -31.5 -99.5t-93.5 -62.5v-2q69 -16 106.5 -55t37.5 -116q0 -66 -28 -105.5t-72.5 -60.5t-99 -27.5t-107.5 -6.5h-206v726zM294 79q42 0 79 3.5t65 16t44.5 37t16.5 66.5q0 39 -12.5 63.5t-39 38.5t-68 19
t-98.5 5h-96v-249h109zM276 407q31 0 67 2t67 13t52 35t21 69q0 42 -15.5 66t-42 36t-62 15t-76.5 3h-102v-239h91zM267 898h94v-100h-94v100z" />
    <glyph glyph-name="uni1E03" unicode="&#x1e03;" horiz-adv-x="585" 
d="M324 -11q-53 0 -93.5 19t-67.5 58v-66h-88v726h92v-271q33 42 73 57t88 15q50 0 90 -20t68 -55.5t43 -85t15 -108.5q0 -62 -16.5 -112t-46 -85t-69.5 -53.5t-88 -18.5zM310 62q64 0 102 51.5t38 144.5t-38 144.5t-102 51.5q-33 0 -59.5 -14.5t-45.5 -40t-29.5 -62
t-10.5 -79.5q0 -41 10.5 -76.5t29.5 -62t45.5 -42t59.5 -15.5zM283 726h92v-100h-92v100z" />
    <glyph glyph-name="uni1E0A" unicode="&#x1e0a;" horiz-adv-x="710" 
d="M87 726h210q72 0 127 -12t98 -41q69 -48 105 -129t36 -181t-39 -179.5t-108 -127.5q-43 -29 -95 -42.5t-124 -13.5h-210v726zM284 80q63 0 111.5 13.5t80.5 41.5q40 35 62 95.5t22 132.5q0 71 -20 133t-60 97q-31 27 -82 40t-114 13h-99v-566h99zM302 898h94v-100h-94
v100z" />
    <glyph glyph-name="uni1E0B" unicode="&#x1e0b;" horiz-adv-x="585" 
d="M262 -11q-103 0 -162 69.5t-59 199.5q0 58 15.5 107t44.5 85t70 56.5t91 20.5q53 0 91.5 -16t64.5 -55v270h92v-726h-88v68q-53 -79 -160 -79zM275 62q66 0 105.5 52.5t39.5 143.5q0 93 -39.5 144.5t-105.5 51.5q-64 0 -101.5 -51.5t-37.5 -144.5q0 -91 37.5 -143.5
t101.5 -52.5zM210 726h92v-100h-92v100z" />
    <glyph glyph-name="uni1E0C" unicode="&#x1e0c;" horiz-adv-x="710" 
d="M87 726h210q72 0 127 -12t98 -41q69 -48 105 -129t36 -181t-39 -179.5t-108 -127.5q-43 -29 -95 -42.5t-124 -13.5h-210v726zM284 80q63 0 111.5 13.5t80.5 41.5q40 35 62 95.5t22 132.5q0 71 -20 133t-60 97q-31 27 -82 40t-114 13h-99v-566h99zM282 -72h94v-100h-94
v100z" />
    <glyph glyph-name="uni1E0D" unicode="&#x1e0d;" horiz-adv-x="585" 
d="M262 -11q-103 0 -162 69.5t-59 199.5q0 58 15.5 107t44.5 85t70 56.5t91 20.5q53 0 91.5 -16t64.5 -55v270h92v-726h-88v68q-53 -79 -160 -79zM275 62q66 0 105.5 52.5t39.5 143.5q0 93 -39.5 144.5t-105.5 51.5q-64 0 -101.5 -51.5t-37.5 -144.5q0 -91 37.5 -143.5
t101.5 -52.5zM226 -72h92v-100h-92v100z" />
    <glyph glyph-name="uni1E0E" unicode="&#x1e0e;" horiz-adv-x="710" 
d="M87 726h210q72 0 127 -12t98 -41q69 -48 105 -129t36 -181t-39 -179.5t-108 -127.5q-43 -29 -95 -42.5t-124 -13.5h-210v726zM284 80q63 0 111.5 13.5t80.5 41.5q40 35 62 95.5t22 132.5q0 71 -20 133t-60 97q-31 27 -82 40t-114 13h-99v-566h99zM160 -87h264v-70h-264
v70z" />
    <glyph glyph-name="uni1E0F" unicode="&#x1e0f;" horiz-adv-x="585" 
d="M262 -11q-103 0 -162 69.5t-59 199.5q0 58 15.5 107t44.5 85t70 56.5t91 20.5q53 0 91.5 -16t64.5 -55v270h92v-726h-88v68q-53 -79 -160 -79zM275 62q66 0 105.5 52.5t39.5 143.5q0 93 -39.5 144.5t-105.5 51.5q-64 0 -101.5 -51.5t-37.5 -144.5q0 -91 37.5 -143.5
t101.5 -52.5zM140 -87h264v-70h-264v70z" />
    <glyph glyph-name="uni1E10" unicode="&#x1e10;" horiz-adv-x="710" 
d="M87 726h210q72 0 127 -12t98 -41q69 -48 105 -129t36 -181t-39 -179.5t-108 -127.5q-43 -29 -95 -42.5t-124 -13.5h-210v726zM284 80q63 0 111.5 13.5t80.5 41.5q40 35 62 95.5t22 132.5q0 71 -20 133t-60 97q-31 27 -82 40t-114 13h-99v-566h99zM315 -156h-40v93h101
v-91l-48 -100h-51z" />
    <glyph glyph-name="uni1E11" unicode="&#x1e11;" horiz-adv-x="585" 
d="M262 -11q-103 0 -162 69.5t-59 199.5q0 58 15.5 107t44.5 85t70 56.5t91 20.5q53 0 91.5 -16t64.5 -55v270h92v-726h-88v68q-53 -79 -160 -79zM275 62q66 0 105.5 52.5t39.5 143.5q0 93 -39.5 144.5t-105.5 51.5q-64 0 -101.5 -51.5t-37.5 -144.5q0 -91 37.5 -143.5
t101.5 -52.5zM260 -155h-36v91h95v-91l-46 -98h-48z" />
    <glyph glyph-name="uni1E1E" unicode="&#x1e1e;" horiz-adv-x="575" 
d="M87 726h459v-81h-361v-245h337v-81h-337v-319h-98v726zM269 898h94v-100h-94v100z" />
    <glyph glyph-name="uni1E1F" unicode="&#x1e1f;" horiz-adv-x="326" 
d="M109 440h-95v76h95v26q0 34 3 63t11 50q16 40 49 58.5t81 18.5q13 0 29 -1t32 -5v-76q-11 2 -23 3t-21 1q-23 0 -37 -7t-21 -21.5t-9 -36.5t-2 -52v-21h113v-76h-113v-440h-92v440zM187 898h92v-100h-92v100z" />
    <glyph glyph-name="uni1E20" unicode="&#x1e20;" horiz-adv-x="722" 
d="M358 -12q-81 0 -139.5 29t-96.5 79.5t-56.5 119t-18.5 147.5t22 148t64.5 120t104 80.5t139.5 29.5q62 0 111.5 -17t85.5 -47t58 -71.5t29 -90.5h-101q-13 70 -61 109t-122 39q-51 0 -93 -21.5t-72 -61t-46.5 -95t-16.5 -122.5q0 -68 15.5 -122.5t44 -93.5t69 -60
t91.5 -21q45 0 81.5 16.5t62.5 46.5t40.5 72t14.5 93h-178v82h273v-376h-86v30q0 16 0.5 32.5t2.5 30.5l-5 2q-35 -51 -90 -79t-127 -28zM243 879h266v-70h-266v70z" />
    <glyph glyph-name="uni1E21" unicode="&#x1e21;" horiz-adv-x="576" 
d="M276 -205q-94 0 -150 40t-63 122h95q3 -48 34 -70.5t86 -22.5q34 0 59.5 9t42.5 30t26 55.5t9 85.5v51q-33 -44 -70.5 -61t-92.5 -17q-48 0 -87 18.5t-66.5 52t-42.5 79.5t-15 101q0 50 14.5 97t42 83t68 57.5t91.5 21.5q115 0 160 -83v72h85v-442q0 -66 -10.5 -118
t-36.5 -87.5t-69.5 -54.5t-109.5 -19zM275 88q65 0 103 50.5t38 138.5q0 39 -10 72t-29 57t-45 37t-57 13q-67 0 -103.5 -49t-36.5 -129q0 -90 37.5 -140t102.5 -50zM145 703h264v-70h-264v70z" />
    <glyph glyph-name="uni1E22" unicode="&#x1e22;" horiz-adv-x="745" 
d="M87 726h98v-311h374v311h99v-726h-99v334h-374v-334h-98v726zM325 898h94v-100h-94v100z" />
    <glyph glyph-name="uni1E23" unicode="&#x1e23;" horiz-adv-x="575" 
d="M75 726h92v-275q28 44 70.5 60t86.5 16q67 0 106.5 -24t58.5 -68q11 -26 14 -57.5t3 -68.5v-309h-92v290q0 30 -3.5 59.5t-14.5 52.5t-33 37.5t-59 14.5q-65 0 -101 -45t-36 -139v-270h-92v726zM278 726h92v-100h-92v100z" />
    <glyph glyph-name="uni1E24" unicode="&#x1e24;" horiz-adv-x="745" 
d="M87 726h98v-311h374v311h99v-726h-99v334h-374v-334h-98v726zM325 -72h94v-100h-94v100z" />
    <glyph glyph-name="uni1E25" unicode="&#x1e25;" horiz-adv-x="575" 
d="M75 726h92v-275q28 44 70.5 60t86.5 16q67 0 106.5 -24t58.5 -68q11 -26 14 -57.5t3 -68.5v-309h-92v290q0 30 -3.5 59.5t-14.5 52.5t-33 37.5t-59 14.5q-65 0 -101 -45t-36 -139v-270h-92v726zM244 -72h92v-100h-92v100z" />
    <glyph glyph-name="uni1E2A" unicode="&#x1e2a;" horiz-adv-x="745" 
d="M87 726h98v-311h374v311h99v-726h-99v334h-374v-334h-98v726zM374 -186q-69 0 -106 36t-38 93h80q3 -32 17.5 -50.5t46.5 -18.5t46.5 18.5t17.5 50.5h80q-1 -57 -38 -93t-106 -36z" />
    <glyph glyph-name="uni1E2B" unicode="&#x1e2b;" horiz-adv-x="575" 
d="M75 726h92v-275q28 44 70.5 60t86.5 16q67 0 106.5 -24t58.5 -68q11 -26 14 -57.5t3 -68.5v-309h-92v290q0 30 -3.5 59.5t-14.5 52.5t-33 37.5t-59 14.5q-65 0 -101 -45t-36 -139v-270h-92v726zM291 -186q-30 0 -56.5 8t-45.5 23.5t-30 40t-11 57.5h76q0 -39 19 -56
t48 -17t47.5 17t18.5 56h76q0 -33 -11 -57.5t-30 -40.5t-45 -23.5t-56 -7.5z" />
    <glyph glyph-name="uni1E36" unicode="&#x1e36;" horiz-adv-x="553" 
d="M87 726h98v-644h355v-82h-453v726zM268 -72h94v-100h-94v100z" />
    <glyph glyph-name="uni1E37" unicode="&#x1e37;" horiz-adv-x="242" 
d="M75 726h92v-726h-92v726zM75 -72h92v-100h-92v100z" />
    <glyph glyph-name="uni1E38" unicode="&#x1e38;" horiz-adv-x="553" 
d="M87 726h98v-644h355v-82h-453v726zM268 -72h94v-100h-94v100zM0 879h266v-70h-266v70z" />
    <glyph glyph-name="uni1E39" unicode="&#x1e39;" horiz-adv-x="242" 
d="M75 726h92v-726h-92v726zM75 -72h92v-100h-92v100zM-1 879h244v-70h-244v70z" />
    <glyph glyph-name="uni1E3A" unicode="&#x1e3a;" horiz-adv-x="553" 
d="M87 726h98v-644h355v-82h-453v726zM183 -87h264v-70h-264v70z" />
    <glyph glyph-name="uni1E3B" unicode="&#x1e3b;" horiz-adv-x="242" 
d="M75 726h92v-726h-92v726zM-1 -87h244v-70h-244v70z" />
    <glyph glyph-name="uni1E3E" unicode="&#x1e3e;" horiz-adv-x="928" 
d="M87 726h151l178 -468q19 -51 30 -84t21 -67h5q8 36 19.5 72.5t26.5 78.5l171 468h152v-726h-92v415q0 51 1.5 103.5t2.5 114.5h-5l-232 -633h-106l-233 633h-5q0 -20 1 -48t2 -58t1.5 -60t0.5 -52v-415h-90v726zM517 905h111l-126 -114h-81z" />
    <glyph glyph-name="uni1E3F" unicode="&#x1e3f;" horiz-adv-x="875" 
d="M75 516h86v-66q23 36 63 56.5t92 20.5q44 0 83.5 -22.5t57.5 -72.5q32 51 80 73t103 22q89 0 127.5 -51.5t38.5 -139.5v-336h-92v286q0 28 -2.5 58t-12.5 54.5t-30.5 40t-56.5 15.5q-42 0 -66.5 -20.5t-37.5 -50.5t-17 -64.5t-4 -63.5v-255h-92v286q0 28 -2.5 58
t-13 54.5t-31 40t-56.5 15.5q-42 0 -66.5 -20.5t-37.5 -50.5t-17 -64.5t-4 -63.5v-255h-92v516zM494 726h104l-116 -126h-77z" />
    <glyph glyph-name="uni1E40" unicode="&#x1e40;" horiz-adv-x="928" 
d="M87 726h151l178 -468q19 -51 30 -84t21 -67h5q8 36 19.5 72.5t26.5 78.5l171 468h152v-726h-92v415q0 51 1.5 103.5t2.5 114.5h-5l-232 -633h-106l-233 633h-5q0 -20 1 -48t2 -58t1.5 -60t0.5 -52v-415h-90v726zM421 898h94v-100h-94v100z" />
    <glyph glyph-name="uni1E41" unicode="&#x1e41;" horiz-adv-x="875" 
d="M75 516h86v-66q23 36 63 56.5t92 20.5q44 0 83.5 -22.5t57.5 -72.5q32 51 80 73t103 22q89 0 127.5 -51.5t38.5 -139.5v-336h-92v286q0 28 -2.5 58t-12.5 54.5t-30.5 40t-56.5 15.5q-42 0 -66.5 -20.5t-37.5 -50.5t-17 -64.5t-4 -63.5v-255h-92v286q0 28 -2.5 58
t-13 54.5t-31 40t-56.5 15.5q-42 0 -66.5 -20.5t-37.5 -50.5t-17 -64.5t-4 -63.5v-255h-92v516zM402 726h92v-100h-92v100z" />
    <glyph glyph-name="uni1E42" unicode="&#x1e42;" horiz-adv-x="928" 
d="M87 726h151l178 -468q19 -51 30 -84t21 -67h5q8 36 19.5 72.5t26.5 78.5l171 468h152v-726h-92v415q0 51 1.5 103.5t2.5 114.5h-5l-232 -633h-106l-233 633h-5q0 -20 1 -48t2 -58t1.5 -60t0.5 -52v-415h-90v726zM417 -72h94v-100h-94v100z" />
    <glyph glyph-name="uni1E43" unicode="&#x1e43;" horiz-adv-x="875" 
d="M75 516h86v-66q23 36 63 56.5t92 20.5q44 0 83.5 -22.5t57.5 -72.5q32 51 80 73t103 22q89 0 127.5 -51.5t38.5 -139.5v-336h-92v286q0 28 -2.5 58t-12.5 54.5t-30.5 40t-56.5 15.5q-42 0 -66.5 -20.5t-37.5 -50.5t-17 -64.5t-4 -63.5v-255h-92v286q0 28 -2.5 58
t-13 54.5t-31 40t-56.5 15.5q-42 0 -66.5 -20.5t-37.5 -50.5t-17 -64.5t-4 -63.5v-255h-92v516zM394 -72h92v-100h-92v100z" />
    <glyph glyph-name="uni1E44" unicode="&#x1e44;" horiz-adv-x="749" 
d="M87 726h134q96 -167 160.5 -280.5t105 -186t60 -109t25.5 -48.5h5q-1 30 -2 67.5t-2 74.5t-1.5 69.5t-0.5 50.5v362h91v-726h-132q-95 167 -160.5 282.5t-106.5 189.5t-61.5 112t-26.5 49h-5q1 -30 2.5 -69.5t2.5 -78t1.5 -72t0.5 -51.5v-362h-90v726zM337 898h94v-100
h-94v100z" />
    <glyph glyph-name="uni1E45" unicode="&#x1e45;" horiz-adv-x="575" 
d="M75 516h85v-66q18 23 38.5 38t42 23.5t42.5 12t41 3.5q67 0 107 -24t57 -68q11 -26 14.5 -57.5t3.5 -68.5v-309h-92v291q0 30 -3.5 59t-14.5 52.5t-33 37.5t-59 14q-65 0 -101 -45t-36 -139v-270h-92v516zM264 726h92v-100h-92v100z" />
    <glyph glyph-name="uni1E46" unicode="&#x1e46;" horiz-adv-x="749" 
d="M87 726h134q96 -167 160.5 -280.5t105 -186t60 -109t25.5 -48.5h5q-1 30 -2 67.5t-2 74.5t-1.5 69.5t-0.5 50.5v362h91v-726h-132q-95 167 -160.5 282.5t-106.5 189.5t-61.5 112t-26.5 49h-5q1 -30 2.5 -69.5t2.5 -78t1.5 -72t0.5 -51.5v-362h-90v726zM317 -72h94v-100
h-94v100z" />
    <glyph glyph-name="uni1E47" unicode="&#x1e47;" horiz-adv-x="575" 
d="M75 516h85v-66q18 23 38.5 38t42 23.5t42.5 12t41 3.5q67 0 107 -24t57 -68q11 -26 14.5 -57.5t3.5 -68.5v-309h-92v291q0 30 -3.5 59t-14.5 52.5t-33 37.5t-59 14q-65 0 -101 -45t-36 -139v-270h-92v516zM242 -72h92v-100h-92v100z" />
    <glyph glyph-name="uni1E48" unicode="&#x1e48;" horiz-adv-x="749" 
d="M87 726h134q96 -167 160.5 -280.5t105 -186t60 -109t25.5 -48.5h5q-1 30 -2 67.5t-2 74.5t-1.5 69.5t-0.5 50.5v362h91v-726h-132q-95 167 -160.5 282.5t-106.5 189.5t-61.5 112t-26.5 49h-5q1 -30 2.5 -69.5t2.5 -78t1.5 -72t0.5 -51.5v-362h-90v726zM232 -87h264v-70
h-264v70z" />
    <glyph glyph-name="uni1E49" unicode="&#x1e49;" horiz-adv-x="575" 
d="M75 516h85v-66q18 23 38.5 38t42 23.5t42.5 12t41 3.5q67 0 107 -24t57 -68q11 -26 14.5 -57.5t3.5 -68.5v-309h-92v291q0 30 -3.5 59t-14.5 52.5t-33 37.5t-59 14q-65 0 -101 -45t-36 -139v-270h-92v516zM156 -87h264v-70h-264v70z" />
    <glyph glyph-name="uni1E56" unicode="&#x1e56;" horiz-adv-x="625" 
d="M87 726h220q46 0 96.5 -4t97.5 -28q48 -25 72.5 -75t24.5 -112q0 -66 -26.5 -113t-71.5 -73q-31 -19 -81 -27t-118 -8h-116v-286h-98v726zM311 366q38 0 69 3.5t48 11.5q34 17 51.5 51t17.5 75t-17.5 74.5t-51.5 50.5q-17 9 -48 11.5t-69 2.5h-126v-280h126zM280 898h94
v-100h-94v100z" />
    <glyph glyph-name="uni1E57" unicode="&#x1e57;" horiz-adv-x="585" 
d="M75 516h88v-70q26 39 67 60t98 21q52 0 92 -20t67.5 -55.5t42 -85t14.5 -108.5q0 -63 -16.5 -113t-46 -84.5t-69.5 -53t-88 -18.5q-53 0 -93 16t-64 53v-259h-92v717zM310 62q64 0 102 51.5t38 144.5t-38 144.5t-102 51.5q-33 0 -59.5 -14.5t-45.5 -40t-29.5 -62
t-10.5 -79.5q0 -44 10.5 -80t29.5 -62t45.5 -40t59.5 -14zM262 726h92v-100h-92v100z" />
    <glyph glyph-name="uni1E5A" unicode="&#x1e5a;" horiz-adv-x="648" 
d="M87 726h215q36 0 72.5 -2.5t68.5 -12.5q60 -18 98 -64.5t38 -124.5q0 -32 -11.5 -61.5t-32 -53.5t-49.5 -41.5t-65 -25.5v-3q28 -2 48.5 -11.5t35 -24t23.5 -32.5t15 -36l76 -233h-105l-65 206q-11 35 -28 54.5t-39.5 28.5t-51.5 10.5t-64 1.5h-81v-301h-98v726zM268 381
q37 0 74.5 3.5t68 17t49.5 40t19 71.5q0 62 -31 90t-77 37q-23 5 -50 5.5t-53 0.5h-83v-265h83zM295 -72h94v-100h-94v100z" />
    <glyph glyph-name="uni1E5B" unicode="&#x1e5b;" horiz-adv-x="378" 
d="M75 516h87v-76q30 47 66 64.5t79 17.5q29 0 58 -6v-81q-17 3 -32 5t-29 2q-42 0 -68.5 -14.5t-41.5 -41t-21 -64.5t-6 -85v-237h-92v516zM76 -72h92v-100h-92v100z" />
    <glyph glyph-name="uni1E5C" unicode="&#x1e5c;" horiz-adv-x="648" 
d="M87 726h215q36 0 72.5 -2.5t68.5 -12.5q60 -18 98 -64.5t38 -124.5q0 -32 -11.5 -61.5t-32 -53.5t-49.5 -41.5t-65 -25.5v-3q28 -2 48.5 -11.5t35 -24t23.5 -32.5t15 -36l76 -233h-105l-65 206q-11 35 -28 54.5t-39.5 28.5t-51.5 10.5t-64 1.5h-81v-301h-98v726zM268 381
q37 0 74.5 3.5t68 17t49.5 40t19 71.5q0 62 -31 90t-77 37q-23 5 -50 5.5t-53 0.5h-83v-265h83zM295 -72h94v-100h-94v100zM183 879h266v-70h-266v70z" />
    <glyph glyph-name="uni1E5D" unicode="&#x1e5d;" horiz-adv-x="378" 
d="M75 516h87v-76q30 47 66 64.5t79 17.5q29 0 58 -6v-81q-17 3 -32 5t-29 2q-42 0 -68.5 -14.5t-41.5 -41t-21 -64.5t-6 -85v-237h-92v516zM76 -72h92v-100h-92v100zM86 703h264v-70h-264v70z" />
    <glyph glyph-name="uni1E5E" unicode="&#x1e5e;" horiz-adv-x="648" 
d="M87 726h215q36 0 72.5 -2.5t68.5 -12.5q60 -18 98 -64.5t38 -124.5q0 -32 -11.5 -61.5t-32 -53.5t-49.5 -41.5t-65 -25.5v-3q28 -2 48.5 -11.5t35 -24t23.5 -32.5t15 -36l76 -233h-105l-65 206q-11 35 -28 54.5t-39.5 28.5t-51.5 10.5t-64 1.5h-81v-301h-98v726zM268 381
q37 0 74.5 3.5t68 17t49.5 40t19 71.5q0 62 -31 90t-77 37q-23 5 -50 5.5t-53 0.5h-83v-265h83zM210 -87h264v-70h-264v70z" />
    <glyph glyph-name="uni1E5F" unicode="&#x1e5f;" horiz-adv-x="378" 
d="M75 516h87v-76q30 47 66 64.5t79 17.5q29 0 58 -6v-81q-17 3 -32 5t-29 2q-42 0 -68.5 -14.5t-41.5 -41t-21 -64.5t-6 -85v-237h-92v516zM0 -87h244v-70h-244v70z" />
    <glyph glyph-name="uni1E60" unicode="&#x1e60;" horiz-adv-x="623" 
d="M315 -15q-129 0 -201.5 65.5t-72.5 187.5h99q0 -85 44.5 -130t130.5 -45q77 0 120 34t43 91q0 34 -15.5 57t-42 38.5t-60.5 26t-70 20.5q-43 12 -85 26t-75.5 37.5t-54 59t-20.5 89.5q0 44 19 80.5t53 63t81.5 41t103.5 14.5q119 0 187 -61t68 -170h-96q0 40 -14 68.5
t-36.5 47.5t-51.5 28t-59 9q-28 0 -55.5 -7t-49 -21.5t-34.5 -36t-13 -50.5q0 -33 14.5 -55t39 -37t57 -25.5t68.5 -20.5q43 -12 87 -26.5t79 -38.5t57 -60t22 -91q0 -47 -19.5 -85.5t-54.5 -66t-84 -42.5t-109 -15zM264 898h94v-100h-94v100z" />
    <glyph glyph-name="uni1E61" unicode="&#x1e61;" horiz-adv-x="505" 
d="M260 -15q-108 0 -166 47t-59 134h93q0 -55 35 -82.5t99 -27.5q53 0 81.5 19.5t28.5 57.5q0 24 -11 39t-29.5 24.5t-42.5 15t-50 10.5q-34 6 -68 14t-61.5 24.5t-45 45t-17.5 75.5q0 33 14.5 60.5t41 47.5t63.5 31t83 11q98 0 151.5 -44t54.5 -129h-91q-1 101 -117 101
q-48 0 -76 -19.5t-28 -52.5q0 -22 10.5 -36t27.5 -23t40 -14.5t49 -10.5q34 -7 70 -15.5t64.5 -25.5t47 -46t18.5 -77q0 -35 -16 -63.5t-44 -48.5t-66.5 -31t-83.5 -11zM203 726h92v-100h-92v100z" />
    <glyph glyph-name="uni1E62" unicode="&#x1e62;" horiz-adv-x="623" 
d="M315 -15q-129 0 -201.5 65.5t-72.5 187.5h99q0 -85 44.5 -130t130.5 -45q77 0 120 34t43 91q0 34 -15.5 57t-42 38.5t-60.5 26t-70 20.5q-43 12 -85 26t-75.5 37.5t-54 59t-20.5 89.5q0 44 19 80.5t53 63t81.5 41t103.5 14.5q119 0 187 -61t68 -170h-96q0 40 -14 68.5
t-36.5 47.5t-51.5 28t-59 9q-28 0 -55.5 -7t-49 -21.5t-34.5 -36t-13 -50.5q0 -33 14.5 -55t39 -37t57 -25.5t68.5 -20.5q43 -12 87 -26.5t79 -38.5t57 -60t22 -91q0 -47 -19.5 -85.5t-54.5 -66t-84 -42.5t-109 -15zM269 -72h94v-100h-94v100z" />
    <glyph glyph-name="uni1E63" unicode="&#x1e63;" horiz-adv-x="505" 
d="M260 -15q-108 0 -166 47t-59 134h93q0 -55 35 -82.5t99 -27.5q53 0 81.5 19.5t28.5 57.5q0 24 -11 39t-29.5 24.5t-42.5 15t-50 10.5q-34 6 -68 14t-61.5 24.5t-45 45t-17.5 75.5q0 33 14.5 60.5t41 47.5t63.5 31t83 11q98 0 151.5 -44t54.5 -129h-91q-1 101 -117 101
q-48 0 -76 -19.5t-28 -52.5q0 -22 10.5 -36t27.5 -23t40 -14.5t49 -10.5q34 -7 70 -15.5t64.5 -25.5t47 -46t18.5 -77q0 -35 -16 -63.5t-44 -48.5t-66.5 -31t-83.5 -11zM216 -72h92v-100h-92v100z" />
    <glyph glyph-name="uni1E6A" unicode="&#x1e6a;" horiz-adv-x="599" 
d="M250 645h-239v81h577v-81h-239v-645h-99v645zM253 898h94v-100h-94v100z" />
    <glyph glyph-name="uni1E6B" unicode="&#x1e6b;" horiz-adv-x="333" 
d="M238 -9q-30 0 -54.5 7.5t-41 24.5t-25.5 46t-9 71v300h-95v76h95v125h92v-125h112v-76h-112v-257q0 -27 1.5 -48.5t7.5 -36t18.5 -22t34.5 -7.5q11 0 23.5 0.5t28.5 4.5v-74q-41 -9 -76 -9zM108 818h92v-100h-92v100z" />
    <glyph glyph-name="uni1E6C" unicode="&#x1e6c;" horiz-adv-x="599" 
d="M250 645h-239v81h577v-81h-239v-645h-99v645zM253 -72h94v-100h-94v100z" />
    <glyph glyph-name="uni1E6D" unicode="&#x1e6d;" horiz-adv-x="333" 
d="M238 -9q-30 0 -54.5 7.5t-41 24.5t-25.5 46t-9 71v300h-95v76h95v125h92v-125h112v-76h-112v-257q0 -27 1.5 -48.5t7.5 -36t18.5 -22t34.5 -7.5q11 0 23.5 0.5t28.5 4.5v-74q-41 -9 -76 -9zM157 -72h92v-100h-92v100z" />
    <glyph glyph-name="uni1E6E" unicode="&#x1e6e;" horiz-adv-x="599" 
d="M250 645h-239v81h577v-81h-239v-645h-99v645zM168 -87h264v-70h-264v70z" />
    <glyph glyph-name="uni1E6F" unicode="&#x1e6f;" horiz-adv-x="333" 
d="M238 -9q-30 0 -54.5 7.5t-41 24.5t-25.5 46t-9 71v300h-95v76h95v125h92v-125h112v-76h-112v-257q0 -27 1.5 -48.5t7.5 -36t18.5 -22t34.5 -7.5q11 0 23.5 0.5t28.5 4.5v-74q-41 -9 -76 -9zM81 -87h244v-70h-244v70z" />
    <glyph glyph-name="uni1E7C" unicode="&#x1e7c;" horiz-adv-x="642" 
d="M9 726h109l158 -468q13 -37 23 -74.5t23 -75.5h6l6.5 19.5t8.5 27t12.5 41t19.5 62.5l163 468h99l-264 -726h-108zM168 796q6 48 28.5 77.5t63.5 29.5q15 0 32.5 -6.5t35.5 -14t35 -13.5t31 -6q15 0 25.5 8t15.5 30h54q-6 -48 -28.5 -77.5t-63.5 -29.5q-15 0 -32 6
t-35 13.5t-35.5 14t-31.5 6.5q-15 0 -25.5 -8t-15.5 -30h-54z" />
    <glyph glyph-name="uni1E7D" unicode="&#x1e7d;" horiz-adv-x="511" 
d="M11 516h101l91 -258q15 -44 28.5 -89t24.5 -89h6q11 44 24.5 89t28.5 89l91 258h94l-191 -516h-107zM94 612q6 48 28.5 77.5t63.5 29.5q15 0 32.5 -6.5t35.5 -14t35 -13.5t31 -6q15 0 25.5 8t15.5 30h54q-6 -48 -28.5 -77.5t-63.5 -29.5q-15 0 -32 6t-35 13.5t-35.5 14
t-31.5 6.5q-15 0 -25.5 -8t-15.5 -30h-54z" />
    <glyph glyph-name="Wgrave" unicode="&#x1e80;" horiz-adv-x="948" 
d="M15 726h101l108 -468q8 -33 15.5 -71t14.5 -75h5q7 37 14.5 74t17.5 72l127 468h122l123 -468q2 -9 4.5 -19.5t6 -26.5t8.5 -40t13 -60h6q7 36 12 59.5t8.5 39.5t6 27t4.5 20l110 468h90l-179 -726h-117l-125 482q-2 9 -4.5 19.5t-6.5 26.5t-9 40t-13 60h-5
q-8 -36 -13 -60t-9 -40t-6.5 -26.5t-4.5 -19.5l-129 -482h-116zM318 905h111l96 -114h-82z" />
    <glyph glyph-name="wgrave" unicode="&#x1e81;" horiz-adv-x="792" 
d="M14 516h95l70 -258q11 -42 21 -89t18 -89h6q8 42 20.5 89t23.5 89l70 258h123l73 -258q12 -42 23 -89t19 -89h6q8 42 18 89t21 89l70 258h86l-143 -516h-119l-71 258q-12 45 -23 94t-21 94h-6q-11 -45 -22.5 -94t-23.5 -94l-71 -258h-119zM249 726h105l88 -126h-77z" />
    <glyph glyph-name="Wacute" unicode="&#x1e82;" horiz-adv-x="948" 
d="M15 726h101l108 -468q8 -33 15.5 -71t14.5 -75h5q7 37 14.5 74t17.5 72l127 468h122l123 -468q2 -9 4.5 -19.5t6 -26.5t8.5 -40t13 -60h6q7 36 12 59.5t8.5 39.5t6 27t4.5 20l110 468h90l-179 -726h-117l-125 482q-2 9 -4.5 19.5t-6.5 26.5t-9 40t-13 60h-5
q-8 -36 -13 -60t-9 -40t-6.5 -26.5t-4.5 -19.5l-129 -482h-116zM521 905h111l-126 -114h-81z" />
    <glyph glyph-name="wacute" unicode="&#x1e83;" horiz-adv-x="792" 
d="M14 516h95l70 -258q11 -42 21 -89t18 -89h6q8 42 20.5 89t23.5 89l70 258h123l73 -258q12 -42 23 -89t19 -89h6q8 42 18 89t21 89l70 258h86l-143 -516h-119l-71 258q-12 45 -23 94t-21 94h-6q-11 -45 -22.5 -94t-23.5 -94l-71 -258h-119zM439 726h104l-116 -126h-77z
" />
    <glyph glyph-name="Wdieresis" unicode="&#x1e84;" horiz-adv-x="948" 
d="M15 726h101l108 -468q8 -33 15.5 -71t14.5 -75h5q7 37 14.5 74t17.5 72l127 468h122l123 -468q2 -9 4.5 -19.5t6 -26.5t8.5 -40t13 -60h6q7 36 12 59.5t8.5 39.5t6 27t4.5 20l110 468h90l-179 -726h-117l-125 482q-2 9 -4.5 19.5t-6.5 26.5t-9 40t-13 60h-5
q-8 -36 -13 -60t-9 -40t-6.5 -26.5t-4.5 -19.5l-129 -482h-116zM529 900h90v-105h-90v105zM331 900h90v-105h-90v105z" />
    <glyph glyph-name="wdieresis" unicode="&#x1e85;" horiz-adv-x="792" 
d="M14 516h95l70 -258q11 -42 21 -89t18 -89h6q8 42 20.5 89t23.5 89l70 258h123l73 -258q12 -42 23 -89t19 -89h6q8 42 18 89t21 89l70 258h86l-143 -516h-119l-71 258q-12 45 -23 94t-21 94h-6q-11 -45 -22.5 -94t-23.5 -94l-71 -258h-119zM450 726h90v-105h-90v105z
M254 726h90v-105h-90v105z" />
    <glyph glyph-name="uni1E8A" unicode="&#x1e8a;" horiz-adv-x="622" 
d="M253 378l-238 348h116l183 -281l185 281h107l-238 -348l254 -378h-115l-199 305l-197 -305h-109zM263 898h94v-100h-94v100z" />
    <glyph glyph-name="uni1E8B" unicode="&#x1e8b;" horiz-adv-x="492" 
d="M192 267l-175 249h114l118 -189l126 189h100l-177 -249l192 -267h-113l-135 202l-135 -202h-104zM205 726h92v-100h-92v100z" />
    <glyph glyph-name="uni1E92" unicode="&#x1e92;" horiz-adv-x="569" 
d="M33 83l387 564q-31 -1 -62.5 -1.5t-61.5 -0.5h-253v81h482v-81l-389 -567q32 2 74.5 3t74.5 1h259v-82h-511v83zM241 -72h94v-100h-94v100z" />
    <glyph glyph-name="uni1E93" unicode="&#x1e93;" horiz-adv-x="452" 
d="M27 75l287 370q-10 -2 -25 -2.5t-31.5 -1.5t-31.5 -1h-25h-160v76h375v-76l-284 -369q11 1 27 2t33 1.5t33 0.5h27h176v-75h-401v75zM181 -72h92v-100h-92v100z" />
    <glyph glyph-name="uni1E97" unicode="&#x1e97;" horiz-adv-x="333" 
d="M238 -9q-30 0 -54.5 7.5t-41 24.5t-25.5 46t-9 71v300h-95v76h95v125h92v-125h112v-76h-112v-257q0 -27 1.5 -48.5t7.5 -36t18.5 -22t34.5 -7.5q11 0 23.5 0.5t28.5 4.5v-74q-41 -9 -76 -9zM189 818h89v-105h-89v105zM30 818h89v-105h-89v105z" />
    <glyph glyph-name="Germandbls" unicode="&#x1e9e;" horiz-adv-x="747" 
d="M346 507q0 48 28 82.5t76 51.5v4h-265v-645h-98v726h512v-75q-47 -18 -76.5 -35.5t-46 -35t-22 -36t-5.5 -37.5q0 -23 11.5 -42t30 -34t41 -28t43.5 -24q26 -14 52 -29t46.5 -38t33.5 -56t13 -82q0 -41 -14.5 -75.5t-42 -60t-68 -39.5t-92.5 -14q-106 0 -169 47t-63 146
h97q0 -63 36 -89t99 -26q31 0 52.5 8.5t35.5 23t20.5 33.5t6.5 40q0 31 -10 53t-26.5 38t-37 28.5t-42.5 24.5q-26 15 -54 31t-50.5 38t-37 52t-14.5 74z" />
    <glyph glyph-name="uni1EA0" unicode="&#x1ea0;" horiz-adv-x="696" 
d="M298 726h99l298 -726h-107l-84 211h-318l-79 -211h-104zM475 291l-69 187q-14 39 -29 77t-28 76h-4q-13 -37 -26.5 -75t-27.5 -76l-73 -189h257zM300 -72h94v-100h-94v100z" />
    <glyph glyph-name="uni1EA1" unicode="&#x1ea1;" horiz-adv-x="540" 
d="M218 -11q-86 0 -132.5 43.5t-46.5 112.5q0 42 16.5 70.5t44 47t63.5 29t74 16t76 8.5t70 7v18q0 58 -27 89.5t-87 31.5q-54 0 -87 -26.5t-33 -78.5h-91q0 40 15.5 72t43.5 54.5t66.5 35t85.5 12.5q73 0 114 -22t61 -56t24.5 -75.5t4.5 -80.5v-141q0 -45 2.5 -83t10.5 -73
h-86q-2 11 -4 27.5t-3 42.5q-33 -44 -76 -62.5t-99 -18.5zM239 56q28 0 54 7t46 25.5t32 51t12 83.5v29q-29 -4 -72 -6.5t-83 -12.5t-68 -30.5t-28 -59.5q0 -38 28.5 -62.5t78.5 -24.5zM206 -72h92v-100h-92v100z" />
    <glyph glyph-name="uni1EB8" unicode="&#x1eb8;" horiz-adv-x="598" 
d="M87 726h452v-81h-354v-233h338v-82h-338v-249h371v-81h-469v726zM267 -72h94v-100h-94v100z" />
    <glyph glyph-name="uni1EB9" unicode="&#x1eb9;" horiz-adv-x="562" 
d="M285 -15q-119 0 -182 72.5t-63 200.5q0 58 17 108t49.5 87t78 57.5t102.5 20.5q121 0 177.5 -79t56.5 -223h-385q2 -38 14 -69.5t32.5 -54t47 -35t58.5 -12.5q50 0 85.5 23t49.5 73h97q-17 -84 -81.5 -126.5t-153.5 -42.5zM423 304q-8 78 -46 115.5t-94 37.5
q-59 0 -97 -37.5t-48 -115.5h285zM238 -72h92v-100h-92v100z" />
    <glyph glyph-name="uni1EBC" unicode="&#x1ebc;" horiz-adv-x="598" 
d="M87 726h452v-81h-354v-233h338v-82h-338v-249h371v-81h-469v726zM169 796q6 48 28.5 77.5t63.5 29.5q15 0 32.5 -6.5t35.5 -14t35 -13.5t31 -6q15 0 25.5 8t15.5 30h54q-6 -48 -28.5 -77.5t-63.5 -29.5q-15 0 -32 6t-35 13.5t-35.5 14t-31.5 6.5q-15 0 -25.5 -8
t-15.5 -30h-54z" />
    <glyph glyph-name="uni1EBD" unicode="&#x1ebd;" horiz-adv-x="562" 
d="M285 -15q-119 0 -182 72.5t-63 200.5q0 58 17 108t49.5 87t78 57.5t102.5 20.5q121 0 177.5 -79t56.5 -223h-385q2 -38 14 -69.5t32.5 -54t47 -35t58.5 -12.5q50 0 85.5 23t49.5 73h97q-17 -84 -81.5 -126.5t-153.5 -42.5zM423 304q-8 78 -46 115.5t-94 37.5
q-59 0 -97 -37.5t-48 -115.5h285zM124 612q6 48 28.5 77.5t63.5 29.5q15 0 32.5 -6.5t35.5 -14t35 -13.5t31 -6q15 0 25.5 8t15.5 30h54q-6 -48 -28.5 -77.5t-63.5 -29.5q-15 0 -32 6t-35 13.5t-35.5 14t-31.5 6.5q-15 0 -25.5 -8t-15.5 -30h-54z" />
    <glyph glyph-name="uni1ECA" unicode="&#x1eca;" horiz-adv-x="272" 
d="M87 726h98v-726h-98v726zM88 -72h94v-100h-94v100z" />
    <glyph glyph-name="uni1ECB" unicode="&#x1ecb;" horiz-adv-x="242" 
d="M75 516h92v-516h-92v516zM75 726h92v-100h-92v100zM75 -72h92v-100h-92v100z" />
    <glyph glyph-name="uni1ECC" unicode="&#x1ecc;" horiz-adv-x="763" 
d="M381 -15q-76 0 -138 27.5t-105.5 77.5t-67 119.5t-23.5 153.5t23.5 153.5t67 119.5t105.5 77.5t138 27.5t138 -27.5t105.5 -77.5t67.5 -119.5t24 -153.5q0 -85 -24 -155t-67.5 -119.5t-105.5 -76.5t-138 -27zM381 63q53 0 96 22.5t73.5 63t47 95t16.5 119.5
q0 64 -16.5 119t-47 95.5t-73.5 63t-96 22.5t-96 -22.5t-73 -63t-46.5 -95.5t-16.5 -119q0 -65 16.5 -119.5t46.5 -95t73 -63t96 -22.5zM334 -72h94v-100h-94v100z" />
    <glyph glyph-name="uni1ECD" unicode="&#x1ecd;" horiz-adv-x="580" 
d="M288 -15q-57 0 -103 20t-78.5 56t-49.5 86.5t-17 110.5t17.5 110t49.5 86.5t78.5 56.5t103.5 20q58 0 104.5 -20t79 -56.5t50 -86.5t17.5 -110t-17.5 -110.5t-50 -86.5t-79.5 -56t-105 -20zM288 58q36 0 65.5 14.5t49.5 40.5t31 62.5t11 81.5t-11 81.5t-31.5 63t-49 41
t-64.5 14.5q-35 0 -63.5 -14t-48.5 -40t-31 -62.5t-11 -81.5t10.5 -82t30.5 -63.5t48.5 -41t63.5 -14.5zM242 -72h92v-100h-92v100z" />
    <glyph glyph-name="uni1EE4" unicode="&#x1ee4;" horiz-adv-x="704" 
d="M351 -15q-90 0 -152 34t-91 99q-15 34 -21.5 76t-6.5 112v420h98v-418q0 -75 9 -117t32 -70t56.5 -43.5t75.5 -15.5t78 16.5t56 42.5q22 29 31.5 72.5t9.5 114.5v418h98v-420q0 -39 -2 -70t-7 -56.5t-13 -46t-20 -38.5q-32 -51 -91.5 -80.5t-139.5 -29.5zM305 -72h94
v-100h-94v100z" />
    <glyph glyph-name="uni1EE5" unicode="&#x1ee5;" horiz-adv-x="572" 
d="M249 -11q-68 0 -105.5 25.5t-57.5 66.5q-13 26 -15 62t-2 73v300h91v-291q0 -30 3 -59t14.5 -52t33 -37.5t58.5 -14.5q65 0 101 44.5t36 138.5v271h91v-516h-85v66q-17 -23 -37.5 -38t-42 -23.5t-43 -12t-40.5 -3.5zM222 -72h92v-100h-92v100z" />
    <glyph glyph-name="Ygrave" unicode="&#x1ef2;" horiz-adv-x="617" 
d="M259 307l-251 419h114l189 -343l198 343h104l-256 -419v-307h-98v307zM154 905h111l96 -114h-82z" />
    <glyph glyph-name="ygrave" unicode="&#x1ef3;" horiz-adv-x="511" 
d="M107 -205q-14 0 -28.5 1t-31.5 4v77q24 -6 44 -6q26 0 44.5 9t32 24.5t23 37t16.5 47.5l-196 527h102l90 -258q16 -45 27.5 -88.5t25.5 -88.5h5q12 43 26 88.5t29 88.5l91 258h93l-192 -516q-18 -47 -36.5 -85t-41.5 -64.5t-53 -41t-70 -14.5zM108 726h105l88 -126h-77z
" />
    <glyph glyph-name="uni1EF8" unicode="&#x1ef8;" horiz-adv-x="617" 
d="M259 307l-251 419h114l189 -343l198 343h104l-256 -419v-307h-98v307zM155 796q6 48 28.5 77.5t63.5 29.5q15 0 32.5 -6.5t35.5 -14t35 -13.5t31 -6q15 0 25.5 8t15.5 30h54q-6 -48 -28.5 -77.5t-63.5 -29.5q-15 0 -32 6t-35 13.5t-35.5 14t-31.5 6.5q-15 0 -25.5 -8
t-15.5 -30h-54z" />
    <glyph glyph-name="uni1EF9" unicode="&#x1ef9;" horiz-adv-x="511" 
d="M107 -205q-14 0 -28.5 1t-31.5 4v77q24 -6 44 -6q26 0 44.5 9t32 24.5t23 37t16.5 47.5l-196 527h102l90 -258q16 -45 27.5 -88.5t25.5 -88.5h5q12 43 26 88.5t29 88.5l91 258h93l-192 -516q-18 -47 -36.5 -85t-41.5 -64.5t-53 -41t-70 -14.5zM94 612q6 48 28.5 77.5
t63.5 29.5q15 0 32.5 -6.5t35.5 -14t35 -13.5t31 -6q15 0 25.5 8t15.5 30h54q-6 -48 -28.5 -77.5t-63.5 -29.5q-15 0 -32 6t-35 13.5t-35.5 14t-31.5 6.5q-15 0 -25.5 -8t-15.5 -30h-54z" />
    <glyph glyph-name="uni2000" unicode="&#x2000;" horiz-adv-x="500" 
 />
    <glyph glyph-name="uni2001" unicode="&#x2001;" horiz-adv-x="1000" 
 />
    <glyph glyph-name="uni2002" unicode="&#x2002;" horiz-adv-x="500" 
 />
    <glyph glyph-name="uni2003" unicode="&#x2003;" horiz-adv-x="1000" 
 />
    <glyph glyph-name="uni2004" unicode="&#x2004;" horiz-adv-x="333" 
 />
    <glyph glyph-name="uni2005" unicode="&#x2005;" horiz-adv-x="250" 
 />
    <glyph glyph-name="uni2006" unicode="&#x2006;" horiz-adv-x="167" 
 />
    <glyph glyph-name="uni2007" unicode="&#x2007;" 
 />
    <glyph glyph-name="uni2008" unicode="&#x2008;" horiz-adv-x="225" 
 />
    <glyph glyph-name="uni2009" unicode="&#x2009;" horiz-adv-x="125" 
 />
    <glyph glyph-name="uni200A" unicode="&#x200a;" horiz-adv-x="42" 
 />
    <glyph glyph-name="uni200B" unicode="&#x200b;" horiz-adv-x="0" 
 />
    <glyph glyph-name="figuredash" unicode="&#x2012;" 
d="M534 319v-72h-439v72h439z" />
    <glyph glyph-name="endash" unicode="&#x2013;" horiz-adv-x="561" 
d="M500 319v-72h-439v72h439z" />
    <glyph glyph-name="emdash" unicode="&#x2014;" horiz-adv-x="813" 
d="M752 319v-72h-691v72h691z" />
    <glyph glyph-name="uni2015" unicode="&#x2015;" horiz-adv-x="813" 
d="M752 319v-72h-691v72h691z" />
    <glyph glyph-name="quoteleft" unicode="&#x2018;" horiz-adv-x="214" 
d="M116 576h44v-107h-111v119l57 138h59z" />
    <glyph glyph-name="quoteright" unicode="&#x2019;" horiz-adv-x="208" 
d="M50 469l48 150h-43v107h111v-119l-57 -138h-59z" />
    <glyph glyph-name="quotesinglbase" unicode="&#x201a;" horiz-adv-x="220" 
d="M49 -138l48 150h-43v107h111v-119l-57 -138h-59z" />
    <glyph glyph-name="quotereversed" unicode="&#x201b;" horiz-adv-x="208" 
d="M109 619l49 -150h-59l-57 138v119h111v-107h-44z" />
    <glyph glyph-name="quotedblleft" unicode="&#x201c;" horiz-adv-x="385" 
d="M287 576h44v-107h-112v119l58 138h59zM117 576h44v-107h-112v119l58 138h59z" />
    <glyph glyph-name="quotedblright" unicode="&#x201d;" horiz-adv-x="379" 
d="M50 469l48 150h-43v107h112v-119l-58 -138h-59zM220 469l48 150h-43v107h112v-119l-58 -138h-59z" />
    <glyph glyph-name="quotedblbase" unicode="&#x201e;" horiz-adv-x="391" 
d="M49 -138l48 150h-43v107h112v-119l-58 -138h-59zM219 -138l48 150h-43v107h112v-119l-58 -138h-59z" />
    <glyph glyph-name="uni201F" unicode="&#x201f;" horiz-adv-x="379" 
d="M280 619l49 -150h-59l-58 138v119h112v-107h-44zM110 619l49 -150h-59l-58 138v119h112v-107h-44z" />
    <glyph glyph-name="dagger" unicode="&#x2020;" horiz-adv-x="494" 
d="M25 457v76h178v193h87v-193h179v-76h-179v-457h-87v457h-178z" />
    <glyph glyph-name="daggerdbl" unicode="&#x2021;" horiz-adv-x="548" 
d="M230 457h-178v76h178v193h87v-193h179v-76h-179v-298h179v-76h-179v-198h-87v198h-178v76h178v298z" />
    <glyph glyph-name="bullet" unicode="&#x2022;" horiz-adv-x="353" 
d="M283 354q0 -47 -30 -77.5t-76 -30.5q-48 0 -77.5 30.5t-29.5 77.5q0 46 29.5 76t77.5 30q46 0 76 -30t30 -76z" />
    <glyph glyph-name="ellipsis" unicode="&#x2026;" horiz-adv-x="663" 
d="M170 119v-119h-115v119h115zM389 119v-119h-115v119h115zM608 119v-119h-115v119h115z" />
    <glyph glyph-name="perthousand" unicode="&#x2030;" horiz-adv-x="1279" 
d="M191 694q72 0 112.5 -55t40.5 -155q0 -51 -11.5 -89t-32.5 -63.5t-49.5 -38.5t-62.5 -13q-71 0 -112 52t-41 152t43.5 155t112.5 55zM191 644q-41 0 -61.5 -42.5t-20.5 -117.5q0 -74 21 -114.5t61 -40.5q38 0 59 40.5t21 114.5q0 75 -21 117.5t-59 42.5zM664 697
l-369 -711h-64l368 711h65zM712 403q72 0 112.5 -55t40.5 -155q0 -51 -11.5 -89t-32.5 -63.5t-49.5 -38.5t-62.5 -13q-71 0 -112 52t-41 152t43.5 155t112.5 55zM712 353q-41 0 -61.5 -42.5t-20.5 -117.5q0 -74 21 -114.5t61 -40.5q38 0 59 40.5t21 114.5q0 75 -21 117.5
t-59 42.5zM1091 403q72 0 112.5 -55t40.5 -155q0 -51 -11.5 -89t-32.5 -63.5t-49.5 -38.5t-62.5 -13q-71 0 -112 52t-41 152t43.5 155t112.5 55zM1091 353q-41 0 -61.5 -42.5t-20.5 -117.5q0 -74 21 -114.5t61 -40.5q38 0 59 40.5t21 114.5q0 75 -21 117.5t-59 42.5z" />
    <glyph glyph-name="minute" unicode="&#x2032;" horiz-adv-x="214" 
d="M167 683l-28 -285h-63l-29 285h120z" />
    <glyph glyph-name="second" unicode="&#x2033;" horiz-adv-x="384" 
d="M167 683l-28 -285h-63l-29 285h120zM337 683l-28 -285h-63l-29 285h120z" />
    <glyph glyph-name="guilsinglleft" unicode="&#x2039;" horiz-adv-x="274" 
d="M137 472h93l-93 -200l93 -202h-93l-103 202z" />
    <glyph glyph-name="guilsinglright" unicode="&#x203a;" horiz-adv-x="274" 
d="M137 70h-93l93 199l-93 203h93l103 -203z" />
    <glyph glyph-name="fraction" unicode="&#x2044;" horiz-adv-x="142" 
d="M285 697l-369 -711h-64l368 711h65z" />
    <glyph glyph-name="uni2070" unicode="&#x2070;" horiz-adv-x="379" 
d="M191 881q72 0 112.5 -55t40.5 -155q0 -51 -11.5 -89t-32.5 -63.5t-49.5 -38.5t-62.5 -13q-71 0 -112 52t-41 152t43.5 155t112.5 55zM191 831q-41 0 -61.5 -42.5t-20.5 -117.5q0 -74 21 -114.5t61 -40.5q38 0 59 40.5t21 114.5q0 75 -21 117.5t-59 42.5z" />
    <glyph glyph-name="uni2074" unicode="&#x2074;" horiz-adv-x="359" 
d="M268 580v-102h-66v102h-179v54l144 236h101v-237h69v-53h-69zM202 633q0 44 0.5 85.5t1.5 92.5h-7q-11 -20 -23 -39t-24 -39l-62 -100h114z" />
    <glyph glyph-name="uni2075" unicode="&#x2075;" horiz-adv-x="345" 
d="M294 870v-53h-180l-10 -104q18 16 38 21.5t47 5.5q58 0 92.5 -38t34.5 -96q0 -62 -40 -100.5t-104 -38.5q-58 0 -95.5 30t-45.5 84h68q5 -31 24 -49t49 -18q34 0 55 25.5t21 63.5q0 39 -21 63.5t-53 24.5q-52 0 -68 -55l-69 6l22 228h235z" />
    <glyph glyph-name="uni2076" unicode="&#x2076;" horiz-adv-x="358" 
d="M251 772q-7 59 -61 59q-41 0 -63 -38t-24 -97q34 39 91 39q28 0 52 -9t42 -26.5t28 -42t10 -54.5q0 -63 -40 -99.5t-102 -36.5q-149 0 -149 200q0 98 40.5 156t114.5 58q57 0 91.5 -27.5t39.5 -81.5h-70zM186 686q-32 0 -53.5 -24.5t-21.5 -59.5q0 -37 21.5 -61.5
t53.5 -24.5q30 0 50.5 24t20.5 61t-19.5 61t-51.5 24z" />
    <glyph glyph-name="uni2077" unicode="&#x2077;" horiz-adv-x="305" 
d="M76 478q18 85 51 168.5t87 170.5h-195v53h267v-48q-47 -81 -82.5 -163.5t-54.5 -180.5h-73z" />
    <glyph glyph-name="uni2078" unicode="&#x2078;" horiz-adv-x="358" 
d="M179 467q-64 0 -104 30.5t-40 84.5q0 35 18.5 63t53.5 37v3q-30 11 -46.5 34t-16.5 53q0 48 37 78.5t98 30.5t98 -30.5t37 -78.5q0 -30 -16.5 -53t-46.5 -34v-3q35 -9 53.5 -37t18.5 -63q0 -54 -40 -84.5t-104 -30.5zM179 658q-34 0 -55 -21.5t-21 -51.5q0 -29 21 -48.5
t55 -19.5t55 19.5t21 48.5q0 30 -21 51.5t-55 21.5zM179 831q-32 0 -49.5 -16.5t-17.5 -44.5t18 -45.5t49 -17.5t49 17.5t18 45.5t-17.5 44.5t-49.5 16.5z" />
    <glyph glyph-name="uni2079" unicode="&#x2079;" horiz-adv-x="358" 
d="M102 581q5 -38 23.5 -51.5t46.5 -13.5q39 0 60.5 39t21.5 105q-32 -36 -86 -36q-59 0 -96 34t-37 91q0 58 38.5 95t103.5 37q78 0 111.5 -52.5t33.5 -147.5q0 -100 -37 -157t-113 -57q-64 0 -99.5 30.5t-37.5 83.5h67zM174 831q-31 0 -51.5 -23.5t-20.5 -57.5
q0 -32 20.5 -55t49.5 -23q33 0 53.5 22.5t20.5 54.5q0 35 -20 58.5t-52 23.5z" />
    <glyph glyph-name="uni2080" unicode="&#x2080;" horiz-adv-x="379" 
d="M191 256q72 0 112.5 -55t40.5 -155q0 -51 -11.5 -89t-32.5 -63.5t-49.5 -38.5t-62.5 -13q-71 0 -112 52t-41 152t43.5 155t112.5 55zM191 206q-41 0 -61.5 -42.5t-20.5 -117.5q0 -74 21 -114.5t61 -40.5q38 0 59 40.5t21 114.5q0 75 -21 117.5t-59 42.5z" />
    <glyph glyph-name="uni2081" unicode="&#x2081;" horiz-adv-x="236" 
d="M21 131v42q48 3 72.5 20t29.5 52h58v-392h-67v278h-93z" />
    <glyph glyph-name="uni2082" unicode="&#x2082;" horiz-adv-x="342" 
d="M35 -126q0 31 7 54.5t21.5 43t37 37t54.5 35.5q46 26 64 47.5t18 50.5q0 30 -17.5 47.5t-46.5 17.5q-34 0 -51.5 -23.5t-19.5 -66.5h-67q2 66 39.5 102.5t100.5 36.5q59 0 95 -32t36 -84q0 -22 -6.5 -40t-20 -33.5t-34 -30.5t-48.5 -32q-31 -19 -57.5 -40t-32.5 -57h201
v-54h-273v21z" />
    <glyph glyph-name="uni2083" unicode="&#x2083;" horiz-adv-x="351" 
d="M100 -20q0 -41 20 -65t55 -24t53.5 20.5t18.5 49.5q0 30 -20 48.5t-55 18.5h-25v50h20q37 0 56 17.5t19 48.5q0 29 -17 45.5t-49 16.5q-33 0 -51.5 -22t-19.5 -61h-68q3 63 40.5 98t101.5 35q59 0 95 -30.5t36 -78.5q0 -13 -4 -27t-11.5 -26.5t-20 -22.5t-28.5 -15v-3
q34 -11 51.5 -36t17.5 -60q0 -51 -38 -83t-105 -32q-64 0 -102.5 37t-38.5 101h69z" />
    <glyph glyph-name="uni2084" unicode="&#x2084;" horiz-adv-x="359" 
d="M268 -45v-102h-66v102h-179v54l144 236h101v-237h69v-53h-69zM202 8q0 44 0.5 85.5t1.5 92.5h-7q-11 -20 -23 -39t-24 -39l-62 -100h114z" />
    <glyph glyph-name="uni2085" unicode="&#x2085;" horiz-adv-x="345" 
d="M294 245v-53h-180l-10 -104q18 16 38 21.5t47 5.5q58 0 92.5 -38t34.5 -96q0 -62 -40 -100.5t-104 -38.5q-58 0 -95.5 30t-45.5 84h68q5 -31 24 -49t49 -18q34 0 55 25.5t21 63.5q0 39 -21 63.5t-53 24.5q-52 0 -68 -55l-69 6l22 228h235z" />
    <glyph glyph-name="uni2086" unicode="&#x2086;" horiz-adv-x="358" 
d="M251 147q-7 59 -61 59q-41 0 -63 -38t-24 -97q34 39 91 39q28 0 52 -9t42 -26.5t28 -42t10 -54.5q0 -63 -40 -99.5t-102 -36.5q-149 0 -149 200q0 98 40.5 156t114.5 58q57 0 91.5 -27.5t39.5 -81.5h-70zM186 61q-32 0 -53.5 -24.5t-21.5 -59.5q0 -37 21.5 -61.5
t53.5 -24.5q30 0 50.5 24t20.5 61t-19.5 61t-51.5 24z" />
    <glyph glyph-name="uni2087" unicode="&#x2087;" horiz-adv-x="305" 
d="M76 -147q18 85 51 168.5t87 170.5h-195v53h267v-48q-47 -81 -82.5 -163.5t-54.5 -180.5h-73z" />
    <glyph glyph-name="uni2088" unicode="&#x2088;" horiz-adv-x="358" 
d="M179 -158q-64 0 -104 30.5t-40 84.5q0 35 18.5 63t53.5 37v3q-30 11 -46.5 34t-16.5 53q0 48 37 78.5t98 30.5t98 -30.5t37 -78.5q0 -30 -16.5 -53t-46.5 -34v-3q35 -9 53.5 -37t18.5 -63q0 -54 -40 -84.5t-104 -30.5zM179 33q-34 0 -55 -21.5t-21 -51.5q0 -29 21 -48.5
t55 -19.5t55 19.5t21 48.5q0 30 -21 51.5t-55 21.5zM179 206q-32 0 -49.5 -16.5t-17.5 -44.5t18 -45.5t49 -17.5t49 17.5t18 45.5t-17.5 44.5t-49.5 16.5z" />
    <glyph glyph-name="uni2089" unicode="&#x2089;" horiz-adv-x="358" 
d="M102 -44q5 -38 23.5 -51.5t46.5 -13.5q39 0 60.5 39t21.5 105q-32 -36 -86 -36q-59 0 -96 34t-37 91q0 58 38.5 95t103.5 37q78 0 111.5 -52.5t33.5 -147.5q0 -100 -37 -157t-113 -57q-64 0 -99.5 30.5t-37.5 83.5h67zM174 206q-31 0 -51.5 -23.5t-20.5 -57.5
q0 -32 20.5 -55t49.5 -23q33 0 53.5 22.5t20.5 54.5q0 35 -20 58.5t-52 23.5z" />
    <glyph glyph-name="colonmonetary" unicode="&#x20a1;" horiz-adv-x="625" 
d="M476 772l-12 -108q57 -29 88 -82.5t39 -124.5h-91q-6 36 -17.5 64t-29.5 48l-54 -497q43 16 68 55t35 98h92q-8 -45 -24 -85t-41.5 -70.5t-60 -51.5t-78.5 -28l-10 -90h-66l9 86q-36 1 -69 9l-10 -95h-66l13 120q-75 43 -111 128t-36 191q0 64 13.5 121.5t41 103t69 77.5
t96.5 44l10 87h66l-9 -79h4q17 0 33.5 -2t31.5 -5l10 86h66zM263 76q33 -14 69 -14l60 546q-27 8 -57 8q-3 0 -6 -0.5t-6 -0.5zM136 339q0 -144 66 -218l53 477q-58 -28 -88.5 -95t-30.5 -164z" />
    <glyph glyph-name="uni20A6" unicode="&#x20a6;" horiz-adv-x="676" 
d="M628 226h-66v-226h-132l-89 226h-139v-226h-88v226h-66v67h66v85h-66v67h66v238h132l94 -238h134v238h88v-238h66v-67h-66v-85h66v-67zM202 293h113l-33 85h-80v-61v-24zM474 374v4h-108l34 -85h74v81zM198 585q0 -35 0.5 -70t1.5 -70h56l-54 140h-4zM476 226h-50
l48 -121h4z" />
    <glyph glyph-name="Euro" unicode="&#x20ac;" horiz-adv-x="655" 
d="M104 439q9 55 30 101.5t54 80.5t79.5 53t106.5 19q56 0 99 -16t73 -44.5t47.5 -68t22.5 -87.5h-91q-12 70 -47.5 104.5t-103.5 34.5q-75 0 -118.5 -47t-58.5 -130h266l-6 -64h-267q-1 -9 -1 -18v-18v-21t1 -20h256l-6 -64h-243q15 -81 57 -126.5t116 -45.5q67 0 100.5 36
t49.5 101h92q-11 -47 -30 -86t-48.5 -67.5t-70 -44.5t-93.5 -16q-62 0 -107.5 18.5t-78 51.5t-51.5 79t-28 100h-74l6 64h61q-1 10 -1 20v21v18t1 18h-67l6 64h67z" />
    <glyph glyph-name="uni20B2" unicode="&#x20b2;" horiz-adv-x="634" 
d="M485 492q-17 63 -48 91t-83 33v-256h223v-360h-80l-4 79q-20 -32 -55 -55t-84 -30v-95h-66v93q-65 4 -111.5 32t-75.5 74t-42.5 109t-13.5 138q0 72 16 131.5t47 104t76 72.5t104 36v83h66v-81q90 -5 145.5 -52t81.5 -147h-96zM145 345q0 -56 8.5 -103.5t25.5 -83.5
t44 -59t65 -30v543q-75 -17 -109 -88.5t-34 -178.5zM354 284v-215q62 12 96.5 65t34.5 131v19h-131z" />
    <glyph glyph-name="uni20B4" unicode="&#x20b4;" horiz-adv-x="627" 
d="M294 302h290v-66h-373q-17 -17 -27.5 -37t-10.5 -44t11 -42.5t30 -31t44.5 -19t55.5 -6.5q65 0 107.5 29.5t53.5 95.5h91q-14 -94 -77.5 -145t-170.5 -51q-49 0 -91.5 10t-74 30.5t-49.5 50.5t-18 71q0 25 9 47t24 42h-78v66h148q25 17 49.5 30.5t46.5 25.5l41 23h-285
v66h372q18 17 29 36.5t11 42.5q0 45 -35 73t-96 28q-58 0 -96.5 -28.5t-47.5 -93.5h-89q7 49 27.5 85.5t52 60.5t71.5 35.5t85 11.5q101 0 158.5 -45t57.5 -120q0 -24 -8.5 -45t-23.5 -41h76v-66h-152q-20 -13 -41 -25t-42 -23z" />
    <glyph glyph-name="uni20B5" unicode="&#x20b5;" horiz-adv-x="625" 
d="M364 772v-80q52 -5 92 -24t68.5 -49.5t45 -72t21.5 -89.5h-91q-11 69 -43.5 109t-92.5 48v-550q59 8 92 50t46 111h92q-8 -49 -26 -90.5t-46.5 -73t-67.5 -51.5t-90 -24v-87h-66v88q-65 7 -113 37t-79.5 77t-46.5 108t-15 130t16 130t47.5 108t79 77t111.5 37v81h66z
M140 339q0 -114 40.5 -186t117.5 -88v548q-78 -15 -118 -87.5t-40 -186.5z" />
    <glyph glyph-name="uni20B8" unicode="&#x20b8;" horiz-adv-x="654" 
d="M619 533v-75h-243v-458h-98v458h-243v75h584zM619 683v-75h-584v75h584z" />
    <glyph glyph-name="uni20B9" unicode="&#x20b9;" horiz-adv-x="588" 
d="M363 521q-9 29 -28 46.5t-44.5 26.5t-55 12t-58.5 3h-141v74h512v-70h-140q42 -32 53 -92h84v-70h-85q-11 -51 -52.5 -87t-101.5 -47v-3q28 -2 48.5 -11t35 -22.5t23.5 -30t15 -32.5l76 -218h-105l-65 191q-10 29 -26.5 46.5t-38 27t-48.5 12.5t-58 3h-71v75h77
q30 0 62.5 3t61 12.5t49 28.5t26.5 52h-328v70h323z" />
    <glyph glyph-name="uni20BA" unicode="&#x20ba;" horiz-adv-x="607" 
d="M50 422l84 49v212h98v-154l169 99v-71l-169 -99v-73l169 99v-71l-169 -99v-236h26q43 0 85 14t74.5 44t52.5 76.5t20 111.5h90q0 -72 -22 -131.5t-63.5 -102.5t-101.5 -66.5t-135 -23.5h-124v257l-84 -49v70l84 49v74l-84 -49v70z" />
    <glyph glyph-name="uni20BD" unicode="&#x20bd;" horiz-adv-x="622" 
d="M115 369v314h236q55 0 99.5 -11t76.5 -34t49.5 -60.5t17.5 -89.5q0 -53 -18 -90t-50 -60t-76.5 -34t-98.5 -11h-138v-75h251v-76h-251v-142h-98v142h-65v76h65v75h-65v76h65zM213 369h126q72 0 114.5 27.5t42.5 91.5t-42.5 89.5t-114.5 25.5h-126v-234z" />
    <glyph glyph-name="uni20BF" unicode="&#x20bf;" horiz-adv-x="583" 
d="M166 683v88h62v-88h4q25 0 50.5 -1t51.5 -3v92h62v-103q26 -7 49 -19.5t39.5 -31.5t26 -46.5t9.5 -64.5q0 -51 -31 -93.5t-93 -58.5v-4q30 -6 56 -18.5t45.5 -32t31 -47t11.5 -62.5q0 -38 -11 -67t-30.5 -49.5t-46 -34.5t-56.5 -22v-118h-62v106q-26 -3 -51.5 -4
t-50.5 -1h-4v-101h-62v101h-88v683h88zM232 76q42 0 79.5 3t66 14.5t45.5 34t17 62.5q0 36 -9.5 59.5t-33 37t-62 18.5t-95.5 5h-66v-234h58zM236 386q37 0 71.5 4.5t60 16.5t41 33t15.5 55q0 39 -15.5 61.5t-42 34t-62 14t-76.5 2.5h-54v-221h62z" />
    <glyph glyph-name="uni2113" unicode="&#x2113;" horiz-adv-x="441" 
d="M422 58q-27 -28 -69 -47t-87 -19q-44 0 -74 18t-49.5 49t-28 73t-8.5 90l-68 -42l-15 59q23 12 43 26l40 28v212q0 49 11 84.5t30.5 58t47 33t59.5 10.5q60 0 93.5 -33t33.5 -88q0 -44 -13 -80t-38 -70t-62.5 -69.5t-85.5 -78.5v-17q0 -24 1.5 -58.5t10 -66t26 -54
t49.5 -22.5q33 0 70 21.5t62 52.5zM214 382q23 22 41 41.5t30.5 39.5t19 43t6.5 53q0 45 -17.5 60.5t-43.5 15.5q-14 0 -26 -5t-22 -17.5t-15.5 -35t-5.5 -56.5v-171z" />
    <glyph glyph-name="uni2116" unicode="&#x2116;" horiz-adv-x="1202" 
d="M1144 272v-56h-346v56h346zM856 531q0 -33 6.5 -61t20.5 -49t36 -33t52 -12t52 12t36 33t20.5 49t6.5 61t-6.5 61t-20.5 49t-36 33t-52 12t-52 -12t-36 -33t-20.5 -49t-6.5 -61zM782 531q0 101 51 154t138 53t138 -53t51 -154t-51 -154t-138 -53t-138 53t-51 154zM530 0
q-95 167 -160.5 282.5t-106.5 189.5t-61.5 112t-26.5 49h-5q1 -30 2.5 -69.5t2.5 -78t1.5 -72t0.5 -51.5v-362h-90v726h134q96 -167 160.5 -280.5t105 -186t60 -109t25.5 -48.5h5q-1 30 -2 67.5t-2 74.5t-1.5 69.5t-0.5 50.5v362h91v-726h-132z" />
    <glyph glyph-name="uni2117" unicode="&#x2117;" horiz-adv-x="839" 
d="M44 363q0 80 29.5 149t80.5 120t119 80t146 29t146.5 -29t119.5 -80t80.5 -120t29.5 -149t-29.5 -149t-80.5 -120t-119.5 -80t-146.5 -29t-146 29t-119 80t-80.5 120t-29.5 149zM741 363q0 64 -23.5 123.5t-65.5 105.5t-101.5 73t-131.5 27t-131.5 -27t-101.5 -73
t-65.5 -105.5t-23.5 -123.5q0 -65 23.5 -124.5t65.5 -105t101.5 -73t131.5 -27.5t131.5 27.5t101.5 73t65.5 105t23.5 124.5zM444 580q34 0 63 -9t50 -26.5t32.5 -43.5t11.5 -59t-11.5 -59t-32.5 -43.5t-50 -26.5t-63 -9h-89v-156h-69v432h158zM530 442q0 82 -94 82h-81
v-164h81q94 0 94 82z" />
    <glyph glyph-name="trademark" unicode="&#x2122;" horiz-adv-x="905" 
d="M25 670v56h337v-56h-134v-336h-67v336h-136zM766 645h-4l-108 -311h-69l-117 311h-4v-311h-62v392h103l116 -312h3l105 312h102v-392h-65v311z" />
    <glyph glyph-name="Omega" unicode="&#x2126;" horiz-adv-x="772" 
d="M196 82q-78 67 -112.5 144.5t-34.5 176.5q0 69 23 130.5t66 107.5t105.5 73t142.5 27q79 0 142 -26.5t107 -72.5t67 -107.5t23 -131.5q0 -99 -34.5 -176.5t-112.5 -144.5h137v-82h-259v80q87 49 128 133.5t41 188.5q0 58 -15.5 106.5t-46 83t-75 53.5t-102.5 19
t-102 -19.5t-74 -54t-45.5 -82.5t-15.5 -106q0 -104 41 -188.5t128 -133.5v-80h-259v82h137z" />
    <glyph glyph-name="estimated" unicode="&#x212e;" horiz-adv-x="591" 
d="M146 91q35 -38 77 -56.5t88 -18.5q51 0 95.5 20t76.5 61l24 -22q-37 -48 -85 -67.5t-112 -19.5q-58 0 -106.5 21t-84 57.5t-55 85.5t-19.5 105t19.5 105.5t55 86t84 57.5t106.5 21q55 0 101 -21t79.5 -58.5t52 -88.5t18.5 -110h-415v-158zM462 425q-36 43 -76 58t-82 15
q-40 0 -80.5 -16.5t-77.5 -56.5v-147h316v147z" />
    <glyph glyph-name="uni2150" unicode="&#x2150;" horiz-adv-x="683" 
d="M20 569v42q48 3 72.5 20t29.5 52h58v-392h-67v278h-93zM521 697l-369 -711h-64l368 711h65zM454 0q18 85 51 168.5t87 170.5h-195v53h267v-48q-47 -81 -82.5 -163.5t-54.5 -180.5h-73z" />
    <glyph glyph-name="uni2151" unicode="&#x2151;" horiz-adv-x="736" 
d="M20 569v42q48 3 72.5 20t29.5 52h58v-392h-67v278h-93zM521 697l-369 -711h-64l368 711h65zM480 103q5 -38 23.5 -51.5t46.5 -13.5q39 0 60.5 39t21.5 105q-32 -36 -86 -36q-59 0 -96 34t-37 91q0 58 38.5 95t103.5 37q78 0 111.5 -52.5t33.5 -147.5q0 -100 -37 -157
t-113 -57q-64 0 -99.5 30.5t-37.5 83.5h67zM552 353q-31 0 -51.5 -23.5t-20.5 -57.5q0 -32 20.5 -55t49.5 -23q33 0 53.5 22.5t20.5 54.5q0 35 -20 58.5t-52 23.5z" />
    <glyph glyph-name="uni2152" unicode="&#x2152;" horiz-adv-x="993" 
d="M20 569v42q48 3 72.5 20t29.5 52h58v-392h-67v278h-93zM521 697l-369 -711h-64l368 711h65zM399 278v42q48 3 72.5 20t29.5 52h58v-392h-67v278h-93zM805 403q72 0 112.5 -55t40.5 -155q0 -51 -11.5 -89t-32.5 -63.5t-49.5 -38.5t-62.5 -13q-71 0 -112 52t-41 152
t43.5 155t112.5 55zM805 353q-41 0 -61.5 -42.5t-20.5 -117.5q0 -74 21 -114.5t61 -40.5q38 0 59 40.5t21 114.5q0 75 -21 117.5t-59 42.5z" />
    <glyph glyph-name="onethird" unicode="&#x2153;" horiz-adv-x="729" 
d="M20 569v42q48 3 72.5 20t29.5 52h58v-392h-67v278h-93zM521 697l-369 -711h-64l368 711h65zM478 127q0 -41 20 -65t55 -24t53.5 20.5t18.5 49.5q0 30 -20 48.5t-55 18.5h-25v50h20q37 0 56 17.5t19 48.5q0 29 -17 45.5t-49 16.5q-33 0 -51.5 -22t-19.5 -61h-68
q3 63 40.5 98t101.5 35q59 0 95 -30.5t36 -78.5q0 -13 -4 -27t-11.5 -26.5t-20 -22.5t-28.5 -15v-3q34 -11 51.5 -36t17.5 -60q0 -51 -38 -83t-105 -32q-64 0 -102.5 37t-38.5 101h69z" />
    <glyph glyph-name="twothirds" unicode="&#x2154;" horiz-adv-x="835" 
d="M35 312q0 31 7 54.5t21.5 43t37 37t54.5 35.5q46 26 64 47.5t18 50.5q0 30 -17.5 47.5t-46.5 17.5q-34 0 -51.5 -23.5t-19.5 -66.5h-67q2 66 39.5 102.5t100.5 36.5q59 0 95 -32t36 -84q0 -22 -6.5 -40t-20 -33.5t-34 -30.5t-48.5 -32q-31 -19 -57.5 -40t-32.5 -57h201
v-54h-273v21zM627 697l-369 -711h-64l368 711h65zM584 127q0 -41 20 -65t55 -24t53.5 20.5t18.5 49.5q0 30 -20 48.5t-55 18.5h-25v50h20q37 0 56 17.5t19 48.5q0 29 -17 45.5t-49 16.5q-33 0 -51.5 -22t-19.5 -61h-68q3 63 40.5 98t101.5 35q59 0 95 -30.5t36 -78.5
q0 -13 -4 -27t-11.5 -26.5t-20 -22.5t-28.5 -15v-3q34 -11 51.5 -36t17.5 -60q0 -51 -38 -83t-105 -32q-64 0 -102.5 37t-38.5 101h69z" />
    <glyph glyph-name="uni2155" unicode="&#x2155;" horiz-adv-x="723" 
d="M20 569v42q48 3 72.5 20t29.5 52h58v-392h-67v278h-93zM521 697l-369 -711h-64l368 711h65zM672 392v-53h-180l-10 -104q18 16 38 21.5t47 5.5q58 0 92.5 -38t34.5 -96q0 -62 -40 -100.5t-104 -38.5q-58 0 -95.5 30t-45.5 84h68q5 -31 24 -49t49 -18q34 0 55 25.5
t21 63.5q0 39 -21 63.5t-53 24.5q-52 0 -68 -55l-69 6l22 228h235z" />
    <glyph glyph-name="uni2156" unicode="&#x2156;" horiz-adv-x="829" 
d="M35 312q0 31 7 54.5t21.5 43t37 37t54.5 35.5q46 26 64 47.5t18 50.5q0 30 -17.5 47.5t-46.5 17.5q-34 0 -51.5 -23.5t-19.5 -66.5h-67q2 66 39.5 102.5t100.5 36.5q59 0 95 -32t36 -84q0 -22 -6.5 -40t-20 -33.5t-34 -30.5t-48.5 -32q-31 -19 -57.5 -40t-32.5 -57h201
v-54h-273v21zM627 697l-369 -711h-64l368 711h65zM778 392v-53h-180l-10 -104q18 16 38 21.5t47 5.5q58 0 92.5 -38t34.5 -96q0 -62 -40 -100.5t-104 -38.5q-58 0 -95.5 30t-45.5 84h68q5 -31 24 -49t49 -18q34 0 55 25.5t21 63.5q0 39 -21 63.5t-53 24.5q-52 0 -68 -55
l-69 6l22 228h235z" />
    <glyph glyph-name="uni2157" unicode="&#x2157;" horiz-adv-x="838" 
d="M100 418q0 -41 20 -65t55 -24t53.5 20.5t18.5 49.5q0 30 -20 48.5t-55 18.5h-25v50h20q37 0 56 17.5t19 48.5q0 29 -17 45.5t-49 16.5q-33 0 -51.5 -22t-19.5 -61h-68q3 63 40.5 98t101.5 35q59 0 95 -30.5t36 -78.5q0 -13 -4 -27t-11.5 -26.5t-20 -22.5t-28.5 -15v-3
q34 -11 51.5 -36t17.5 -60q0 -51 -38 -83t-105 -32q-64 0 -102.5 37t-38.5 101h69zM636 697l-369 -711h-64l368 711h65zM787 392v-53h-180l-10 -104q18 16 38 21.5t47 5.5q58 0 92.5 -38t34.5 -96q0 -62 -40 -100.5t-104 -38.5q-58 0 -95.5 30t-45.5 84h68q5 -31 24 -49
t49 -18q34 0 55 25.5t21 63.5q0 39 -21 63.5t-53 24.5q-52 0 -68 -55l-69 6l22 228h235z" />
    <glyph glyph-name="uni2158" unicode="&#x2158;" horiz-adv-x="846" 
d="M267 393v-102h-66v102h-179v54l144 236h101v-237h69v-53h-69zM201 446q0 44 0.5 85.5t1.5 92.5h-7q-11 -20 -23 -39t-24 -39l-62 -100h114zM644 697l-369 -711h-64l368 711h65zM795 392v-53h-180l-10 -104q18 16 38 21.5t47 5.5q58 0 92.5 -38t34.5 -96q0 -62 -40 -100.5
t-104 -38.5q-58 0 -95.5 30t-45.5 84h68q5 -31 24 -49t49 -18q34 0 55 25.5t21 63.5q0 39 -21 63.5t-53 24.5q-52 0 -68 -55l-69 6l22 228h235z" />
    <glyph glyph-name="uni2159" unicode="&#x2159;" horiz-adv-x="736" 
d="M20 569v42q48 3 72.5 20t29.5 52h58v-392h-67v278h-93zM521 697l-369 -711h-64l368 711h65zM629 294q-7 59 -61 59q-41 0 -63 -38t-24 -97q34 39 91 39q28 0 52 -9t42 -26.5t28 -42t10 -54.5q0 -63 -40 -99.5t-102 -36.5q-149 0 -149 200q0 98 40.5 156t114.5 58
q57 0 91.5 -27.5t39.5 -81.5h-70zM564 208q-32 0 -53.5 -24.5t-21.5 -59.5q0 -37 21.5 -61.5t53.5 -24.5q30 0 50.5 24t20.5 61t-19.5 61t-51.5 24z" />
    <glyph glyph-name="uni215A" unicode="&#x215a;" horiz-adv-x="845" 
d="M294 683v-53h-180l-10 -104q18 16 38 21.5t47 5.5q58 0 92.5 -38t34.5 -96q0 -62 -40 -100.5t-104 -38.5q-58 0 -95.5 30t-45.5 84h68q5 -31 24 -49t49 -18q34 0 55 25.5t21 63.5q0 39 -21 63.5t-53 24.5q-52 0 -68 -55l-69 6l22 228h235zM630 697l-369 -711h-64l368 711
h65zM738 294q-7 59 -61 59q-41 0 -63 -38t-24 -97q34 39 91 39q28 0 52 -9t42 -26.5t28 -42t10 -54.5q0 -63 -40 -99.5t-102 -36.5q-149 0 -149 200q0 98 40.5 156t114.5 58q57 0 91.5 -27.5t39.5 -81.5h-70zM673 208q-32 0 -53.5 -24.5t-21.5 -59.5q0 -37 21.5 -61.5
t53.5 -24.5q30 0 50.5 24t20.5 61t-19.5 61t-51.5 24z" />
    <glyph glyph-name="oneeighth" unicode="&#x215b;" horiz-adv-x="736" 
d="M20 569v42q48 3 72.5 20t29.5 52h58v-392h-67v278h-93zM521 697l-369 -711h-64l368 711h65zM557 -11q-64 0 -104 30.5t-40 84.5q0 35 18.5 63t53.5 37v3q-30 11 -46.5 34t-16.5 53q0 48 37 78.5t98 30.5t98 -30.5t37 -78.5q0 -30 -16.5 -53t-46.5 -34v-3q35 -9 53.5 -37
t18.5 -63q0 -54 -40 -84.5t-104 -30.5zM557 180q-34 0 -55 -21.5t-21 -51.5q0 -29 21 -48.5t55 -19.5t55 19.5t21 48.5q0 30 -21 51.5t-55 21.5zM557 353q-32 0 -49.5 -16.5t-17.5 -44.5t18 -45.5t49 -17.5t49 17.5t18 45.5t-17.5 44.5t-49.5 16.5z" />
    <glyph glyph-name="threeeighths" unicode="&#x215c;" horiz-adv-x="851" 
d="M100 418q0 -41 20 -65t55 -24t53.5 20.5t18.5 49.5q0 30 -20 48.5t-55 18.5h-25v50h20q37 0 56 17.5t19 48.5q0 29 -17 45.5t-49 16.5q-33 0 -51.5 -22t-19.5 -61h-68q3 63 40.5 98t101.5 35q59 0 95 -30.5t36 -78.5q0 -13 -4 -27t-11.5 -26.5t-20 -22.5t-28.5 -15v-3
q34 -11 51.5 -36t17.5 -60q0 -51 -38 -83t-105 -32q-64 0 -102.5 37t-38.5 101h69zM636 697l-369 -711h-64l368 711h65zM672 -11q-64 0 -104 30.5t-40 84.5q0 35 18.5 63t53.5 37v3q-30 11 -46.5 34t-16.5 53q0 48 37 78.5t98 30.5t98 -30.5t37 -78.5q0 -30 -16.5 -53
t-46.5 -34v-3q35 -9 53.5 -37t18.5 -63q0 -54 -40 -84.5t-104 -30.5zM672 180q-34 0 -55 -21.5t-21 -51.5q0 -29 21 -48.5t55 -19.5t55 19.5t21 48.5q0 30 -21 51.5t-55 21.5zM672 353q-32 0 -49.5 -16.5t-17.5 -44.5t18 -45.5t49 -17.5t49 17.5t18 45.5t-17.5 44.5
t-49.5 16.5z" />
    <glyph glyph-name="fiveeighths" unicode="&#x215d;" horiz-adv-x="845" 
d="M294 683v-53h-180l-10 -104q18 16 38 21.5t47 5.5q58 0 92.5 -38t34.5 -96q0 -62 -40 -100.5t-104 -38.5q-58 0 -95.5 30t-45.5 84h68q5 -31 24 -49t49 -18q34 0 55 25.5t21 63.5q0 39 -21 63.5t-53 24.5q-52 0 -68 -55l-69 6l22 228h235zM630 697l-369 -711h-64l368 711
h65zM666 -11q-64 0 -104 30.5t-40 84.5q0 35 18.5 63t53.5 37v3q-30 11 -46.5 34t-16.5 53q0 48 37 78.5t98 30.5t98 -30.5t37 -78.5q0 -30 -16.5 -53t-46.5 -34v-3q35 -9 53.5 -37t18.5 -63q0 -54 -40 -84.5t-104 -30.5zM666 180q-34 0 -55 -21.5t-21 -51.5q0 -29 21 -48.5
t55 -19.5t55 19.5t21 48.5q0 30 -21 51.5t-55 21.5zM666 353q-32 0 -49.5 -16.5t-17.5 -44.5t18 -45.5t49 -17.5t49 17.5t18 45.5t-17.5 44.5t-49.5 16.5z" />
    <glyph glyph-name="seveneighths" unicode="&#x215e;" horiz-adv-x="769" 
d="M76 291q18 85 51 168.5t87 170.5h-195v53h267v-48q-47 -81 -82.5 -163.5t-54.5 -180.5h-73zM554 697l-369 -711h-64l368 711h65zM590 -11q-64 0 -104 30.5t-40 84.5q0 35 18.5 63t53.5 37v3q-30 11 -46.5 34t-16.5 53q0 48 37 78.5t98 30.5t98 -30.5t37 -78.5
q0 -30 -16.5 -53t-46.5 -34v-3q35 -9 53.5 -37t18.5 -63q0 -54 -40 -84.5t-104 -30.5zM590 180q-34 0 -55 -21.5t-21 -51.5q0 -29 21 -48.5t55 -19.5t55 19.5t21 48.5q0 30 -21 51.5t-55 21.5zM590 353q-32 0 -49.5 -16.5t-17.5 -44.5t18 -45.5t49 -17.5t49 17.5t18 45.5
t-17.5 44.5t-49.5 16.5z" />
    <glyph glyph-name="uni215F" unicode="&#x215f;" horiz-adv-x="378" 
d="M20 569v42q48 3 72.5 20t29.5 52h58v-392h-67v278h-93zM521 697l-369 -711h-64l368 711h65z" />
    <glyph glyph-name="uni2160" unicode="&#x2160;" horiz-adv-x="272" 
d="M87 726h98v-726h-98v726z" />
    <glyph glyph-name="uni2161" unicode="&#x2161;" horiz-adv-x="554" 
d="M87 726h98v-726h-98v726zM369 726h98v-726h-98v726z" />
    <glyph glyph-name="uni2162" unicode="&#x2162;" horiz-adv-x="836" 
d="M87 726h98v-726h-98v726zM369 726h98v-726h-98v726zM651 726h98v-726h-98v726z" />
    <glyph glyph-name="uni2163" unicode="&#x2163;" horiz-adv-x="914" 
d="M87 726h98v-726h-98v726zM281 726h109l158 -468q13 -37 23 -74.5t23 -75.5h6l6.5 19.5t8.5 27t12.5 41t19.5 62.5l163 468h99l-264 -726h-108z" />
    <glyph glyph-name="uni2164" unicode="&#x2164;" horiz-adv-x="642" 
d="M9 726h109l158 -468q13 -37 23 -74.5t23 -75.5h6l6.5 19.5t8.5 27t12.5 41t19.5 62.5l163 468h99l-264 -726h-108z" />
    <glyph glyph-name="uni2165" unicode="&#x2165;" horiz-adv-x="918" 
d="M9 726h109l158 -468q13 -37 23 -74.5t23 -75.5h6l6.5 19.5t8.5 27t12.5 41t19.5 62.5l163 468h99l-264 -726h-108zM733 726h98v-726h-98v726z" />
    <glyph glyph-name="uni2166" unicode="&#x2166;" horiz-adv-x="1200" 
d="M9 726h109l158 -468q13 -37 23 -74.5t23 -75.5h6l6.5 19.5t8.5 27t12.5 41t19.5 62.5l163 468h99l-264 -726h-108zM733 726h98v-726h-98v726zM1015 726h98v-726h-98v726z" />
    <glyph glyph-name="uni2167" unicode="&#x2167;" horiz-adv-x="1482" 
d="M9 726h109l158 -468q13 -37 23 -74.5t23 -75.5h6l6.5 19.5t8.5 27t12.5 41t19.5 62.5l163 468h99l-264 -726h-108zM733 726h98v-726h-98v726zM1015 726h98v-726h-98v726zM1297 726h98v-726h-98v726z" />
    <glyph glyph-name="uni2168" unicode="&#x2168;" horiz-adv-x="901" 
d="M87 726h98v-726h-98v726zM532 378l-238 348h116l183 -281l185 281h107l-238 -348l254 -378h-115l-199 305l-197 -305h-109z" />
    <glyph glyph-name="uni2169" unicode="&#x2169;" horiz-adv-x="622" 
d="M253 378l-238 348h116l183 -281l185 281h107l-238 -348l254 -378h-115l-199 305l-197 -305h-109z" />
    <glyph glyph-name="uni216A" unicode="&#x216a;" horiz-adv-x="903" 
d="M253 378l-238 348h116l183 -281l185 281h107l-238 -348l254 -378h-115l-199 305l-197 -305h-109zM718 726h98v-726h-98v726z" />
    <glyph glyph-name="uni216B" unicode="&#x216b;" horiz-adv-x="1185" 
d="M253 378l-238 348h116l183 -281l185 281h107l-238 -348l254 -378h-115l-199 305l-197 -305h-109zM718 726h98v-726h-98v726zM1000 726h98v-726h-98v726z" />
    <glyph glyph-name="uni216C" unicode="&#x216c;" horiz-adv-x="553" 
d="M87 726h98v-644h355v-82h-453v726z" />
    <glyph glyph-name="uni216D" unicode="&#x216d;" horiz-adv-x="700" 
d="M375 -15q-81 0 -142 29.5t-102.5 80.5t-62.5 120t-21 148t21.5 148t63 120t102.5 80.5t139 29.5q63 0 114.5 -18.5t89 -52t60 -80t28.5 -101.5h-101q-13 83 -62.5 128.5t-128.5 45.5q-51 0 -92 -21.5t-70.5 -61t-45.5 -95t-16 -122.5q0 -68 16.5 -123t46 -94.5t71 -61
t92.5 -21.5q78 0 127.5 48t63.5 130h102q-9 -55 -33 -102t-61.5 -81t-87.5 -53.5t-111 -19.5z" />
    <glyph glyph-name="uni216E" unicode="&#x216e;" horiz-adv-x="710" 
d="M87 726h210q72 0 127 -12t98 -41q69 -48 105 -129t36 -181t-39 -179.5t-108 -127.5q-43 -29 -95 -42.5t-124 -13.5h-210v726zM284 80q63 0 111.5 13.5t80.5 41.5q40 35 62 95.5t22 132.5q0 71 -20 133t-60 97q-31 27 -82 40t-114 13h-99v-566h99z" />
    <glyph glyph-name="uni216F" unicode="&#x216f;" horiz-adv-x="928" 
d="M87 726h151l178 -468q19 -51 30 -84t21 -67h5q8 36 19.5 72.5t26.5 78.5l171 468h152v-726h-92v415q0 51 1.5 103.5t2.5 114.5h-5l-232 -633h-106l-233 633h-5q0 -20 1 -48t2 -58t1.5 -60t0.5 -52v-415h-90v726z" />
    <glyph glyph-name="uni2170" unicode="&#x2170;" horiz-adv-x="242" 
d="M75 516h92v-516h-92v516zM75 726h92v-100h-92v100z" />
    <glyph glyph-name="uni2171" unicode="&#x2171;" horiz-adv-x="486" 
d="M75 516h92v-516h-92v516zM75 726h92v-100h-92v100zM319 516h92v-516h-92v516zM319 726h92v-100h-92v100z" />
    <glyph glyph-name="uni2172" unicode="&#x2172;" horiz-adv-x="730" 
d="M75 516h92v-516h-92v516zM75 726h92v-100h-92v100zM319 516h92v-516h-92v516zM319 726h92v-100h-92v100zM563 516h92v-516h-92v516zM563 726h92v-100h-92v100z" />
    <glyph glyph-name="uni2173" unicode="&#x2173;" horiz-adv-x="747" 
d="M75 516h92v-516h-92v516zM75 726h92v-100h-92v100zM247 516h101l91 -258q15 -44 28.5 -89t24.5 -89h6q11 44 24.5 89t28.5 89l91 258h94l-191 -516h-107z" />
    <glyph glyph-name="uni2174" unicode="&#x2174;" horiz-adv-x="511" 
d="M11 516h101l91 -258q15 -44 28.5 -89t24.5 -89h6q11 44 24.5 89t28.5 89l91 258h94l-191 -516h-107z" />
    <glyph glyph-name="uni2175" unicode="&#x2175;" horiz-adv-x="747" 
d="M11 516h101l91 -258q15 -44 28.5 -89t24.5 -89h6q11 44 24.5 89t28.5 89l91 258h94l-191 -516h-107zM580 516h92v-516h-92v516zM580 726h92v-100h-92v100z" />
    <glyph glyph-name="uni2176" unicode="&#x2176;" horiz-adv-x="991" 
d="M11 516h101l91 -258q15 -44 28.5 -89t24.5 -89h6q11 44 24.5 89t28.5 89l91 258h94l-191 -516h-107zM580 516h92v-516h-92v516zM580 726h92v-100h-92v100zM824 516h92v-516h-92v516zM824 726h92v-100h-92v100z" />
    <glyph glyph-name="uni2177" unicode="&#x2177;" horiz-adv-x="1235" 
d="M11 516h101l91 -258q15 -44 28.5 -89t24.5 -89h6q11 44 24.5 89t28.5 89l91 258h94l-191 -516h-107zM580 516h92v-516h-92v516zM580 726h92v-100h-92v100zM824 516h92v-516h-92v516zM824 726h92v-100h-92v100zM1068 516h92v-516h-92v516zM1068 726h92v-100h-92v100z" />
    <glyph glyph-name="uni2178" unicode="&#x2178;" horiz-adv-x="736" 
d="M75 516h92v-516h-92v516zM75 726h92v-100h-92v100zM436 267l-175 249h114l118 -189l126 189h100l-177 -249l192 -267h-113l-135 202l-135 -202h-104z" />
    <glyph glyph-name="uni2179" unicode="&#x2179;" horiz-adv-x="492" 
d="M192 267l-175 249h114l118 -189l126 189h100l-177 -249l192 -267h-113l-135 202l-135 -202h-104z" />
    <glyph glyph-name="uni217A" unicode="&#x217a;" horiz-adv-x="737" 
d="M192 267l-175 249h114l118 -189l126 189h100l-177 -249l192 -267h-113l-135 202l-135 -202h-104zM570 516h92v-516h-92v516zM570 726h92v-100h-92v100z" />
    <glyph glyph-name="uni217B" unicode="&#x217b;" horiz-adv-x="981" 
d="M192 267l-175 249h114l118 -189l126 189h100l-177 -249l192 -267h-113l-135 202l-135 -202h-104zM570 516h92v-516h-92v516zM570 726h92v-100h-92v100zM814 516h92v-516h-92v516zM814 726h92v-100h-92v100z" />
    <glyph glyph-name="uni217C" unicode="&#x217c;" horiz-adv-x="242" 
d="M75 726h92v-726h-92v726z" />
    <glyph glyph-name="uni217D" unicode="&#x217d;" horiz-adv-x="531" 
d="M281 -15q-59 0 -103.5 19.5t-75.5 55.5t-46.5 86.5t-15.5 111.5q0 58 16 108t47 87t76.5 57.5t103.5 20.5q94 0 149.5 -48t67.5 -136h-96q-17 110 -122 110q-36 0 -63 -14.5t-45.5 -40.5t-28 -62.5t-9.5 -81.5q0 -90 38 -145t108 -55q51 0 84 28t45 87h90
q-33 -188 -220 -188z" />
    <glyph glyph-name="uni217E" unicode="&#x217e;" horiz-adv-x="585" 
d="M262 -11q-103 0 -162 69.5t-59 199.5q0 58 15.5 107t44.5 85t70 56.5t91 20.5q53 0 91.5 -16t64.5 -55v270h92v-726h-88v68q-53 -79 -160 -79zM275 62q66 0 105.5 52.5t39.5 143.5q0 93 -39.5 144.5t-105.5 51.5q-64 0 -101.5 -51.5t-37.5 -144.5q0 -91 37.5 -143.5
t101.5 -52.5z" />
    <glyph glyph-name="uni217F" unicode="&#x217f;" horiz-adv-x="875" 
d="M75 516h86v-66q23 36 63 56.5t92 20.5q44 0 83.5 -22.5t57.5 -72.5q32 51 80 73t103 22q89 0 127.5 -51.5t38.5 -139.5v-336h-92v286q0 28 -2.5 58t-12.5 54.5t-30.5 40t-56.5 15.5q-42 0 -66.5 -20.5t-37.5 -50.5t-17 -64.5t-4 -63.5v-255h-92v286q0 28 -2.5 58
t-13 54.5t-31 40t-56.5 15.5q-42 0 -66.5 -20.5t-37.5 -50.5t-17 -64.5t-4 -63.5v-255h-92v516z" />
    <glyph glyph-name="uni2189" unicode="&#x2189;" horiz-adv-x="872" 
d="M191 694q72 0 112.5 -55t40.5 -155q0 -51 -11.5 -89t-32.5 -63.5t-49.5 -38.5t-62.5 -13q-71 0 -112 52t-41 152t43.5 155t112.5 55zM191 644q-41 0 -61.5 -42.5t-20.5 -117.5q0 -74 21 -114.5t61 -40.5q38 0 59 40.5t21 114.5q0 75 -21 117.5t-59 42.5zM664 697
l-369 -711h-64l368 711h65zM621 127q0 -41 20 -65t55 -24t53.5 20.5t18.5 49.5q0 30 -20 48.5t-55 18.5h-25v50h20q37 0 56 17.5t19 48.5q0 29 -17 45.5t-49 16.5q-33 0 -51.5 -22t-19.5 -61h-68q3 63 40.5 98t101.5 35q59 0 95 -30.5t36 -78.5q0 -13 -4 -27t-11.5 -26.5
t-20 -22.5t-28.5 -15v-3q34 -11 51.5 -36t17.5 -60q0 -51 -38 -83t-105 -32q-64 0 -102.5 37t-38.5 101h69z" />
    <glyph glyph-name="arrowleft" unicode="&#x2190;" horiz-adv-x="602" 
d="M344 504l-193 -184h421v-72h-421l193 -183l-50 -50l-270 269l270 270z" />
    <glyph glyph-name="arrowup" unicode="&#x2191;" horiz-adv-x="579" 
d="M559 278l-50 -50l-183 193v-421h-72v421l-184 -193l-50 50l270 270z" />
    <glyph glyph-name="arrowright" unicode="&#x2192;" horiz-adv-x="602" 
d="M308 15l-50 50l193 183h-421v72h421l-193 184l50 50l270 -270z" />
    <glyph glyph-name="arrowdown" unicode="&#x2193;" horiz-adv-x="579" 
d="M70 288l184 -193v421h72v-421l183 193l50 -50l-269 -270l-270 270z" />
    <glyph glyph-name="uni2196" unicode="&#x2196;" horiz-adv-x="529" 
d="M449 396l-266 6l297 -298l-51 -51l-297 298l7 -266h-71l-1 381h382v-70z" />
    <glyph glyph-name="uni2197" unicode="&#x2197;" horiz-adv-x="529" 
d="M461 85h-71l7 266l-297 -298l-51 51l297 298l-266 -6v70h382z" />
    <glyph glyph-name="uni2198" unicode="&#x2198;" horiz-adv-x="528" 
d="M68 434h71l-7 -266l297 298l51 -51l-297 -298l266 6v-70h-382z" />
    <glyph glyph-name="uni2199" unicode="&#x2199;" horiz-adv-x="528" 
d="M79 123l266 -6l-297 298l51 51l297 -298l-7 266h71l1 -381h-382v70z" />
    <glyph glyph-name="partialdiff" unicode="&#x2202;" horiz-adv-x="527" 
d="M170 698q70 0 127 -27.5t97.5 -76.5t62 -115.5t21.5 -145.5q0 -164 -57 -255.5t-176 -91.5q-49 0 -89 15.5t-68.5 44.5t-44 72t-15.5 97q0 50 18 90t47 67.5t66.5 42t76.5 14.5q23 0 46 -5t44 -15t38 -25.5t29 -36.5v1q0 45 -13 94.5t-42 90t-75 67t-111 26.5zM249 54
q26 0 49 11.5t40 32.5t26.5 50t9.5 64q0 30 -8.5 57t-24.5 47.5t-39.5 32t-53.5 11.5q-29 0 -52.5 -12t-40 -32.5t-25.5 -47.5t-9 -58q0 -32 9 -60.5t25.5 -49.5t40 -33.5t53.5 -12.5z" />
    <glyph glyph-name="Delta" unicode="&#x2206;" horiz-adv-x="707" 
d="M302 726h99l282 -655v-71h-659v71zM405 500q-12 29 -20.5 49.5t-14.5 35.5t-10 25.5t-7 20.5h-4q-3 -9 -6 -19.5t-7.5 -24.5t-12 -33.5t-18.5 -46.5l-177 -426h446z" />
    <glyph glyph-name="product" unicode="&#x220f;" horiz-adv-x="723" 
d="M689 607h-87v-720h-92v720h-297v-720h-91v720h-90v76h657v-76z" />
    <glyph glyph-name="summation" unicode="&#x2211;" horiz-adv-x="578" 
d="M333 294l-293 315v74h495v-74h-381v-4l288 -313l-302 -337v-5h409v-73h-521v73z" />
    <glyph glyph-name="minus" unicode="&#x2212;" 
d="M76 313h477v-78h-477v78z" />
    <glyph glyph-name="uni2215" unicode="&#x2215;" horiz-adv-x="142" 
d="M285 697l-369 -711h-64l368 711h65z" />
    <glyph glyph-name="uni2219" unicode="&#x2219;" 
d="M372 406v-119h-115v119h115z" />
    <glyph glyph-name="radical" unicode="&#x221a;" horiz-adv-x="614" 
d="M110 385l-89 -38l-26 62l171 72l119 -376l257 754h79l-299 -870h-80z" />
    <glyph glyph-name="infinity" unicode="&#x221e;" 
d="M186 186q28 0 52 23.5t45 51.5q-10 11 -20 25.5t-21.5 27t-25.5 21t-32 8.5q-25 0 -42 -22.5t-17 -53.5q0 -33 16.5 -57t44.5 -24zM439 124q-22 0 -39 9t-31 22.5t-27 30.5t-28 32q-11 -16 -25 -33t-30.5 -30.5t-35.5 -22t-40 -8.5q-24 0 -45 10t-36.5 29t-24.5 45t-9 59
q0 30 10 56t26.5 46t39 31.5t48.5 11.5q21 0 38 -8.5t32 -22t28 -30.5t24 -33q13 16 27.5 33t31 30.5t35 22t39.5 8.5q24 0 45.5 -10.5t37 -29t24.5 -45t9 -59.5q0 -29 -10 -55t-26.5 -46t-39.5 -31.5t-48 -11.5zM445 350q-14 0 -27 -6.5t-25 -17t-23 -24.5t-21 -28
q7 -12 17.5 -26t22.5 -26t26.5 -20t30.5 -8q26 0 43 21.5t17 52.5q0 34 -17 58t-44 24z" />
    <glyph glyph-name="integral" unicode="&#x222b;" horiz-adv-x="393" 
d="M165 479q7 117 47.5 168t111.5 51q21 0 40 -4t34 -11l-19 -67q-29 9 -49 9q-35 0 -54 -31.5t-24 -114.5l-27 -440q-8 -120 -48 -169.5t-111 -49.5q-21 0 -40 4t-34 11l19 67q28 -9 49 -9q35 0 54 31.5t24 114.5z" />
    <glyph glyph-name="approxequal" unicode="&#x2248;" 
d="M315 128q-24 12 -49.5 21.5t-52.5 9.5q-30 0 -49.5 -18.5t-39.5 -44.5l-48 50q32 43 60.5 67t72.5 24q28 0 54 -10t52 -23q24 -12 49.5 -21t52.5 -9q31 0 50 18t39 44l49 -50q-32 -43 -61 -67t-73 -24q-27 0 -53.5 10t-52.5 23zM315 325q-24 12 -49.5 21.5t-52.5 9.5
q-30 0 -49.5 -18.5t-39.5 -44.5l-48 50q32 43 60.5 67t72.5 24q28 0 54 -10t52 -23q24 -12 49.5 -21t52.5 -9q31 0 50 18t39 44l49 -50q-32 -43 -61 -67t-73 -24q-27 0 -53.5 10t-52.5 23z" />
    <glyph glyph-name="notequal" unicode="&#x2260;" 
d="M555 330h-175l-50 -110h225v-77h-261l-65 -143h-81l63 143h-135v77h171l50 110h-221v78h256l54 122h83l-53 -122h139v-78z" />
    <glyph glyph-name="equivalence" unicode="&#x2261;" 
d="M76 155h477v-72h-477v72zM76 304h477v-72h-477v72zM76 454h477v-72h-477v72z" />
    <glyph glyph-name="lessequal" unicode="&#x2264;" 
d="M82 0v74h462v-74h-462zM544 437l-365 -116l365 -123v-84l-462 165v78l462 164v-84z" />
    <glyph glyph-name="greaterequal" unicode="&#x2265;" 
d="M548 74v-74h-462v74h462zM548 279l-462 -165v84l366 123l-366 116v84l462 -164v-78z" />
    <glyph glyph-name="uni25AF" unicode="&#x25af;" horiz-adv-x="651" 
d="M87 0v726h477v-726h-477zM507 53v620h-363v-620h363z" />
    <glyph glyph-name="triagup" unicode="&#x25b2;" horiz-adv-x="581" 
d="M88 520l472 -252l-472 -256v508z" />
    <glyph glyph-name="triagrt" unicode="&#x25ba;" horiz-adv-x="547" 
d="M20 33l252 504l256 -504h-508z" />
    <glyph glyph-name="triagdn" unicode="&#x25bc;" horiz-adv-x="547" 
d="M20 525h508l-256 -504z" />
    <glyph glyph-name="triaglf" unicode="&#x25c4;" horiz-adv-x="581" 
d="M493 520v-508l-472 256z" />
    <glyph glyph-name="lozenge" unicode="&#x25ca;" horiz-adv-x="517" 
d="M224 0l-193 341l193 342h69l193 -342l-193 -341h-69zM112 341l147 -262l146 262l-147 264z" />
    <glyph glyph-name="uniFB00" unicode="&#xfb00;" horiz-adv-x="598" 
d="M109 440h-95v76h95v26q0 34 3 63t11 50q16 40 49 58.5t81 18.5q13 0 29 -1t32 -5v-76q-11 2 -23 3t-21 1q-23 0 -37 -7t-21 -21.5t-9 -36.5t-2 -52v-21h180v26q0 34 3 63t11 50q16 40 49 58.5t81 18.5q13 0 29 -1t32 -5v-76q-11 2 -23 3t-21 1q-23 0 -37 -7t-21 -21.5
t-9 -36.5t-2 -52v-21h113v-76h-113v-440h-92v440h-180v-440h-92v440z" />
    <glyph glyph-name="fi" unicode="&#xfb01;" horiz-adv-x="543" 
d="M109 440h-95v76h95v26q0 34 3 63t11 50q16 40 49 58.5t81 18.5q13 0 29 -1t32 -5v-76q-11 2 -23 3t-21 1q-23 0 -37 -7t-21 -21.5t-9 -36.5t-2 -52v-21h113v-76h-113v-440h-92v440zM376 516h92v-516h-92v516zM376 726h92v-100h-92v100z" />
    <glyph glyph-name="fl" unicode="&#xfb02;" horiz-adv-x="543" 
d="M109 440h-95v76h95v26q0 34 3 63t11 50q16 40 49 58.5t81 18.5q13 0 29 -1t32 -5v-76q-11 2 -23 3t-21 1q-23 0 -37 -7t-21 -21.5t-9 -36.5t-2 -52v-21h113v-76h-113v-440h-92v440zM376 726h92v-726h-92v726z" />
    <glyph glyph-name="uniFB03" unicode="&#xfb03;" horiz-adv-x="819" 
d="M652 516h92v-516h-92v516zM652 726h92v-100h-92v100zM109 440h-95v76h95v26q0 34 3 63t11 50q16 40 49 58.5t81 18.5q13 0 29 -1t32 -5v-76q-11 2 -23 3t-21 1q-23 0 -37 -7t-21 -21.5t-9 -36.5t-2 -52v-21h180v26q0 34 3 63t11 50q16 40 49 58.5t81 18.5q13 0 29 -1
t32 -5v-76q-11 2 -23 3t-21 1q-23 0 -37 -7t-21 -21.5t-9 -36.5t-2 -52v-21h113v-76h-113v-440h-92v440h-180v-440h-92v440z" />
    <glyph glyph-name="uniFB04" unicode="&#xfb04;" horiz-adv-x="819" 
d="M652 726h92v-726h-92v726zM109 440h-95v76h95v26q0 34 3 63t11 50q16 40 49 58.5t81 18.5q13 0 29 -1t32 -5v-76q-11 2 -23 3t-21 1q-23 0 -37 -7t-21 -21.5t-9 -36.5t-2 -52v-21h180v26q0 34 3 63t11 50q16 40 49 58.5t81 18.5q13 0 29 -1t32 -5v-76q-11 2 -23 3t-21 1
q-23 0 -37 -7t-21 -21.5t-9 -36.5t-2 -52v-21h113v-76h-113v-440h-92v440h-180v-440h-92v440z" />
    <glyph glyph-name="uniFEFF" unicode="&#xfeff;" horiz-adv-x="0" 
 />
    <glyph glyph-name="i.latn_TRK" horiz-adv-x="242" 
d="M75 516h92v-516h-92v516zM75 726h92v-100h-92v100z" />
    <glyph glyph-name="Ldot.latn_CAT" horiz-adv-x="554" 
d="M87 726h98v-644h355v-82h-453v726zM362 438h93v-100h-93v100z" />
    <glyph glyph-name="ldot.latn_CAT" horiz-adv-x="318" 
d="M75 726h92v-726h-92v726zM234 438h92v-100h-92v100z" />
    <glyph glyph-name="uni0306.cyrl_dflt" horiz-adv-x="0" 
d="M-250 588q-69 0 -108.5 39.5t-42.5 108.5h79q0 -45 19.5 -67.5t52.5 -22.5t52.5 22.5t19.5 67.5h79q-3 -69 -42.5 -108.5t-108.5 -39.5z" />
    <glyph glyph-name="zero.numr" horiz-adv-x="379" 
d="M191 694q72 0 112.5 -55t40.5 -155q0 -51 -11.5 -89t-32.5 -63.5t-49.5 -38.5t-62.5 -13q-71 0 -112 52t-41 152t43.5 155t112.5 55zM191 644q-41 0 -61.5 -42.5t-20.5 -117.5q0 -74 21 -114.5t61 -40.5q38 0 59 40.5t21 114.5q0 75 -21 117.5t-59 42.5z" />
    <glyph glyph-name="one.numr" horiz-adv-x="236" 
d="M20 569v42q48 3 72.5 20t29.5 52h58v-392h-67v278h-93z" />
    <glyph glyph-name="two.numr" horiz-adv-x="342" 
d="M35 312q0 31 7 54.5t21.5 43t37 37t54.5 35.5q46 26 64 47.5t18 50.5q0 30 -17.5 47.5t-46.5 17.5q-34 0 -51.5 -23.5t-19.5 -66.5h-67q2 66 39.5 102.5t100.5 36.5q59 0 95 -32t36 -84q0 -22 -6.5 -40t-20 -33.5t-34 -30.5t-48.5 -32q-31 -19 -57.5 -40t-32.5 -57h201
v-54h-273v21z" />
    <glyph glyph-name="three.numr" horiz-adv-x="351" 
d="M100 418q0 -41 20 -65t55 -24t53.5 20.5t18.5 49.5q0 30 -20 48.5t-55 18.5h-25v50h20q37 0 56 17.5t19 48.5q0 29 -17 45.5t-49 16.5q-33 0 -51.5 -22t-19.5 -61h-68q3 63 40.5 98t101.5 35q59 0 95 -30.5t36 -78.5q0 -13 -4 -27t-11.5 -26.5t-20 -22.5t-28.5 -15v-3
q34 -11 51.5 -36t17.5 -60q0 -51 -38 -83t-105 -32q-64 0 -102.5 37t-38.5 101h69z" />
    <glyph glyph-name="four.numr" horiz-adv-x="359" 
d="M267 393v-102h-66v102h-179v54l144 236h101v-237h69v-53h-69zM201 446q0 44 0.5 85.5t1.5 92.5h-7q-11 -20 -23 -39t-24 -39l-62 -100h114z" />
    <glyph glyph-name="five.numr" horiz-adv-x="345" 
d="M294 683v-53h-180l-10 -104q18 16 38 21.5t47 5.5q58 0 92.5 -38t34.5 -96q0 -62 -40 -100.5t-104 -38.5q-58 0 -95.5 30t-45.5 84h68q5 -31 24 -49t49 -18q34 0 55 25.5t21 63.5q0 39 -21 63.5t-53 24.5q-52 0 -68 -55l-69 6l22 228h235z" />
    </font>
</defs>
</svg>
